<svg width="435" height="866" viewBox="0 0 435 866" fill="none" xmlns="http://www.w3.org/2000/svg">
<path d="M431.403 1.00006C194.054 1.00006 1.64532 194.413 1.64532 433C1.64532 671.587 194.054 865 431.403 865C668.752 865 861.161 671.587 861.161 433C861.161 194.413 668.752 1.00006 431.403 1.00006Z" stroke="url(#paint0_linear_2326_54595)" stroke-opacity="0.5" stroke-width="2"/>
<path d="M431.403 15.4015C201.966 15.4015 15.9705 202.367 15.9705 433.002C15.9705 663.636 201.966 850.602 431.403 850.602C660.84 850.602 846.835 663.636 846.835 433.002C846.835 202.367 660.84 15.4015 431.403 15.4015Z" stroke="url(#paint1_linear_2326_54595)" stroke-opacity="0.5" stroke-width="2"/>
<path d="M431.403 29.7992C209.878 29.7992 30.2959 210.318 30.2959 432.999C30.2959 655.68 209.878 836.199 431.403 836.199C652.929 836.199 832.51 655.68 832.51 432.999C832.51 210.318 652.929 29.7992 431.403 29.7992Z" stroke="url(#paint2_linear_2326_54595)" stroke-opacity="0.5" stroke-width="2"/>
<path d="M431.403 44.2008C217.789 44.2008 44.621 218.273 44.621 433.001C44.621 647.729 217.789 821.801 431.403 821.801C645.017 821.801 818.185 647.729 818.185 433.001C818.185 218.273 645.017 44.2008 431.403 44.2008Z" stroke="url(#paint3_linear_2326_54595)" stroke-opacity="0.5" stroke-width="2"/>
<path d="M431.403 58.5984C225.701 58.5984 58.9464 226.223 58.9464 432.998C58.9464 639.774 225.701 807.398 431.403 807.398C637.105 807.398 803.86 639.774 803.86 432.998C803.86 226.223 637.105 58.5984 431.403 58.5984Z" stroke="url(#paint4_linear_2326_54595)" stroke-opacity="0.5" stroke-width="2"/>
<path d="M431.403 73.0001C233.613 73.0001 73.2718 234.177 73.2718 433C73.2718 631.823 233.613 793 431.403 793C629.194 793 789.535 631.823 789.535 433C789.535 234.177 629.194 73.0001 431.403 73.0001Z" stroke="url(#paint5_linear_2326_54595)" stroke-opacity="0.5" stroke-width="2"/>
<path d="M431.403 87.4016C241.524 87.4016 87.597 242.132 87.597 433.002C87.597 623.871 241.524 778.602 431.403 778.602C621.282 778.602 775.209 623.871 775.209 433.002C775.209 242.132 621.282 87.4016 431.403 87.4016Z" stroke="url(#paint6_linear_2326_54595)" stroke-opacity="0.5" stroke-width="2"/>
<path d="M431.403 101.799C249.436 101.799 101.922 250.082 101.922 432.999C101.922 615.916 249.436 764.199 431.403 764.199C613.37 764.199 760.884 615.916 760.884 432.999C760.884 250.082 613.37 101.799 431.403 101.799Z" stroke="url(#paint7_linear_2326_54595)" stroke-opacity="0.5" stroke-width="2"/>
<path d="M431.403 116.201C257.347 116.201 116.247 258.037 116.247 433.001C116.247 607.965 257.347 749.801 431.403 749.801C605.459 749.801 746.559 607.965 746.559 433.001C746.559 258.037 605.459 116.201 431.403 116.201Z" stroke="url(#paint8_linear_2326_54595)" stroke-opacity="0.5" stroke-width="2"/>
<path d="M431.403 130.598C265.259 130.598 130.572 265.988 130.572 432.998C130.572 600.009 265.259 735.398 431.403 735.398C597.547 735.398 732.233 600.009 732.233 432.998C732.233 265.988 597.547 130.598 431.403 130.598Z" stroke="url(#paint9_linear_2326_54595)" stroke-opacity="0.5" stroke-width="2"/>
<path d="M431.403 145C273.171 145 144.898 273.942 144.898 433C144.898 592.058 273.171 721 431.403 721C589.635 721 717.908 592.058 717.908 433C717.908 273.942 589.635 145 431.403 145Z" stroke="url(#paint10_linear_2326_54595)" stroke-opacity="0.5" stroke-width="2"/>
<path d="M431.403 159.402C281.082 159.402 159.223 281.896 159.223 433.002C159.223 584.107 281.082 706.602 431.403 706.602C581.724 706.602 703.583 584.107 703.583 433.002C703.583 281.896 581.724 159.402 431.403 159.402Z" stroke="url(#paint11_linear_2326_54595)" stroke-opacity="0.5" stroke-width="2"/>
<path d="M431.403 173.799C288.994 173.799 173.548 289.847 173.548 432.999C173.548 576.151 288.994 692.199 431.403 692.199C573.812 692.199 689.258 576.151 689.258 432.999C689.258 289.847 573.812 173.799 431.403 173.799Z" stroke="url(#paint12_linear_2326_54595)" stroke-opacity="0.5" stroke-width="2"/>
<path d="M431.403 188.201C296.906 188.201 187.874 297.801 187.874 433.001C187.874 568.2 296.906 677.801 431.403 677.801C565.901 677.801 674.933 568.2 674.933 433.001C674.933 297.801 565.901 188.201 431.403 188.201Z" stroke="url(#paint13_linear_2326_54595)" stroke-opacity="0.5" stroke-width="2"/>
<path d="M431.403 202.598C304.817 202.598 202.199 305.752 202.199 432.998C202.199 560.245 304.817 663.398 431.403 663.398C557.989 663.398 660.607 560.245 660.607 432.998C660.607 305.752 557.989 202.598 431.403 202.598Z" stroke="url(#paint14_linear_2326_54595)" stroke-opacity="0.5" stroke-width="2"/>
<path d="M431.403 217C312.729 217 216.524 313.707 216.524 433C216.524 552.294 312.729 649 431.403 649C550.077 649 646.282 552.294 646.282 433C646.282 313.707 550.077 217 431.403 217Z" stroke="url(#paint15_linear_2326_54595)" stroke-opacity="0.5" stroke-width="2"/>
<path d="M431.403 231.402C320.64 231.402 230.849 321.661 230.849 433.002C230.849 544.342 320.64 634.602 431.403 634.602C542.166 634.602 631.957 544.342 631.957 433.002C631.957 321.661 542.166 231.402 431.403 231.402Z" stroke="url(#paint16_linear_2326_54595)" stroke-opacity="0.5" stroke-width="2"/>
<path d="M431.403 245.799C328.552 245.799 245.175 329.612 245.175 432.999C245.175 536.387 328.552 620.199 431.403 620.199C534.254 620.199 617.632 536.387 617.632 432.999C617.632 329.612 534.254 245.799 431.403 245.799Z" stroke="url(#paint17_linear_2326_54595)" stroke-opacity="0.5" stroke-width="2"/>
<path d="M431.403 260.201C336.464 260.201 259.5 337.566 259.5 433.001C259.5 528.436 336.464 605.801 431.403 605.801C526.343 605.801 603.306 528.436 603.306 433.001C603.306 337.566 526.343 260.201 431.403 260.201Z" stroke="url(#paint18_linear_2326_54595)" stroke-opacity="0.5" stroke-width="2"/>
<path d="M431.403 274.598C344.375 274.598 273.825 345.517 273.825 432.998C273.825 520.48 344.375 591.398 431.403 591.398C518.431 591.398 588.981 520.48 588.981 432.998C588.981 345.517 518.431 274.598 431.403 274.598Z" stroke="url(#paint19_linear_2326_54595)" stroke-opacity="0.5" stroke-width="2"/>
<path d="M431.403 289C352.287 289 288.151 353.471 288.151 433C288.151 512.529 352.287 577 431.403 577C510.519 577 574.656 512.529 574.656 433C574.656 353.471 510.519 289 431.403 289Z" stroke="url(#paint20_linear_2326_54595)" stroke-opacity="0.5" stroke-width="2"/>
<path d="M431.403 303.402C360.199 303.402 302.476 361.425 302.476 433.002C302.476 504.578 360.199 562.602 431.403 562.602C502.608 562.602 560.331 504.578 560.331 433.002C560.331 361.425 502.608 303.402 431.403 303.402Z" stroke="url(#paint21_linear_2326_54595)" stroke-opacity="0.5" stroke-width="2"/>
<path d="M431.403 317.799C368.11 317.799 316.801 369.376 316.801 432.999C316.801 496.622 368.11 548.199 431.403 548.199C494.696 548.199 546.005 496.622 546.005 432.999C546.005 369.376 494.696 317.799 431.403 317.799Z" stroke="url(#paint22_linear_2326_54595)" stroke-opacity="0.5" stroke-width="2"/>
<path d="M431.403 332.201C376.022 332.201 331.127 377.33 331.127 433.001C331.127 488.671 376.022 533.801 431.403 533.801C486.785 533.801 531.68 488.671 531.68 433.001C531.68 377.33 486.785 332.201 431.403 332.201Z" stroke="url(#paint23_linear_2326_54595)" stroke-opacity="0.5" stroke-width="2"/>
<path d="M431.403 346.598C383.933 346.598 345.452 385.281 345.452 432.998C345.452 480.716 383.933 519.398 431.403 519.398C478.873 519.398 517.355 480.716 517.355 432.998C517.355 385.281 478.873 346.598 431.403 346.598Z" stroke="url(#paint24_linear_2326_54595)" stroke-opacity="0.5" stroke-width="2"/>
<path d="M431.403 361C391.845 361 359.777 393.236 359.777 433C359.777 472.765 391.845 505 431.403 505C470.961 505 503.029 472.765 503.029 433C503.029 393.236 470.961 361 431.403 361Z" stroke="url(#paint25_linear_2326_54595)" stroke-opacity="0.5" stroke-width="2"/>
<path d="M431.403 375.402C399.757 375.402 374.102 401.19 374.102 433.002C374.102 464.813 399.757 490.602 431.403 490.602C463.05 490.602 488.704 464.813 488.704 433.002C488.704 401.19 463.05 375.402 431.403 375.402Z" stroke="url(#paint26_linear_2326_54595)" stroke-opacity="0.5" stroke-width="2"/>
<path d="M431.403 389.799C407.668 389.799 388.427 409.141 388.427 432.999C388.427 456.858 407.668 476.199 431.403 476.199C455.138 476.199 474.379 456.858 474.379 432.999C474.379 409.141 455.138 389.799 431.403 389.799Z" stroke="url(#paint27_linear_2326_54595)" stroke-opacity="0.5" stroke-width="2"/>
<path d="M431.403 404.201C415.58 404.201 402.752 417.095 402.752 433.001C402.752 448.907 415.58 461.801 431.403 461.801C447.226 461.801 460.053 448.907 460.053 433.001C460.053 417.095 447.226 404.201 431.403 404.201Z" stroke="url(#paint28_linear_2326_54595)" stroke-opacity="0.5" stroke-width="2"/>
<path d="M431.403 418.598C423.491 418.598 417.078 425.046 417.078 432.998C417.078 440.951 423.491 447.398 431.403 447.398C439.315 447.398 445.728 440.951 445.728 432.998C445.728 425.046 439.315 418.598 431.403 418.598Z" stroke="url(#paint29_linear_2326_54595)" stroke-opacity="0.5" stroke-width="2"/>
<defs>
<linearGradient id="paint0_linear_2326_54595" x1="-42114.6" y1="865" x2="-42114.6" y2="-85535" gradientUnits="userSpaceOnUse">
<stop offset="0.45" stop-color="#964CC3"/>
<stop offset="1" stop-color="#E03838"/>
</linearGradient>
<linearGradient id="paint1_linear_2326_54595" x1="-40696.4" y1="850.602" x2="-40696.4" y2="-82669.4" gradientUnits="userSpaceOnUse">
<stop offset="0.45" stop-color="#964CC3"/>
<stop offset="1" stop-color="#E03838"/>
</linearGradient>
<linearGradient id="paint2_linear_2326_54595" x1="-39278.2" y1="836.199" x2="-39278.2" y2="-79803.8" gradientUnits="userSpaceOnUse">
<stop offset="0.45" stop-color="#964CC3"/>
<stop offset="1" stop-color="#E03838"/>
</linearGradient>
<linearGradient id="paint3_linear_2326_54595" x1="-37860" y1="821.801" x2="-37860" y2="-76938.2" gradientUnits="userSpaceOnUse">
<stop offset="0.45" stop-color="#964CC3"/>
<stop offset="1" stop-color="#E03838"/>
</linearGradient>
<linearGradient id="paint4_linear_2326_54595" x1="-36441.8" y1="807.398" x2="-36441.8" y2="-74072.6" gradientUnits="userSpaceOnUse">
<stop offset="0.45" stop-color="#964CC3"/>
<stop offset="1" stop-color="#E03838"/>
</linearGradient>
<linearGradient id="paint5_linear_2326_54595" x1="-35023.6" y1="793" x2="-35023.6" y2="-71207" gradientUnits="userSpaceOnUse">
<stop offset="0.45" stop-color="#964CC3"/>
<stop offset="1" stop-color="#E03838"/>
</linearGradient>
<linearGradient id="paint6_linear_2326_54595" x1="-33605.4" y1="778.602" x2="-33605.4" y2="-68341.4" gradientUnits="userSpaceOnUse">
<stop offset="0.45" stop-color="#964CC3"/>
<stop offset="1" stop-color="#E03838"/>
</linearGradient>
<linearGradient id="paint7_linear_2326_54595" x1="-32187.2" y1="764.199" x2="-32187.2" y2="-65475.8" gradientUnits="userSpaceOnUse">
<stop offset="0.45" stop-color="#964CC3"/>
<stop offset="1" stop-color="#E03838"/>
</linearGradient>
<linearGradient id="paint8_linear_2326_54595" x1="-30769" y1="749.801" x2="-30769" y2="-62610.2" gradientUnits="userSpaceOnUse">
<stop offset="0.45" stop-color="#964CC3"/>
<stop offset="1" stop-color="#E03838"/>
</linearGradient>
<linearGradient id="paint9_linear_2326_54595" x1="-29350.8" y1="735.398" x2="-29350.8" y2="-59744.6" gradientUnits="userSpaceOnUse">
<stop offset="0.45" stop-color="#964CC3"/>
<stop offset="1" stop-color="#E03838"/>
</linearGradient>
<linearGradient id="paint10_linear_2326_54595" x1="-27932.6" y1="721" x2="-27932.6" y2="-56879" gradientUnits="userSpaceOnUse">
<stop offset="0.45" stop-color="#964CC3"/>
<stop offset="1" stop-color="#E03838"/>
</linearGradient>
<linearGradient id="paint11_linear_2326_54595" x1="-26514.4" y1="706.602" x2="-26514.4" y2="-54013.4" gradientUnits="userSpaceOnUse">
<stop offset="0.45" stop-color="#964CC3"/>
<stop offset="1" stop-color="#E03838"/>
</linearGradient>
<linearGradient id="paint12_linear_2326_54595" x1="-25096.2" y1="692.199" x2="-25096.2" y2="-51147.8" gradientUnits="userSpaceOnUse">
<stop offset="0.45" stop-color="#964CC3"/>
<stop offset="1" stop-color="#E03838"/>
</linearGradient>
<linearGradient id="paint13_linear_2326_54595" x1="-23678" y1="677.801" x2="-23678" y2="-48282.2" gradientUnits="userSpaceOnUse">
<stop offset="0.45" stop-color="#964CC3"/>
<stop offset="1" stop-color="#E03838"/>
</linearGradient>
<linearGradient id="paint14_linear_2326_54595" x1="-22259.8" y1="663.398" x2="-22259.8" y2="-45416.6" gradientUnits="userSpaceOnUse">
<stop offset="0.45" stop-color="#964CC3"/>
<stop offset="1" stop-color="#E03838"/>
</linearGradient>
<linearGradient id="paint15_linear_2326_54595" x1="-20841.6" y1="649" x2="-20841.6" y2="-42551" gradientUnits="userSpaceOnUse">
<stop offset="0.45" stop-color="#964CC3"/>
<stop offset="1" stop-color="#E03838"/>
</linearGradient>
<linearGradient id="paint16_linear_2326_54595" x1="-19423.4" y1="634.602" x2="-19423.4" y2="-39685.4" gradientUnits="userSpaceOnUse">
<stop offset="0.45" stop-color="#964CC3"/>
<stop offset="1" stop-color="#E03838"/>
</linearGradient>
<linearGradient id="paint17_linear_2326_54595" x1="-18005.2" y1="620.199" x2="-18005.2" y2="-36819.8" gradientUnits="userSpaceOnUse">
<stop offset="0.45" stop-color="#964CC3"/>
<stop offset="1" stop-color="#E03838"/>
</linearGradient>
<linearGradient id="paint18_linear_2326_54595" x1="-16587" y1="605.801" x2="-16587" y2="-33954.2" gradientUnits="userSpaceOnUse">
<stop offset="0.45" stop-color="#964CC3"/>
<stop offset="1" stop-color="#E03838"/>
</linearGradient>
<linearGradient id="paint19_linear_2326_54595" x1="-15168.8" y1="591.398" x2="-15168.8" y2="-31088.6" gradientUnits="userSpaceOnUse">
<stop offset="0.45" stop-color="#964CC3"/>
<stop offset="1" stop-color="#E03838"/>
</linearGradient>
<linearGradient id="paint20_linear_2326_54595" x1="-13750.6" y1="577" x2="-13750.6" y2="-28223" gradientUnits="userSpaceOnUse">
<stop offset="0.45" stop-color="#964CC3"/>
<stop offset="1" stop-color="#E03838"/>
</linearGradient>
<linearGradient id="paint21_linear_2326_54595" x1="-12332.4" y1="562.602" x2="-12332.4" y2="-25357.4" gradientUnits="userSpaceOnUse">
<stop offset="0.45" stop-color="#964CC3"/>
<stop offset="1" stop-color="#E03838"/>
</linearGradient>
<linearGradient id="paint22_linear_2326_54595" x1="-10914.2" y1="548.199" x2="-10914.2" y2="-22491.8" gradientUnits="userSpaceOnUse">
<stop offset="0.45" stop-color="#964CC3"/>
<stop offset="1" stop-color="#E03838"/>
</linearGradient>
<linearGradient id="paint23_linear_2326_54595" x1="-9496" y1="533.801" x2="-9496" y2="-19626.2" gradientUnits="userSpaceOnUse">
<stop offset="0.45" stop-color="#964CC3"/>
<stop offset="1" stop-color="#E03838"/>
</linearGradient>
<linearGradient id="paint24_linear_2326_54595" x1="-8077.8" y1="519.398" x2="-8077.8" y2="-16760.6" gradientUnits="userSpaceOnUse">
<stop offset="0.45" stop-color="#964CC3"/>
<stop offset="1" stop-color="#E03838"/>
</linearGradient>
<linearGradient id="paint25_linear_2326_54595" x1="-6659.6" y1="505" x2="-6659.6" y2="-13895" gradientUnits="userSpaceOnUse">
<stop offset="0.45" stop-color="#964CC3"/>
<stop offset="1" stop-color="#E03838"/>
</linearGradient>
<linearGradient id="paint26_linear_2326_54595" x1="-5241.4" y1="490.602" x2="-5241.4" y2="-11029.4" gradientUnits="userSpaceOnUse">
<stop offset="0.45" stop-color="#964CC3"/>
<stop offset="1" stop-color="#E03838"/>
</linearGradient>
<linearGradient id="paint27_linear_2326_54595" x1="-3823.2" y1="476.199" x2="-3823.2" y2="-8163.8" gradientUnits="userSpaceOnUse">
<stop offset="0.45" stop-color="#964CC3"/>
<stop offset="1" stop-color="#E03838"/>
</linearGradient>
<linearGradient id="paint28_linear_2326_54595" x1="-2405" y1="461.801" x2="-2405" y2="-5298.2" gradientUnits="userSpaceOnUse">
<stop offset="0.45" stop-color="#964CC3"/>
<stop offset="1" stop-color="#E03838"/>
</linearGradient>
<linearGradient id="paint29_linear_2326_54595" x1="-986.798" y1="447.398" x2="-986.798" y2="-2432.6" gradientUnits="userSpaceOnUse">
<stop offset="0.45" stop-color="#964CC3"/>
<stop offset="1" stop-color="#E03838"/>
</linearGradient>
</defs>
</svg>
