<svg width="417" height="137" viewBox="0 0 417 137" fill="none" xmlns="http://www.w3.org/2000/svg">
<g clip-path="url(#clip0_3262_5723)">
<rect width="417" height="137" rx="10" fill="white"/>
<path d="M171.856 31.428H168.592L168.052 33H166.264L169.228 24.6H171.232L174.184 33H172.396L171.856 31.428ZM171.424 30.132L170.224 26.64L169.036 30.132H171.424ZM178.169 26.256C178.977 26.256 179.653 26.452 180.197 26.844C180.741 27.236 181.105 27.792 181.289 28.512H179.465C179.361 28.256 179.201 28.056 178.985 27.912C178.769 27.76 178.497 27.684 178.169 27.684C177.681 27.684 177.297 27.864 177.017 28.224C176.745 28.576 176.609 29.06 176.609 29.676C176.609 30.292 176.745 30.78 177.017 31.14C177.297 31.492 177.681 31.668 178.169 31.668C178.505 31.668 178.777 31.6 178.985 31.464C179.193 31.328 179.353 31.116 179.465 30.828H181.289C181.097 31.524 180.725 32.076 180.173 32.484C179.629 32.892 178.961 33.096 178.169 33.096C177.537 33.096 176.973 32.956 176.477 32.676C175.981 32.396 175.593 32 175.313 31.488C175.033 30.968 174.893 30.364 174.893 29.676C174.893 28.988 175.033 28.388 175.313 27.876C175.593 27.356 175.981 26.956 176.477 26.676C176.973 26.396 177.537 26.256 178.169 26.256ZM185.364 26.256C186.172 26.256 186.848 26.452 187.392 26.844C187.936 27.236 188.3 27.792 188.484 28.512H186.66C186.556 28.256 186.396 28.056 186.18 27.912C185.964 27.76 185.692 27.684 185.364 27.684C184.876 27.684 184.492 27.864 184.212 28.224C183.94 28.576 183.804 29.06 183.804 29.676C183.804 30.292 183.94 30.78 184.212 31.14C184.492 31.492 184.876 31.668 185.364 31.668C185.7 31.668 185.972 31.6 186.18 31.464C186.388 31.328 186.548 31.116 186.66 30.828H188.484C188.292 31.524 187.92 32.076 187.368 32.484C186.824 32.892 186.156 33.096 185.364 33.096C184.732 33.096 184.168 32.956 183.672 32.676C183.176 32.396 182.788 32 182.508 31.488C182.228 30.968 182.088 30.364 182.088 29.676C182.088 28.988 182.228 28.388 182.508 27.876C182.788 27.356 183.176 26.956 183.672 26.676C184.168 26.396 184.732 26.256 185.364 26.256ZM192.728 26.256C193.36 26.256 193.936 26.396 194.456 26.676C194.976 26.956 195.388 27.356 195.692 27.876C195.996 28.388 196.148 28.984 196.148 29.664C196.148 30.344 195.996 30.944 195.692 31.464C195.388 31.984 194.972 32.388 194.444 32.676C193.924 32.956 193.344 33.096 192.704 33.096C192.072 33.096 191.496 32.956 190.976 32.676C190.456 32.388 190.044 31.984 189.74 31.464C189.444 30.944 189.296 30.344 189.296 29.664C189.296 28.984 189.448 28.388 189.752 27.876C190.056 27.356 190.468 26.956 190.988 26.676C191.508 26.396 192.088 26.256 192.728 26.256ZM192.716 27.684C192.236 27.684 191.832 27.856 191.504 28.2C191.176 28.544 191.012 29.036 191.012 29.676C191.012 30.108 191.088 30.476 191.24 30.78C191.4 31.076 191.608 31.3 191.864 31.452C192.12 31.596 192.4 31.668 192.704 31.668C193 31.668 193.28 31.592 193.544 31.44C193.808 31.288 194.02 31.064 194.18 30.768C194.348 30.464 194.432 30.1 194.432 29.676C194.432 29.244 194.352 28.88 194.192 28.584C194.032 28.28 193.82 28.056 193.556 27.912C193.3 27.76 193.02 27.684 192.716 27.684ZM203.762 26.352V33H202.07V31.992C201.862 32.344 201.578 32.616 201.218 32.808C200.866 32.992 200.458 33.084 199.994 33.084C199.506 33.084 199.066 32.976 198.674 32.76C198.29 32.536 197.986 32.212 197.762 31.788C197.538 31.356 197.426 30.844 197.426 30.252V26.352H199.106V30.012C199.106 30.532 199.238 30.932 199.502 31.212C199.766 31.492 200.126 31.632 200.582 31.632C201.038 31.632 201.398 31.492 201.662 31.212C201.934 30.932 202.07 30.532 202.07 30.012V26.352H203.762ZM209.316 26.256C209.812 26.256 210.252 26.368 210.636 26.592C211.028 26.808 211.336 27.132 211.56 27.564C211.784 27.988 211.896 28.496 211.896 29.088V33H210.216V29.328C210.216 28.808 210.084 28.412 209.82 28.14C209.556 27.86 209.196 27.72 208.74 27.72C208.284 27.72 207.92 27.86 207.648 28.14C207.384 28.412 207.252 28.808 207.252 29.328V33H205.56V26.352H207.252V27.348C207.46 26.996 207.74 26.728 208.092 26.544C208.452 26.352 208.86 26.256 209.316 26.256ZM217.018 31.584V33H215.95C215.27 33 214.746 32.844 214.378 32.532C214.01 32.22 213.826 31.704 213.826 30.984V27.732H213.118V26.352H213.826V24.708H215.518V26.352H217.006V27.732H215.518V30.984C215.518 31.2 215.57 31.356 215.674 31.452C215.778 31.54 215.958 31.584 216.214 31.584H217.018ZM227.799 30.564C227.799 31.012 227.675 31.428 227.427 31.812C227.187 32.196 226.839 32.504 226.383 32.736C225.935 32.968 225.411 33.084 224.811 33.084C223.891 33.084 223.151 32.872 222.591 32.448C222.031 32.016 221.751 31.412 221.751 30.636H223.551C223.583 30.996 223.703 31.272 223.911 31.464C224.127 31.648 224.427 31.74 224.811 31.74C225.195 31.74 225.499 31.64 225.723 31.44C225.947 31.24 226.059 30.98 226.059 30.66C226.059 30.404 225.979 30.196 225.819 30.036C225.667 29.876 225.475 29.752 225.243 29.664C225.019 29.576 224.699 29.476 224.283 29.364C223.747 29.228 223.311 29.088 222.975 28.944C222.639 28.8 222.351 28.576 222.111 28.272C221.871 27.96 221.751 27.54 221.751 27.012C221.751 26.508 221.875 26.068 222.123 25.692C222.379 25.308 222.731 25.016 223.179 24.816C223.627 24.608 224.135 24.504 224.703 24.504C225.575 24.504 226.275 24.704 226.803 25.104C227.331 25.496 227.619 26.096 227.667 26.904H225.819C225.787 26.584 225.667 26.332 225.459 26.148C225.251 25.956 224.983 25.86 224.655 25.86C224.311 25.86 224.031 25.948 223.815 26.124C223.607 26.292 223.503 26.552 223.503 26.904C223.503 27.168 223.579 27.384 223.731 27.552C223.891 27.712 224.087 27.836 224.319 27.924C224.551 28.012 224.871 28.108 225.279 28.212C225.815 28.348 226.251 28.488 226.587 28.632C226.923 28.776 227.207 29.004 227.439 29.316C227.679 29.62 227.799 30.036 227.799 30.564ZM235.576 29.58C235.576 29.812 235.56 30.028 235.528 30.228H230.68C230.72 30.66 230.88 31.008 231.16 31.272C231.44 31.536 231.796 31.668 232.228 31.668C232.564 31.668 232.832 31.604 233.032 31.476C233.232 31.348 233.396 31.172 233.524 30.948H235.348C235.156 31.58 234.784 32.096 234.232 32.496C233.68 32.896 233.012 33.096 232.228 33.096C231.596 33.096 231.032 32.956 230.536 32.676C230.04 32.388 229.652 31.988 229.372 31.476C229.092 30.956 228.952 30.352 228.952 29.664C228.952 28.976 229.092 28.376 229.372 27.864C229.652 27.352 230.04 26.956 230.536 26.676C231.04 26.396 231.612 26.256 232.252 26.256C232.892 26.256 233.46 26.392 233.956 26.664C234.46 26.936 234.856 27.324 235.144 27.828C235.432 28.324 235.576 28.908 235.576 29.58ZM233.824 29.136C233.8 28.696 233.636 28.344 233.332 28.08C233.036 27.816 232.668 27.684 232.228 27.684C231.82 27.684 231.472 27.816 231.184 28.08C230.904 28.344 230.736 28.696 230.68 29.136H233.824ZM239.716 26.256C240.524 26.256 241.2 26.452 241.744 26.844C242.288 27.236 242.652 27.792 242.836 28.512H241.012C240.908 28.256 240.748 28.056 240.532 27.912C240.316 27.76 240.044 27.684 239.716 27.684C239.228 27.684 238.844 27.864 238.564 28.224C238.292 28.576 238.156 29.06 238.156 29.676C238.156 30.292 238.292 30.78 238.564 31.14C238.844 31.492 239.228 31.668 239.716 31.668C240.052 31.668 240.324 31.6 240.532 31.464C240.74 31.328 240.9 31.116 241.012 30.828H242.836C242.644 31.524 242.272 32.076 241.72 32.484C241.176 32.892 240.508 33.096 239.716 33.096C239.084 33.096 238.52 32.956 238.024 32.676C237.528 32.396 237.14 32 236.86 31.488C236.58 30.968 236.44 30.364 236.44 29.676C236.44 28.988 236.58 28.388 236.86 27.876C237.14 27.356 237.528 26.956 238.024 26.676C238.52 26.396 239.084 26.256 239.716 26.256ZM250.379 26.352V33H248.687V31.992C248.479 32.344 248.195 32.616 247.835 32.808C247.483 32.992 247.075 33.084 246.611 33.084C246.123 33.084 245.683 32.976 245.291 32.76C244.907 32.536 244.603 32.212 244.379 31.788C244.155 31.356 244.043 30.844 244.043 30.252V26.352H245.723V30.012C245.723 30.532 245.855 30.932 246.119 31.212C246.383 31.492 246.743 31.632 247.199 31.632C247.655 31.632 248.015 31.492 248.279 31.212C248.551 30.932 248.687 30.532 248.687 30.012V26.352H250.379ZM253.869 27.528C254.077 27.128 254.345 26.816 254.673 26.592C255.009 26.368 255.389 26.256 255.813 26.256V27.984H255.393C254.889 27.984 254.509 28.112 254.253 28.368C253.997 28.616 253.869 29.048 253.869 29.664V33H252.177V26.352H253.869V27.528ZM256.837 24.66C256.837 24.372 256.937 24.128 257.137 23.928C257.337 23.728 257.577 23.628 257.857 23.628C258.145 23.628 258.389 23.728 258.589 23.928C258.789 24.128 258.889 24.372 258.889 24.66C258.889 24.948 258.789 25.192 258.589 25.392C258.389 25.592 258.145 25.692 257.857 25.692C257.577 25.692 257.337 25.592 257.137 25.392C256.937 25.192 256.837 24.948 256.837 24.66ZM258.709 26.352V33H257.017V26.352H258.709ZM263.893 31.584V33H262.825C262.145 33 261.621 32.844 261.253 32.532C260.885 32.22 260.701 31.704 260.701 30.984V27.732H259.993V26.352H260.701V24.708H262.393V26.352H263.881V27.732H262.393V30.984C262.393 31.2 262.445 31.356 262.549 31.452C262.653 31.54 262.833 31.584 263.089 31.584H263.893ZM266.289 26.352L267.981 31.08L269.769 26.352H271.533L267.381 36.144H265.617L266.997 32.88L264.393 26.352H266.289Z" fill="#320051"/>
<path d="M172.256 47.456V53H171.52V48.96L169.664 53H169.192L167.328 48.96V53H166.6V47.456H167.344L169.432 52L171.512 47.456H172.256ZM175.267 48.536C175.641 48.536 175.966 48.624 176.243 48.8C176.526 48.976 176.739 49.2053 176.883 49.488V48.608H177.619V53H176.883V52.104C176.739 52.392 176.526 52.6267 176.243 52.808C175.966 52.984 175.641 53.072 175.267 53.072C174.873 53.072 174.515 52.976 174.195 52.784C173.881 52.5867 173.63 52.3147 173.443 51.968C173.262 51.616 173.171 51.2187 173.171 50.776C173.171 50.3333 173.262 49.944 173.443 49.608C173.63 49.2667 173.881 49.0027 174.195 48.816C174.515 48.6293 174.873 48.536 175.267 48.536ZM175.395 49.168C175.134 49.168 174.889 49.232 174.659 49.36C174.435 49.488 174.254 49.6747 174.115 49.92C173.982 50.16 173.915 50.4453 173.915 50.776C173.915 51.1067 173.982 51.4 174.115 51.656C174.254 51.9067 174.435 52.1013 174.659 52.24C174.889 52.3787 175.134 52.448 175.395 52.448C175.662 52.448 175.907 52.3813 176.131 52.248C176.361 52.1147 176.542 51.9253 176.675 51.68C176.814 51.4293 176.883 51.1387 176.883 50.808C176.883 50.4773 176.814 50.1893 176.675 49.944C176.542 49.6933 176.361 49.5013 176.131 49.368C175.907 49.2347 175.662 49.168 175.395 49.168ZM180.979 48.536C181.293 48.536 181.579 48.608 181.835 48.752C182.096 48.8907 182.301 49.1013 182.451 49.384C182.605 49.6613 182.683 50 182.683 50.4V53H181.963V50.52C181.963 50.0773 181.856 49.7413 181.643 49.512C181.429 49.2827 181.133 49.168 180.755 49.168C180.381 49.168 180.085 49.2827 179.867 49.512C179.653 49.7413 179.547 50.0773 179.547 50.52V53H178.819V48.608H179.547V49.32C179.691 49.064 179.888 48.8693 180.139 48.736C180.389 48.6027 180.669 48.536 180.979 48.536ZM185.65 48.536C186.024 48.536 186.349 48.624 186.626 48.8C186.909 48.976 187.122 49.2053 187.266 49.488V48.608H188.002V53H187.266V52.104C187.122 52.392 186.909 52.6267 186.626 52.808C186.349 52.984 186.024 53.072 185.65 53.072C185.256 53.072 184.898 52.976 184.578 52.784C184.264 52.5867 184.013 52.3147 183.826 51.968C183.645 51.616 183.554 51.2187 183.554 50.776C183.554 50.3333 183.645 49.944 183.826 49.608C184.013 49.2667 184.264 49.0027 184.578 48.816C184.898 48.6293 185.256 48.536 185.65 48.536ZM185.778 49.168C185.517 49.168 185.272 49.232 185.042 49.36C184.818 49.488 184.637 49.6747 184.498 49.92C184.365 50.16 184.298 50.4453 184.298 50.776C184.298 51.1067 184.365 51.4 184.498 51.656C184.637 51.9067 184.818 52.1013 185.042 52.24C185.272 52.3787 185.517 52.448 185.778 52.448C186.045 52.448 186.29 52.3813 186.514 52.248C186.744 52.1147 186.925 51.9253 187.058 51.68C187.197 51.4293 187.266 51.1387 187.266 50.808C187.266 50.4773 187.197 50.1893 187.058 49.944C186.925 49.6933 186.744 49.5013 186.514 49.368C186.29 49.2347 186.045 49.168 185.778 49.168ZM191.01 48.536C191.383 48.536 191.708 48.624 191.986 48.8C192.268 48.976 192.482 49.2053 192.626 49.488V48.608H193.362V53.112C193.362 53.512 193.274 53.8667 193.098 54.176C192.922 54.4853 192.674 54.7253 192.354 54.896C192.034 55.072 191.663 55.16 191.242 55.16C190.874 55.16 190.538 55.096 190.234 54.968C189.93 54.8453 189.682 54.6693 189.49 54.44C189.298 54.2107 189.183 53.9493 189.146 53.656H189.858C189.927 53.9067 190.09 54.1147 190.346 54.28C190.602 54.4453 190.9 54.528 191.242 54.528C191.658 54.528 191.991 54.4027 192.242 54.152C192.498 53.9067 192.626 53.56 192.626 53.112V52.104C192.482 52.392 192.268 52.6267 191.986 52.808C191.708 52.984 191.383 53.072 191.01 53.072C190.615 53.072 190.258 52.976 189.938 52.784C189.623 52.5867 189.372 52.3147 189.186 51.968C189.004 51.616 188.914 51.2187 188.914 50.776C188.914 50.3333 189.004 49.944 189.186 49.608C189.372 49.2667 189.623 49.0027 189.938 48.816C190.258 48.6293 190.615 48.536 191.01 48.536ZM191.138 49.168C190.876 49.168 190.631 49.232 190.402 49.36C190.178 49.488 189.996 49.6747 189.858 49.92C189.724 50.16 189.658 50.4453 189.658 50.776C189.658 51.1067 189.724 51.4 189.858 51.656C189.996 51.9067 190.178 52.1013 190.402 52.24C190.631 52.3787 190.876 52.448 191.138 52.448C191.404 52.448 191.65 52.3813 191.874 52.248C192.103 52.1147 192.284 51.9253 192.418 51.68C192.556 51.4293 192.626 51.1387 192.626 50.808C192.626 50.4773 192.556 50.1893 192.418 49.944C192.284 49.6933 192.103 49.5013 191.874 49.368C191.65 49.2347 191.404 49.168 191.138 49.168ZM198.545 50.624C198.545 50.7787 198.534 50.9227 198.513 51.056H195.017C195.038 51.4933 195.174 51.84 195.425 52.096C195.681 52.3467 196.006 52.472 196.401 52.472C196.7 52.472 196.95 52.4053 197.153 52.272C197.361 52.1387 197.513 51.9627 197.609 51.744H198.393C198.254 52.128 198.014 52.4453 197.673 52.696C197.337 52.9467 196.913 53.072 196.401 53.072C195.99 53.072 195.622 52.9787 195.297 52.792C194.977 52.6053 194.726 52.3413 194.545 52C194.364 51.6533 194.273 51.256 194.273 50.808C194.273 50.3547 194.364 49.9573 194.545 49.616C194.726 49.2693 194.982 49.0027 195.313 48.816C195.644 48.6293 196.025 48.536 196.457 48.536C196.868 48.536 197.23 48.6267 197.545 48.808C197.86 48.9893 198.105 49.2373 198.281 49.552C198.457 49.8667 198.545 50.224 198.545 50.624ZM197.785 50.528C197.785 50.2453 197.724 50 197.601 49.792C197.478 49.5787 197.31 49.416 197.097 49.304C196.889 49.192 196.657 49.136 196.401 49.136C196.022 49.136 195.705 49.2613 195.449 49.512C195.193 49.7573 195.052 50.096 195.025 50.528H197.785ZM202.146 48.608L203.49 52.16L204.858 48.608H205.61L202.962 55.056H202.21L203.082 52.928L201.346 48.608H202.146ZM208.231 48.536C208.647 48.536 209.023 48.6293 209.359 48.816C209.695 49.0027 209.959 49.2693 210.151 49.616C210.348 49.9627 210.447 50.36 210.447 50.808C210.447 51.2507 210.346 51.6453 210.143 51.992C209.94 52.3333 209.666 52.6 209.319 52.792C208.972 52.9787 208.588 53.072 208.167 53.072C207.756 53.072 207.386 52.9787 207.055 52.792C206.73 52.6053 206.474 52.3413 206.287 52C206.106 51.6533 206.015 51.256 206.015 50.808C206.015 50.3547 206.111 49.9573 206.303 49.616C206.5 49.2693 206.767 49.0027 207.103 48.816C207.439 48.6293 207.815 48.536 208.231 48.536ZM208.207 49.136C207.94 49.136 207.698 49.2 207.479 49.328C207.26 49.456 207.084 49.6453 206.951 49.896C206.823 50.1467 206.759 50.4507 206.759 50.808C206.759 51.16 206.82 51.4613 206.943 51.712C207.071 51.9627 207.242 52.152 207.455 52.28C207.668 52.408 207.906 52.472 208.167 52.472C208.434 52.472 208.682 52.408 208.911 52.28C209.146 52.1467 209.335 51.9547 209.479 51.704C209.623 51.4533 209.695 51.1547 209.695 50.808C209.695 50.456 209.626 50.1547 209.487 49.904C209.354 49.648 209.172 49.456 208.943 49.328C208.719 49.2 208.474 49.136 208.207 49.136ZM215.182 48.608V53H214.454V52.296C214.31 52.552 214.112 52.7467 213.862 52.88C213.611 53.008 213.331 53.072 213.022 53.072C212.707 53.072 212.419 53.0027 212.158 52.864C211.902 52.72 211.696 52.5093 211.542 52.232C211.392 51.9547 211.318 51.616 211.318 51.216V48.608H212.038V51.096C212.038 51.5333 212.144 51.8693 212.358 52.104C212.576 52.3333 212.872 52.448 213.246 52.448C213.619 52.448 213.912 52.3333 214.126 52.104C214.344 51.8693 214.454 51.5333 214.454 51.096V48.608H215.182ZM217.109 49.352C217.371 48.808 217.816 48.536 218.445 48.536V49.296H218.253C217.88 49.296 217.595 49.3947 217.397 49.592C217.205 49.784 217.109 50.12 217.109 50.6V53H216.381V48.608H217.109V49.352ZM222.453 47.08V53H221.725V47.08H222.453ZM225.583 48.536C225.999 48.536 226.375 48.6293 226.711 48.816C227.047 49.0027 227.311 49.2693 227.503 49.616C227.7 49.9627 227.799 50.36 227.799 50.808C227.799 51.2507 227.697 51.6453 227.495 51.992C227.292 52.3333 227.017 52.6 226.671 52.792C226.324 52.9787 225.94 53.072 225.519 53.072C225.108 53.072 224.737 52.9787 224.407 52.792C224.081 52.6053 223.825 52.3413 223.639 52C223.457 51.6533 223.367 51.256 223.367 50.808C223.367 50.3547 223.463 49.9573 223.655 49.616C223.852 49.2693 224.119 49.0027 224.455 48.816C224.791 48.6293 225.167 48.536 225.583 48.536ZM225.559 49.136C225.292 49.136 225.049 49.2 224.831 49.328C224.612 49.456 224.436 49.6453 224.303 49.896C224.175 50.1467 224.111 50.4507 224.111 50.808C224.111 51.16 224.172 51.4613 224.295 51.712C224.423 51.9627 224.593 52.152 224.807 52.28C225.02 52.408 225.257 52.472 225.519 52.472C225.785 52.472 226.033 52.408 226.263 52.28C226.497 52.1467 226.687 51.9547 226.831 51.704C226.975 51.4533 227.047 51.1547 227.047 50.808C227.047 50.456 226.977 50.1547 226.839 49.904C226.705 49.648 226.524 49.456 226.295 49.328C226.071 49.2 225.825 49.136 225.559 49.136ZM230.517 48.536C230.891 48.536 231.216 48.624 231.493 48.8C231.776 48.976 231.989 49.2053 232.133 49.488V48.608H232.869V53.112C232.869 53.512 232.781 53.8667 232.605 54.176C232.429 54.4853 232.181 54.7253 231.861 54.896C231.541 55.072 231.171 55.16 230.749 55.16C230.381 55.16 230.045 55.096 229.741 54.968C229.437 54.8453 229.189 54.6693 228.997 54.44C228.805 54.2107 228.691 53.9493 228.653 53.656H229.365C229.435 53.9067 229.597 54.1147 229.853 54.28C230.109 54.4453 230.408 54.528 230.749 54.528C231.165 54.528 231.499 54.4027 231.749 54.152C232.005 53.9067 232.133 53.56 232.133 53.112V52.104C231.989 52.392 231.776 52.6267 231.493 52.808C231.216 52.984 230.891 53.072 230.517 53.072C230.123 53.072 229.765 52.976 229.445 52.784C229.131 52.5867 228.88 52.3147 228.693 51.968C228.512 51.616 228.421 51.2187 228.421 50.776C228.421 50.3333 228.512 49.944 228.693 49.608C228.88 49.2667 229.131 49.0027 229.445 48.816C229.765 48.6293 230.123 48.536 230.517 48.536ZM230.645 49.168C230.384 49.168 230.139 49.232 229.909 49.36C229.685 49.488 229.504 49.6747 229.365 49.92C229.232 50.16 229.165 50.4453 229.165 50.776C229.165 51.1067 229.232 51.4 229.365 51.656C229.504 51.9067 229.685 52.1013 229.909 52.24C230.139 52.3787 230.384 52.448 230.645 52.448C230.912 52.448 231.157 52.3813 231.381 52.248C231.611 52.1147 231.792 51.9253 231.925 51.68C232.064 51.4293 232.133 51.1387 232.133 50.808C232.133 50.4773 232.064 50.1893 231.925 49.944C231.792 49.6933 231.611 49.5013 231.381 49.368C231.157 49.2347 230.912 49.168 230.645 49.168ZM233.949 47.408C233.949 47.2693 233.997 47.152 234.093 47.056C234.189 46.96 234.303 46.912 234.437 46.912C234.575 46.912 234.693 46.96 234.789 47.056C234.885 47.152 234.933 47.2693 234.933 47.408C234.933 47.5467 234.885 47.664 234.789 47.76C234.693 47.856 234.575 47.904 234.437 47.904C234.298 47.904 234.181 47.856 234.085 47.76C233.994 47.664 233.949 47.5467 233.949 47.408ZM234.797 48.608V53H234.069V48.608H234.797ZM238.158 48.536C238.473 48.536 238.758 48.608 239.014 48.752C239.276 48.8907 239.481 49.1013 239.63 49.384C239.785 49.6613 239.862 50 239.862 50.4V53H239.142V50.52C239.142 50.0773 239.036 49.7413 238.822 49.512C238.609 49.2827 238.313 49.168 237.934 49.168C237.561 49.168 237.265 49.2827 237.046 49.512C236.833 49.7413 236.726 50.0773 236.726 50.52V53H235.998V48.608H236.726V49.32C236.87 49.064 237.068 48.8693 237.318 48.736C237.569 48.6027 237.849 48.536 238.158 48.536ZM245.26 48.536C245.788 48.536 246.218 48.6587 246.548 48.904C246.884 49.1493 247.119 49.4987 247.252 49.952H246.468C246.383 49.696 246.236 49.496 246.028 49.352C245.82 49.208 245.564 49.136 245.26 49.136C244.844 49.136 244.508 49.2827 244.252 49.576C244.002 49.864 243.876 50.2747 243.876 50.808C243.876 51.336 244.002 51.7467 244.252 52.04C244.508 52.328 244.844 52.472 245.26 52.472C245.57 52.472 245.826 52.4027 246.028 52.264C246.231 52.1253 246.378 51.9227 246.468 51.656H247.252C247.119 52.088 246.882 52.432 246.54 52.688C246.204 52.944 245.778 53.072 245.26 53.072C244.85 53.072 244.482 52.9787 244.156 52.792C243.836 52.6053 243.586 52.3413 243.404 52C243.223 51.6533 243.132 51.256 243.132 50.808C243.132 50.3547 243.223 49.9573 243.404 49.616C243.586 49.2693 243.836 49.0027 244.156 48.816C244.476 48.6293 244.844 48.536 245.26 48.536ZM248.945 49.352C249.207 48.808 249.652 48.536 250.281 48.536V49.296H250.089C249.716 49.296 249.431 49.3947 249.233 49.592C249.041 49.784 248.945 50.12 248.945 50.6V53H248.217V48.608H248.945V49.352ZM255.147 50.624C255.147 50.7787 255.136 50.9227 255.115 51.056H251.618C251.64 51.4933 251.776 51.84 252.027 52.096C252.283 52.3467 252.608 52.472 253.003 52.472C253.301 52.472 253.552 52.4053 253.755 52.272C253.963 52.1387 254.115 51.9627 254.211 51.744H254.995C254.856 52.128 254.616 52.4453 254.275 52.696C253.939 52.9467 253.515 53.072 253.003 53.072C252.592 53.072 252.224 52.9787 251.899 52.792C251.579 52.6053 251.328 52.3413 251.147 52C250.965 51.6533 250.875 51.256 250.875 50.808C250.875 50.3547 250.965 49.9573 251.147 49.616C251.328 49.2693 251.584 49.0027 251.915 48.816C252.245 48.6293 252.627 48.536 253.059 48.536C253.469 48.536 253.832 48.6267 254.147 48.808C254.461 48.9893 254.707 49.2373 254.883 49.552C255.059 49.8667 255.147 50.224 255.147 50.624ZM254.387 50.528C254.387 50.2453 254.325 50 254.203 49.792C254.08 49.5787 253.912 49.416 253.699 49.304C253.491 49.192 253.259 49.136 253.003 49.136C252.624 49.136 252.307 49.2613 252.051 49.512C251.795 49.7573 251.653 50.096 251.627 50.528H254.387ZM257.861 48.536C258.234 48.536 258.56 48.624 258.837 48.8C259.12 48.976 259.333 49.2053 259.477 49.488V47.08H260.213V53H259.477V52.104C259.333 52.392 259.12 52.6267 258.837 52.808C258.56 52.984 258.234 53.072 257.861 53.072C257.466 53.072 257.109 52.976 256.789 52.784C256.474 52.5867 256.224 52.3147 256.037 51.968C255.856 51.616 255.765 51.2187 255.765 50.776C255.765 50.3333 255.856 49.944 256.037 49.608C256.224 49.2667 256.474 49.0027 256.789 48.816C257.109 48.6293 257.466 48.536 257.861 48.536ZM257.989 49.168C257.728 49.168 257.482 49.232 257.253 49.36C257.029 49.488 256.848 49.6747 256.709 49.92C256.576 50.16 256.509 50.4453 256.509 50.776C256.509 51.1067 256.576 51.4 256.709 51.656C256.848 51.9067 257.029 52.1013 257.253 52.24C257.482 52.3787 257.728 52.448 257.989 52.448C258.256 52.448 258.501 52.3813 258.725 52.248C258.954 52.1147 259.136 51.9253 259.269 51.68C259.408 51.4293 259.477 51.1387 259.477 50.808C259.477 50.4773 259.408 50.1893 259.269 49.944C259.136 49.6933 258.954 49.5013 258.725 49.368C258.501 49.2347 258.256 49.168 257.989 49.168ZM265.397 50.624C265.397 50.7787 265.386 50.9227 265.365 51.056H261.868C261.89 51.4933 262.026 51.84 262.277 52.096C262.533 52.3467 262.858 52.472 263.253 52.472C263.551 52.472 263.802 52.4053 264.005 52.272C264.213 52.1387 264.365 51.9627 264.461 51.744H265.245C265.106 52.128 264.866 52.4453 264.525 52.696C264.189 52.9467 263.765 53.072 263.253 53.072C262.842 53.072 262.474 52.9787 262.149 52.792C261.829 52.6053 261.578 52.3413 261.397 52C261.215 51.6533 261.125 51.256 261.125 50.808C261.125 50.3547 261.215 49.9573 261.397 49.616C261.578 49.2693 261.834 49.0027 262.165 48.816C262.495 48.6293 262.877 48.536 263.309 48.536C263.719 48.536 264.082 48.6267 264.397 48.808C264.711 48.9893 264.957 49.2373 265.133 49.552C265.309 49.8667 265.397 50.224 265.397 50.624ZM264.637 50.528C264.637 50.2453 264.575 50 264.453 49.792C264.33 49.5787 264.162 49.416 263.949 49.304C263.741 49.192 263.509 49.136 263.253 49.136C262.874 49.136 262.557 49.2613 262.301 49.512C262.045 49.7573 261.903 50.096 261.877 50.528H264.637ZM268.463 48.536C268.778 48.536 269.063 48.608 269.319 48.752C269.58 48.8907 269.786 49.1013 269.935 49.384C270.09 49.6613 270.167 50 270.167 50.4V53H269.447V50.52C269.447 50.0773 269.34 49.7413 269.127 49.512C268.914 49.2827 268.618 49.168 268.239 49.168C267.866 49.168 267.57 49.2827 267.351 49.512C267.138 49.7413 267.031 50.0773 267.031 50.52V53H266.303V48.608H267.031V49.32C267.175 49.064 267.372 48.8693 267.623 48.736C267.874 48.6027 268.154 48.536 268.463 48.536ZM273.367 52.408V53H272.631C272.257 53 271.972 52.9093 271.775 52.728C271.583 52.5467 271.487 52.2613 271.487 51.872V49.2H270.919V48.608H271.487V47.52H272.223V48.608H273.359V49.2H272.223V51.872C272.223 52.0693 272.263 52.208 272.343 52.288C272.423 52.368 272.564 52.408 272.767 52.408H273.367ZM274.05 47.408C274.05 47.2693 274.098 47.152 274.194 47.056C274.29 46.96 274.405 46.912 274.538 46.912C274.677 46.912 274.794 46.96 274.89 47.056C274.986 47.152 275.034 47.2693 275.034 47.408C275.034 47.5467 274.986 47.664 274.89 47.76C274.794 47.856 274.677 47.904 274.538 47.904C274.4 47.904 274.282 47.856 274.186 47.76C274.096 47.664 274.05 47.5467 274.05 47.408ZM274.898 48.608V53H274.17V48.608H274.898ZM277.908 48.536C278.281 48.536 278.607 48.624 278.884 48.8C279.167 48.976 279.38 49.2053 279.524 49.488V48.608H280.26V53H279.524V52.104C279.38 52.392 279.167 52.6267 278.884 52.808C278.607 52.984 278.281 53.072 277.908 53.072C277.513 53.072 277.156 52.976 276.836 52.784C276.521 52.5867 276.271 52.3147 276.084 51.968C275.903 51.616 275.812 51.2187 275.812 50.776C275.812 50.3333 275.903 49.944 276.084 49.608C276.271 49.2667 276.521 49.0027 276.836 48.816C277.156 48.6293 277.513 48.536 277.908 48.536ZM278.036 49.168C277.775 49.168 277.529 49.232 277.3 49.36C277.076 49.488 276.895 49.6747 276.756 49.92C276.623 50.16 276.556 50.4453 276.556 50.776C276.556 51.1067 276.623 51.4 276.756 51.656C276.895 51.9067 277.076 52.1013 277.3 52.24C277.529 52.3787 277.775 52.448 278.036 52.448C278.303 52.448 278.548 52.3813 278.772 52.248C279.001 52.1147 279.183 51.9253 279.316 51.68C279.455 51.4293 279.524 51.1387 279.524 50.808C279.524 50.4773 279.455 50.1893 279.316 49.944C279.183 49.6933 279.001 49.5013 278.772 49.368C278.548 49.2347 278.303 49.168 278.036 49.168ZM282.187 47.08V53H281.459V47.08H282.187ZM284.901 48.536C285.376 48.536 285.752 48.6613 286.029 48.912C286.306 49.1573 286.458 49.496 286.485 49.928H285.733C285.722 49.6827 285.64 49.4853 285.485 49.336C285.33 49.1867 285.117 49.112 284.845 49.112C284.568 49.112 284.349 49.1787 284.189 49.312C284.034 49.44 283.957 49.6027 283.957 49.8C283.957 49.9653 284.005 50.0987 284.101 50.2C284.202 50.296 284.325 50.368 284.469 50.416C284.618 50.464 284.818 50.5147 285.069 50.568C285.389 50.6427 285.645 50.7173 285.837 50.792C286.034 50.8613 286.202 50.9813 286.341 51.152C286.48 51.3173 286.549 51.544 286.549 51.832C286.549 52.072 286.48 52.288 286.341 52.48C286.202 52.6667 286.008 52.8133 285.757 52.92C285.506 53.0213 285.218 53.072 284.893 53.072C284.402 53.072 284.008 52.9493 283.709 52.704C283.416 52.4587 283.256 52.12 283.229 51.688H283.981C283.992 51.9333 284.077 52.1307 284.237 52.28C284.402 52.424 284.621 52.496 284.893 52.496C285.192 52.496 285.421 52.4347 285.581 52.312C285.746 52.1893 285.829 52.0267 285.829 51.824C285.829 51.6587 285.778 51.528 285.677 51.432C285.581 51.3307 285.458 51.256 285.309 51.208C285.16 51.1547 284.954 51.0987 284.693 51.04C284.378 50.9707 284.122 50.9013 283.925 50.832C283.733 50.7573 283.568 50.6427 283.429 50.488C283.296 50.3333 283.229 50.12 283.229 49.848C283.229 49.608 283.296 49.3893 283.429 49.192C283.568 48.9893 283.762 48.8293 284.013 48.712C284.269 48.5947 284.565 48.536 284.901 48.536ZM288.056 52.464C288.125 52.7467 288.16 53.0053 288.16 53.24C288.16 53.8427 287.885 54.144 287.336 54.144V53.792C287.469 53.792 287.565 53.76 287.624 53.696C287.688 53.632 287.72 53.5307 287.72 53.392V53.208H287.312V52.464H288.056ZM291.363 47.408C291.363 47.2693 291.411 47.152 291.507 47.056C291.603 46.96 291.717 46.912 291.851 46.912C291.989 46.912 292.107 46.96 292.203 47.056C292.299 47.152 292.347 47.2693 292.347 47.408C292.347 47.5467 292.299 47.664 292.203 47.76C292.107 47.856 291.989 47.904 291.851 47.904C291.712 47.904 291.595 47.856 291.499 47.76C291.408 47.664 291.363 47.5467 291.363 47.408ZM292.211 48.608V53H291.483V48.608H292.211ZM295.573 48.536C295.887 48.536 296.173 48.608 296.429 48.752C296.69 48.8907 296.895 49.1013 297.045 49.384C297.199 49.6613 297.277 50 297.277 50.4V53H296.557V50.52C296.557 50.0773 296.45 49.7413 296.237 49.512C296.023 49.2827 295.727 49.168 295.349 49.168C294.975 49.168 294.679 49.2827 294.461 49.512C294.247 49.7413 294.141 50.0773 294.141 50.52V53H293.413V48.608H294.141V49.32C294.285 49.064 294.482 48.8693 294.733 48.736C294.983 48.6027 295.263 48.536 295.573 48.536ZM300.276 48.536C300.804 48.536 301.233 48.6587 301.564 48.904C301.9 49.1493 302.135 49.4987 302.268 49.952H301.484C301.399 49.696 301.252 49.496 301.044 49.352C300.836 49.208 300.58 49.136 300.276 49.136C299.86 49.136 299.524 49.2827 299.268 49.576C299.017 49.864 298.892 50.2747 298.892 50.808C298.892 51.336 299.017 51.7467 299.268 52.04C299.524 52.328 299.86 52.472 300.276 52.472C300.585 52.472 300.841 52.4027 301.044 52.264C301.247 52.1253 301.393 51.9227 301.484 51.656H302.268C302.135 52.088 301.897 52.432 301.556 52.688C301.22 52.944 300.793 53.072 300.276 53.072C299.865 53.072 299.497 52.9787 299.172 52.792C298.852 52.6053 298.601 52.3413 298.42 52C298.239 51.6533 298.148 51.256 298.148 50.808C298.148 50.3547 298.239 49.9573 298.42 49.616C298.601 49.2693 298.852 49.0027 299.172 48.816C299.492 48.6293 299.86 48.536 300.276 48.536ZM303.961 47.08V53H303.233V47.08H303.961ZM308.987 48.608V53H308.259V52.296C308.115 52.552 307.917 52.7467 307.667 52.88C307.416 53.008 307.136 53.072 306.827 53.072C306.512 53.072 306.224 53.0027 305.963 52.864C305.707 52.72 305.501 52.5093 305.347 52.232C305.197 51.9547 305.123 51.616 305.123 51.216V48.608H305.843V51.096C305.843 51.5333 305.949 51.8693 306.163 52.104C306.381 52.3333 306.677 52.448 307.051 52.448C307.424 52.448 307.717 52.3333 307.931 52.104C308.149 51.8693 308.259 51.5333 308.259 51.096V48.608H308.987ZM311.994 48.536C312.367 48.536 312.693 48.624 312.97 48.8C313.253 48.976 313.466 49.2053 313.61 49.488V47.08H314.346V53H313.61V52.104C313.466 52.392 313.253 52.6267 312.97 52.808C312.693 52.984 312.367 53.072 311.994 53.072C311.599 53.072 311.242 52.976 310.922 52.784C310.607 52.5867 310.357 52.3147 310.17 51.968C309.989 51.616 309.898 51.2187 309.898 50.776C309.898 50.3333 309.989 49.944 310.17 49.608C310.357 49.2667 310.607 49.0027 310.922 48.816C311.242 48.6293 311.599 48.536 311.994 48.536ZM312.122 49.168C311.861 49.168 311.615 49.232 311.386 49.36C311.162 49.488 310.981 49.6747 310.842 49.92C310.709 50.16 310.642 50.4453 310.642 50.776C310.642 51.1067 310.709 51.4 310.842 51.656C310.981 51.9067 311.162 52.1013 311.386 52.24C311.615 52.3787 311.861 52.448 312.122 52.448C312.389 52.448 312.634 52.3813 312.858 52.248C313.087 52.1147 313.269 51.9253 313.402 51.68C313.541 51.4293 313.61 51.1387 313.61 50.808C313.61 50.4773 313.541 50.1893 313.402 49.944C313.269 49.6933 313.087 49.5013 312.858 49.368C312.634 49.2347 312.389 49.168 312.122 49.168ZM315.425 47.408C315.425 47.2693 315.473 47.152 315.569 47.056C315.665 46.96 315.78 46.912 315.913 46.912C316.052 46.912 316.169 46.96 316.265 47.056C316.361 47.152 316.409 47.2693 316.409 47.408C316.409 47.5467 316.361 47.664 316.265 47.76C316.169 47.856 316.052 47.904 315.913 47.904C315.775 47.904 315.657 47.856 315.561 47.76C315.471 47.664 315.425 47.5467 315.425 47.408ZM316.273 48.608V53H315.545V48.608H316.273ZM319.635 48.536C319.95 48.536 320.235 48.608 320.491 48.752C320.752 48.8907 320.958 49.1013 321.107 49.384C321.262 49.6613 321.339 50 321.339 50.4V53H320.619V50.52C320.619 50.0773 320.512 49.7413 320.299 49.512C320.086 49.2827 319.79 49.168 319.411 49.168C319.038 49.168 318.742 49.2827 318.523 49.512C318.31 49.7413 318.203 50.0773 318.203 50.52V53H317.475V48.608H318.203V49.32C318.347 49.064 318.544 48.8693 318.795 48.736C319.046 48.6027 319.326 48.536 319.635 48.536ZM324.306 48.536C324.68 48.536 325.005 48.624 325.282 48.8C325.565 48.976 325.778 49.2053 325.922 49.488V48.608H326.658V53.112C326.658 53.512 326.57 53.8667 326.394 54.176C326.218 54.4853 325.97 54.7253 325.65 54.896C325.33 55.072 324.96 55.16 324.538 55.16C324.17 55.16 323.834 55.096 323.53 54.968C323.226 54.8453 322.978 54.6693 322.786 54.44C322.594 54.2107 322.48 53.9493 322.442 53.656H323.154C323.224 53.9067 323.386 54.1147 323.642 54.28C323.898 54.4453 324.197 54.528 324.538 54.528C324.954 54.528 325.288 54.4027 325.538 54.152C325.794 53.9067 325.922 53.56 325.922 53.112V52.104C325.778 52.392 325.565 52.6267 325.282 52.808C325.005 52.984 324.68 53.072 324.306 53.072C323.912 53.072 323.554 52.976 323.234 52.784C322.92 52.5867 322.669 52.3147 322.482 51.968C322.301 51.616 322.21 51.2187 322.21 50.776C322.21 50.3333 322.301 49.944 322.482 49.608C322.669 49.2667 322.92 49.0027 323.234 48.816C323.554 48.6293 323.912 48.536 324.306 48.536ZM324.434 49.168C324.173 49.168 323.928 49.232 323.698 49.36C323.474 49.488 323.293 49.6747 323.154 49.92C323.021 50.16 322.954 50.4453 322.954 50.776C322.954 51.1067 323.021 51.4 323.154 51.656C323.293 51.9067 323.474 52.1013 323.698 52.24C323.928 52.3787 324.173 52.448 324.434 52.448C324.701 52.448 324.946 52.3813 325.17 52.248C325.4 52.1147 325.581 51.9253 325.714 51.68C325.853 51.4293 325.922 51.1387 325.922 50.808C325.922 50.4773 325.853 50.1893 325.714 49.944C325.581 49.6933 325.4 49.5013 325.17 49.368C324.946 49.2347 324.701 49.168 324.434 49.168ZM168.44 60.536C168.968 60.536 169.397 60.6587 169.728 60.904C170.064 61.1493 170.299 61.4987 170.432 61.952H169.648C169.563 61.696 169.416 61.496 169.208 61.352C169 61.208 168.744 61.136 168.44 61.136C168.024 61.136 167.688 61.2827 167.432 61.576C167.181 61.864 167.056 62.2747 167.056 62.808C167.056 63.336 167.181 63.7467 167.432 64.04C167.688 64.328 168.024 64.472 168.44 64.472C168.749 64.472 169.005 64.4027 169.208 64.264C169.411 64.1253 169.557 63.9227 169.648 63.656H170.432C170.299 64.088 170.061 64.432 169.72 64.688C169.384 64.944 168.957 65.072 168.44 65.072C168.029 65.072 167.661 64.9787 167.336 64.792C167.016 64.6053 166.765 64.3413 166.584 64C166.403 63.6533 166.312 63.256 166.312 62.808C166.312 62.3547 166.403 61.9573 166.584 61.616C166.765 61.2693 167.016 61.0027 167.336 60.816C167.656 60.6293 168.024 60.536 168.44 60.536ZM173.557 60.536C173.872 60.536 174.157 60.608 174.413 60.752C174.674 60.8907 174.88 61.1013 175.029 61.384C175.184 61.6613 175.261 62 175.261 62.4V65H174.541V62.52C174.541 62.0773 174.434 61.7413 174.221 61.512C174.008 61.2827 173.712 61.168 173.333 61.168C172.96 61.168 172.664 61.2827 172.445 61.512C172.232 61.7413 172.125 62.0773 172.125 62.52V65H171.397V59.08H172.125V61.32C172.269 61.064 172.466 60.8693 172.717 60.736C172.968 60.6027 173.248 60.536 173.557 60.536ZM178.228 60.536C178.602 60.536 178.927 60.624 179.204 60.8C179.487 60.976 179.7 61.2053 179.844 61.488V60.608H180.58V65H179.844V64.104C179.7 64.392 179.487 64.6267 179.204 64.808C178.927 64.984 178.602 65.072 178.228 65.072C177.834 65.072 177.476 64.976 177.156 64.784C176.842 64.5867 176.591 64.3147 176.404 63.968C176.223 63.616 176.132 63.2187 176.132 62.776C176.132 62.3333 176.223 61.944 176.404 61.608C176.591 61.2667 176.842 61.0027 177.156 60.816C177.476 60.6293 177.834 60.536 178.228 60.536ZM178.356 61.168C178.095 61.168 177.85 61.232 177.62 61.36C177.396 61.488 177.215 61.6747 177.076 61.92C176.943 62.16 176.876 62.4453 176.876 62.776C176.876 63.1067 176.943 63.4 177.076 63.656C177.215 63.9067 177.396 64.1013 177.62 64.24C177.85 64.3787 178.095 64.448 178.356 64.448C178.623 64.448 178.868 64.3813 179.092 64.248C179.322 64.1147 179.503 63.9253 179.636 63.68C179.775 63.4293 179.844 63.1387 179.844 62.808C179.844 62.4773 179.775 62.1893 179.636 61.944C179.503 61.6933 179.322 61.5013 179.092 61.368C178.868 61.2347 178.623 61.168 178.356 61.168ZM183.94 60.536C184.254 60.536 184.54 60.608 184.796 60.752C185.057 60.8907 185.262 61.1013 185.412 61.384C185.566 61.6613 185.644 62 185.644 62.4V65H184.924V62.52C184.924 62.0773 184.817 61.7413 184.604 61.512C184.39 61.2827 184.094 61.168 183.716 61.168C183.342 61.168 183.046 61.2827 182.828 61.512C182.614 61.7413 182.508 62.0773 182.508 62.52V65H181.78V60.608H182.508V61.32C182.652 61.064 182.849 60.8693 183.1 60.736C183.35 60.6027 183.63 60.536 183.94 60.536ZM188.611 60.536C188.984 60.536 189.31 60.624 189.587 60.8C189.87 60.976 190.083 61.2053 190.227 61.488V60.608H190.963V65.112C190.963 65.512 190.875 65.8667 190.699 66.176C190.523 66.4853 190.275 66.7253 189.955 66.896C189.635 67.072 189.264 67.16 188.843 67.16C188.475 67.16 188.139 67.096 187.835 66.968C187.531 66.8453 187.283 66.6693 187.091 66.44C186.899 66.2107 186.784 65.9493 186.747 65.656H187.459C187.528 65.9067 187.691 66.1147 187.947 66.28C188.203 66.4453 188.502 66.528 188.843 66.528C189.259 66.528 189.592 66.4027 189.843 66.152C190.099 65.9067 190.227 65.56 190.227 65.112V64.104C190.083 64.392 189.87 64.6267 189.587 64.808C189.31 64.984 188.984 65.072 188.611 65.072C188.216 65.072 187.859 64.976 187.539 64.784C187.224 64.5867 186.974 64.3147 186.787 63.968C186.606 63.616 186.515 63.2187 186.515 62.776C186.515 62.3333 186.606 61.944 186.787 61.608C186.974 61.2667 187.224 61.0027 187.539 60.816C187.859 60.6293 188.216 60.536 188.611 60.536ZM188.739 61.168C188.478 61.168 188.232 61.232 188.003 61.36C187.779 61.488 187.598 61.6747 187.459 61.92C187.326 62.16 187.259 62.4453 187.259 62.776C187.259 63.1067 187.326 63.4 187.459 63.656C187.598 63.9067 187.779 64.1013 188.003 64.24C188.232 64.3787 188.478 64.448 188.739 64.448C189.006 64.448 189.251 64.3813 189.475 64.248C189.704 64.1147 189.886 63.9253 190.019 63.68C190.158 63.4293 190.227 63.1387 190.227 62.808C190.227 62.4773 190.158 62.1893 190.019 61.944C189.886 61.6933 189.704 61.5013 189.475 61.368C189.251 61.2347 189.006 61.168 188.739 61.168ZM192.043 59.408C192.043 59.2693 192.091 59.152 192.187 59.056C192.283 58.96 192.397 58.912 192.531 58.912C192.669 58.912 192.787 58.96 192.883 59.056C192.979 59.152 193.027 59.2693 193.027 59.408C193.027 59.5467 192.979 59.664 192.883 59.76C192.787 59.856 192.669 59.904 192.531 59.904C192.392 59.904 192.275 59.856 192.179 59.76C192.088 59.664 192.043 59.5467 192.043 59.408ZM192.891 60.608V65H192.163V60.608H192.891ZM196.252 60.536C196.567 60.536 196.852 60.608 197.108 60.752C197.37 60.8907 197.575 61.1013 197.724 61.384C197.879 61.6613 197.956 62 197.956 62.4V65H197.236V62.52C197.236 62.0773 197.13 61.7413 196.916 61.512C196.703 61.2827 196.407 61.168 196.028 61.168C195.655 61.168 195.359 61.2827 195.14 61.512C194.927 61.7413 194.82 62.0773 194.82 62.52V65H194.092V60.608H194.82V61.32C194.964 61.064 195.162 60.8693 195.412 60.736C195.663 60.6027 195.943 60.536 196.252 60.536ZM200.924 60.536C201.297 60.536 201.622 60.624 201.9 60.8C202.182 60.976 202.396 61.2053 202.54 61.488V60.608H203.276V65.112C203.276 65.512 203.188 65.8667 203.012 66.176C202.836 66.4853 202.588 66.7253 202.268 66.896C201.948 67.072 201.577 67.16 201.156 67.16C200.788 67.16 200.452 67.096 200.148 66.968C199.844 66.8453 199.596 66.6693 199.404 66.44C199.212 66.2107 199.097 65.9493 199.06 65.656H199.772C199.841 65.9067 200.004 66.1147 200.26 66.28C200.516 66.4453 200.814 66.528 201.156 66.528C201.572 66.528 201.905 66.4027 202.156 66.152C202.412 65.9067 202.54 65.56 202.54 65.112V64.104C202.396 64.392 202.182 64.6267 201.9 64.808C201.622 64.984 201.297 65.072 200.924 65.072C200.529 65.072 200.172 64.976 199.852 64.784C199.537 64.5867 199.286 64.3147 199.1 63.968C198.918 63.616 198.828 63.2187 198.828 62.776C198.828 62.3333 198.918 61.944 199.1 61.608C199.286 61.2667 199.537 61.0027 199.852 60.816C200.172 60.6293 200.529 60.536 200.924 60.536ZM201.052 61.168C200.79 61.168 200.545 61.232 200.316 61.36C200.092 61.488 199.91 61.6747 199.772 61.92C199.638 62.16 199.572 62.4453 199.572 62.776C199.572 63.1067 199.638 63.4 199.772 63.656C199.91 63.9067 200.092 64.1013 200.316 64.24C200.545 64.3787 200.79 64.448 201.052 64.448C201.318 64.448 201.564 64.3813 201.788 64.248C202.017 64.1147 202.198 63.9253 202.332 63.68C202.47 63.4293 202.54 63.1387 202.54 62.808C202.54 62.4773 202.47 62.1893 202.332 61.944C202.198 61.6933 202.017 61.5013 201.788 61.368C201.564 61.2347 201.318 61.168 201.052 61.168ZM209.225 60.536C209.62 60.536 209.975 60.6293 210.289 60.816C210.609 61.0027 210.86 61.2667 211.041 61.608C211.228 61.944 211.321 62.3333 211.321 62.776C211.321 63.2187 211.228 63.616 211.041 63.968C210.86 64.3147 210.609 64.5867 210.289 64.784C209.975 64.976 209.62 65.072 209.225 65.072C208.852 65.072 208.524 64.984 208.241 64.808C207.964 64.6267 207.751 64.392 207.601 64.104V67.08H206.873V60.608H207.601V61.488C207.751 61.2053 207.964 60.976 208.241 60.8C208.524 60.624 208.852 60.536 209.225 60.536ZM209.081 61.168C208.82 61.168 208.575 61.2347 208.345 61.368C208.121 61.5013 207.94 61.6933 207.801 61.944C207.668 62.1893 207.601 62.4773 207.601 62.808C207.601 63.1387 207.668 63.4293 207.801 63.68C207.94 63.9253 208.121 64.1147 208.345 64.248C208.575 64.3813 208.82 64.448 209.081 64.448C209.343 64.448 209.588 64.3813 209.817 64.248C210.047 64.1093 210.228 63.912 210.361 63.656C210.5 63.4 210.569 63.1067 210.569 62.776C210.569 62.4453 210.5 62.16 210.361 61.92C210.228 61.6747 210.047 61.488 209.817 61.36C209.593 61.232 209.348 61.168 209.081 61.168ZM214.041 60.536C214.414 60.536 214.739 60.624 215.017 60.8C215.299 60.976 215.513 61.2053 215.657 61.488V60.608H216.393V65H215.657V64.104C215.513 64.392 215.299 64.6267 215.017 64.808C214.739 64.984 214.414 65.072 214.041 65.072C213.646 65.072 213.289 64.976 212.969 64.784C212.654 64.5867 212.403 64.3147 212.217 63.968C212.035 63.616 211.945 63.2187 211.945 62.776C211.945 62.3333 212.035 61.944 212.217 61.608C212.403 61.2667 212.654 61.0027 212.969 60.816C213.289 60.6293 213.646 60.536 214.041 60.536ZM214.169 61.168C213.907 61.168 213.662 61.232 213.433 61.36C213.209 61.488 213.027 61.6747 212.889 61.92C212.755 62.16 212.689 62.4453 212.689 62.776C212.689 63.1067 212.755 63.4 212.889 63.656C213.027 63.9067 213.209 64.1013 213.433 64.24C213.662 64.3787 213.907 64.448 214.169 64.448C214.435 64.448 214.681 64.3813 214.905 64.248C215.134 64.1147 215.315 63.9253 215.449 63.68C215.587 63.4293 215.657 63.1387 215.657 62.808C215.657 62.4773 215.587 62.1893 215.449 61.944C215.315 61.6933 215.134 61.5013 214.905 61.368C214.681 61.2347 214.435 61.168 214.169 61.168ZM219.104 60.536C219.579 60.536 219.955 60.6613 220.232 60.912C220.51 61.1573 220.662 61.496 220.688 61.928H219.936C219.926 61.6827 219.843 61.4853 219.688 61.336C219.534 61.1867 219.32 61.112 219.048 61.112C218.771 61.112 218.552 61.1787 218.392 61.312C218.238 61.44 218.16 61.6027 218.16 61.8C218.16 61.9653 218.208 62.0987 218.304 62.2C218.406 62.296 218.528 62.368 218.672 62.416C218.822 62.464 219.022 62.5147 219.272 62.568C219.592 62.6427 219.848 62.7173 220.04 62.792C220.238 62.8613 220.406 62.9813 220.544 63.152C220.683 63.3173 220.752 63.544 220.752 63.832C220.752 64.072 220.683 64.288 220.544 64.48C220.406 64.6667 220.211 64.8133 219.96 64.92C219.71 65.0213 219.422 65.072 219.096 65.072C218.606 65.072 218.211 64.9493 217.912 64.704C217.619 64.4587 217.459 64.12 217.432 63.688H218.184C218.195 63.9333 218.28 64.1307 218.44 64.28C218.606 64.424 218.824 64.496 219.096 64.496C219.395 64.496 219.624 64.4347 219.784 64.312C219.95 64.1893 220.032 64.0267 220.032 63.824C220.032 63.6587 219.982 63.528 219.88 63.432C219.784 63.3307 219.662 63.256 219.512 63.208C219.363 63.1547 219.158 63.0987 218.896 63.04C218.582 62.9707 218.326 62.9013 218.128 62.832C217.936 62.7573 217.771 62.6427 217.632 62.488C217.499 62.3333 217.432 62.12 217.432 61.848C217.432 61.608 217.499 61.3893 217.632 61.192C217.771 60.9893 217.966 60.8293 218.216 60.712C218.472 60.5947 218.768 60.536 219.104 60.536ZM223.315 60.536C223.79 60.536 224.166 60.6613 224.443 60.912C224.72 61.1573 224.872 61.496 224.899 61.928H224.147C224.136 61.6827 224.054 61.4853 223.899 61.336C223.744 61.1867 223.531 61.112 223.259 61.112C222.982 61.112 222.763 61.1787 222.603 61.312C222.448 61.44 222.371 61.6027 222.371 61.8C222.371 61.9653 222.419 62.0987 222.515 62.2C222.616 62.296 222.739 62.368 222.883 62.416C223.032 62.464 223.232 62.5147 223.483 62.568C223.803 62.6427 224.059 62.7173 224.251 62.792C224.448 62.8613 224.616 62.9813 224.755 63.152C224.894 63.3173 224.963 63.544 224.963 63.832C224.963 64.072 224.894 64.288 224.755 64.48C224.616 64.6667 224.422 64.8133 224.171 64.92C223.92 65.0213 223.632 65.072 223.307 65.072C222.816 65.072 222.422 64.9493 222.123 64.704C221.83 64.4587 221.67 64.12 221.643 63.688H222.395C222.406 63.9333 222.491 64.1307 222.651 64.28C222.816 64.424 223.035 64.496 223.307 64.496C223.606 64.496 223.835 64.4347 223.995 64.312C224.16 64.1893 224.243 64.0267 224.243 63.824C224.243 63.6587 224.192 63.528 224.091 63.432C223.995 63.3307 223.872 63.256 223.723 63.208C223.574 63.1547 223.368 63.0987 223.107 63.04C222.792 62.9707 222.536 62.9013 222.339 62.832C222.147 62.7573 221.982 62.6427 221.843 62.488C221.71 62.3333 221.643 62.12 221.643 61.848C221.643 61.608 221.71 61.3893 221.843 61.192C221.982 60.9893 222.176 60.8293 222.427 60.712C222.683 60.5947 222.979 60.536 223.315 60.536ZM231.782 60.608L230.398 65H229.646L228.654 61.512L227.662 65H226.902L225.51 60.608H226.262L227.278 64.272L228.31 60.608H229.062L230.038 64.28L231.046 60.608H231.782ZM234.403 60.536C234.819 60.536 235.195 60.6293 235.531 60.816C235.867 61.0027 236.131 61.2693 236.323 61.616C236.52 61.9627 236.619 62.36 236.619 62.808C236.619 63.2507 236.518 63.6453 236.315 63.992C236.112 64.3333 235.838 64.6 235.491 64.792C235.144 64.9787 234.76 65.072 234.339 65.072C233.928 65.072 233.558 64.9787 233.227 64.792C232.902 64.6053 232.646 64.3413 232.459 64C232.278 63.6533 232.187 63.256 232.187 62.808C232.187 62.3547 232.283 61.9573 232.475 61.616C232.672 61.2693 232.939 61.0027 233.275 60.816C233.611 60.6293 233.987 60.536 234.403 60.536ZM234.379 61.136C234.112 61.136 233.87 61.2 233.651 61.328C233.432 61.456 233.256 61.6453 233.123 61.896C232.995 62.1467 232.931 62.4507 232.931 62.808C232.931 63.16 232.992 63.4613 233.115 63.712C233.243 63.9627 233.414 64.152 233.627 64.28C233.84 64.408 234.078 64.472 234.339 64.472C234.606 64.472 234.854 64.408 235.083 64.28C235.318 64.1467 235.507 63.9547 235.651 63.704C235.795 63.4533 235.867 63.1547 235.867 62.808C235.867 62.456 235.798 62.1547 235.659 61.904C235.526 61.648 235.344 61.456 235.115 61.328C234.891 61.2 234.646 61.136 234.379 61.136ZM238.258 61.352C238.519 60.808 238.964 60.536 239.594 60.536V61.296H239.402C239.028 61.296 238.743 61.3947 238.546 61.592C238.354 61.784 238.258 62.12 238.258 62.6V65H237.53V60.608H238.258V61.352ZM242.283 60.536C242.656 60.536 242.982 60.624 243.259 60.8C243.542 60.976 243.755 61.2053 243.899 61.488V59.08H244.635V65H243.899V64.104C243.755 64.392 243.542 64.6267 243.259 64.808C242.982 64.984 242.656 65.072 242.283 65.072C241.888 65.072 241.531 64.976 241.211 64.784C240.896 64.5867 240.646 64.3147 240.459 63.968C240.278 63.616 240.187 63.2187 240.187 62.776C240.187 62.3333 240.278 61.944 240.459 61.608C240.646 61.2667 240.896 61.0027 241.211 60.816C241.531 60.6293 241.888 60.536 242.283 60.536ZM242.411 61.168C242.15 61.168 241.904 61.232 241.675 61.36C241.451 61.488 241.27 61.6747 241.131 61.92C240.998 62.16 240.931 62.4453 240.931 62.776C240.931 63.1067 240.998 63.4 241.131 63.656C241.27 63.9067 241.451 64.1013 241.675 64.24C241.904 64.3787 242.15 64.448 242.411 64.448C242.678 64.448 242.923 64.3813 243.147 64.248C243.376 64.1147 243.558 63.9253 243.691 63.68C243.83 63.4293 243.899 63.1387 243.899 62.808C243.899 62.4773 243.83 62.1893 243.691 61.944C243.558 61.6933 243.376 61.5013 243.147 61.368C242.923 61.2347 242.678 61.168 242.411 61.168ZM247.346 60.536C247.821 60.536 248.197 60.6613 248.474 60.912C248.752 61.1573 248.904 61.496 248.93 61.928H248.178C248.168 61.6827 248.085 61.4853 247.93 61.336C247.776 61.1867 247.562 61.112 247.29 61.112C247.013 61.112 246.794 61.1787 246.634 61.312C246.48 61.44 246.402 61.6027 246.402 61.8C246.402 61.9653 246.45 62.0987 246.546 62.2C246.648 62.296 246.77 62.368 246.914 62.416C247.064 62.464 247.264 62.5147 247.514 62.568C247.834 62.6427 248.09 62.7173 248.282 62.792C248.48 62.8613 248.648 62.9813 248.786 63.152C248.925 63.3173 248.994 63.544 248.994 63.832C248.994 64.072 248.925 64.288 248.786 64.48C248.648 64.6667 248.453 64.8133 248.202 64.92C247.952 65.0213 247.664 65.072 247.338 65.072C246.848 65.072 246.453 64.9493 246.154 64.704C245.861 64.4587 245.701 64.12 245.674 63.688H246.426C246.437 63.9333 246.522 64.1307 246.682 64.28C246.848 64.424 247.066 64.496 247.338 64.496C247.637 64.496 247.866 64.4347 248.026 64.312C248.192 64.1893 248.274 64.0267 248.274 63.824C248.274 63.6587 248.224 63.528 248.122 63.432C248.026 63.3307 247.904 63.256 247.754 63.208C247.605 63.1547 247.4 63.0987 247.138 63.04C246.824 62.9707 246.568 62.9013 246.37 62.832C246.178 62.7573 246.013 62.6427 245.874 62.488C245.741 62.3333 245.674 62.12 245.674 61.848C245.674 61.608 245.741 61.3893 245.874 61.192C246.013 60.9893 246.208 60.8293 246.458 60.712C246.714 60.5947 247.01 60.536 247.346 60.536ZM254.252 60.536C254.625 60.536 254.95 60.624 255.228 60.8C255.51 60.976 255.724 61.2053 255.868 61.488V60.608H256.604V65H255.868V64.104C255.724 64.392 255.51 64.6267 255.228 64.808C254.95 64.984 254.625 65.072 254.252 65.072C253.857 65.072 253.5 64.976 253.18 64.784C252.865 64.5867 252.614 64.3147 252.428 63.968C252.246 63.616 252.156 63.2187 252.156 62.776C252.156 62.3333 252.246 61.944 252.428 61.608C252.614 61.2667 252.865 61.0027 253.18 60.816C253.5 60.6293 253.857 60.536 254.252 60.536ZM254.38 61.168C254.118 61.168 253.873 61.232 253.644 61.36C253.42 61.488 253.238 61.6747 253.1 61.92C252.966 62.16 252.9 62.4453 252.9 62.776C252.9 63.1067 252.966 63.4 253.1 63.656C253.238 63.9067 253.42 64.1013 253.644 64.24C253.873 64.3787 254.118 64.448 254.38 64.448C254.646 64.448 254.892 64.3813 255.116 64.248C255.345 64.1147 255.526 63.9253 255.66 63.68C255.798 63.4293 255.868 63.1387 255.868 62.808C255.868 62.4773 255.798 62.1893 255.66 61.944C255.526 61.6933 255.345 61.5013 255.116 61.368C254.892 61.2347 254.646 61.168 254.38 61.168ZM259.963 60.536C260.278 60.536 260.563 60.608 260.819 60.752C261.08 60.8907 261.286 61.1013 261.435 61.384C261.59 61.6613 261.667 62 261.667 62.4V65H260.947V62.52C260.947 62.0773 260.84 61.7413 260.627 61.512C260.414 61.2827 260.118 61.168 259.739 61.168C259.366 61.168 259.07 61.2827 258.851 61.512C258.638 61.7413 258.531 62.0773 258.531 62.52V65H257.803V60.608H258.531V61.32C258.675 61.064 258.872 60.8693 259.123 60.736C259.374 60.6027 259.654 60.536 259.963 60.536ZM264.635 60.536C265.008 60.536 265.333 60.624 265.611 60.8C265.893 60.976 266.107 61.2053 266.251 61.488V59.08H266.987V65H266.251V64.104C266.107 64.392 265.893 64.6267 265.611 64.808C265.333 64.984 265.008 65.072 264.635 65.072C264.24 65.072 263.883 64.976 263.563 64.784C263.248 64.5867 262.997 64.3147 262.811 63.968C262.629 63.616 262.539 63.2187 262.539 62.776C262.539 62.3333 262.629 61.944 262.811 61.608C262.997 61.2667 263.248 61.0027 263.563 60.816C263.883 60.6293 264.24 60.536 264.635 60.536ZM264.763 61.168C264.501 61.168 264.256 61.232 264.027 61.36C263.803 61.488 263.621 61.6747 263.483 61.92C263.349 62.16 263.283 62.4453 263.283 62.776C263.283 63.1067 263.349 63.4 263.483 63.656C263.621 63.9067 263.803 64.1013 264.027 64.24C264.256 64.3787 264.501 64.448 264.763 64.448C265.029 64.448 265.275 64.3813 265.499 64.248C265.728 64.1147 265.909 63.9253 266.043 63.68C266.181 63.4293 266.251 63.1387 266.251 62.808C266.251 62.4773 266.181 62.1893 266.043 61.944C265.909 61.6933 265.728 61.5013 265.499 61.368C265.275 61.2347 265.029 61.168 264.763 61.168ZM274.408 60.608V65H273.68V64.296C273.536 64.552 273.339 64.7467 273.088 64.88C272.838 65.008 272.558 65.072 272.248 65.072C271.934 65.072 271.646 65.0027 271.384 64.864C271.128 64.72 270.923 64.5093 270.768 64.232C270.619 63.9547 270.544 63.616 270.544 63.216V60.608H271.264V63.096C271.264 63.5333 271.371 63.8693 271.584 64.104C271.803 64.3333 272.099 64.448 272.472 64.448C272.846 64.448 273.139 64.3333 273.352 64.104C273.571 63.8693 273.68 63.5333 273.68 63.096V60.608H274.408ZM277.96 60.536C278.354 60.536 278.709 60.6293 279.024 60.816C279.344 61.0027 279.594 61.2667 279.776 61.608C279.962 61.944 280.056 62.3333 280.056 62.776C280.056 63.2187 279.962 63.616 279.776 63.968C279.594 64.3147 279.344 64.5867 279.024 64.784C278.709 64.976 278.354 65.072 277.96 65.072C277.586 65.072 277.258 64.984 276.976 64.808C276.698 64.6267 276.485 64.392 276.336 64.104V67.08H275.608V60.608H276.336V61.488C276.485 61.2053 276.698 60.976 276.976 60.8C277.258 60.624 277.586 60.536 277.96 60.536ZM277.816 61.168C277.554 61.168 277.309 61.2347 277.08 61.368C276.856 61.5013 276.674 61.6933 276.536 61.944C276.402 62.1893 276.336 62.4773 276.336 62.808C276.336 63.1387 276.402 63.4293 276.536 63.68C276.674 63.9253 276.856 64.1147 277.08 64.248C277.309 64.3813 277.554 64.448 277.816 64.448C278.077 64.448 278.322 64.3813 278.552 64.248C278.781 64.1093 278.962 63.912 279.096 63.656C279.234 63.4 279.304 63.1067 279.304 62.776C279.304 62.4453 279.234 62.16 279.096 61.92C278.962 61.6747 278.781 61.488 278.552 61.36C278.328 61.232 278.082 61.168 277.816 61.168ZM282.775 60.536C283.149 60.536 283.474 60.624 283.751 60.8C284.034 60.976 284.247 61.2053 284.391 61.488V59.08H285.127V65H284.391V64.104C284.247 64.392 284.034 64.6267 283.751 64.808C283.474 64.984 283.149 65.072 282.775 65.072C282.381 65.072 282.023 64.976 281.703 64.784C281.389 64.5867 281.138 64.3147 280.951 63.968C280.77 63.616 280.679 63.2187 280.679 62.776C280.679 62.3333 280.77 61.944 280.951 61.608C281.138 61.2667 281.389 61.0027 281.703 60.816C282.023 60.6293 282.381 60.536 282.775 60.536ZM282.903 61.168C282.642 61.168 282.397 61.232 282.167 61.36C281.943 61.488 281.762 61.6747 281.623 61.92C281.49 62.16 281.423 62.4453 281.423 62.776C281.423 63.1067 281.49 63.4 281.623 63.656C281.762 63.9067 281.943 64.1013 282.167 64.24C282.397 64.3787 282.642 64.448 282.903 64.448C283.17 64.448 283.415 64.3813 283.639 64.248C283.869 64.1147 284.05 63.9253 284.183 63.68C284.322 63.4293 284.391 63.1387 284.391 62.808C284.391 62.4773 284.322 62.1893 284.183 61.944C284.05 61.6933 283.869 61.5013 283.639 61.368C283.415 61.2347 283.17 61.168 282.903 61.168ZM288.135 60.536C288.508 60.536 288.833 60.624 289.111 60.8C289.393 60.976 289.607 61.2053 289.751 61.488V60.608H290.487V65H289.751V64.104C289.607 64.392 289.393 64.6267 289.111 64.808C288.833 64.984 288.508 65.072 288.135 65.072C287.74 65.072 287.383 64.976 287.063 64.784C286.748 64.5867 286.497 64.3147 286.311 63.968C286.129 63.616 286.039 63.2187 286.039 62.776C286.039 62.3333 286.129 61.944 286.311 61.608C286.497 61.2667 286.748 61.0027 287.063 60.816C287.383 60.6293 287.74 60.536 288.135 60.536ZM288.263 61.168C288.001 61.168 287.756 61.232 287.527 61.36C287.303 61.488 287.121 61.6747 286.983 61.92C286.849 62.16 286.783 62.4453 286.783 62.776C286.783 63.1067 286.849 63.4 286.983 63.656C287.121 63.9067 287.303 64.1013 287.527 64.24C287.756 64.3787 288.001 64.448 288.263 64.448C288.529 64.448 288.775 64.3813 288.999 64.248C289.228 64.1147 289.409 63.9253 289.543 63.68C289.681 63.4293 289.751 63.1387 289.751 62.808C289.751 62.4773 289.681 62.1893 289.543 61.944C289.409 61.6933 289.228 61.5013 288.999 61.368C288.775 61.2347 288.529 61.168 288.263 61.168ZM293.726 64.408V65H292.99C292.617 65 292.331 64.9093 292.134 64.728C291.942 64.5467 291.846 64.2613 291.846 63.872V61.2H291.278V60.608H291.846V59.52H292.582V60.608H293.718V61.2H292.582V63.872C292.582 64.0693 292.622 64.208 292.702 64.288C292.782 64.368 292.923 64.408 293.126 64.408H293.726ZM294.41 59.408C294.41 59.2693 294.458 59.152 294.554 59.056C294.65 58.96 294.764 58.912 294.898 58.912C295.036 58.912 295.154 58.96 295.25 59.056C295.346 59.152 295.394 59.2693 295.394 59.408C295.394 59.5467 295.346 59.664 295.25 59.76C295.154 59.856 295.036 59.904 294.898 59.904C294.759 59.904 294.642 59.856 294.546 59.76C294.455 59.664 294.41 59.5467 294.41 59.408ZM295.258 60.608V65H294.53V60.608H295.258ZM298.619 60.536C298.934 60.536 299.219 60.608 299.475 60.752C299.737 60.8907 299.942 61.1013 300.091 61.384C300.246 61.6613 300.323 62 300.323 62.4V65H299.603V62.52C299.603 62.0773 299.497 61.7413 299.283 61.512C299.07 61.2827 298.774 61.168 298.395 61.168C298.022 61.168 297.726 61.2827 297.507 61.512C297.294 61.7413 297.187 62.0773 297.187 62.52V65H296.459V60.608H297.187V61.32C297.331 61.064 297.529 60.8693 297.779 60.736C298.03 60.6027 298.31 60.536 298.619 60.536ZM303.291 60.536C303.664 60.536 303.989 60.624 304.267 60.8C304.549 60.976 304.763 61.2053 304.907 61.488V60.608H305.643V65.112C305.643 65.512 305.555 65.8667 305.379 66.176C305.203 66.4853 304.955 66.7253 304.635 66.896C304.315 67.072 303.944 67.16 303.523 67.16C303.155 67.16 302.819 67.096 302.515 66.968C302.211 66.8453 301.963 66.6693 301.771 66.44C301.579 66.2107 301.464 65.9493 301.427 65.656H302.139C302.208 65.9067 302.371 66.1147 302.627 66.28C302.883 66.4453 303.181 66.528 303.523 66.528C303.939 66.528 304.272 66.4027 304.523 66.152C304.779 65.9067 304.907 65.56 304.907 65.112V64.104C304.763 64.392 304.549 64.6267 304.267 64.808C303.989 64.984 303.664 65.072 303.291 65.072C302.896 65.072 302.539 64.976 302.219 64.784C301.904 64.5867 301.653 64.3147 301.467 63.968C301.285 63.616 301.195 63.2187 301.195 62.776C301.195 62.3333 301.285 61.944 301.467 61.608C301.653 61.2667 301.904 61.0027 302.219 60.816C302.539 60.6293 302.896 60.536 303.291 60.536ZM303.419 61.168C303.157 61.168 302.912 61.232 302.683 61.36C302.459 61.488 302.277 61.6747 302.139 61.92C302.005 62.16 301.939 62.4453 301.939 62.776C301.939 63.1067 302.005 63.4 302.139 63.656C302.277 63.9067 302.459 64.1013 302.683 64.24C302.912 64.3787 303.157 64.448 303.419 64.448C303.685 64.448 303.931 64.3813 304.155 64.248C304.384 64.1147 304.565 63.9253 304.699 63.68C304.837 63.4293 304.907 63.1387 304.907 62.808C304.907 62.4773 304.837 62.1893 304.699 61.944C304.565 61.6933 304.384 61.5013 304.155 61.368C303.931 61.2347 303.685 61.168 303.419 61.168ZM310.753 60.536C311.227 60.536 311.603 60.6613 311.881 60.912C312.158 61.1573 312.31 61.496 312.337 61.928H311.585C311.574 61.6827 311.491 61.4853 311.337 61.336C311.182 61.1867 310.969 61.112 310.697 61.112C310.419 61.112 310.201 61.1787 310.041 61.312C309.886 61.44 309.809 61.6027 309.809 61.8C309.809 61.9653 309.857 62.0987 309.953 62.2C310.054 62.296 310.177 62.368 310.321 62.416C310.47 62.464 310.67 62.5147 310.921 62.568C311.241 62.6427 311.497 62.7173 311.689 62.792C311.886 62.8613 312.054 62.9813 312.193 63.152C312.331 63.3173 312.401 63.544 312.401 63.832C312.401 64.072 312.331 64.288 312.193 64.48C312.054 64.6667 311.859 64.8133 311.609 64.92C311.358 65.0213 311.07 65.072 310.745 65.072C310.254 65.072 309.859 64.9493 309.561 64.704C309.267 64.4587 309.107 64.12 309.081 63.688H309.833C309.843 63.9333 309.929 64.1307 310.089 64.28C310.254 64.424 310.473 64.496 310.745 64.496C311.043 64.496 311.273 64.4347 311.433 64.312C311.598 64.1893 311.681 64.0267 311.681 63.824C311.681 63.6587 311.63 63.528 311.529 63.432C311.433 63.3307 311.31 63.256 311.161 63.208C311.011 63.1547 310.806 63.0987 310.545 63.04C310.23 62.9707 309.974 62.9013 309.777 62.832C309.585 62.7573 309.419 62.6427 309.281 62.488C309.147 62.3333 309.081 62.12 309.081 61.848C309.081 61.608 309.147 61.3893 309.281 61.192C309.419 60.9893 309.614 60.8293 309.865 60.712C310.121 60.5947 310.417 60.536 310.753 60.536ZM317.436 62.624C317.436 62.7787 317.425 62.9227 317.404 63.056H313.908C313.929 63.4933 314.065 63.84 314.316 64.096C314.572 64.3467 314.897 64.472 315.292 64.472C315.59 64.472 315.841 64.4053 316.044 64.272C316.252 64.1387 316.404 63.9627 316.5 63.744H317.284C317.145 64.128 316.905 64.4453 316.564 64.696C316.228 64.9467 315.804 65.072 315.292 65.072C314.881 65.072 314.513 64.9787 314.188 64.792C313.868 64.6053 313.617 64.3413 313.436 64C313.254 63.6533 313.164 63.256 313.164 62.808C313.164 62.3547 313.254 61.9573 313.436 61.616C313.617 61.2693 313.873 61.0027 314.204 60.816C314.534 60.6293 314.916 60.536 315.348 60.536C315.758 60.536 316.121 60.6267 316.436 60.808C316.75 60.9893 316.996 61.2373 317.172 61.552C317.348 61.8667 317.436 62.224 317.436 62.624ZM316.676 62.528C316.676 62.2453 316.614 62 316.492 61.792C316.369 61.5787 316.201 61.416 315.988 61.304C315.78 61.192 315.548 61.136 315.292 61.136C314.913 61.136 314.596 61.2613 314.34 61.512C314.084 61.7573 313.942 62.096 313.916 62.528H316.676ZM320.182 60.536C320.71 60.536 321.14 60.6587 321.47 60.904C321.806 61.1493 322.041 61.4987 322.174 61.952H321.39C321.305 61.696 321.158 61.496 320.95 61.352C320.742 61.208 320.486 61.136 320.182 61.136C319.766 61.136 319.43 61.2827 319.174 61.576C318.924 61.864 318.798 62.2747 318.798 62.808C318.798 63.336 318.924 63.7467 319.174 64.04C319.43 64.328 319.766 64.472 320.182 64.472C320.492 64.472 320.748 64.4027 320.95 64.264C321.153 64.1253 321.3 63.9227 321.39 63.656H322.174C322.041 64.088 321.804 64.432 321.462 64.688C321.126 64.944 320.7 65.072 320.182 65.072C319.772 65.072 319.404 64.9787 319.078 64.792C318.758 64.6053 318.508 64.3413 318.326 64C318.145 63.6533 318.054 63.256 318.054 62.808C318.054 62.3547 318.145 61.9573 318.326 61.616C318.508 61.2693 318.758 61.0027 319.078 60.816C319.398 60.6293 319.766 60.536 320.182 60.536ZM326.963 60.608V65H326.235V64.296C326.091 64.552 325.894 64.7467 325.643 64.88C325.392 65.008 325.112 65.072 324.803 65.072C324.488 65.072 324.2 65.0027 323.939 64.864C323.683 64.72 323.478 64.5093 323.323 64.232C323.174 63.9547 323.099 63.616 323.099 63.216V60.608H323.819V63.096C323.819 63.5333 323.926 63.8693 324.139 64.104C324.358 64.3333 324.654 64.448 325.027 64.448C325.4 64.448 325.694 64.3333 325.907 64.104C326.126 63.8693 326.235 63.5333 326.235 63.096V60.608H326.963ZM328.891 61.352C329.152 60.808 329.597 60.536 330.227 60.536V61.296H330.035C329.661 61.296 329.376 61.3947 329.179 61.592C328.987 61.784 328.891 62.12 328.891 62.6V65H328.163V60.608H328.891V61.352ZM330.988 59.408C330.988 59.2693 331.036 59.152 331.132 59.056C331.228 58.96 331.342 58.912 331.476 58.912C331.614 58.912 331.732 58.96 331.828 59.056C331.924 59.152 331.972 59.2693 331.972 59.408C331.972 59.5467 331.924 59.664 331.828 59.76C331.732 59.856 331.614 59.904 331.476 59.904C331.337 59.904 331.22 59.856 331.124 59.76C331.033 59.664 330.988 59.5467 330.988 59.408ZM331.836 60.608V65H331.108V60.608H331.836ZM335.078 64.408V65H334.342C333.968 65 333.683 64.9093 333.486 64.728C333.294 64.5467 333.198 64.2613 333.198 63.872V61.2H332.63V60.608H333.198V59.52H333.934V60.608H335.07V61.2H333.934V63.872C333.934 64.0693 333.974 64.208 334.054 64.288C334.134 64.368 334.275 64.408 334.478 64.408H335.078ZM336.177 60.608L337.521 64.16L338.889 60.608H339.641L336.993 67.056H336.241L337.113 64.928L335.377 60.608H336.177ZM168.408 72.536C168.781 72.536 169.107 72.624 169.384 72.8C169.667 72.976 169.88 73.2053 170.024 73.488V72.608H170.76V79.08H170.024V76.104C169.88 76.392 169.667 76.6267 169.384 76.808C169.107 76.984 168.781 77.072 168.408 77.072C168.013 77.072 167.656 76.976 167.336 76.784C167.021 76.5867 166.771 76.3147 166.584 75.968C166.403 75.616 166.312 75.2187 166.312 74.776C166.312 74.3333 166.403 73.944 166.584 73.608C166.771 73.2667 167.021 73.0027 167.336 72.816C167.656 72.6293 168.013 72.536 168.408 72.536ZM168.536 73.168C168.275 73.168 168.029 73.232 167.8 73.36C167.576 73.488 167.395 73.6747 167.256 73.92C167.123 74.16 167.056 74.4453 167.056 74.776C167.056 75.1067 167.123 75.4 167.256 75.656C167.395 75.9067 167.576 76.1013 167.8 76.24C168.029 76.3787 168.275 76.448 168.536 76.448C168.803 76.448 169.048 76.3813 169.272 76.248C169.501 76.1147 169.683 75.9253 169.816 75.68C169.955 75.4293 170.024 75.1387 170.024 74.808C170.024 74.4773 169.955 74.1893 169.816 73.944C169.683 73.6933 169.501 73.5013 169.272 73.368C169.048 73.2347 168.803 73.168 168.536 73.168ZM175.783 72.608V77H175.055V76.296C174.911 76.552 174.714 76.7467 174.463 76.88C174.213 77.008 173.933 77.072 173.623 77.072C173.309 77.072 173.021 77.0027 172.759 76.864C172.503 76.72 172.298 76.5093 172.143 76.232C171.994 75.9547 171.919 75.616 171.919 75.216V72.608H172.639V75.096C172.639 75.5333 172.746 75.8693 172.959 76.104C173.178 76.3333 173.474 76.448 173.847 76.448C174.221 76.448 174.514 76.3333 174.727 76.104C174.946 75.8693 175.055 75.5333 175.055 75.096V72.608H175.783ZM180.967 74.624C180.967 74.7787 180.956 74.9227 180.935 75.056H177.439C177.46 75.4933 177.596 75.84 177.847 76.096C178.103 76.3467 178.428 76.472 178.823 76.472C179.121 76.472 179.372 76.4053 179.575 76.272C179.783 76.1387 179.935 75.9627 180.031 75.744H180.815C180.676 76.128 180.436 76.4453 180.095 76.696C179.759 76.9467 179.335 77.072 178.823 77.072C178.412 77.072 178.044 76.9787 177.719 76.792C177.399 76.6053 177.148 76.3413 176.967 76C176.785 75.6533 176.695 75.256 176.695 74.808C176.695 74.3547 176.785 73.9573 176.967 73.616C177.148 73.2693 177.404 73.0027 177.735 72.816C178.065 72.6293 178.447 72.536 178.879 72.536C179.289 72.536 179.652 72.6267 179.967 72.808C180.281 72.9893 180.527 73.2373 180.703 73.552C180.879 73.8667 180.967 74.224 180.967 74.624ZM180.207 74.528C180.207 74.2453 180.145 74 180.023 73.792C179.9 73.5787 179.732 73.416 179.519 73.304C179.311 73.192 179.079 73.136 178.823 73.136C178.444 73.136 178.127 73.2613 177.871 73.512C177.615 73.7573 177.473 74.096 177.447 74.528H180.207ZM183.385 72.536C183.86 72.536 184.236 72.6613 184.513 72.912C184.791 73.1573 184.943 73.496 184.969 73.928H184.217C184.207 73.6827 184.124 73.4853 183.969 73.336C183.815 73.1867 183.601 73.112 183.329 73.112C183.052 73.112 182.833 73.1787 182.673 73.312C182.519 73.44 182.441 73.6027 182.441 73.8C182.441 73.9653 182.489 74.0987 182.585 74.2C182.687 74.296 182.809 74.368 182.953 74.416C183.103 74.464 183.303 74.5147 183.553 74.568C183.873 74.6427 184.129 74.7173 184.321 74.792C184.519 74.8613 184.687 74.9813 184.825 75.152C184.964 75.3173 185.033 75.544 185.033 75.832C185.033 76.072 184.964 76.288 184.825 76.48C184.687 76.6667 184.492 76.8133 184.241 76.92C183.991 77.0213 183.703 77.072 183.377 77.072C182.887 77.072 182.492 76.9493 182.193 76.704C181.9 76.4587 181.74 76.12 181.713 75.688H182.465C182.476 75.9333 182.561 76.1307 182.721 76.28C182.887 76.424 183.105 76.496 183.377 76.496C183.676 76.496 183.905 76.4347 184.065 76.312C184.231 76.1893 184.313 76.0267 184.313 75.824C184.313 75.6587 184.263 75.528 184.161 75.432C184.065 75.3307 183.943 75.256 183.793 75.208C183.644 75.1547 183.439 75.0987 183.177 75.04C182.863 74.9707 182.607 74.9013 182.409 74.832C182.217 74.7573 182.052 74.6427 181.913 74.488C181.78 74.3333 181.713 74.12 181.713 73.848C181.713 73.608 181.78 73.3893 181.913 73.192C182.052 72.9893 182.247 72.8293 182.497 72.712C182.753 72.5947 183.049 72.536 183.385 72.536ZM188.124 76.408V77H187.388C187.015 77 186.73 76.9093 186.532 76.728C186.34 76.5467 186.244 76.2613 186.244 75.872V73.2H185.676V72.608H186.244V71.52H186.98V72.608H188.116V73.2H186.98V75.872C186.98 76.0693 187.02 76.208 187.1 76.288C187.18 76.368 187.322 76.408 187.524 76.408H188.124ZM188.808 71.408C188.808 71.2693 188.856 71.152 188.952 71.056C189.048 70.96 189.163 70.912 189.296 70.912C189.435 70.912 189.552 70.96 189.648 71.056C189.744 71.152 189.792 71.2693 189.792 71.408C189.792 71.5467 189.744 71.664 189.648 71.76C189.552 71.856 189.435 71.904 189.296 71.904C189.157 71.904 189.04 71.856 188.944 71.76C188.853 71.664 188.808 71.5467 188.808 71.408ZM189.656 72.608V77H188.928V72.608H189.656ZM192.786 72.536C193.202 72.536 193.578 72.6293 193.914 72.816C194.25 73.0027 194.514 73.2693 194.706 73.616C194.903 73.9627 195.002 74.36 195.002 74.808C195.002 75.2507 194.9 75.6453 194.698 75.992C194.495 76.3333 194.22 76.6 193.874 76.792C193.527 76.9787 193.143 77.072 192.722 77.072C192.311 77.072 191.94 76.9787 191.61 76.792C191.284 76.6053 191.028 76.3413 190.842 76C190.66 75.6533 190.57 75.256 190.57 74.808C190.57 74.3547 190.666 73.9573 190.858 73.616C191.055 73.2693 191.322 73.0027 191.658 72.816C191.994 72.6293 192.37 72.536 192.786 72.536ZM192.762 73.136C192.495 73.136 192.252 73.2 192.034 73.328C191.815 73.456 191.639 73.6453 191.506 73.896C191.378 74.1467 191.314 74.4507 191.314 74.808C191.314 75.16 191.375 75.4613 191.498 75.712C191.626 75.9627 191.796 76.152 192.01 76.28C192.223 76.408 192.46 76.472 192.722 76.472C192.988 76.472 193.236 76.408 193.466 76.28C193.7 76.1467 193.89 75.9547 194.034 75.704C194.178 75.4533 194.25 75.1547 194.25 74.808C194.25 74.456 194.18 74.1547 194.042 73.904C193.908 73.648 193.727 73.456 193.498 73.328C193.274 73.2 193.028 73.136 192.762 73.136ZM198.073 72.536C198.387 72.536 198.673 72.608 198.929 72.752C199.19 72.8907 199.395 73.1013 199.545 73.384C199.699 73.6613 199.777 74 199.777 74.4V77H199.057V74.52C199.057 74.0773 198.95 73.7413 198.737 73.512C198.523 73.2827 198.227 73.168 197.849 73.168C197.475 73.168 197.179 73.2827 196.961 73.512C196.747 73.7413 196.641 74.0773 196.641 74.52V77H195.913V72.608H196.641V73.32C196.785 73.064 196.982 72.8693 197.233 72.736C197.483 72.6027 197.763 72.536 198.073 72.536ZM202.448 72.536C202.923 72.536 203.299 72.6613 203.576 72.912C203.853 73.1573 204.005 73.496 204.032 73.928H203.28C203.269 73.6827 203.187 73.4853 203.032 73.336C202.877 73.1867 202.664 73.112 202.392 73.112C202.115 73.112 201.896 73.1787 201.736 73.312C201.581 73.44 201.504 73.6027 201.504 73.8C201.504 73.9653 201.552 74.0987 201.648 74.2C201.749 74.296 201.872 74.368 202.016 74.416C202.165 74.464 202.365 74.5147 202.616 74.568C202.936 74.6427 203.192 74.7173 203.384 74.792C203.581 74.8613 203.749 74.9813 203.888 75.152C204.027 75.3173 204.096 75.544 204.096 75.832C204.096 76.072 204.027 76.288 203.888 76.48C203.749 76.6667 203.555 76.8133 203.304 76.92C203.053 77.0213 202.765 77.072 202.44 77.072C201.949 77.072 201.555 76.9493 201.256 76.704C200.963 76.4587 200.803 76.12 200.776 75.688H201.528C201.539 75.9333 201.624 76.1307 201.784 76.28C201.949 76.424 202.168 76.496 202.44 76.496C202.739 76.496 202.968 76.4347 203.128 76.312C203.293 76.1893 203.376 76.0267 203.376 75.824C203.376 75.6587 203.325 75.528 203.224 75.432C203.128 75.3307 203.005 75.256 202.856 75.208C202.707 75.1547 202.501 75.0987 202.24 75.04C201.925 74.9707 201.669 74.9013 201.472 74.832C201.28 74.7573 201.115 74.6427 200.976 74.488C200.843 74.3333 200.776 74.12 200.776 73.848C200.776 73.608 200.843 73.3893 200.976 73.192C201.115 72.9893 201.309 72.8293 201.56 72.712C201.816 72.5947 202.112 72.536 202.448 72.536ZM204.987 76.536C204.987 76.4027 205.032 76.2907 205.123 76.2C205.214 76.1093 205.323 76.064 205.451 76.064C205.579 76.064 205.688 76.1093 205.779 76.2C205.87 76.2907 205.915 76.4027 205.915 76.536C205.915 76.664 205.87 76.7733 205.779 76.864C205.688 76.9547 205.579 77 205.451 77C205.323 77 205.214 76.9547 205.123 76.864C205.032 76.7733 204.987 76.664 204.987 76.536Z" fill="#320051"/>
<mask id="path-4-inside-1_3262_5723" fill="white">
<path d="M95.5001 90.5006C95.5001 91.6941 95.026 92.8387 94.1821 93.6826C93.3382 94.5265 92.1936 95.0006 91.0001 95.0006H73.0001C71.8066 95.0006 70.6621 94.5265 69.8181 93.6826C68.9742 92.8387 68.5001 91.6941 68.5001 90.5006C68.5001 89.3071 68.9742 88.1625 69.8181 87.3186C70.6621 86.4747 71.8066 86.0006 73.0001 86.0006H91.0001C92.1936 86.0006 93.3382 86.4747 94.1821 87.3186C95.026 88.1625 95.5001 89.3071 95.5001 90.5006ZM94.1816 46.8191C93.3377 45.9755 92.1934 45.5016 91.0001 45.5016C89.8069 45.5016 88.6625 45.9755 87.8186 46.8191L82.0001 52.6376L76.1816 46.8191C75.7665 46.3893 75.27 46.0465 74.7209 45.8107C74.1719 45.5748 73.5814 45.4507 72.9839 45.4455C72.3864 45.4403 71.7939 45.5541 71.2408 45.7804C70.6878 46.0067 70.1854 46.3408 69.7628 46.7633C69.3403 47.1858 69.0062 47.6883 68.7799 48.2413C68.5537 48.7943 68.4398 49.3869 68.445 49.9844C68.4502 50.5819 68.5743 51.1724 68.8102 51.7214C69.046 52.2704 69.3888 52.767 69.8186 53.1821L75.6371 59.0006L69.8186 64.8191C69.3888 65.2342 69.046 65.7308 68.8102 66.2798C68.5743 66.8288 68.4502 67.4193 68.445 68.0168C68.4398 68.6143 68.5537 69.2069 68.7799 69.7599C69.0062 70.3129 69.3403 70.8154 69.7628 71.2379C70.1854 71.6604 70.6878 71.9945 71.2408 72.2208C71.7939 72.4471 72.3864 72.5609 72.9839 72.5557C73.5814 72.5505 74.1719 72.4264 74.7209 72.1906C75.27 71.9547 75.7665 71.6119 76.1816 71.1821L82.0001 65.3636L87.8186 71.1821C88.6673 72.0018 89.804 72.4554 90.9839 72.4451C92.1638 72.4349 93.2925 71.9616 94.1268 71.1273C94.9611 70.293 95.4344 69.1643 95.4446 67.9844C95.4549 66.8045 95.0013 65.6678 94.1816 64.8191L88.3631 59.0006L94.1816 53.1821C95.0252 52.3382 95.4992 51.1938 95.4992 50.0006C95.4992 48.8074 95.0252 47.663 94.1816 46.8191ZM127 86.0006H109C107.807 86.0006 106.662 86.4747 105.818 87.3186C104.974 88.1625 104.5 89.3071 104.5 90.5006C104.5 91.6941 104.974 92.8387 105.818 93.6826C106.662 94.5265 107.807 95.0006 109 95.0006H127C128.194 95.0006 129.338 94.5265 130.182 93.6826C131.026 92.8387 131.5 91.6941 131.5 90.5006C131.5 89.3071 131.026 88.1625 130.182 87.3186C129.338 86.4747 128.194 86.0006 127 86.0006ZM124.363 59.0006L130.182 53.1821C130.611 52.767 130.954 52.2704 131.19 51.7214C131.426 51.1724 131.55 50.5819 131.555 49.9844C131.56 49.3869 131.447 48.7943 131.22 48.2413C130.994 47.6883 130.66 47.1858 130.237 46.7633C129.815 46.3408 129.312 46.0067 128.759 45.7804C128.206 45.5541 127.614 45.4403 127.016 45.4455C126.419 45.4507 125.828 45.5748 125.279 45.8107C124.73 46.0465 124.234 46.3893 123.819 46.8191L118 52.6376L112.182 46.8191C111.767 46.3893 111.27 46.0465 110.721 45.8107C110.172 45.5748 109.581 45.4507 108.984 45.4455C108.386 45.4403 107.794 45.5541 107.241 45.7804C106.688 46.0067 106.185 46.3408 105.763 46.7633C105.34 47.1858 105.006 47.6883 104.78 48.2413C104.554 48.7943 104.44 49.3869 104.445 49.9844C104.45 50.5819 104.574 51.1724 104.81 51.7214C105.046 52.2704 105.389 52.767 105.819 53.1821L111.637 59.0006L105.819 64.8191C105.389 65.2342 105.046 65.7308 104.81 66.2798C104.574 66.8288 104.45 67.4193 104.445 68.0168C104.44 68.6143 104.554 69.2069 104.78 69.7599C105.006 70.3129 105.34 70.8154 105.763 71.2379C106.185 71.6604 106.688 71.9945 107.241 72.2208C107.794 72.4471 108.386 72.5609 108.984 72.5557C109.581 72.5505 110.172 72.4264 110.721 72.1906C111.27 71.9547 111.767 71.6119 112.182 71.1821L118 65.3636L123.819 71.1821C124.667 72.0018 125.804 72.4554 126.984 72.4451C128.164 72.4349 129.292 71.9616 130.127 71.1273C130.961 70.293 131.434 69.1643 131.445 67.9844C131.455 66.8045 131.001 65.6678 130.182 64.8191L124.363 59.0006ZM55.0001 86.0006H37.0001C35.8066 86.0006 34.6621 86.4747 33.8181 87.3186C32.9742 88.1625 32.5001 89.3071 32.5001 90.5006C32.5001 91.6941 32.9742 92.8387 33.8181 93.6826C34.6621 94.5265 35.8066 95.0006 37.0001 95.0006H55.0001C56.1936 95.0006 57.3382 94.5265 58.1821 93.6826C59.026 92.8387 59.5001 91.6941 59.5001 90.5006C59.5001 89.3071 59.026 88.1625 58.1821 87.3186C57.3382 86.4747 56.1936 86.0006 55.0001 86.0006ZM58.1816 46.8191C57.3377 45.9755 56.1934 45.5016 55.0001 45.5016C53.8069 45.5016 52.6625 45.9755 51.8186 46.8191L46.0001 52.6376L40.1816 46.8191C39.7665 46.3893 39.27 46.0465 38.7209 45.8107C38.1719 45.5748 37.5814 45.4507 36.9839 45.4455C36.3864 45.4403 35.7939 45.5541 35.2408 45.7804C34.6878 46.0067 34.1854 46.3408 33.7628 46.7633C33.3403 47.1858 33.0062 47.6883 32.7799 48.2413C32.5537 48.7943 32.4398 49.3869 32.445 49.9844C32.4502 50.5819 32.5743 51.1724 32.8102 51.7214C33.046 52.2704 33.3888 52.767 33.8186 53.1821L39.6371 59.0006L33.8186 64.8191C33.3888 65.2342 33.046 65.7308 32.8102 66.2798C32.5743 66.8288 32.4502 67.4193 32.445 68.0168C32.4398 68.6143 32.5537 69.2069 32.7799 69.7599C33.0062 70.3129 33.3403 70.8154 33.7628 71.2379C34.1854 71.6604 34.6878 71.9945 35.2408 72.2208C35.7939 72.4471 36.3864 72.5609 36.9839 72.5557C37.5814 72.5505 38.1719 72.4264 38.7209 72.1906C39.27 71.9547 39.7665 71.6119 40.1816 71.1821L46.0001 65.3636L51.8186 71.1821C52.2337 71.6119 52.7303 71.9547 53.2793 72.1906C53.8283 72.4264 54.4188 72.5505 55.0163 72.5557C55.6138 72.5609 56.2064 72.4471 56.7594 72.2208C57.3124 71.9945 57.8149 71.6604 58.2374 71.2379C58.6599 70.8154 58.9941 70.3129 59.2203 69.7599C59.4466 69.2069 59.5604 68.6143 59.5552 68.0168C59.5501 67.4193 59.4259 66.8288 59.1901 66.2798C58.9542 65.7308 58.6114 65.2342 58.1816 64.8191L52.3631 59.0006L58.1816 53.1821C59.0252 52.3382 59.4992 51.1938 59.4992 50.0006C59.4992 48.8074 59.0252 47.663 58.1816 46.8191Z"/>
</mask>
<path d="M95.5001 90.5006C95.5001 91.6941 95.026 92.8387 94.1821 93.6826C93.3382 94.5265 92.1936 95.0006 91.0001 95.0006H73.0001C71.8066 95.0006 70.6621 94.5265 69.8181 93.6826C68.9742 92.8387 68.5001 91.6941 68.5001 90.5006C68.5001 89.3071 68.9742 88.1625 69.8181 87.3186C70.6621 86.4747 71.8066 86.0006 73.0001 86.0006H91.0001C92.1936 86.0006 93.3382 86.4747 94.1821 87.3186C95.026 88.1625 95.5001 89.3071 95.5001 90.5006ZM94.1816 46.8191C93.3377 45.9755 92.1934 45.5016 91.0001 45.5016C89.8069 45.5016 88.6625 45.9755 87.8186 46.8191L82.0001 52.6376L76.1816 46.8191C75.7665 46.3893 75.27 46.0465 74.7209 45.8107C74.1719 45.5748 73.5814 45.4507 72.9839 45.4455C72.3864 45.4403 71.7939 45.5541 71.2408 45.7804C70.6878 46.0067 70.1854 46.3408 69.7628 46.7633C69.3403 47.1858 69.0062 47.6883 68.7799 48.2413C68.5537 48.7943 68.4398 49.3869 68.445 49.9844C68.4502 50.5819 68.5743 51.1724 68.8102 51.7214C69.046 52.2704 69.3888 52.767 69.8186 53.1821L75.6371 59.0006L69.8186 64.8191C69.3888 65.2342 69.046 65.7308 68.8102 66.2798C68.5743 66.8288 68.4502 67.4193 68.445 68.0168C68.4398 68.6143 68.5537 69.2069 68.7799 69.7599C69.0062 70.3129 69.3403 70.8154 69.7628 71.2379C70.1854 71.6604 70.6878 71.9945 71.2408 72.2208C71.7939 72.4471 72.3864 72.5609 72.9839 72.5557C73.5814 72.5505 74.1719 72.4264 74.7209 72.1906C75.27 71.9547 75.7665 71.6119 76.1816 71.1821L82.0001 65.3636L87.8186 71.1821C88.6673 72.0018 89.804 72.4554 90.9839 72.4451C92.1638 72.4349 93.2925 71.9616 94.1268 71.1273C94.9611 70.293 95.4344 69.1643 95.4446 67.9844C95.4549 66.8045 95.0013 65.6678 94.1816 64.8191L88.3631 59.0006L94.1816 53.1821C95.0252 52.3382 95.4992 51.1938 95.4992 50.0006C95.4992 48.8074 95.0252 47.663 94.1816 46.8191ZM127 86.0006H109C107.807 86.0006 106.662 86.4747 105.818 87.3186C104.974 88.1625 104.5 89.3071 104.5 90.5006C104.5 91.6941 104.974 92.8387 105.818 93.6826C106.662 94.5265 107.807 95.0006 109 95.0006H127C128.194 95.0006 129.338 94.5265 130.182 93.6826C131.026 92.8387 131.5 91.6941 131.5 90.5006C131.5 89.3071 131.026 88.1625 130.182 87.3186C129.338 86.4747 128.194 86.0006 127 86.0006ZM124.363 59.0006L130.182 53.1821C130.611 52.767 130.954 52.2704 131.19 51.7214C131.426 51.1724 131.55 50.5819 131.555 49.9844C131.56 49.3869 131.447 48.7943 131.22 48.2413C130.994 47.6883 130.66 47.1858 130.237 46.7633C129.815 46.3408 129.312 46.0067 128.759 45.7804C128.206 45.5541 127.614 45.4403 127.016 45.4455C126.419 45.4507 125.828 45.5748 125.279 45.8107C124.73 46.0465 124.234 46.3893 123.819 46.8191L118 52.6376L112.182 46.8191C111.767 46.3893 111.27 46.0465 110.721 45.8107C110.172 45.5748 109.581 45.4507 108.984 45.4455C108.386 45.4403 107.794 45.5541 107.241 45.7804C106.688 46.0067 106.185 46.3408 105.763 46.7633C105.34 47.1858 105.006 47.6883 104.78 48.2413C104.554 48.7943 104.44 49.3869 104.445 49.9844C104.45 50.5819 104.574 51.1724 104.81 51.7214C105.046 52.2704 105.389 52.767 105.819 53.1821L111.637 59.0006L105.819 64.8191C105.389 65.2342 105.046 65.7308 104.81 66.2798C104.574 66.8288 104.45 67.4193 104.445 68.0168C104.44 68.6143 104.554 69.2069 104.78 69.7599C105.006 70.3129 105.34 70.8154 105.763 71.2379C106.185 71.6604 106.688 71.9945 107.241 72.2208C107.794 72.4471 108.386 72.5609 108.984 72.5557C109.581 72.5505 110.172 72.4264 110.721 72.1906C111.27 71.9547 111.767 71.6119 112.182 71.1821L118 65.3636L123.819 71.1821C124.667 72.0018 125.804 72.4554 126.984 72.4451C128.164 72.4349 129.292 71.9616 130.127 71.1273C130.961 70.293 131.434 69.1643 131.445 67.9844C131.455 66.8045 131.001 65.6678 130.182 64.8191L124.363 59.0006ZM55.0001 86.0006H37.0001C35.8066 86.0006 34.6621 86.4747 33.8181 87.3186C32.9742 88.1625 32.5001 89.3071 32.5001 90.5006C32.5001 91.6941 32.9742 92.8387 33.8181 93.6826C34.6621 94.5265 35.8066 95.0006 37.0001 95.0006H55.0001C56.1936 95.0006 57.3382 94.5265 58.1821 93.6826C59.026 92.8387 59.5001 91.6941 59.5001 90.5006C59.5001 89.3071 59.026 88.1625 58.1821 87.3186C57.3382 86.4747 56.1936 86.0006 55.0001 86.0006ZM58.1816 46.8191C57.3377 45.9755 56.1934 45.5016 55.0001 45.5016C53.8069 45.5016 52.6625 45.9755 51.8186 46.8191L46.0001 52.6376L40.1816 46.8191C39.7665 46.3893 39.27 46.0465 38.7209 45.8107C38.1719 45.5748 37.5814 45.4507 36.9839 45.4455C36.3864 45.4403 35.7939 45.5541 35.2408 45.7804C34.6878 46.0067 34.1854 46.3408 33.7628 46.7633C33.3403 47.1858 33.0062 47.6883 32.7799 48.2413C32.5537 48.7943 32.4398 49.3869 32.445 49.9844C32.4502 50.5819 32.5743 51.1724 32.8102 51.7214C33.046 52.2704 33.3888 52.767 33.8186 53.1821L39.6371 59.0006L33.8186 64.8191C33.3888 65.2342 33.046 65.7308 32.8102 66.2798C32.5743 66.8288 32.4502 67.4193 32.445 68.0168C32.4398 68.6143 32.5537 69.2069 32.7799 69.7599C33.0062 70.3129 33.3403 70.8154 33.7628 71.2379C34.1854 71.6604 34.6878 71.9945 35.2408 72.2208C35.7939 72.4471 36.3864 72.5609 36.9839 72.5557C37.5814 72.5505 38.1719 72.4264 38.7209 72.1906C39.27 71.9547 39.7665 71.6119 40.1816 71.1821L46.0001 65.3636L51.8186 71.1821C52.2337 71.6119 52.7303 71.9547 53.2793 72.1906C53.8283 72.4264 54.4188 72.5505 55.0163 72.5557C55.6138 72.5609 56.2064 72.4471 56.7594 72.2208C57.3124 71.9945 57.8149 71.6604 58.2374 71.2379C58.6599 70.8154 58.9941 70.3129 59.2203 69.7599C59.4466 69.2069 59.5604 68.6143 59.5552 68.0168C59.5501 67.4193 59.4259 66.8288 59.1901 66.2798C58.9542 65.7308 58.6114 65.2342 58.1816 64.8191L52.3631 59.0006L58.1816 53.1821C59.0252 52.3382 59.4992 51.1938 59.4992 50.0006C59.4992 48.8074 59.0252 47.663 58.1816 46.8191Z" fill="#964CC3" stroke="white" stroke-width="2" mask="url(#path-4-inside-1_3262_5723)"/>
<path d="M387.43 98.9297L393.5 105L387.43 111.07" stroke="#320051" stroke-width="1.5" stroke-miterlimit="10" stroke-linecap="round" stroke-linejoin="round"/>
<path d="M376.5 105H393.33" stroke="#320051" stroke-width="1.5" stroke-miterlimit="10" stroke-linecap="round" stroke-linejoin="round"/>
<path d="M-3 120.098C75 165.598 131.5 85.0978 208.5 120.098C285.5 155.099 337.404 120.098 420 120.098V153.598H-3V120.098Z" fill="#964CC3"/>
</g>
<defs>
<clipPath id="clip0_3262_5723">
<rect width="417" height="137" rx="10" fill="white"/>
</clipPath>
</defs>
</svg>
