<svg width="75" height="112" viewBox="0 0 75 112" fill="none" xmlns="http://www.w3.org/2000/svg">
<g clip-path="url(#clip0_2862_56297)">
<path d="M88.6667 0H23.3333C10.4673 0 0 10.4673 0 23.3333V88.6667C0 101.533 10.4673 112 23.3333 112H77.6813C83.6873 112 89.334 109.662 93.5807 105.415L105.415 93.5807C109.601 89.3993 112 83.5987 112 77.6813V23.3333C112 10.4673 101.533 0 88.6667 0ZM9.33333 88.6667V23.3333C9.33333 15.6147 15.6147 9.33333 23.3333 9.33333H88.6667C96.3853 9.33333 102.667 15.6147 102.667 23.3333V70H84C76.2813 70 70 76.2813 70 84V102.667H23.3333C15.6147 102.667 9.33333 96.3853 9.33333 88.6667ZM86.982 98.8167C84.8913 100.907 82.222 102.2 79.3333 102.559V84C79.3333 81.424 81.4287 79.3333 84 79.3333H102.555C102.186 82.2033 100.87 84.924 98.812 86.982L86.982 98.8167ZM23.3333 30.3333C23.3333 26.4693 26.4693 23.3333 30.3333 23.3333C34.1973 23.3333 37.3333 26.4693 37.3333 30.3333C37.3333 34.1973 34.1973 37.3333 30.3333 37.3333C26.4693 37.3333 23.3333 34.1973 23.3333 30.3333ZM37.3333 56C37.3333 59.864 34.1973 63 30.3333 63C26.4693 63 23.3333 59.864 23.3333 56C23.3333 52.136 26.4693 49 30.3333 49C34.1973 49 37.3333 52.136 37.3333 56ZM37.3333 81.6667C37.3333 85.5307 34.1973 88.6667 30.3333 88.6667C26.4693 88.6667 23.3333 85.5307 23.3333 81.6667C23.3333 77.8027 26.4693 74.6667 30.3333 74.6667C34.1973 74.6667 37.3333 77.8027 37.3333 81.6667Z" fill="white" fill-opacity="0.1"/>
</g>
<defs>
<clipPath id="clip0_2862_56297">
<rect width="112" height="112" fill="white"/>
</clipPath>
</defs>
</svg>
