<svg width="50" height="50" viewBox="0 0 50 50" fill="none" xmlns="http://www.w3.org/2000/svg">
<path d="M0 50V28.5714C0 26.9643 0.229167 25.506 0.6875 24.1964C1.14583 22.8869 1.75 21.7262 2.5 20.7143V10.7143C2.5 7.7381 3.22917 5.20833 4.6875 3.125C6.14583 1.04167 7.91667 0 10 0H20C20.9583 0 21.8542 0.253571 22.6875 0.760714C23.5208 1.26786 24.2917 1.96667 25 2.85714C25.7083 1.96429 26.4792 1.26548 27.3125 0.760714C28.1458 0.255952 29.0417 0.00238095 30 0H40C42.0833 0 43.8542 1.04167 45.3125 3.125C46.7708 5.20833 47.5 7.7381 47.5 10.7143V20.7143C48.25 21.7262 48.8542 22.8869 49.3125 24.1964C49.7708 25.506 50 26.9643 50 28.5714V50H45V42.8571H5V50H0ZM27.5 17.8571H42.5V10.7143C42.5 9.70238 42.26 8.85357 41.78 8.16786C41.3 7.48214 40.7067 7.14048 40 7.14286H30C29.2917 7.14286 28.6975 7.48571 28.2175 8.17143C27.7375 8.85714 27.4983 9.70476 27.5 10.7143V17.8571ZM7.5 17.8571H22.5V10.7143C22.5 9.70238 22.26 8.85357 21.78 8.16786C21.3 7.48214 20.7067 7.14048 20 7.14286H10C9.29167 7.14286 8.6975 7.48571 8.2175 8.17143C7.7375 8.85714 7.49833 9.70476 7.5 10.7143V17.8571Z" fill="white"/>
</svg>
