<svg width="50" height="50" viewBox="0 0 50 50" fill="none" xmlns="http://www.w3.org/2000/svg">
<path d="M5 50C3.625 50 2.4475 49.51 1.4675 48.53C0.487504 47.55 -0.00166242 46.3733 4.24448e-06 45V5C4.24448e-06 3.625 0.490004 2.4475 1.47 1.4675C2.45 0.487504 3.62667 -0.00166242 5 4.24448e-06H45C46.375 4.24448e-06 47.5525 0.490004 48.5325 1.47C49.5125 2.45 50.0017 3.62667 50 5V45C50 46.375 49.51 47.5525 48.53 48.5325C47.55 49.5125 46.3733 50.0017 45 50H5ZM17.5 30C16.7917 30 16.1975 29.76 15.7175 29.28C15.2375 28.8 14.9983 28.2067 15 27.5C15 26.7917 15.24 26.1975 15.72 25.7175C16.2 25.2375 16.7933 24.9983 17.5 25C18.2083 25 18.8025 25.24 19.2825 25.72C19.7625 26.2 20.0017 26.7933 20 27.5C20 28.2083 19.76 28.8025 19.28 29.2825C18.8 29.7625 18.2067 30.0017 17.5 30ZM32.5 30C31.7917 30 31.1975 29.76 30.7175 29.28C30.2375 28.8 29.9983 28.2067 30 27.5C30 26.7917 30.24 26.1975 30.72 25.7175C31.2 25.2375 31.7933 24.9983 32.5 25C33.2083 25 33.8025 25.24 34.2825 25.72C34.7625 26.2 35.0017 26.7933 35 27.5C35 28.2083 34.76 28.8025 34.28 29.2825C33.8 29.7625 33.2067 30.0017 32.5 30ZM7.5 22.75V39.25C7.5 39.8333 7.6875 40.3125 8.0625 40.6875C8.4375 41.0625 8.91667 41.25 9.5 41.25H10.5C11.0833 41.25 11.5625 41.0625 11.9375 40.6875C12.3125 40.3125 12.5 39.8333 12.5 39.25V36.25H37.5V39.25C37.5 39.8333 37.6875 40.3125 38.0625 40.6875C38.4375 41.0625 38.9167 41.25 39.5 41.25H40.5C41.0833 41.25 41.5625 41.0625 41.9375 40.6875C42.3125 40.3125 42.5 39.8333 42.5 39.25V22.75L38.375 10.75C38.1667 10.1667 37.8225 9.6875 37.3425 9.3125C36.8625 8.9375 36.3317 8.75 35.75 8.75H14.25C13.6667 8.75 13.135 8.9375 12.655 9.3125C12.175 9.6875 11.8317 10.1667 11.625 10.75L7.5 22.75ZM14.125 18.75L15.875 13.75H34.125L35.875 18.75H14.125Z" fill="white"/>
</svg>
