<svg width="50" height="50" viewBox="0 0 50 50" fill="none" xmlns="http://www.w3.org/2000/svg">
<path d="M17.5 40C18.2083 40 18.8025 39.76 19.2825 39.28C19.7625 38.8 20.0017 38.2067 20 37.5C20 36.7917 19.76 36.1975 19.28 35.7175C18.8 35.2375 18.2067 34.9983 17.5 35C16.7917 35 16.1975 35.24 15.7175 35.72C15.2375 36.2 14.9983 36.7933 15 37.5C15 38.2083 15.24 38.8025 15.72 39.2825C16.2 39.7625 16.7933 40.0017 17.5 40ZM25 40C25.7083 40 26.3025 39.76 26.7825 39.28C27.2625 38.8 27.5017 38.2067 27.5 37.5C27.5 36.7917 27.26 36.1975 26.78 35.7175C26.3 35.2375 25.7067 34.9983 25 35C24.2917 35 23.6975 35.24 23.2175 35.72C22.7375 36.2 22.4983 36.7933 22.5 37.5C22.5 38.2083 22.74 38.8025 23.22 39.2825C23.7 39.7625 24.2933 40.0017 25 40ZM32.5 40C33.2083 40 33.8025 39.76 34.2825 39.28C34.7625 38.8 35.0017 38.2067 35 37.5C35 36.7917 34.76 36.1975 34.28 35.7175C33.8 35.2375 33.2067 34.9983 32.5 35C31.7917 35 31.1975 35.24 30.7175 35.72C30.2375 36.2 29.9983 36.7933 30 37.5C30 38.2083 30.24 38.8025 30.72 39.2825C31.2 39.7625 31.7933 40.0017 32.5 40ZM17.5 32.5C18.2083 32.5 18.8025 32.26 19.2825 31.78C19.7625 31.3 20.0017 30.7067 20 30C20 29.2917 19.76 28.6975 19.28 28.2175C18.8 27.7375 18.2067 27.4983 17.5 27.5C16.7917 27.5 16.1975 27.74 15.7175 28.22C15.2375 28.7 14.9983 29.2933 15 30C15 30.7083 15.24 31.3025 15.72 31.7825C16.2 32.2625 16.7933 32.5017 17.5 32.5ZM25 32.5C25.7083 32.5 26.3025 32.26 26.7825 31.78C27.2625 31.3 27.5017 30.7067 27.5 30C27.5 29.2917 27.26 28.6975 26.78 28.2175C26.3 27.7375 25.7067 27.4983 25 27.5C24.2917 27.5 23.6975 27.74 23.2175 28.22C22.7375 28.7 22.4983 29.2933 22.5 30C22.5 30.7083 22.74 31.3025 23.22 31.7825C23.7 32.2625 24.2933 32.5017 25 32.5ZM32.5 32.5C33.2083 32.5 33.8025 32.26 34.2825 31.78C34.7625 31.3 35.0017 30.7067 35 30C35 29.2917 34.76 28.6975 34.28 28.2175C33.8 27.7375 33.2067 27.4983 32.5 27.5C31.7917 27.5 31.1975 27.74 30.7175 28.22C30.2375 28.7 29.9983 29.2933 30 30C30 30.7083 30.24 31.3025 30.72 31.7825C31.2 32.2625 31.7933 32.5017 32.5 32.5ZM12.5 25H37.5V22.5C37.5 19.0417 36.2808 16.0933 33.8425 13.655C31.4042 11.2167 28.4567 9.99834 25 10C21.5417 10 18.5933 11.2192 16.155 13.6575C13.7167 16.0958 12.4983 19.0433 12.5 22.5V25ZM5 50C3.625 50 2.4475 49.51 1.4675 48.53C0.487504 47.55 -0.00166242 46.3733 4.24448e-06 45V5C4.24448e-06 3.625 0.490004 2.4475 1.47 1.4675C2.45 0.487504 3.62667 -0.00166242 5 4.24448e-06H45C46.375 4.24448e-06 47.5525 0.490004 48.5325 1.47C49.5125 2.45 50.0017 3.62667 50 5V45C50 46.375 49.51 47.5525 48.53 48.5325C47.55 49.5125 46.3733 50.0017 45 50H5Z" fill="white"/>
</svg>
