<svg width="53" height="53" viewBox="0 0 53 53" fill="none" xmlns="http://www.w3.org/2000/svg">
<path d="M26.5003 4.41797C14.2882 4.41797 4.41699 14.2892 4.41699 26.5013C4.41699 38.7134 14.2882 48.5846 26.5003 48.5846C38.7124 48.5846 48.5837 38.7134 48.5837 26.5013C48.5837 14.2892 38.7124 4.41797 26.5003 4.41797ZM26.5003 44.168C16.7616 44.168 8.83366 36.2401 8.83366 26.5013C8.83366 16.7626 16.7616 8.83464 26.5003 8.83464C36.2391 8.83464 44.167 16.7626 44.167 26.5013C44.167 36.2401 36.2391 44.168 26.5003 44.168ZM34.4282 15.4596L26.5003 23.3876L18.5724 15.4596L15.4587 18.5734L23.3866 26.5013L15.4587 34.4292L18.5724 37.543L26.5003 29.6151L34.4282 37.543L37.542 34.4292L29.6141 26.5013L37.542 18.5734L34.4282 15.4596Z" fill="white"/>
</svg>
