<svg width="1440" height="811" viewBox="0 0 1440 811" fill="none" xmlns="http://www.w3.org/2000/svg">
<g clip-path="url(#clip0_2315_53674)">
<path opacity="0.93" d="M-1 595.07C239.333 140.91 479.667 82.7879 720 420.705C960.333 758.621 1200.67 816.743 1441 595.07" stroke="url(#paint0_linear_2315_53674)" stroke-opacity="0.5" stroke-width="2" stroke-linecap="round"/>
<path opacity="0.2" d="M-1 572.767C239.333 133.475 479.667 82.788 720 420.705C960.333 758.621 1200.67 809.309 1441 572.767" stroke="url(#paint1_linear_2315_53674)" stroke-opacity="0.5" stroke-width="2" stroke-linecap="round"/>
<path opacity="0.08" d="M-1 550.466C239.333 126.043 479.667 82.7893 720 420.706C960.333 758.623 1200.67 801.876 1441 550.466" stroke="url(#paint2_linear_2315_53674)" stroke-opacity="0.5" stroke-width="2" stroke-linecap="round"/>
<path opacity="0.8" d="M-1 528.16C239.333 118.605 479.667 82.7858 720 420.703C960.333 758.619 1200.67 794.438 1441 528.16" stroke="url(#paint3_linear_2315_53674)" stroke-opacity="0.5" stroke-width="2" stroke-linecap="round"/>
<path opacity="0.87" d="M-1 505.86C239.333 111.173 479.667 82.788 720 420.705C960.333 758.621 1200.67 787.006 1441 505.86" stroke="url(#paint4_linear_2315_53674)" stroke-opacity="0.5" stroke-width="2" stroke-linecap="round"/>
<path opacity="0.18" d="M-1 483.557C239.333 103.738 479.667 82.7875 720 420.704C960.333 758.621 1200.67 779.572 1441 483.557" stroke="url(#paint5_linear_2315_53674)" stroke-opacity="0.5" stroke-width="2" stroke-linecap="round"/>
<path opacity="0.74" d="M-1 461.256C239.333 96.3055 479.667 82.7889 720 420.706C960.333 758.622 1200.67 772.139 1441 461.256" stroke="url(#paint6_linear_2315_53674)" stroke-opacity="0.5" stroke-width="2" stroke-linecap="round"/>
<path opacity="0.32" d="M-1 438.954C239.333 88.8721 479.667 82.7896 720 420.706C960.333 758.623 1200.67 764.705 1441 438.954" stroke="url(#paint7_linear_2315_53674)" stroke-opacity="0.5" stroke-width="2" stroke-linecap="round"/>
<path opacity="0.4" d="M-1 416.65C239.333 81.437 479.667 82.7886 720 420.705C960.333 758.622 1200.67 757.27 1441 416.65" stroke="url(#paint8_linear_2315_53674)" stroke-opacity="0.5" stroke-width="2" stroke-linecap="round"/>
<path opacity="0.95" d="M-1 394.345C239.333 74.0003 479.667 82.7861 720 420.703C960.333 758.619 1200.67 749.834 1441 394.345" stroke="url(#paint9_linear_2315_53674)" stroke-opacity="0.5" stroke-width="2" stroke-linecap="round"/>
<path opacity="0.85" d="M-1 372.044C239.333 66.5675 479.667 82.7875 720 420.704C960.333 758.621 1200.67 742.401 1441 372.044" stroke="url(#paint10_linear_2315_53674)" stroke-opacity="0.5" stroke-width="2" stroke-linecap="round"/>
<path opacity="0.98" d="M-1 349.742C239.333 59.134 479.667 82.7882 720 420.705C960.333 758.621 1200.67 734.967 1441 349.742" stroke="url(#paint11_linear_2315_53674)" stroke-opacity="0.5" stroke-width="2" stroke-linecap="round"/>
<path d="M-1 327.441C239.333 51.701 479.667 82.7894 720 420.706C960.333 758.623 1200.67 727.534 1441 327.441" stroke="url(#paint12_linear_2315_53674)" stroke-opacity="0.5" stroke-width="2" stroke-linecap="round"/>
<path opacity="0.42" d="M-1 305.136C239.333 44.2639 479.667 82.7864 720 420.703C960.333 758.62 1200.67 720.097 1441 305.136" stroke="url(#paint13_linear_2315_53674)" stroke-opacity="0.5" stroke-width="2" stroke-linecap="round"/>
<path opacity="0.75" d="M-1 282.835C239.333 36.8321 479.667 82.7888 720 420.705C960.333 758.622 1200.67 712.665 1441 282.835" stroke="url(#paint14_linear_2315_53674)" stroke-opacity="0.5" stroke-width="2" stroke-linecap="round"/>
<path opacity="0.48" d="M-1 260.533C239.333 29.3981 479.667 82.7889 720 420.706C960.333 758.622 1200.67 705.231 1441 260.533" stroke="url(#paint15_linear_2315_53674)" stroke-opacity="0.5" stroke-width="2" stroke-linecap="round"/>
<path opacity="0.81" d="M-1 238.228C239.333 21.9613 479.667 82.7863 720 420.703C960.333 758.62 1200.67 697.795 1441 238.228" stroke="url(#paint16_linear_2315_53674)" stroke-opacity="0.5" stroke-width="2" stroke-linecap="round"/>
<path opacity="0.99" d="M-1 215.927C239.333 14.5283 479.667 82.7874 720 420.704C960.333 758.621 1200.67 690.362 1441 215.927" stroke="url(#paint17_linear_2315_53674)" stroke-opacity="0.5" stroke-width="2" stroke-linecap="round"/>
<path opacity="0.44" d="M-1 193.624C239.333 7.09408 479.667 82.7874 720 420.704C960.333 758.621 1200.67 682.927 1441 193.624" stroke="url(#paint18_linear_2315_53674)" stroke-opacity="0.5" stroke-width="2" stroke-linecap="round"/>
<path opacity="0.82" d="M-1 171.324C239.333 -0.338131 479.667 82.7893 720 420.706C960.333 758.623 1200.67 675.495 1441 171.324" stroke="url(#paint19_linear_2315_53674)" stroke-opacity="0.5" stroke-width="2" stroke-linecap="round"/>
<path opacity="0.88" d="M-1 149.018C239.333 -7.77567 479.667 82.786 720 420.703C960.333 758.619 1200.67 668.058 1441 149.018" stroke="url(#paint20_linear_2315_53674)" stroke-opacity="0.5" stroke-width="2" stroke-linecap="round"/>
<path opacity="0.96" d="M-1 126.717C239.333 -15.2083 479.667 82.7875 720 420.704C960.333 758.621 1200.67 660.625 1441 126.717" stroke="url(#paint21_linear_2315_53674)" stroke-opacity="0.5" stroke-width="2" stroke-linecap="round"/>
<path opacity="0.95" d="M-1 104.414C239.333 -22.6423 479.667 82.7877 720 420.704C960.333 758.621 1200.67 653.191 1441 104.414" stroke="url(#paint22_linear_2315_53674)" stroke-opacity="0.5" stroke-width="2" stroke-linecap="round"/>
<path opacity="0.31" d="M-1 82.1123C239.333 -30.0761 479.667 82.7881 720 420.705C960.333 758.621 1200.67 645.757 1441 82.1123" stroke="url(#paint23_linear_2315_53674)" stroke-opacity="0.5" stroke-width="2" stroke-linecap="round"/>
<path opacity="0.81" d="M-1 59.8095C239.333 -37.5105 479.667 82.7878 720 420.704C960.333 758.621 1200.67 638.323 1441 59.8095" stroke="url(#paint24_linear_2315_53674)" stroke-opacity="0.5" stroke-width="2" stroke-linecap="round"/>
</g>
<defs>
<linearGradient id="paint0_linear_2315_53674" x1="72099" y1="204.461" x2="72099" y2="52437.2" gradientUnits="userSpaceOnUse">
<stop stop-color="#964CC3"/>
<stop offset="0.891" stop-color="#320051"/>
</linearGradient>
<linearGradient id="paint1_linear_2315_53674" x1="72099" y1="200.324" x2="72099" y2="52054.5" gradientUnits="userSpaceOnUse">
<stop stop-color="#964CC3"/>
<stop offset="0.891" stop-color="#320051"/>
</linearGradient>
<linearGradient id="paint2_linear_2315_53674" x1="72099" y1="196.027" x2="72099" y2="51727.8" gradientUnits="userSpaceOnUse">
<stop stop-color="#964CC3"/>
<stop offset="0.891" stop-color="#320051"/>
</linearGradient>
<linearGradient id="paint3_linear_2315_53674" x1="72099" y1="191.555" x2="72099" y2="51455.1" gradientUnits="userSpaceOnUse">
<stop stop-color="#964CC3"/>
<stop offset="0.891" stop-color="#320051"/>
</linearGradient>
<linearGradient id="paint4_linear_2315_53674" x1="72099" y1="186.906" x2="72099" y2="51234.6" gradientUnits="userSpaceOnUse">
<stop stop-color="#964CC3"/>
<stop offset="0.891" stop-color="#320051"/>
</linearGradient>
<linearGradient id="paint5_linear_2315_53674" x1="72099" y1="182.062" x2="72099" y2="51065.2" gradientUnits="userSpaceOnUse">
<stop stop-color="#964CC3"/>
<stop offset="0.891" stop-color="#320051"/>
</linearGradient>
<linearGradient id="paint6_linear_2315_53674" x1="72099" y1="177.016" x2="72099" y2="50945.7" gradientUnits="userSpaceOnUse">
<stop stop-color="#964CC3"/>
<stop offset="0.891" stop-color="#320051"/>
</linearGradient>
<linearGradient id="paint7_linear_2315_53674" x1="72099" y1="171.75" x2="72099" y2="50875.7" gradientUnits="userSpaceOnUse">
<stop stop-color="#964CC3"/>
<stop offset="0.891" stop-color="#320051"/>
</linearGradient>
<linearGradient id="paint8_linear_2315_53674" x1="72099" y1="166.25" x2="72099" y2="50854.6" gradientUnits="userSpaceOnUse">
<stop stop-color="#964CC3"/>
<stop offset="0.891" stop-color="#320051"/>
</linearGradient>
<linearGradient id="paint9_linear_2315_53674" x1="72099" y1="160.5" x2="72099" y2="50882.3" gradientUnits="userSpaceOnUse">
<stop stop-color="#964CC3"/>
<stop offset="0.891" stop-color="#320051"/>
</linearGradient>
<linearGradient id="paint10_linear_2315_53674" x1="72099" y1="154.488" x2="72099" y2="50959" gradientUnits="userSpaceOnUse">
<stop stop-color="#964CC3"/>
<stop offset="0.891" stop-color="#320051"/>
</linearGradient>
<linearGradient id="paint11_linear_2315_53674" x1="72099" y1="148.191" x2="72099" y2="51085.3" gradientUnits="userSpaceOnUse">
<stop stop-color="#964CC3"/>
<stop offset="0.891" stop-color="#320051"/>
</linearGradient>
<linearGradient id="paint12_linear_2315_53674" x1="72099" y1="141.59" x2="72099" y2="51261.8" gradientUnits="userSpaceOnUse">
<stop stop-color="#964CC3"/>
<stop offset="0.891" stop-color="#320051"/>
</linearGradient>
<linearGradient id="paint13_linear_2315_53674" x1="72099" y1="134.656" x2="72099" y2="51489.6" gradientUnits="userSpaceOnUse">
<stop stop-color="#964CC3"/>
<stop offset="0.891" stop-color="#320051"/>
</linearGradient>
<linearGradient id="paint14_linear_2315_53674" x1="72099" y1="127.375" x2="72099" y2="51770.1" gradientUnits="userSpaceOnUse">
<stop stop-color="#964CC3"/>
<stop offset="0.891" stop-color="#320051"/>
</linearGradient>
<linearGradient id="paint15_linear_2315_53674" x1="72099" y1="119.711" x2="72099" y2="52105" gradientUnits="userSpaceOnUse">
<stop stop-color="#964CC3"/>
<stop offset="0.891" stop-color="#320051"/>
</linearGradient>
<linearGradient id="paint16_linear_2315_53674" x1="72099" y1="111.633" x2="72099" y2="52496.4" gradientUnits="userSpaceOnUse">
<stop stop-color="#964CC3"/>
<stop offset="0.891" stop-color="#320051"/>
</linearGradient>
<linearGradient id="paint17_linear_2315_53674" x1="72099" y1="103.113" x2="72099" y2="52946.9" gradientUnits="userSpaceOnUse">
<stop stop-color="#964CC3"/>
<stop offset="0.891" stop-color="#320051"/>
</linearGradient>
<linearGradient id="paint18_linear_2315_53674" x1="72099" y1="94.1094" x2="72099" y2="53459.3" gradientUnits="userSpaceOnUse">
<stop stop-color="#964CC3"/>
<stop offset="0.891" stop-color="#320051"/>
</linearGradient>
<linearGradient id="paint19_linear_2315_53674" x1="72099" y1="84.582" x2="72099" y2="54037.1" gradientUnits="userSpaceOnUse">
<stop stop-color="#964CC3"/>
<stop offset="0.891" stop-color="#320051"/>
</linearGradient>
<linearGradient id="paint20_linear_2315_53674" x1="72099" y1="74.4766" x2="72099" y2="54684.3" gradientUnits="userSpaceOnUse">
<stop stop-color="#964CC3"/>
<stop offset="0.891" stop-color="#320051"/>
</linearGradient>
<linearGradient id="paint21_linear_2315_53674" x1="72099" y1="63.75" x2="72099" y2="55405.5" gradientUnits="userSpaceOnUse">
<stop stop-color="#964CC3"/>
<stop offset="0.891" stop-color="#320051"/>
</linearGradient>
<linearGradient id="paint22_linear_2315_53674" x1="72099" y1="52.3359" x2="72099" y2="56206.1" gradientUnits="userSpaceOnUse">
<stop stop-color="#964CC3"/>
<stop offset="0.891" stop-color="#320051"/>
</linearGradient>
<linearGradient id="paint23_linear_2315_53674" x1="72099" y1="40.168" x2="72099" y2="57092.2" gradientUnits="userSpaceOnUse">
<stop stop-color="#964CC3"/>
<stop offset="0.891" stop-color="#320051"/>
</linearGradient>
<linearGradient id="paint24_linear_2315_53674" x1="72099" y1="27.168" x2="72099" y2="58070.9" gradientUnits="userSpaceOnUse">
<stop stop-color="#964CC3"/>
<stop offset="0.891" stop-color="#320051"/>
</linearGradient>
<clipPath id="clip0_2315_53674">
<rect width="1442" height="811" fill="white" transform="translate(-1)"/>
</clipPath>
</defs>
</svg>
