<svg width="25" height="24" viewBox="0 0 25 24" fill="none" xmlns="http://www.w3.org/2000/svg">
<path d="M21.6758 5.97463C21.6904 6.23514 21.6904 6.49543 21.6904 6.75826C21.6904 14.7653 16.7373 24 7.68044 24V23.9954C5.00483 24 2.38467 23.0568 0.132812 21.2785C0.521875 21.3362 0.912813 21.365 1.30469 21.3662C3.52227 21.3684 5.67607 20.453 7.42 18.7673C6.39249 18.7434 5.39674 18.3249 4.57195 17.5704C3.74717 16.8159 3.1346 15.763 2.81988 14.559C3.55806 14.7344 4.31856 14.6982 5.04306 14.4545C2.74581 13.8834 1.09319 11.3996 1.09319 8.51497V8.43813C1.77799 8.90763 2.54445 9.16776 3.328 9.19661C1.16406 7.41705 0.4975 3.87479 1.804 1.10554C3.04017 2.97755 4.58249 4.5086 6.33078 5.59926C8.07907 6.68992 9.99424 7.31578 11.9519 7.4362C11.7567 6.40215 11.7856 5.32318 12.0356 4.30718C12.2856 3.29117 12.748 2.37375 13.3765 1.64665C15.3597 -0.647708 18.4788 -0.530025 20.3429 1.90948C21.4456 1.64152 22.5031 1.14395 23.4698 0.438208C23.1022 1.84134 22.333 3.0324 21.3053 3.78987C22.2814 3.64824 23.2346 3.32659 24.1328 2.83571C23.472 4.05353 22.64 5.11649 21.6758 5.97463Z" fill="#1D9BF0"/>
</svg>
