<svg width="25" height="24" viewBox="0 0 25 24" fill="none" xmlns="http://www.w3.org/2000/svg">
<path d="M22.6727 10.0415H21.8672V10H12.8672V14H18.5187C17.6942 16.3285 15.4787 18 12.8672 18C9.55369 18 6.86719 15.3135 6.86719 12C6.86719 8.6865 9.55369 6 12.8672 6C14.3967 6 15.7882 6.577 16.8477 7.5195L19.6762 4.691C17.8902 3.0265 15.5012 2 12.8672 2C7.34469 2 2.86719 6.4775 2.86719 12C2.86719 17.5225 7.34469 22 12.8672 22C18.3897 22 22.8672 17.5225 22.8672 12C22.8672 11.3295 22.7982 10.675 22.6727 10.0415Z" fill="#FFC107"/>
<path d="M4.02051 7.3455L7.30601 9.755C8.19501 7.554 10.348 6 12.8675 6C14.397 6 15.7885 6.577 16.848 7.5195L19.6765 4.691C17.8905 3.0265 15.5015 2 12.8675 2C9.02651 2 5.69551 4.1685 4.02051 7.3455Z" fill="#FF3D00"/>
<path d="M12.8673 22.0003C15.4503 22.0003 17.7973 21.0118 19.5718 19.4043L16.4768 16.7853C15.4391 17.5745 14.1711 18.0014 12.8673 18.0003C10.2663 18.0003 8.05784 16.3418 7.22584 14.0273L3.96484 16.5398C5.61984 19.7783 8.98084 22.0003 12.8673 22.0003Z" fill="#4CAF50"/>
<path d="M22.6727 10.0415H21.8672V10H12.8672V14H18.5187C18.1243 15.1082 17.4139 16.0766 16.4752 16.7855L16.4767 16.7845L19.5717 19.4035C19.3527 19.6025 22.8672 17 22.8672 12C22.8672 11.3295 22.7982 10.675 22.6727 10.0415Z" fill="#1976D2"/>
</svg>
