<svg width="30" height="30" viewBox="0 0 30 30" fill="none" xmlns="http://www.w3.org/2000/svg">
<rect width="30" height="30" rx="5" fill="#964DC3"/>
<path fill-rule="evenodd" clip-rule="evenodd" d="M20.6206 18.7234C21.1212 17.9742 21.4639 17.1361 21.6335 16.2599H15.8181C14.6693 16.2599 13.7381 15.3286 13.7381 14.1799V8.36447C12.8619 8.53401 12.0237 8.87679 11.2746 9.37736C10.1665 10.1177 9.30288 11.1701 8.79289 12.4013C8.2829 13.6325 8.14946 14.9873 8.40945 16.2944C8.66944 17.6015 9.31119 18.8021 10.2535 19.7444C11.1959 20.6868 12.3965 21.3285 13.7035 21.5885C15.0106 21.8485 16.3654 21.715 17.5966 21.2051C18.8279 20.6951 19.8802 19.8314 20.6206 18.7234ZM22.2362 14.9799C22.678 14.9799 23.0403 15.3389 22.9963 15.7786C22.8658 17.0822 22.4172 18.3384 21.6849 19.4345C20.8038 20.753 19.5516 21.7807 18.0865 22.3876C16.6213 22.9945 15.0092 23.1533 13.4538 22.8439C11.8985 22.5345 10.4698 21.7709 9.34844 20.6495C8.22709 19.5282 7.46345 18.0995 7.15407 16.5441C6.84469 14.9888 7.00347 13.3766 7.61034 11.9115C8.21721 10.4464 9.24491 9.19413 10.5635 8.31309C11.6596 7.5807 12.9157 7.13218 14.2194 7.00168C14.659 6.95767 15.0181 7.31997 15.0181 7.76179V14.1799C15.0181 14.6217 15.3762 14.9799 15.8181 14.9799H22.2362ZM17.1937 12.7584L17.2672 8.43826C18.3084 8.69494 19.2659 9.24033 20.023 10.0237C20.7802 10.807 21.2927 11.7826 21.5139 12.8319L17.1937 12.7584ZM15.998 7.79222C16.0055 7.35047 16.371 6.99375 16.809 7.0514C18.3751 7.25751 19.8348 7.9872 20.9434 9.13412C22.052 10.281 22.7316 11.7648 22.8843 13.3369C22.9271 13.7767 22.5581 14.1298 22.1164 14.1223L16.692 14.03C16.2503 14.0225 15.8982 13.6583 15.9057 13.2166L15.998 7.79222Z" fill="white"/>
</svg>
