<svg width="417" height="137" viewBox="0 0 417 137" fill="none" xmlns="http://www.w3.org/2000/svg">
<g clip-path="url(#clip0_2916_4197)">
<rect width="417" height="137" rx="10" fill="white"/>
<path d="M173.884 24.624V33H172.192V29.412H168.592V33H166.9V24.624H168.592V28.116H172.192V24.624H173.884ZM181.845 29.58C181.845 29.812 181.829 30.028 181.797 30.228H176.949C176.989 30.66 177.149 31.008 177.429 31.272C177.709 31.536 178.065 31.668 178.497 31.668C178.833 31.668 179.101 31.604 179.301 31.476C179.501 31.348 179.665 31.172 179.793 30.948H181.617C181.425 31.58 181.053 32.096 180.501 32.496C179.949 32.896 179.281 33.096 178.497 33.096C177.865 33.096 177.301 32.956 176.805 32.676C176.309 32.388 175.921 31.988 175.641 31.476C175.361 30.956 175.221 30.352 175.221 29.664C175.221 28.976 175.361 28.376 175.641 27.864C175.921 27.352 176.309 26.956 176.805 26.676C177.309 26.396 177.881 26.256 178.521 26.256C179.161 26.256 179.729 26.392 180.225 26.664C180.729 26.936 181.125 27.324 181.413 27.828C181.701 28.324 181.845 28.908 181.845 29.58ZM180.093 29.136C180.069 28.696 179.905 28.344 179.601 28.08C179.305 27.816 178.937 27.684 178.497 27.684C178.089 27.684 177.741 27.816 177.453 28.08C177.173 28.344 177.005 28.696 176.949 29.136H180.093ZM184.869 24.12V33H183.177V24.12H184.869ZM190.498 26.256C191.066 26.256 191.586 26.4 192.058 26.688C192.53 26.976 192.902 27.38 193.174 27.9C193.446 28.412 193.582 29 193.582 29.664C193.582 30.328 193.446 30.924 193.174 31.452C192.902 31.972 192.53 32.376 192.058 32.664C191.586 32.952 191.066 33.096 190.498 33.096C190.018 33.096 189.598 32.988 189.238 32.772C188.886 32.556 188.594 32.26 188.362 31.884V36.168H186.67V26.352H188.362V27.384C188.578 27.032 188.866 26.756 189.226 26.556C189.594 26.356 190.018 26.256 190.498 26.256ZM190.114 27.72C189.81 27.72 189.522 27.796 189.25 27.948C188.986 28.1 188.77 28.324 188.602 28.62C188.442 28.916 188.362 29.268 188.362 29.676C188.362 30.084 188.442 30.436 188.602 30.732C188.77 31.028 188.986 31.252 189.25 31.404C189.522 31.556 189.81 31.632 190.114 31.632C190.418 31.632 190.702 31.556 190.966 31.404C191.238 31.252 191.454 31.028 191.614 30.732C191.782 30.428 191.866 30.072 191.866 29.664C191.866 29.256 191.782 28.904 191.614 28.608C191.454 28.312 191.238 28.092 190.966 27.948C190.702 27.796 190.418 27.72 190.114 27.72ZM201.121 26.256C201.593 26.256 202.013 26.356 202.381 26.556C202.749 26.756 203.045 27.032 203.269 27.384V26.352H204.949V33H203.269V31.884C203.037 32.26 202.737 32.556 202.369 32.772C202.009 32.988 201.593 33.096 201.121 33.096C200.553 33.096 200.033 32.952 199.561 32.664C199.097 32.368 198.725 31.96 198.445 31.44C198.173 30.92 198.037 30.328 198.037 29.664C198.037 29 198.173 28.412 198.445 27.9C198.725 27.38 199.097 26.976 199.561 26.688C200.033 26.4 200.553 26.256 201.121 26.256ZM201.505 27.72C201.209 27.72 200.925 27.796 200.653 27.948C200.389 28.1 200.173 28.324 200.005 28.62C199.837 28.908 199.753 29.256 199.753 29.664C199.753 30.072 199.837 30.428 200.005 30.732C200.173 31.028 200.389 31.252 200.653 31.404C200.925 31.556 201.209 31.632 201.505 31.632C201.809 31.632 202.093 31.556 202.357 31.404C202.629 31.252 202.849 31.028 203.017 30.732C203.185 30.436 203.269 30.084 203.269 29.676C203.269 29.268 203.185 28.916 203.017 28.62C202.849 28.324 202.629 28.1 202.357 27.948C202.093 27.796 201.809 27.72 201.505 27.72ZM210.5 26.256C210.996 26.256 211.436 26.368 211.82 26.592C212.212 26.808 212.52 27.132 212.744 27.564C212.968 27.988 213.08 28.496 213.08 29.088V33H211.4V29.328C211.4 28.808 211.268 28.412 211.004 28.14C210.74 27.86 210.38 27.72 209.924 27.72C209.468 27.72 209.104 27.86 208.832 28.14C208.568 28.412 208.436 28.808 208.436 29.328V33H206.744V26.352H208.436V27.348C208.644 26.996 208.924 26.728 209.276 26.544C209.636 26.352 210.044 26.256 210.5 26.256ZM217.434 26.256C217.906 26.256 218.326 26.356 218.694 26.556C219.062 26.756 219.358 27.032 219.582 27.384V24.12H221.262V33H219.582V31.884C219.35 32.26 219.05 32.556 218.682 32.772C218.322 32.988 217.906 33.096 217.434 33.096C216.866 33.096 216.346 32.952 215.874 32.664C215.41 32.368 215.038 31.96 214.758 31.44C214.486 30.92 214.35 30.328 214.35 29.664C214.35 29 214.486 28.412 214.758 27.9C215.038 27.38 215.41 26.976 215.874 26.688C216.346 26.4 216.866 26.256 217.434 26.256ZM217.818 27.72C217.522 27.72 217.238 27.796 216.966 27.948C216.702 28.1 216.486 28.324 216.318 28.62C216.15 28.908 216.066 29.256 216.066 29.664C216.066 30.072 216.15 30.428 216.318 30.732C216.486 31.028 216.702 31.252 216.966 31.404C217.238 31.556 217.522 31.632 217.818 31.632C218.122 31.632 218.406 31.556 218.67 31.404C218.942 31.252 219.162 31.028 219.33 30.732C219.498 30.436 219.582 30.084 219.582 29.676C219.582 29.268 219.498 28.916 219.33 28.62C219.162 28.324 218.942 28.1 218.67 27.948C218.406 27.796 218.122 27.72 217.818 27.72ZM232.522 30.564C232.522 31.012 232.398 31.428 232.15 31.812C231.91 32.196 231.562 32.504 231.106 32.736C230.658 32.968 230.134 33.084 229.534 33.084C228.614 33.084 227.874 32.872 227.314 32.448C226.754 32.016 226.474 31.412 226.474 30.636H228.274C228.306 30.996 228.426 31.272 228.634 31.464C228.85 31.648 229.15 31.74 229.534 31.74C229.918 31.74 230.222 31.64 230.446 31.44C230.67 31.24 230.782 30.98 230.782 30.66C230.782 30.404 230.702 30.196 230.542 30.036C230.39 29.876 230.198 29.752 229.966 29.664C229.742 29.576 229.422 29.476 229.006 29.364C228.47 29.228 228.034 29.088 227.698 28.944C227.362 28.8 227.074 28.576 226.834 28.272C226.594 27.96 226.474 27.54 226.474 27.012C226.474 26.508 226.598 26.068 226.846 25.692C227.102 25.308 227.454 25.016 227.902 24.816C228.35 24.608 228.858 24.504 229.426 24.504C230.298 24.504 230.998 24.704 231.526 25.104C232.054 25.496 232.342 26.096 232.39 26.904H230.542C230.51 26.584 230.39 26.332 230.182 26.148C229.974 25.956 229.706 25.86 229.378 25.86C229.034 25.86 228.754 25.948 228.538 26.124C228.33 26.292 228.226 26.552 228.226 26.904C228.226 27.168 228.302 27.384 228.454 27.552C228.614 27.712 228.81 27.836 229.042 27.924C229.274 28.012 229.594 28.108 230.002 28.212C230.538 28.348 230.974 28.488 231.31 28.632C231.646 28.776 231.93 29.004 232.162 29.316C232.402 29.62 232.522 30.036 232.522 30.564ZM240.418 26.352V33H238.726V31.992C238.518 32.344 238.234 32.616 237.874 32.808C237.522 32.992 237.114 33.084 236.65 33.084C236.162 33.084 235.722 32.976 235.33 32.76C234.946 32.536 234.642 32.212 234.418 31.788C234.194 31.356 234.082 30.844 234.082 30.252V26.352H235.762V30.012C235.762 30.532 235.894 30.932 236.158 31.212C236.422 31.492 236.782 31.632 237.238 31.632C237.694 31.632 238.054 31.492 238.318 31.212C238.59 30.932 238.726 30.532 238.726 30.012V26.352H240.418ZM246.044 26.256C246.612 26.256 247.132 26.4 247.604 26.688C248.076 26.976 248.448 27.38 248.72 27.9C248.992 28.412 249.128 29 249.128 29.664C249.128 30.328 248.992 30.924 248.72 31.452C248.448 31.972 248.076 32.376 247.604 32.664C247.132 32.952 246.612 33.096 246.044 33.096C245.564 33.096 245.144 32.988 244.784 32.772C244.432 32.556 244.14 32.26 243.908 31.884V36.168H242.216V26.352H243.908V27.384C244.124 27.032 244.412 26.756 244.772 26.556C245.14 26.356 245.564 26.256 246.044 26.256ZM245.66 27.72C245.356 27.72 245.068 27.796 244.796 27.948C244.532 28.1 244.316 28.324 244.148 28.62C243.988 28.916 243.908 29.268 243.908 29.676C243.908 30.084 243.988 30.436 244.148 30.732C244.316 31.028 244.532 31.252 244.796 31.404C245.068 31.556 245.356 31.632 245.66 31.632C245.964 31.632 246.248 31.556 246.512 31.404C246.784 31.252 247 31.028 247.16 30.732C247.328 30.428 247.412 30.072 247.412 29.664C247.412 29.256 247.328 28.904 247.16 28.608C247 28.312 246.784 28.092 246.512 27.948C246.248 27.796 245.964 27.72 245.66 27.72ZM254.283 26.256C254.851 26.256 255.371 26.4 255.843 26.688C256.315 26.976 256.687 27.38 256.959 27.9C257.231 28.412 257.367 29 257.367 29.664C257.367 30.328 257.231 30.924 256.959 31.452C256.687 31.972 256.315 32.376 255.843 32.664C255.371 32.952 254.851 33.096 254.283 33.096C253.803 33.096 253.383 32.988 253.023 32.772C252.671 32.556 252.379 32.26 252.147 31.884V36.168H250.455V26.352H252.147V27.384C252.363 27.032 252.651 26.756 253.011 26.556C253.379 26.356 253.803 26.256 254.283 26.256ZM253.899 27.72C253.595 27.72 253.307 27.796 253.035 27.948C252.771 28.1 252.555 28.324 252.387 28.62C252.227 28.916 252.147 29.268 252.147 29.676C252.147 30.084 252.227 30.436 252.387 30.732C252.555 31.028 252.771 31.252 253.035 31.404C253.307 31.556 253.595 31.632 253.899 31.632C254.203 31.632 254.487 31.556 254.751 31.404C255.023 31.252 255.239 31.028 255.399 30.732C255.567 30.428 255.651 30.072 255.651 29.664C255.651 29.256 255.567 28.904 255.399 28.608C255.239 28.312 255.023 28.092 254.751 27.948C254.487 27.796 254.203 27.72 253.899 27.72ZM261.669 26.256C262.301 26.256 262.877 26.396 263.397 26.676C263.917 26.956 264.329 27.356 264.633 27.876C264.937 28.388 265.089 28.984 265.089 29.664C265.089 30.344 264.937 30.944 264.633 31.464C264.329 31.984 263.913 32.388 263.385 32.676C262.865 32.956 262.285 33.096 261.645 33.096C261.013 33.096 260.437 32.956 259.917 32.676C259.397 32.388 258.985 31.984 258.681 31.464C258.385 30.944 258.237 30.344 258.237 29.664C258.237 28.984 258.389 28.388 258.693 27.876C258.997 27.356 259.409 26.956 259.929 26.676C260.449 26.396 261.029 26.256 261.669 26.256ZM261.657 27.684C261.177 27.684 260.773 27.856 260.445 28.2C260.117 28.544 259.953 29.036 259.953 29.676C259.953 30.108 260.029 30.476 260.181 30.78C260.341 31.076 260.549 31.3 260.805 31.452C261.061 31.596 261.341 31.668 261.645 31.668C261.941 31.668 262.221 31.592 262.485 31.44C262.749 31.288 262.961 31.064 263.121 30.768C263.289 30.464 263.373 30.1 263.373 29.676C263.373 29.244 263.293 28.88 263.133 28.584C262.973 28.28 262.761 28.056 262.497 27.912C262.241 27.76 261.961 27.684 261.657 27.684ZM268.119 27.528C268.327 27.128 268.595 26.816 268.923 26.592C269.259 26.368 269.639 26.256 270.063 26.256V27.984H269.643C269.139 27.984 268.759 28.112 268.503 28.368C268.247 28.616 268.119 29.048 268.119 29.664V33H266.427V26.352H268.119V27.528ZM274.651 31.584V33H273.583C272.903 33 272.379 32.844 272.011 32.532C271.643 32.22 271.459 31.704 271.459 30.984V27.732H270.751V26.352H271.459V24.708H273.151V26.352H274.639V27.732H273.151V30.984C273.151 31.2 273.203 31.356 273.307 31.452C273.411 31.54 273.591 31.584 273.847 31.584H274.651Z" fill="#320051"/>
<path d="M169.136 47.4C169.712 47.4 170.224 47.536 170.672 47.808C171.125 48.08 171.459 48.472 171.672 48.984H170.792C170.632 48.68 170.408 48.448 170.12 48.288C169.832 48.128 169.504 48.048 169.136 48.048C168.741 48.048 168.384 48.1387 168.064 48.32C167.749 48.496 167.501 48.7493 167.32 49.08C167.144 49.4107 167.056 49.792 167.056 50.224C167.056 50.656 167.144 51.0373 167.32 51.368C167.501 51.6987 167.749 51.9547 168.064 52.136C168.384 52.3173 168.741 52.408 169.136 52.408C169.701 52.408 170.16 52.2427 170.512 51.912C170.869 51.5813 171.077 51.1333 171.136 50.568H168.848V49.992H171.904V50.568C171.856 51.0373 171.704 51.4613 171.448 51.84C171.197 52.2187 170.869 52.5147 170.464 52.728C170.064 52.9413 169.621 53.048 169.136 53.048C168.619 53.048 168.144 52.928 167.712 52.688C167.28 52.4427 166.939 52.1067 166.688 51.68C166.437 51.248 166.312 50.7627 166.312 50.224C166.312 49.68 166.437 49.1947 166.688 48.768C166.939 48.336 167.28 48 167.712 47.76C168.144 47.52 168.619 47.4 169.136 47.4ZM176.803 50.624C176.803 50.7787 176.792 50.9227 176.771 51.056H173.275C173.296 51.4933 173.432 51.84 173.683 52.096C173.939 52.3467 174.264 52.472 174.659 52.472C174.957 52.472 175.208 52.4053 175.411 52.272C175.619 52.1387 175.771 51.9627 175.867 51.744H176.651C176.512 52.128 176.272 52.4453 175.931 52.696C175.595 52.9467 175.171 53.072 174.659 53.072C174.248 53.072 173.88 52.9787 173.555 52.792C173.235 52.6053 172.984 52.3413 172.803 52C172.621 51.6533 172.531 51.256 172.531 50.808C172.531 50.3547 172.621 49.9573 172.803 49.616C172.984 49.2693 173.24 49.0027 173.571 48.816C173.901 48.6293 174.283 48.536 174.715 48.536C175.125 48.536 175.488 48.6267 175.803 48.808C176.117 48.9893 176.363 49.2373 176.539 49.552C176.715 49.8667 176.803 50.224 176.803 50.624ZM176.043 50.528C176.043 50.2453 175.981 50 175.859 49.792C175.736 49.5787 175.568 49.416 175.355 49.304C175.147 49.192 174.915 49.136 174.659 49.136C174.28 49.136 173.963 49.2613 173.707 49.512C173.451 49.7573 173.309 50.096 173.283 50.528H176.043ZM179.749 52.408V53H179.013C178.64 53 178.355 52.9093 178.157 52.728C177.965 52.5467 177.869 52.2613 177.869 51.872V49.2H177.301V48.608H177.869V47.52H178.605V48.608H179.741V49.2H178.605V51.872C178.605 52.0693 178.645 52.208 178.725 52.288C178.805 52.368 178.947 52.408 179.149 52.408H179.749ZM185.112 48.536C185.426 48.536 185.712 48.608 185.968 48.752C186.229 48.8907 186.434 49.1013 186.584 49.384C186.738 49.6613 186.816 50 186.816 50.4V53H186.096V50.52C186.096 50.0773 185.989 49.7413 185.776 49.512C185.562 49.2827 185.266 49.168 184.888 49.168C184.514 49.168 184.218 49.2827 184 49.512C183.786 49.7413 183.68 50.0773 183.68 50.52V53H182.952V47.08H183.68V49.32C183.824 49.064 184.021 48.8693 184.272 48.736C184.522 48.6027 184.802 48.536 185.112 48.536ZM191.959 50.624C191.959 50.7787 191.948 50.9227 191.927 51.056H188.431C188.452 51.4933 188.588 51.84 188.839 52.096C189.095 52.3467 189.42 52.472 189.815 52.472C190.114 52.472 190.364 52.4053 190.567 52.272C190.775 52.1387 190.927 51.9627 191.023 51.744H191.807C191.668 52.128 191.428 52.4453 191.087 52.696C190.751 52.9467 190.327 53.072 189.815 53.072C189.404 53.072 189.036 52.9787 188.711 52.792C188.391 52.6053 188.14 52.3413 187.959 52C187.778 51.6533 187.687 51.256 187.687 50.808C187.687 50.3547 187.778 49.9573 187.959 49.616C188.14 49.2693 188.396 49.0027 188.727 48.816C189.058 48.6293 189.439 48.536 189.871 48.536C190.282 48.536 190.644 48.6267 190.959 48.808C191.274 48.9893 191.519 49.2373 191.695 49.552C191.871 49.8667 191.959 50.224 191.959 50.624ZM191.199 50.528C191.199 50.2453 191.138 50 191.015 49.792C190.892 49.5787 190.724 49.416 190.511 49.304C190.303 49.192 190.071 49.136 189.815 49.136C189.436 49.136 189.119 49.2613 188.863 49.512C188.607 49.7573 188.466 50.096 188.439 50.528H191.199ZM193.594 47.08V53H192.866V47.08H193.594ZM197.147 48.536C197.542 48.536 197.897 48.6293 198.211 48.816C198.531 49.0027 198.782 49.2667 198.963 49.608C199.15 49.944 199.243 50.3333 199.243 50.776C199.243 51.2187 199.15 51.616 198.963 51.968C198.782 52.3147 198.531 52.5867 198.211 52.784C197.897 52.976 197.542 53.072 197.147 53.072C196.774 53.072 196.446 52.984 196.163 52.808C195.886 52.6267 195.673 52.392 195.523 52.104V55.08H194.795V48.608H195.523V49.488C195.673 49.2053 195.886 48.976 196.163 48.8C196.446 48.624 196.774 48.536 197.147 48.536ZM197.003 49.168C196.742 49.168 196.497 49.2347 196.267 49.368C196.043 49.5013 195.862 49.6933 195.723 49.944C195.59 50.1893 195.523 50.4773 195.523 50.808C195.523 51.1387 195.59 51.4293 195.723 51.68C195.862 51.9253 196.043 52.1147 196.267 52.248C196.497 52.3813 196.742 52.448 197.003 52.448C197.265 52.448 197.51 52.3813 197.739 52.248C197.969 52.1093 198.15 51.912 198.283 51.656C198.422 51.4 198.491 51.1067 198.491 50.776C198.491 50.4453 198.422 50.16 198.283 49.92C198.15 49.6747 197.969 49.488 197.739 49.36C197.515 49.232 197.27 49.168 197.003 49.168ZM204.361 48.536C204.734 48.536 205.06 48.624 205.337 48.8C205.62 48.976 205.833 49.2053 205.977 49.488V48.608H206.713V53H205.977V52.104C205.833 52.392 205.62 52.6267 205.337 52.808C205.06 52.984 204.734 53.072 204.361 53.072C203.966 53.072 203.609 52.976 203.289 52.784C202.974 52.5867 202.724 52.3147 202.537 51.968C202.356 51.616 202.265 51.2187 202.265 50.776C202.265 50.3333 202.356 49.944 202.537 49.608C202.724 49.2667 202.974 49.0027 203.289 48.816C203.609 48.6293 203.966 48.536 204.361 48.536ZM204.489 49.168C204.228 49.168 203.982 49.232 203.753 49.36C203.529 49.488 203.348 49.6747 203.209 49.92C203.076 50.16 203.009 50.4453 203.009 50.776C203.009 51.1067 203.076 51.4 203.209 51.656C203.348 51.9067 203.529 52.1013 203.753 52.24C203.982 52.3787 204.228 52.448 204.489 52.448C204.756 52.448 205.001 52.3813 205.225 52.248C205.454 52.1147 205.636 51.9253 205.769 51.68C205.908 51.4293 205.977 51.1387 205.977 50.808C205.977 50.4773 205.908 50.1893 205.769 49.944C205.636 49.6933 205.454 49.5013 205.225 49.368C205.001 49.2347 204.756 49.168 204.489 49.168ZM210.073 48.536C210.387 48.536 210.673 48.608 210.929 48.752C211.19 48.8907 211.395 49.1013 211.545 49.384C211.699 49.6613 211.777 50 211.777 50.4V53H211.057V50.52C211.057 50.0773 210.95 49.7413 210.737 49.512C210.523 49.2827 210.227 49.168 209.849 49.168C209.475 49.168 209.179 49.2827 208.961 49.512C208.747 49.7413 208.641 50.0773 208.641 50.52V53H207.913V48.608H208.641V49.32C208.785 49.064 208.982 48.8693 209.233 48.736C209.483 48.6027 209.763 48.536 210.073 48.536ZM214.744 48.536C215.117 48.536 215.443 48.624 215.72 48.8C216.003 48.976 216.216 49.2053 216.36 49.488V47.08H217.096V53H216.36V52.104C216.216 52.392 216.003 52.6267 215.72 52.808C215.443 52.984 215.117 53.072 214.744 53.072C214.349 53.072 213.992 52.976 213.672 52.784C213.357 52.5867 213.107 52.3147 212.92 51.968C212.739 51.616 212.648 51.2187 212.648 50.776C212.648 50.3333 212.739 49.944 212.92 49.608C213.107 49.2667 213.357 49.0027 213.672 48.816C213.992 48.6293 214.349 48.536 214.744 48.536ZM214.872 49.168C214.611 49.168 214.365 49.232 214.136 49.36C213.912 49.488 213.731 49.6747 213.592 49.92C213.459 50.16 213.392 50.4453 213.392 50.776C213.392 51.1067 213.459 51.4 213.592 51.656C213.731 51.9067 213.912 52.1013 214.136 52.24C214.365 52.3787 214.611 52.448 214.872 52.448C215.139 52.448 215.384 52.3813 215.608 52.248C215.837 52.1147 216.019 51.9253 216.152 51.68C216.291 51.4293 216.36 51.1387 216.36 50.808C216.36 50.4773 216.291 50.1893 216.152 49.944C216.019 49.6933 215.837 49.5013 215.608 49.368C215.384 49.2347 215.139 49.168 214.872 49.168ZM221.422 49.352C221.683 48.808 222.128 48.536 222.758 48.536V49.296H222.566C222.192 49.296 221.907 49.3947 221.71 49.592C221.518 49.784 221.422 50.12 221.422 50.6V53H220.694V48.608H221.422V49.352ZM227.623 50.624C227.623 50.7787 227.612 50.9227 227.591 51.056H224.095C224.116 51.4933 224.252 51.84 224.503 52.096C224.759 52.3467 225.084 52.472 225.479 52.472C225.778 52.472 226.028 52.4053 226.231 52.272C226.439 52.1387 226.591 51.9627 226.687 51.744H227.471C227.332 52.128 227.092 52.4453 226.751 52.696C226.415 52.9467 225.991 53.072 225.479 53.072C225.068 53.072 224.7 52.9787 224.375 52.792C224.055 52.6053 223.804 52.3413 223.623 52C223.442 51.6533 223.351 51.256 223.351 50.808C223.351 50.3547 223.442 49.9573 223.623 49.616C223.804 49.2693 224.06 49.0027 224.391 48.816C224.722 48.6293 225.103 48.536 225.535 48.536C225.946 48.536 226.308 48.6267 226.623 48.808C226.938 48.9893 227.183 49.2373 227.359 49.552C227.535 49.8667 227.623 50.224 227.623 50.624ZM226.863 50.528C226.863 50.2453 226.802 50 226.679 49.792C226.556 49.5787 226.388 49.416 226.175 49.304C225.967 49.192 225.735 49.136 225.479 49.136C225.1 49.136 224.783 49.2613 224.527 49.512C224.271 49.7573 224.13 50.096 224.103 50.528H226.863ZM230.042 48.536C230.516 48.536 230.892 48.6613 231.17 48.912C231.447 49.1573 231.599 49.496 231.626 49.928H230.874C230.863 49.6827 230.78 49.4853 230.626 49.336C230.471 49.1867 230.258 49.112 229.986 49.112C229.708 49.112 229.49 49.1787 229.33 49.312C229.175 49.44 229.098 49.6027 229.098 49.8C229.098 49.9653 229.146 50.0987 229.242 50.2C229.343 50.296 229.466 50.368 229.61 50.416C229.759 50.464 229.959 50.5147 230.21 50.568C230.53 50.6427 230.786 50.7173 230.978 50.792C231.175 50.8613 231.343 50.9813 231.482 51.152C231.62 51.3173 231.69 51.544 231.69 51.832C231.69 52.072 231.62 52.288 231.482 52.48C231.343 52.6667 231.148 52.8133 230.898 52.92C230.647 53.0213 230.359 53.072 230.034 53.072C229.543 53.072 229.148 52.9493 228.85 52.704C228.556 52.4587 228.396 52.12 228.37 51.688H229.122C229.132 51.9333 229.218 52.1307 229.378 52.28C229.543 52.424 229.762 52.496 230.034 52.496C230.332 52.496 230.562 52.4347 230.722 52.312C230.887 52.1893 230.97 52.0267 230.97 51.824C230.97 51.6587 230.919 51.528 230.818 51.432C230.722 51.3307 230.599 51.256 230.45 51.208C230.3 51.1547 230.095 51.0987 229.834 51.04C229.519 50.9707 229.263 50.9013 229.066 50.832C228.874 50.7573 228.708 50.6427 228.57 50.488C228.436 50.3333 228.37 50.12 228.37 49.848C228.37 49.608 228.436 49.3893 228.57 49.192C228.708 48.9893 228.903 48.8293 229.154 48.712C229.41 48.5947 229.706 48.536 230.042 48.536ZM234.669 48.536C235.085 48.536 235.461 48.6293 235.797 48.816C236.133 49.0027 236.397 49.2693 236.589 49.616C236.786 49.9627 236.885 50.36 236.885 50.808C236.885 51.2507 236.783 51.6453 236.581 51.992C236.378 52.3333 236.103 52.6 235.757 52.792C235.41 52.9787 235.026 53.072 234.605 53.072C234.194 53.072 233.823 52.9787 233.493 52.792C233.167 52.6053 232.911 52.3413 232.725 52C232.543 51.6533 232.453 51.256 232.453 50.808C232.453 50.3547 232.549 49.9573 232.741 49.616C232.938 49.2693 233.205 49.0027 233.541 48.816C233.877 48.6293 234.253 48.536 234.669 48.536ZM234.645 49.136C234.378 49.136 234.135 49.2 233.917 49.328C233.698 49.456 233.522 49.6453 233.389 49.896C233.261 50.1467 233.197 50.4507 233.197 50.808C233.197 51.16 233.258 51.4613 233.381 51.712C233.509 51.9627 233.679 52.152 233.893 52.28C234.106 52.408 234.343 52.472 234.605 52.472C234.871 52.472 235.119 52.408 235.349 52.28C235.583 52.1467 235.773 51.9547 235.917 51.704C236.061 51.4533 236.133 51.1547 236.133 50.808C236.133 50.456 236.063 50.1547 235.925 49.904C235.791 49.648 235.61 49.456 235.381 49.328C235.157 49.2 234.911 49.136 234.645 49.136ZM241.619 48.608V53H240.891V52.296C240.747 52.552 240.55 52.7467 240.299 52.88C240.049 53.008 239.769 53.072 239.459 53.072C239.145 53.072 238.857 53.0027 238.595 52.864C238.339 52.72 238.134 52.5093 237.979 52.232C237.83 51.9547 237.755 51.616 237.755 51.216V48.608H238.475V51.096C238.475 51.5333 238.582 51.8693 238.795 52.104C239.014 52.3333 239.31 52.448 239.683 52.448C240.057 52.448 240.35 52.3333 240.563 52.104C240.782 51.8693 240.891 51.5333 240.891 51.096V48.608H241.619ZM243.547 49.352C243.808 48.808 244.253 48.536 244.883 48.536V49.296H244.691C244.317 49.296 244.032 49.3947 243.835 49.592C243.643 49.784 243.547 50.12 243.547 50.6V53H242.819V48.608H243.547V49.352ZM247.604 48.536C248.132 48.536 248.561 48.6587 248.892 48.904C249.228 49.1493 249.463 49.4987 249.596 49.952H248.812C248.727 49.696 248.58 49.496 248.372 49.352C248.164 49.208 247.908 49.136 247.604 49.136C247.188 49.136 246.852 49.2827 246.596 49.576C246.345 49.864 246.22 50.2747 246.22 50.808C246.22 51.336 246.345 51.7467 246.596 52.04C246.852 52.328 247.188 52.472 247.604 52.472C247.913 52.472 248.169 52.4027 248.372 52.264C248.575 52.1253 248.721 51.9227 248.812 51.656H249.596C249.463 52.088 249.225 52.432 248.884 52.688C248.548 52.944 248.121 53.072 247.604 53.072C247.193 53.072 246.825 52.9787 246.5 52.792C246.18 52.6053 245.929 52.3413 245.748 52C245.567 51.6533 245.476 51.256 245.476 50.808C245.476 50.3547 245.567 49.9573 245.748 49.616C245.929 49.2693 246.18 49.0027 246.5 48.816C246.82 48.6293 247.188 48.536 247.604 48.536ZM254.545 50.624C254.545 50.7787 254.534 50.9227 254.513 51.056H251.017C251.038 51.4933 251.174 51.84 251.425 52.096C251.681 52.3467 252.006 52.472 252.401 52.472C252.7 52.472 252.95 52.4053 253.153 52.272C253.361 52.1387 253.513 51.9627 253.609 51.744H254.393C254.254 52.128 254.014 52.4453 253.673 52.696C253.337 52.9467 252.913 53.072 252.401 53.072C251.99 53.072 251.622 52.9787 251.297 52.792C250.977 52.6053 250.726 52.3413 250.545 52C250.364 51.6533 250.273 51.256 250.273 50.808C250.273 50.3547 250.364 49.9573 250.545 49.616C250.726 49.2693 250.982 49.0027 251.313 48.816C251.644 48.6293 252.025 48.536 252.457 48.536C252.868 48.536 253.23 48.6267 253.545 48.808C253.86 48.9893 254.105 49.2373 254.281 49.552C254.457 49.8667 254.545 50.224 254.545 50.624ZM253.785 50.528C253.785 50.2453 253.724 50 253.601 49.792C253.478 49.5787 253.31 49.416 253.097 49.304C252.889 49.192 252.657 49.136 252.401 49.136C252.022 49.136 251.705 49.2613 251.449 49.512C251.193 49.7573 251.052 50.096 251.025 50.528H253.785ZM256.964 48.536C257.438 48.536 257.814 48.6613 258.092 48.912C258.369 49.1573 258.521 49.496 258.548 49.928H257.796C257.785 49.6827 257.702 49.4853 257.548 49.336C257.393 49.1867 257.18 49.112 256.908 49.112C256.63 49.112 256.412 49.1787 256.252 49.312C256.097 49.44 256.02 49.6027 256.02 49.8C256.02 49.9653 256.068 50.0987 256.164 50.2C256.265 50.296 256.388 50.368 256.532 50.416C256.681 50.464 256.881 50.5147 257.132 50.568C257.452 50.6427 257.708 50.7173 257.9 50.792C258.097 50.8613 258.265 50.9813 258.404 51.152C258.542 51.3173 258.612 51.544 258.612 51.832C258.612 52.072 258.542 52.288 258.404 52.48C258.265 52.6667 258.07 52.8133 257.82 52.92C257.569 53.0213 257.281 53.072 256.956 53.072C256.465 53.072 256.07 52.9493 255.772 52.704C255.478 52.4587 255.318 52.12 255.292 51.688H256.044C256.054 51.9333 256.14 52.1307 256.3 52.28C256.465 52.424 256.684 52.496 256.956 52.496C257.254 52.496 257.484 52.4347 257.644 52.312C257.809 52.1893 257.892 52.0267 257.892 51.824C257.892 51.6587 257.841 51.528 257.74 51.432C257.644 51.3307 257.521 51.256 257.372 51.208C257.222 51.1547 257.017 51.0987 256.756 51.04C256.441 50.9707 256.185 50.9013 255.988 50.832C255.796 50.7573 255.63 50.6427 255.492 50.488C255.358 50.3333 255.292 50.12 255.292 49.848C255.292 49.608 255.358 49.3893 255.492 49.192C255.63 48.9893 255.825 48.8293 256.076 48.712C256.332 48.5947 256.628 48.536 256.964 48.536ZM263.573 48.536C264.048 48.536 264.424 48.6613 264.701 48.912C264.978 49.1573 265.13 49.496 265.157 49.928H264.405C264.394 49.6827 264.312 49.4853 264.157 49.336C264.002 49.1867 263.789 49.112 263.517 49.112C263.24 49.112 263.021 49.1787 262.861 49.312C262.706 49.44 262.629 49.6027 262.629 49.8C262.629 49.9653 262.677 50.0987 262.773 50.2C262.874 50.296 262.997 50.368 263.141 50.416C263.29 50.464 263.49 50.5147 263.741 50.568C264.061 50.6427 264.317 50.7173 264.509 50.792C264.706 50.8613 264.874 50.9813 265.013 51.152C265.152 51.3173 265.221 51.544 265.221 51.832C265.221 52.072 265.152 52.288 265.013 52.48C264.874 52.6667 264.68 52.8133 264.429 52.92C264.178 53.0213 263.89 53.072 263.565 53.072C263.074 53.072 262.68 52.9493 262.381 52.704C262.088 52.4587 261.928 52.12 261.901 51.688H262.653C262.664 51.9333 262.749 52.1307 262.909 52.28C263.074 52.424 263.293 52.496 263.565 52.496C263.864 52.496 264.093 52.4347 264.253 52.312C264.418 52.1893 264.501 52.0267 264.501 51.824C264.501 51.6587 264.45 51.528 264.349 51.432C264.253 51.3307 264.13 51.256 263.981 51.208C263.832 51.1547 263.626 51.0987 263.365 51.04C263.05 50.9707 262.794 50.9013 262.597 50.832C262.405 50.7573 262.24 50.6427 262.101 50.488C261.968 50.3333 261.901 50.12 261.901 49.848C261.901 49.608 261.968 49.3893 262.101 49.192C262.24 48.9893 262.434 48.8293 262.685 48.712C262.941 48.5947 263.237 48.536 263.573 48.536ZM270.096 48.608V53H269.368V52.296C269.224 52.552 269.027 52.7467 268.776 52.88C268.525 53.008 268.245 53.072 267.936 53.072C267.621 53.072 267.333 53.0027 267.072 52.864C266.816 52.72 266.611 52.5093 266.456 52.232C266.307 51.9547 266.232 51.616 266.232 51.216V48.608H266.952V51.096C266.952 51.5333 267.059 51.8693 267.272 52.104C267.491 52.3333 267.787 52.448 268.16 52.448C268.533 52.448 268.827 52.3333 269.04 52.104C269.259 51.8693 269.368 51.5333 269.368 51.096V48.608H270.096ZM273.135 48.536C273.663 48.536 274.093 48.6587 274.423 48.904C274.759 49.1493 274.994 49.4987 275.127 49.952H274.343C274.258 49.696 274.111 49.496 273.903 49.352C273.695 49.208 273.439 49.136 273.135 49.136C272.719 49.136 272.383 49.2827 272.127 49.576C271.877 49.864 271.751 50.2747 271.751 50.808C271.751 51.336 271.877 51.7467 272.127 52.04C272.383 52.328 272.719 52.472 273.135 52.472C273.445 52.472 273.701 52.4027 273.903 52.264C274.106 52.1253 274.253 51.9227 274.343 51.656H275.127C274.994 52.088 274.757 52.432 274.415 52.688C274.079 52.944 273.653 53.072 273.135 53.072C272.725 53.072 272.357 52.9787 272.031 52.792C271.711 52.6053 271.461 52.3413 271.279 52C271.098 51.6533 271.007 51.256 271.007 50.808C271.007 50.3547 271.098 49.9573 271.279 49.616C271.461 49.2693 271.711 49.0027 272.031 48.816C272.351 48.6293 272.719 48.536 273.135 48.536ZM278.252 48.536C278.567 48.536 278.852 48.608 279.108 48.752C279.37 48.8907 279.575 49.1013 279.724 49.384C279.879 49.6613 279.956 50 279.956 50.4V53H279.236V50.52C279.236 50.0773 279.13 49.7413 278.916 49.512C278.703 49.2827 278.407 49.168 278.028 49.168C277.655 49.168 277.359 49.2827 277.14 49.512C276.927 49.7413 276.82 50.0773 276.82 50.52V53H276.092V47.08H276.82V49.32C276.964 49.064 277.162 48.8693 277.412 48.736C277.663 48.6027 277.943 48.536 278.252 48.536ZM285.322 48.536C285.695 48.536 286.021 48.624 286.298 48.8C286.581 48.976 286.794 49.2053 286.938 49.488V48.608H287.674V53H286.938V52.104C286.794 52.392 286.581 52.6267 286.298 52.808C286.021 52.984 285.695 53.072 285.322 53.072C284.927 53.072 284.57 52.976 284.25 52.784C283.935 52.5867 283.685 52.3147 283.498 51.968C283.317 51.616 283.226 51.2187 283.226 50.776C283.226 50.3333 283.317 49.944 283.498 49.608C283.685 49.2667 283.935 49.0027 284.25 48.816C284.57 48.6293 284.927 48.536 285.322 48.536ZM285.45 49.168C285.189 49.168 284.943 49.232 284.714 49.36C284.49 49.488 284.309 49.6747 284.17 49.92C284.037 50.16 283.97 50.4453 283.97 50.776C283.97 51.1067 284.037 51.4 284.17 51.656C284.309 51.9067 284.49 52.1013 284.714 52.24C284.943 52.3787 285.189 52.448 285.45 52.448C285.717 52.448 285.962 52.3813 286.186 52.248C286.415 52.1147 286.597 51.9253 286.73 51.68C286.869 51.4293 286.938 51.1387 286.938 50.808C286.938 50.4773 286.869 50.1893 286.73 49.944C286.597 49.6933 286.415 49.5013 286.186 49.368C285.962 49.2347 285.717 49.168 285.45 49.168ZM290.385 48.536C290.86 48.536 291.236 48.6613 291.513 48.912C291.791 49.1573 291.943 49.496 291.969 49.928H291.217C291.207 49.6827 291.124 49.4853 290.969 49.336C290.815 49.1867 290.601 49.112 290.329 49.112C290.052 49.112 289.833 49.1787 289.673 49.312C289.519 49.44 289.441 49.6027 289.441 49.8C289.441 49.9653 289.489 50.0987 289.585 50.2C289.687 50.296 289.809 50.368 289.953 50.416C290.103 50.464 290.303 50.5147 290.553 50.568C290.873 50.6427 291.129 50.7173 291.321 50.792C291.519 50.8613 291.687 50.9813 291.825 51.152C291.964 51.3173 292.033 51.544 292.033 51.832C292.033 52.072 291.964 52.288 291.825 52.48C291.687 52.6667 291.492 52.8133 291.241 52.92C290.991 53.0213 290.703 53.072 290.377 53.072C289.887 53.072 289.492 52.9493 289.193 52.704C288.9 52.4587 288.74 52.12 288.713 51.688H289.465C289.476 51.9333 289.561 52.1307 289.721 52.28C289.887 52.424 290.105 52.496 290.377 52.496C290.676 52.496 290.905 52.4347 291.065 52.312C291.231 52.1893 291.313 52.0267 291.313 51.824C291.313 51.6587 291.263 51.528 291.161 51.432C291.065 51.3307 290.943 51.256 290.793 51.208C290.644 51.1547 290.439 51.0987 290.177 51.04C289.863 50.9707 289.607 50.9013 289.409 50.832C289.217 50.7573 289.052 50.6427 288.913 50.488C288.78 50.3333 288.713 50.12 288.713 49.848C288.713 49.608 288.78 49.3893 288.913 49.192C289.052 48.9893 289.247 48.8293 289.497 48.712C289.753 48.5947 290.049 48.536 290.385 48.536ZM298.603 47.456V48.04H296.211V49.92H298.099V50.496H296.211V53H295.483V47.456H298.603ZM302.797 51.784H300.333L299.901 53H299.157L301.173 47.456H301.973L303.981 53H303.229L302.797 51.784ZM302.589 51.208L301.565 48.344L300.541 51.208H302.589ZM309.424 54.048L308.304 52.936C308.048 53.016 307.771 53.056 307.472 53.056C306.955 53.056 306.48 52.936 306.048 52.696C305.616 52.4507 305.275 52.112 305.024 51.68C304.773 51.248 304.648 50.7627 304.648 50.224C304.648 49.68 304.773 49.1947 305.024 48.768C305.275 48.336 305.616 48 306.048 47.76C306.48 47.52 306.955 47.4 307.472 47.4C307.989 47.4 308.461 47.52 308.888 47.76C309.32 48 309.661 48.336 309.912 48.768C310.163 49.1947 310.288 49.68 310.288 50.224C310.288 50.752 310.171 51.2267 309.936 51.648C309.701 52.0693 309.379 52.4027 308.968 52.648L310.384 54.048H309.424ZM305.384 50.224C305.384 50.656 305.475 51.0373 305.656 51.368C305.837 51.6987 306.085 51.9547 306.4 52.136C306.72 52.3173 307.077 52.408 307.472 52.408C307.867 52.408 308.221 52.3173 308.536 52.136C308.851 51.9547 309.096 51.6987 309.272 51.368C309.453 51.0373 309.544 50.656 309.544 50.224C309.544 49.792 309.453 49.4107 309.272 49.08C309.096 48.7493 308.851 48.496 308.536 48.32C308.221 48.1387 307.867 48.048 307.472 48.048C307.077 48.048 306.72 48.1387 306.4 48.32C306.085 48.496 305.837 48.7493 305.656 49.08C305.475 49.4107 305.384 49.792 305.384 50.224ZM312.729 48.536C313.204 48.536 313.58 48.6613 313.857 48.912C314.135 49.1573 314.287 49.496 314.313 49.928H313.561C313.551 49.6827 313.468 49.4853 313.313 49.336C313.159 49.1867 312.945 49.112 312.673 49.112C312.396 49.112 312.177 49.1787 312.017 49.312C311.863 49.44 311.785 49.6027 311.785 49.8C311.785 49.9653 311.833 50.0987 311.929 50.2C312.031 50.296 312.153 50.368 312.297 50.416C312.447 50.464 312.647 50.5147 312.897 50.568C313.217 50.6427 313.473 50.7173 313.665 50.792C313.863 50.8613 314.031 50.9813 314.169 51.152C314.308 51.3173 314.377 51.544 314.377 51.832C314.377 52.072 314.308 52.288 314.169 52.48C314.031 52.6667 313.836 52.8133 313.585 52.92C313.335 53.0213 313.047 53.072 312.721 53.072C312.231 53.072 311.836 52.9493 311.537 52.704C311.244 52.4587 311.084 52.12 311.057 51.688H311.809C311.82 51.9333 311.905 52.1307 312.065 52.28C312.231 52.424 312.449 52.496 312.721 52.496C313.02 52.496 313.249 52.4347 313.409 52.312C313.575 52.1893 313.657 52.0267 313.657 51.824C313.657 51.6587 313.607 51.528 313.505 51.432C313.409 51.3307 313.287 51.256 313.137 51.208C312.988 51.1547 312.783 51.0987 312.521 51.04C312.207 50.9707 311.951 50.9013 311.753 50.832C311.561 50.7573 311.396 50.6427 311.257 50.488C311.124 50.3333 311.057 50.12 311.057 49.848C311.057 49.608 311.124 49.3893 311.257 49.192C311.396 48.9893 311.591 48.8293 311.841 48.712C312.097 48.5947 312.393 48.536 312.729 48.536ZM315.884 52.464C315.953 52.7467 315.988 53.0053 315.988 53.24C315.988 53.8427 315.713 54.144 315.164 54.144V53.792C315.297 53.792 315.393 53.76 315.452 53.696C315.516 53.632 315.548 53.5307 315.548 53.392V53.208H315.14V52.464H315.884ZM320.823 48.536C321.298 48.536 321.674 48.6613 321.951 48.912C322.228 49.1573 322.38 49.496 322.407 49.928H321.655C321.644 49.6827 321.562 49.4853 321.407 49.336C321.252 49.1867 321.039 49.112 320.767 49.112C320.49 49.112 320.271 49.1787 320.111 49.312C319.956 49.44 319.879 49.6027 319.879 49.8C319.879 49.9653 319.927 50.0987 320.023 50.2C320.124 50.296 320.247 50.368 320.391 50.416C320.54 50.464 320.74 50.5147 320.991 50.568C321.311 50.6427 321.567 50.7173 321.759 50.792C321.956 50.8613 322.124 50.9813 322.263 51.152C322.402 51.3173 322.471 51.544 322.471 51.832C322.471 52.072 322.402 52.288 322.263 52.48C322.124 52.6667 321.93 52.8133 321.679 52.92C321.428 53.0213 321.14 53.072 320.815 53.072C320.324 53.072 319.93 52.9493 319.631 52.704C319.338 52.4587 319.178 52.12 319.151 51.688H319.903C319.914 51.9333 319.999 52.1307 320.159 52.28C320.324 52.424 320.543 52.496 320.815 52.496C321.114 52.496 321.343 52.4347 321.503 52.312C321.668 52.1893 321.751 52.0267 321.751 51.824C321.751 51.6587 321.7 51.528 321.599 51.432C321.503 51.3307 321.38 51.256 321.231 51.208C321.082 51.1547 320.876 51.0987 320.615 51.04C320.3 50.9707 320.044 50.9013 319.847 50.832C319.655 50.7573 319.49 50.6427 319.351 50.488C319.218 50.3333 319.151 50.12 319.151 49.848C319.151 49.608 319.218 49.3893 319.351 49.192C319.49 48.9893 319.684 48.8293 319.935 48.712C320.191 48.5947 320.487 48.536 320.823 48.536ZM327.346 48.608V53H326.618V52.296C326.474 52.552 326.277 52.7467 326.026 52.88C325.775 53.008 325.495 53.072 325.186 53.072C324.871 53.072 324.583 53.0027 324.322 52.864C324.066 52.72 323.861 52.5093 323.706 52.232C323.557 51.9547 323.482 51.616 323.482 51.216V48.608H324.202V51.096C324.202 51.5333 324.309 51.8693 324.522 52.104C324.741 52.3333 325.037 52.448 325.41 52.448C325.783 52.448 326.077 52.3333 326.29 52.104C326.509 51.8693 326.618 51.5333 326.618 51.096V48.608H327.346ZM330.897 48.536C331.292 48.536 331.647 48.6293 331.961 48.816C332.281 49.0027 332.532 49.2667 332.713 49.608C332.9 49.944 332.993 50.3333 332.993 50.776C332.993 51.2187 332.9 51.616 332.713 51.968C332.532 52.3147 332.281 52.5867 331.961 52.784C331.647 52.976 331.292 53.072 330.897 53.072C330.524 53.072 330.196 52.984 329.913 52.808C329.636 52.6267 329.423 52.392 329.273 52.104V55.08H328.545V48.608H329.273V49.488C329.423 49.2053 329.636 48.976 329.913 48.8C330.196 48.624 330.524 48.536 330.897 48.536ZM330.753 49.168C330.492 49.168 330.247 49.2347 330.017 49.368C329.793 49.5013 329.612 49.6933 329.473 49.944C329.34 50.1893 329.273 50.4773 329.273 50.808C329.273 51.1387 329.34 51.4293 329.473 51.68C329.612 51.9253 329.793 52.1147 330.017 52.248C330.247 52.3813 330.492 52.448 330.753 52.448C331.015 52.448 331.26 52.3813 331.489 52.248C331.719 52.1093 331.9 51.912 332.033 51.656C332.172 51.4 332.241 51.1067 332.241 50.776C332.241 50.4453 332.172 50.16 332.033 49.92C331.9 49.6747 331.719 49.488 331.489 49.36C331.265 49.232 331.02 49.168 330.753 49.168ZM336.257 48.536C336.651 48.536 337.006 48.6293 337.321 48.816C337.641 49.0027 337.891 49.2667 338.073 49.608C338.259 49.944 338.353 50.3333 338.353 50.776C338.353 51.2187 338.259 51.616 338.073 51.968C337.891 52.3147 337.641 52.5867 337.321 52.784C337.006 52.976 336.651 53.072 336.257 53.072C335.883 53.072 335.555 52.984 335.273 52.808C334.995 52.6267 334.782 52.392 334.633 52.104V55.08H333.905V48.608H334.633V49.488C334.782 49.2053 334.995 48.976 335.273 48.8C335.555 48.624 335.883 48.536 336.257 48.536ZM336.113 49.168C335.851 49.168 335.606 49.2347 335.377 49.368C335.153 49.5013 334.971 49.6933 334.833 49.944C334.699 50.1893 334.633 50.4773 334.633 50.808C334.633 51.1387 334.699 51.4293 334.833 51.68C334.971 51.9253 335.153 52.1147 335.377 52.248C335.606 52.3813 335.851 52.448 336.113 52.448C336.374 52.448 336.619 52.3813 336.849 52.248C337.078 52.1093 337.259 51.912 337.393 51.656C337.531 51.4 337.601 51.1067 337.601 50.776C337.601 50.4453 337.531 50.16 337.393 49.92C337.259 49.6747 337.078 49.488 336.849 49.36C336.625 49.232 336.379 49.168 336.113 49.168ZM341.192 48.536C341.608 48.536 341.984 48.6293 342.32 48.816C342.656 49.0027 342.92 49.2693 343.112 49.616C343.309 49.9627 343.408 50.36 343.408 50.808C343.408 51.2507 343.307 51.6453 343.104 51.992C342.901 52.3333 342.627 52.6 342.28 52.792C341.933 52.9787 341.549 53.072 341.128 53.072C340.717 53.072 340.347 52.9787 340.016 52.792C339.691 52.6053 339.435 52.3413 339.248 52C339.067 51.6533 338.976 51.256 338.976 50.808C338.976 50.3547 339.072 49.9573 339.264 49.616C339.461 49.2693 339.728 49.0027 340.064 48.816C340.4 48.6293 340.776 48.536 341.192 48.536ZM341.168 49.136C340.901 49.136 340.659 49.2 340.44 49.328C340.221 49.456 340.045 49.6453 339.912 49.896C339.784 50.1467 339.72 50.4507 339.72 50.808C339.72 51.16 339.781 51.4613 339.904 51.712C340.032 51.9627 340.203 52.152 340.416 52.28C340.629 52.408 340.867 52.472 341.128 52.472C341.395 52.472 341.643 52.408 341.872 52.28C342.107 52.1467 342.296 51.9547 342.44 51.704C342.584 51.4533 342.656 51.1547 342.656 50.808C342.656 50.456 342.587 50.1547 342.448 49.904C342.315 49.648 342.133 49.456 341.904 49.328C341.68 49.2 341.435 49.136 341.168 49.136ZM345.047 49.352C345.308 48.808 345.753 48.536 346.383 48.536V49.296H346.191C345.817 49.296 345.532 49.3947 345.335 49.592C345.143 49.784 345.047 50.12 345.047 50.6V53H344.319V48.608H345.047V49.352ZM349.304 52.408V53H348.568C348.195 53 347.909 52.9093 347.712 52.728C347.52 52.5467 347.424 52.2613 347.424 51.872V49.2H346.856V48.608H347.424V47.52H348.16V48.608H349.296V49.2H348.16V51.872C348.16 52.0693 348.2 52.208 348.28 52.288C348.36 52.368 348.501 52.408 348.704 52.408H349.304ZM168.408 60.536C168.781 60.536 169.107 60.624 169.384 60.8C169.667 60.976 169.88 61.2053 170.024 61.488V60.608H170.76V65H170.024V64.104C169.88 64.392 169.667 64.6267 169.384 64.808C169.107 64.984 168.781 65.072 168.408 65.072C168.013 65.072 167.656 64.976 167.336 64.784C167.021 64.5867 166.771 64.3147 166.584 63.968C166.403 63.616 166.312 63.2187 166.312 62.776C166.312 62.3333 166.403 61.944 166.584 61.608C166.771 61.2667 167.021 61.0027 167.336 60.816C167.656 60.6293 168.013 60.536 168.408 60.536ZM168.536 61.168C168.275 61.168 168.029 61.232 167.8 61.36C167.576 61.488 167.395 61.6747 167.256 61.92C167.123 62.16 167.056 62.4453 167.056 62.776C167.056 63.1067 167.123 63.4 167.256 63.656C167.395 63.9067 167.576 64.1013 167.8 64.24C168.029 64.3787 168.275 64.448 168.536 64.448C168.803 64.448 169.048 64.3813 169.272 64.248C169.501 64.1147 169.683 63.9253 169.816 63.68C169.955 63.4293 170.024 63.1387 170.024 62.808C170.024 62.4773 169.955 62.1893 169.816 61.944C169.683 61.6933 169.501 61.5013 169.272 61.368C169.048 61.2347 168.803 61.168 168.536 61.168ZM172.687 61.352C172.949 60.808 173.394 60.536 174.023 60.536V61.296H173.831C173.458 61.296 173.173 61.3947 172.975 61.592C172.783 61.784 172.687 62.12 172.687 62.6V65H171.959V60.608H172.687V61.352ZM176.945 64.408V65H176.209C175.835 65 175.55 64.9093 175.353 64.728C175.161 64.5467 175.065 64.2613 175.065 63.872V61.2H174.497V60.608H175.065V59.52H175.801V60.608H176.937V61.2H175.801V63.872C175.801 64.0693 175.841 64.208 175.921 64.288C176.001 64.368 176.142 64.408 176.345 64.408H176.945ZM177.628 59.408C177.628 59.2693 177.676 59.152 177.772 59.056C177.868 58.96 177.983 58.912 178.116 58.912C178.255 58.912 178.372 58.96 178.468 59.056C178.564 59.152 178.612 59.2693 178.612 59.408C178.612 59.5467 178.564 59.664 178.468 59.76C178.372 59.856 178.255 59.904 178.116 59.904C177.978 59.904 177.86 59.856 177.764 59.76C177.674 59.664 177.628 59.5467 177.628 59.408ZM178.476 60.608V65H177.748V60.608H178.476ZM181.518 60.536C182.046 60.536 182.475 60.6587 182.806 60.904C183.142 61.1493 183.377 61.4987 183.51 61.952H182.726C182.641 61.696 182.494 61.496 182.286 61.352C182.078 61.208 181.822 61.136 181.518 61.136C181.102 61.136 180.766 61.2827 180.51 61.576C180.259 61.864 180.134 62.2747 180.134 62.808C180.134 63.336 180.259 63.7467 180.51 64.04C180.766 64.328 181.102 64.472 181.518 64.472C181.827 64.472 182.083 64.4027 182.286 64.264C182.489 64.1253 182.635 63.9227 182.726 63.656H183.51C183.377 64.088 183.139 64.432 182.798 64.688C182.462 64.944 182.035 65.072 181.518 65.072C181.107 65.072 180.739 64.9787 180.414 64.792C180.094 64.6053 179.843 64.3413 179.662 64C179.481 63.6533 179.39 63.256 179.39 62.808C179.39 62.3547 179.481 61.9573 179.662 61.616C179.843 61.2693 180.094 61.0027 180.414 60.816C180.734 60.6293 181.102 60.536 181.518 60.536ZM185.203 59.08V65H184.475V59.08H185.203ZM190.389 62.624C190.389 62.7787 190.378 62.9227 190.357 63.056H186.861C186.882 63.4933 187.018 63.84 187.269 64.096C187.525 64.3467 187.85 64.472 188.245 64.472C188.543 64.472 188.794 64.4053 188.997 64.272C189.205 64.1387 189.357 63.9627 189.453 63.744H190.237C190.098 64.128 189.858 64.4453 189.517 64.696C189.181 64.9467 188.757 65.072 188.245 65.072C187.834 65.072 187.466 64.9787 187.141 64.792C186.821 64.6053 186.57 64.3413 186.389 64C186.207 63.6533 186.117 63.256 186.117 62.808C186.117 62.3547 186.207 61.9573 186.389 61.616C186.57 61.2693 186.826 61.0027 187.157 60.816C187.487 60.6293 187.869 60.536 188.301 60.536C188.711 60.536 189.074 60.6267 189.389 60.808C189.703 60.9893 189.949 61.2373 190.125 61.552C190.301 61.8667 190.389 62.224 190.389 62.624ZM189.629 62.528C189.629 62.2453 189.567 62 189.445 61.792C189.322 61.5787 189.154 61.416 188.941 61.304C188.733 61.192 188.501 61.136 188.245 61.136C187.866 61.136 187.549 61.2613 187.293 61.512C187.037 61.7573 186.895 62.096 186.869 62.528H189.629ZM192.807 60.536C193.282 60.536 193.658 60.6613 193.935 60.912C194.213 61.1573 194.365 61.496 194.391 61.928H193.639C193.629 61.6827 193.546 61.4853 193.391 61.336C193.237 61.1867 193.023 61.112 192.751 61.112C192.474 61.112 192.255 61.1787 192.095 61.312C191.941 61.44 191.863 61.6027 191.863 61.8C191.863 61.9653 191.911 62.0987 192.007 62.2C192.109 62.296 192.231 62.368 192.375 62.416C192.525 62.464 192.725 62.5147 192.975 62.568C193.295 62.6427 193.551 62.7173 193.743 62.792C193.941 62.8613 194.109 62.9813 194.247 63.152C194.386 63.3173 194.455 63.544 194.455 63.832C194.455 64.072 194.386 64.288 194.247 64.48C194.109 64.6667 193.914 64.8133 193.663 64.92C193.413 65.0213 193.125 65.072 192.799 65.072C192.309 65.072 191.914 64.9493 191.615 64.704C191.322 64.4587 191.162 64.12 191.135 63.688H191.887C191.898 63.9333 191.983 64.1307 192.143 64.28C192.309 64.424 192.527 64.496 192.799 64.496C193.098 64.496 193.327 64.4347 193.487 64.312C193.653 64.1893 193.735 64.0267 193.735 63.824C193.735 63.6587 193.685 63.528 193.583 63.432C193.487 63.3307 193.365 63.256 193.215 63.208C193.066 63.1547 192.861 63.0987 192.599 63.04C192.285 62.9707 192.029 62.9013 191.831 62.832C191.639 62.7573 191.474 62.6427 191.335 62.488C191.202 62.3333 191.135 62.12 191.135 61.848C191.135 61.608 191.202 61.3893 191.335 61.192C191.474 60.9893 191.669 60.8293 191.919 60.712C192.175 60.5947 192.471 60.536 192.807 60.536ZM195.962 64.464C196.032 64.7467 196.066 65.0053 196.066 65.24C196.066 65.8427 195.792 66.144 195.242 66.144V65.792C195.376 65.792 195.472 65.76 195.53 65.696C195.594 65.632 195.626 65.5307 195.626 65.392V65.208H195.218V64.464H195.962ZM201.197 60.536C201.57 60.536 201.896 60.624 202.173 60.8C202.456 60.976 202.669 61.2053 202.813 61.488V60.608H203.549V65H202.813V64.104C202.669 64.392 202.456 64.6267 202.173 64.808C201.896 64.984 201.57 65.072 201.197 65.072C200.802 65.072 200.445 64.976 200.125 64.784C199.81 64.5867 199.56 64.3147 199.373 63.968C199.192 63.616 199.101 63.2187 199.101 62.776C199.101 62.3333 199.192 61.944 199.373 61.608C199.56 61.2667 199.81 61.0027 200.125 60.816C200.445 60.6293 200.802 60.536 201.197 60.536ZM201.325 61.168C201.064 61.168 200.818 61.232 200.589 61.36C200.365 61.488 200.184 61.6747 200.045 61.92C199.912 62.16 199.845 62.4453 199.845 62.776C199.845 63.1067 199.912 63.4 200.045 63.656C200.184 63.9067 200.365 64.1013 200.589 64.24C200.818 64.3787 201.064 64.448 201.325 64.448C201.592 64.448 201.837 64.3813 202.061 64.248C202.29 64.1147 202.472 63.9253 202.605 63.68C202.744 63.4293 202.813 63.1387 202.813 62.808C202.813 62.4773 202.744 62.1893 202.605 61.944C202.472 61.6933 202.29 61.5013 202.061 61.368C201.837 61.2347 201.592 61.168 201.325 61.168ZM206.908 60.536C207.223 60.536 207.508 60.608 207.764 60.752C208.026 60.8907 208.231 61.1013 208.38 61.384C208.535 61.6613 208.612 62 208.612 62.4V65H207.892V62.52C207.892 62.0773 207.786 61.7413 207.572 61.512C207.359 61.2827 207.063 61.168 206.684 61.168C206.311 61.168 206.015 61.2827 205.796 61.512C205.583 61.7413 205.476 62.0773 205.476 62.52V65H204.748V60.608H205.476V61.32C205.62 61.064 205.818 60.8693 206.068 60.736C206.319 60.6027 206.599 60.536 206.908 60.536ZM211.58 60.536C211.953 60.536 212.279 60.624 212.556 60.8C212.839 60.976 213.052 61.2053 213.196 61.488V59.08H213.932V65H213.196V64.104C213.052 64.392 212.839 64.6267 212.556 64.808C212.279 64.984 211.953 65.072 211.58 65.072C211.185 65.072 210.828 64.976 210.508 64.784C210.193 64.5867 209.943 64.3147 209.756 63.968C209.575 63.616 209.484 63.2187 209.484 62.776C209.484 62.3333 209.575 61.944 209.756 61.608C209.943 61.2667 210.193 61.0027 210.508 60.816C210.828 60.6293 211.185 60.536 211.58 60.536ZM211.708 61.168C211.447 61.168 211.201 61.232 210.972 61.36C210.748 61.488 210.567 61.6747 210.428 61.92C210.295 62.16 210.228 62.4453 210.228 62.776C210.228 63.1067 210.295 63.4 210.428 63.656C210.567 63.9067 210.748 64.1013 210.972 64.24C211.201 64.3787 211.447 64.448 211.708 64.448C211.975 64.448 212.22 64.3813 212.444 64.248C212.673 64.1147 212.855 63.9253 212.988 63.68C213.127 63.4293 213.196 63.1387 213.196 62.808C213.196 62.4773 213.127 62.1893 212.988 61.944C212.855 61.6933 212.673 61.5013 212.444 61.368C212.22 61.2347 211.975 61.168 211.708 61.168ZM219.37 60.536C219.898 60.536 220.327 60.6587 220.658 60.904C220.994 61.1493 221.228 61.4987 221.362 61.952H220.578C220.492 61.696 220.346 61.496 220.138 61.352C219.93 61.208 219.674 61.136 219.37 61.136C218.954 61.136 218.618 61.2827 218.362 61.576C218.111 61.864 217.986 62.2747 217.986 62.808C217.986 63.336 218.111 63.7467 218.362 64.04C218.618 64.328 218.954 64.472 219.37 64.472C219.679 64.472 219.935 64.4027 220.138 64.264C220.34 64.1253 220.487 63.9227 220.578 63.656H221.362C221.228 64.088 220.991 64.432 220.65 64.688C220.314 64.944 219.887 65.072 219.37 65.072C218.959 65.072 218.591 64.9787 218.266 64.792C217.946 64.6053 217.695 64.3413 217.514 64C217.332 63.6533 217.242 63.256 217.242 62.808C217.242 62.3547 217.332 61.9573 217.514 61.616C217.695 61.2693 217.946 61.0027 218.266 60.816C218.586 60.6293 218.954 60.536 219.37 60.536ZM224.255 60.536C224.671 60.536 225.047 60.6293 225.383 60.816C225.719 61.0027 225.983 61.2693 226.175 61.616C226.372 61.9627 226.471 62.36 226.471 62.808C226.471 63.2507 226.369 63.6453 226.167 63.992C225.964 64.3333 225.689 64.6 225.343 64.792C224.996 64.9787 224.612 65.072 224.191 65.072C223.78 65.072 223.409 64.9787 223.079 64.792C222.753 64.6053 222.497 64.3413 222.311 64C222.129 63.6533 222.039 63.256 222.039 62.808C222.039 62.3547 222.135 61.9573 222.327 61.616C222.524 61.2693 222.791 61.0027 223.127 60.816C223.463 60.6293 223.839 60.536 224.255 60.536ZM224.231 61.136C223.964 61.136 223.721 61.2 223.503 61.328C223.284 61.456 223.108 61.6453 222.975 61.896C222.847 62.1467 222.783 62.4507 222.783 62.808C222.783 63.16 222.844 63.4613 222.967 63.712C223.095 63.9627 223.265 64.152 223.479 64.28C223.692 64.408 223.929 64.472 224.191 64.472C224.457 64.472 224.705 64.408 224.935 64.28C225.169 64.1467 225.359 63.9547 225.503 63.704C225.647 63.4533 225.719 63.1547 225.719 62.808C225.719 62.456 225.649 62.1547 225.511 61.904C225.377 61.648 225.196 61.456 224.967 61.328C224.743 61.2 224.497 61.136 224.231 61.136ZM229.541 60.536C229.856 60.536 230.141 60.608 230.397 60.752C230.659 60.8907 230.864 61.1013 231.013 61.384C231.168 61.6613 231.245 62 231.245 62.4V65H230.525V62.52C230.525 62.0773 230.419 61.7413 230.205 61.512C229.992 61.2827 229.696 61.168 229.317 61.168C228.944 61.168 228.648 61.2827 228.429 61.512C228.216 61.7413 228.109 62.0773 228.109 62.52V65H227.381V60.608H228.109V61.32C228.253 61.064 228.451 60.8693 228.701 60.736C228.952 60.6027 229.232 60.536 229.541 60.536ZM234.445 64.408V65H233.709C233.335 65 233.05 64.9093 232.853 64.728C232.661 64.5467 232.565 64.2613 232.565 63.872V61.2H231.997V60.608H232.565V59.52H233.301V60.608H234.437V61.2H233.301V63.872C233.301 64.0693 233.341 64.208 233.421 64.288C233.501 64.368 233.642 64.408 233.845 64.408H234.445ZM237.056 60.536C237.43 60.536 237.755 60.624 238.032 60.8C238.315 60.976 238.528 61.2053 238.672 61.488V60.608H239.408V65H238.672V64.104C238.528 64.392 238.315 64.6267 238.032 64.808C237.755 64.984 237.43 65.072 237.056 65.072C236.662 65.072 236.304 64.976 235.984 64.784C235.67 64.5867 235.419 64.3147 235.232 63.968C235.051 63.616 234.96 63.2187 234.96 62.776C234.96 62.3333 235.051 61.944 235.232 61.608C235.419 61.2667 235.67 61.0027 235.984 60.816C236.304 60.6293 236.662 60.536 237.056 60.536ZM237.184 61.168C236.923 61.168 236.678 61.232 236.448 61.36C236.224 61.488 236.043 61.6747 235.904 61.92C235.771 62.16 235.704 62.4453 235.704 62.776C235.704 63.1067 235.771 63.4 235.904 63.656C236.043 63.9067 236.224 64.1013 236.448 64.24C236.678 64.3787 236.923 64.448 237.184 64.448C237.451 64.448 237.696 64.3813 237.92 64.248C238.15 64.1147 238.331 63.9253 238.464 63.68C238.603 63.4293 238.672 63.1387 238.672 62.808C238.672 62.4773 238.603 62.1893 238.464 61.944C238.331 61.6933 238.15 61.5013 237.92 61.368C237.696 61.2347 237.451 61.168 237.184 61.168ZM242.448 60.536C242.976 60.536 243.405 60.6587 243.736 60.904C244.072 61.1493 244.306 61.4987 244.44 61.952H243.656C243.57 61.696 243.424 61.496 243.216 61.352C243.008 61.208 242.752 61.136 242.448 61.136C242.032 61.136 241.696 61.2827 241.44 61.576C241.189 61.864 241.064 62.2747 241.064 62.808C241.064 63.336 241.189 63.7467 241.44 64.04C241.696 64.328 242.032 64.472 242.448 64.472C242.757 64.472 243.013 64.4027 243.216 64.264C243.418 64.1253 243.565 63.9227 243.656 63.656H244.44C244.306 64.088 244.069 64.432 243.728 64.688C243.392 64.944 242.965 65.072 242.448 65.072C242.037 65.072 241.669 64.9787 241.344 64.792C241.024 64.6053 240.773 64.3413 240.592 64C240.41 63.6533 240.32 63.256 240.32 62.808C240.32 62.3547 240.41 61.9573 240.592 61.616C240.773 61.2693 241.024 61.0027 241.344 60.816C241.664 60.6293 242.032 60.536 242.448 60.536ZM247.445 64.408V65H246.709C246.335 65 246.05 64.9093 245.853 64.728C245.661 64.5467 245.565 64.2613 245.565 63.872V61.2H244.997V60.608H245.565V59.52H246.301V60.608H247.437V61.2H246.301V63.872C246.301 64.0693 246.341 64.208 246.421 64.288C246.501 64.368 246.642 64.408 246.845 64.408H247.445ZM250.527 59.408C250.527 59.2693 250.575 59.152 250.671 59.056C250.767 58.96 250.882 58.912 251.015 58.912C251.154 58.912 251.271 58.96 251.367 59.056C251.463 59.152 251.511 59.2693 251.511 59.408C251.511 59.5467 251.463 59.664 251.367 59.76C251.271 59.856 251.154 59.904 251.015 59.904C250.876 59.904 250.759 59.856 250.663 59.76C250.572 59.664 250.527 59.5467 250.527 59.408ZM251.375 60.608V65H250.647V60.608H251.375ZM254.737 60.536C255.051 60.536 255.337 60.608 255.593 60.752C255.854 60.8907 256.059 61.1013 256.209 61.384C256.363 61.6613 256.441 62 256.441 62.4V65H255.721V62.52C255.721 62.0773 255.614 61.7413 255.401 61.512C255.187 61.2827 254.891 61.168 254.513 61.168C254.139 61.168 253.843 61.2827 253.625 61.512C253.411 61.7413 253.305 62.0773 253.305 62.52V65H252.577V60.608H253.305V61.32C253.449 61.064 253.646 60.8693 253.897 60.736C254.147 60.6027 254.427 60.536 254.737 60.536ZM259.408 61.2H258.488V65H257.752V61.2H257.184V60.608H257.752V60.24C257.752 59.76 257.88 59.4107 258.136 59.192C258.392 58.9733 258.795 58.864 259.344 58.864V59.456C259.024 59.456 258.8 59.5173 258.672 59.64C258.549 59.7573 258.488 59.9573 258.488 60.24V60.608H259.408V61.2ZM262.169 60.536C262.585 60.536 262.961 60.6293 263.297 60.816C263.633 61.0027 263.897 61.2693 264.089 61.616C264.286 61.9627 264.385 62.36 264.385 62.808C264.385 63.2507 264.283 63.6453 264.081 63.992C263.878 64.3333 263.603 64.6 263.257 64.792C262.91 64.9787 262.526 65.072 262.105 65.072C261.694 65.072 261.323 64.9787 260.993 64.792C260.667 64.6053 260.411 64.3413 260.225 64C260.043 63.6533 259.953 63.256 259.953 62.808C259.953 62.3547 260.049 61.9573 260.241 61.616C260.438 61.2693 260.705 61.0027 261.041 60.816C261.377 60.6293 261.753 60.536 262.169 60.536ZM262.145 61.136C261.878 61.136 261.635 61.2 261.417 61.328C261.198 61.456 261.022 61.6453 260.889 61.896C260.761 62.1467 260.697 62.4507 260.697 62.808C260.697 63.16 260.758 63.4613 260.881 63.712C261.009 63.9627 261.179 64.152 261.393 64.28C261.606 64.408 261.843 64.472 262.105 64.472C262.371 64.472 262.619 64.408 262.849 64.28C263.083 64.1467 263.273 63.9547 263.417 63.704C263.561 63.4533 263.633 63.1547 263.633 62.808C263.633 62.456 263.563 62.1547 263.425 61.904C263.291 61.648 263.11 61.456 262.881 61.328C262.657 61.2 262.411 61.136 262.145 61.136ZM266.023 61.352C266.285 60.808 266.73 60.536 267.359 60.536V61.296H267.167C266.794 61.296 266.509 61.3947 266.311 61.592C266.119 61.784 266.023 62.12 266.023 62.6V65H265.295V60.608H266.023V61.352ZM273.521 60.536C273.841 60.536 274.131 60.608 274.393 60.752C274.654 60.8907 274.859 61.1013 275.009 61.384C275.163 61.6613 275.241 62 275.241 62.4V65H274.521V62.52C274.521 62.0773 274.411 61.7413 274.193 61.512C273.979 61.2827 273.686 61.168 273.313 61.168C272.939 61.168 272.643 61.2827 272.425 61.512C272.211 61.7413 272.105 62.0773 272.105 62.52V65H271.385V62.52C271.385 62.0773 271.278 61.7413 271.065 61.512C270.851 61.2827 270.555 61.168 270.177 61.168C269.803 61.168 269.507 61.2827 269.289 61.512C269.075 61.7413 268.969 62.0773 268.969 62.52V65H268.241V60.608H268.969V61.32C269.113 61.064 269.31 60.8693 269.561 60.736C269.811 60.6027 270.091 60.536 270.401 60.536C270.737 60.536 271.041 60.6187 271.313 60.784C271.585 60.944 271.79 61.1787 271.929 61.488C272.089 61.1893 272.305 60.9573 272.577 60.792C272.854 60.6213 273.169 60.536 273.521 60.536ZM278.205 60.536C278.578 60.536 278.904 60.624 279.181 60.8C279.464 60.976 279.677 61.2053 279.821 61.488V60.608H280.557V65H279.821V64.104C279.677 64.392 279.464 64.6267 279.181 64.808C278.904 64.984 278.578 65.072 278.205 65.072C277.81 65.072 277.453 64.976 277.133 64.784C276.818 64.5867 276.568 64.3147 276.381 63.968C276.2 63.616 276.109 63.2187 276.109 62.776C276.109 62.3333 276.2 61.944 276.381 61.608C276.568 61.2667 276.818 61.0027 277.133 60.816C277.453 60.6293 277.81 60.536 278.205 60.536ZM278.333 61.168C278.072 61.168 277.826 61.232 277.597 61.36C277.373 61.488 277.192 61.6747 277.053 61.92C276.92 62.16 276.853 62.4453 276.853 62.776C276.853 63.1067 276.92 63.4 277.053 63.656C277.192 63.9067 277.373 64.1013 277.597 64.24C277.826 64.3787 278.072 64.448 278.333 64.448C278.6 64.448 278.845 64.3813 279.069 64.248C279.298 64.1147 279.48 63.9253 279.613 63.68C279.752 63.4293 279.821 63.1387 279.821 62.808C279.821 62.4773 279.752 62.1893 279.613 61.944C279.48 61.6933 279.298 61.5013 279.069 61.368C278.845 61.2347 278.6 61.168 278.333 61.168ZM283.796 64.408V65H283.06C282.687 65 282.402 64.9093 282.204 64.728C282.012 64.5467 281.916 64.2613 281.916 63.872V61.2H281.348V60.608H281.916V59.52H282.652V60.608H283.788V61.2H282.652V63.872C282.652 64.0693 282.692 64.208 282.772 64.288C282.852 64.368 282.994 64.408 283.196 64.408H283.796ZM284.48 59.408C284.48 59.2693 284.528 59.152 284.624 59.056C284.72 58.96 284.835 58.912 284.968 58.912C285.107 58.912 285.224 58.96 285.32 59.056C285.416 59.152 285.464 59.2693 285.464 59.408C285.464 59.5467 285.416 59.664 285.32 59.76C285.224 59.856 285.107 59.904 284.968 59.904C284.829 59.904 284.712 59.856 284.616 59.76C284.525 59.664 284.48 59.5467 284.48 59.408ZM285.328 60.608V65H284.6V60.608H285.328ZM288.458 60.536C288.874 60.536 289.25 60.6293 289.586 60.816C289.922 61.0027 290.186 61.2693 290.378 61.616C290.575 61.9627 290.674 62.36 290.674 62.808C290.674 63.2507 290.572 63.6453 290.37 63.992C290.167 64.3333 289.892 64.6 289.546 64.792C289.199 64.9787 288.815 65.072 288.394 65.072C287.983 65.072 287.612 64.9787 287.282 64.792C286.956 64.6053 286.7 64.3413 286.514 64C286.332 63.6533 286.242 63.256 286.242 62.808C286.242 62.3547 286.338 61.9573 286.53 61.616C286.727 61.2693 286.994 61.0027 287.33 60.816C287.666 60.6293 288.042 60.536 288.458 60.536ZM288.434 61.136C288.167 61.136 287.924 61.2 287.706 61.328C287.487 61.456 287.311 61.6453 287.178 61.896C287.05 62.1467 286.986 62.4507 286.986 62.808C286.986 63.16 287.047 63.4613 287.17 63.712C287.298 63.9627 287.468 64.152 287.682 64.28C287.895 64.408 288.132 64.472 288.394 64.472C288.66 64.472 288.908 64.408 289.138 64.28C289.372 64.1467 289.562 63.9547 289.706 63.704C289.85 63.4533 289.922 63.1547 289.922 62.808C289.922 62.456 289.852 62.1547 289.714 61.904C289.58 61.648 289.399 61.456 289.17 61.328C288.946 61.2 288.7 61.136 288.434 61.136ZM293.744 60.536C294.059 60.536 294.344 60.608 294.6 60.752C294.862 60.8907 295.067 61.1013 295.216 61.384C295.371 61.6613 295.448 62 295.448 62.4V65H294.728V62.52C294.728 62.0773 294.622 61.7413 294.408 61.512C294.195 61.2827 293.899 61.168 293.52 61.168C293.147 61.168 292.851 61.2827 292.632 61.512C292.419 61.7413 292.312 62.0773 292.312 62.52V65H291.584V60.608H292.312V61.32C292.456 61.064 292.654 60.8693 292.904 60.736C293.155 60.6027 293.435 60.536 293.744 60.536ZM300.814 61.2H299.894V65H299.158V61.2H298.59V60.608H299.158V60.24C299.158 59.76 299.286 59.4107 299.542 59.192C299.798 58.9733 300.201 58.864 300.75 58.864V59.456C300.43 59.456 300.206 59.5173 300.078 59.64C299.956 59.7573 299.894 59.9573 299.894 60.24V60.608H300.814V61.2ZM303.575 60.536C303.991 60.536 304.367 60.6293 304.703 60.816C305.039 61.0027 305.303 61.2693 305.495 61.616C305.692 61.9627 305.791 62.36 305.791 62.808C305.791 63.2507 305.69 63.6453 305.487 63.992C305.284 64.3333 305.01 64.6 304.663 64.792C304.316 64.9787 303.932 65.072 303.511 65.072C303.1 65.072 302.73 64.9787 302.399 64.792C302.074 64.6053 301.818 64.3413 301.631 64C301.45 63.6533 301.359 63.256 301.359 62.808C301.359 62.3547 301.455 61.9573 301.647 61.616C301.844 61.2693 302.111 61.0027 302.447 60.816C302.783 60.6293 303.159 60.536 303.575 60.536ZM303.551 61.136C303.284 61.136 303.042 61.2 302.823 61.328C302.604 61.456 302.428 61.6453 302.295 61.896C302.167 62.1467 302.103 62.4507 302.103 62.808C302.103 63.16 302.164 63.4613 302.287 63.712C302.415 63.9627 302.586 64.152 302.799 64.28C303.012 64.408 303.25 64.472 303.511 64.472C303.778 64.472 304.026 64.408 304.255 64.28C304.49 64.1467 304.679 63.9547 304.823 63.704C304.967 63.4533 305.039 63.1547 305.039 62.808C305.039 62.456 304.97 62.1547 304.831 61.904C304.698 61.648 304.516 61.456 304.287 61.328C304.063 61.2 303.818 61.136 303.551 61.136ZM307.43 61.352C307.691 60.808 308.136 60.536 308.766 60.536V61.296H308.574C308.2 61.296 307.915 61.3947 307.718 61.592C307.526 61.784 307.43 62.12 307.43 62.6V65H306.702V60.608H307.43V61.352ZM313.557 60.536C314.032 60.536 314.408 60.6613 314.685 60.912C314.963 61.1573 315.115 61.496 315.141 61.928H314.389C314.379 61.6827 314.296 61.4853 314.141 61.336C313.987 61.1867 313.773 61.112 313.501 61.112C313.224 61.112 313.005 61.1787 312.845 61.312C312.691 61.44 312.613 61.6027 312.613 61.8C312.613 61.9653 312.661 62.0987 312.757 62.2C312.859 62.296 312.981 62.368 313.125 62.416C313.275 62.464 313.475 62.5147 313.725 62.568C314.045 62.6427 314.301 62.7173 314.493 62.792C314.691 62.8613 314.859 62.9813 314.997 63.152C315.136 63.3173 315.205 63.544 315.205 63.832C315.205 64.072 315.136 64.288 314.997 64.48C314.859 64.6667 314.664 64.8133 314.413 64.92C314.163 65.0213 313.875 65.072 313.549 65.072C313.059 65.072 312.664 64.9493 312.365 64.704C312.072 64.4587 311.912 64.12 311.885 63.688H312.637C312.648 63.9333 312.733 64.1307 312.893 64.28C313.059 64.424 313.277 64.496 313.549 64.496C313.848 64.496 314.077 64.4347 314.237 64.312C314.403 64.1893 314.485 64.0267 314.485 63.824C314.485 63.6587 314.435 63.528 314.333 63.432C314.237 63.3307 314.115 63.256 313.965 63.208C313.816 63.1547 313.611 63.0987 313.349 63.04C313.035 62.9707 312.779 62.9013 312.581 62.832C312.389 62.7573 312.224 62.6427 312.085 62.488C311.952 62.3333 311.885 62.12 311.885 61.848C311.885 61.608 311.952 61.3893 312.085 61.192C312.224 60.9893 312.419 60.8293 312.669 60.712C312.925 60.5947 313.221 60.536 313.557 60.536ZM320.08 60.608V65H319.352V64.296C319.208 64.552 319.011 64.7467 318.76 64.88C318.51 65.008 318.23 65.072 317.92 65.072C317.606 65.072 317.318 65.0027 317.056 64.864C316.8 64.72 316.595 64.5093 316.44 64.232C316.291 63.9547 316.216 63.616 316.216 63.216V60.608H316.936V63.096C316.936 63.5333 317.043 63.8693 317.256 64.104C317.475 64.3333 317.771 64.448 318.144 64.448C318.518 64.448 318.811 64.3333 319.024 64.104C319.243 63.8693 319.352 63.5333 319.352 63.096V60.608H320.08ZM323.632 60.536C324.026 60.536 324.381 60.6293 324.696 60.816C325.016 61.0027 325.266 61.2667 325.448 61.608C325.634 61.944 325.728 62.3333 325.728 62.776C325.728 63.2187 325.634 63.616 325.448 63.968C325.266 64.3147 325.016 64.5867 324.696 64.784C324.381 64.976 324.026 65.072 323.632 65.072C323.258 65.072 322.93 64.984 322.648 64.808C322.37 64.6267 322.157 64.392 322.008 64.104V67.08H321.28V60.608H322.008V61.488C322.157 61.2053 322.37 60.976 322.648 60.8C322.93 60.624 323.258 60.536 323.632 60.536ZM323.488 61.168C323.226 61.168 322.981 61.2347 322.752 61.368C322.528 61.5013 322.346 61.6933 322.208 61.944C322.074 62.1893 322.008 62.4773 322.008 62.808C322.008 63.1387 322.074 63.4293 322.208 63.68C322.346 63.9253 322.528 64.1147 322.752 64.248C322.981 64.3813 323.226 64.448 323.488 64.448C323.749 64.448 323.994 64.3813 324.224 64.248C324.453 64.1093 324.634 63.912 324.768 63.656C324.906 63.4 324.976 63.1067 324.976 62.776C324.976 62.4453 324.906 62.16 324.768 61.92C324.634 61.6747 324.453 61.488 324.224 61.36C324 61.232 323.754 61.168 323.488 61.168ZM328.991 60.536C329.386 60.536 329.74 60.6293 330.055 60.816C330.375 61.0027 330.626 61.2667 330.807 61.608C330.994 61.944 331.087 62.3333 331.087 62.776C331.087 63.2187 330.994 63.616 330.807 63.968C330.626 64.3147 330.375 64.5867 330.055 64.784C329.74 64.976 329.386 65.072 328.991 65.072C328.618 65.072 328.29 64.984 328.007 64.808C327.73 64.6267 327.516 64.392 327.367 64.104V67.08H326.639V60.608H327.367V61.488C327.516 61.2053 327.73 60.976 328.007 60.8C328.29 60.624 328.618 60.536 328.991 60.536ZM328.847 61.168C328.586 61.168 328.34 61.2347 328.111 61.368C327.887 61.5013 327.706 61.6933 327.567 61.944C327.434 62.1893 327.367 62.4773 327.367 62.808C327.367 63.1387 327.434 63.4293 327.567 63.68C327.706 63.9253 327.887 64.1147 328.111 64.248C328.34 64.3813 328.586 64.448 328.847 64.448C329.108 64.448 329.354 64.3813 329.583 64.248C329.812 64.1093 329.994 63.912 330.127 63.656C330.266 63.4 330.335 63.1067 330.335 62.776C330.335 62.4453 330.266 62.16 330.127 61.92C329.994 61.6747 329.812 61.488 329.583 61.36C329.359 61.232 329.114 61.168 328.847 61.168ZM333.926 60.536C334.342 60.536 334.718 60.6293 335.054 60.816C335.39 61.0027 335.654 61.2693 335.846 61.616C336.044 61.9627 336.142 62.36 336.142 62.808C336.142 63.2507 336.041 63.6453 335.838 63.992C335.636 64.3333 335.361 64.6 335.014 64.792C334.668 64.9787 334.284 65.072 333.862 65.072C333.452 65.072 333.081 64.9787 332.75 64.792C332.425 64.6053 332.169 64.3413 331.982 64C331.801 63.6533 331.71 63.256 331.71 62.808C331.71 62.3547 331.806 61.9573 331.998 61.616C332.196 61.2693 332.462 61.0027 332.798 60.816C333.134 60.6293 333.51 60.536 333.926 60.536ZM333.902 61.136C333.636 61.136 333.393 61.2 333.174 61.328C332.956 61.456 332.78 61.6453 332.646 61.896C332.518 62.1467 332.454 62.4507 332.454 62.808C332.454 63.16 332.516 63.4613 332.638 63.712C332.766 63.9627 332.937 64.152 333.15 64.28C333.364 64.408 333.601 64.472 333.862 64.472C334.129 64.472 334.377 64.408 334.606 64.28C334.841 64.1467 335.03 63.9547 335.174 63.704C335.318 63.4533 335.39 63.1547 335.39 62.808C335.39 62.456 335.321 62.1547 335.182 61.904C335.049 61.648 334.868 61.456 334.638 61.328C334.414 61.2 334.169 61.136 333.902 61.136ZM337.781 61.352C338.042 60.808 338.488 60.536 339.117 60.536V61.296H338.925C338.552 61.296 338.266 61.3947 338.069 61.592C337.877 61.784 337.781 62.12 337.781 62.6V65H337.053V60.608H337.781V61.352ZM342.038 64.408V65H341.302C340.929 65 340.644 64.9093 340.446 64.728C340.254 64.5467 340.158 64.2613 340.158 63.872V61.2H339.59V60.608H340.158V59.52H340.894V60.608H342.03V61.2H340.894V63.872C340.894 64.0693 340.934 64.208 341.014 64.288C341.094 64.368 341.236 64.408 341.438 64.408H342.038ZM342.682 64.536C342.682 64.4027 342.728 64.2907 342.818 64.2C342.909 64.1093 343.018 64.064 343.146 64.064C343.274 64.064 343.384 64.1093 343.474 64.2C343.565 64.2907 343.61 64.4027 343.61 64.536C343.61 64.664 343.565 64.7733 343.474 64.864C343.384 64.9547 343.274 65 343.146 65C343.018 65 342.909 64.9547 342.818 64.864C342.728 64.7733 342.682 64.664 342.682 64.536Z" fill="#320051"/>
<g clip-path="url(#clip1_2916_4197)">
<path d="M78 34C71.2754 34 64.7019 35.9941 59.1106 39.73C53.5194 43.466 49.1615 48.7761 46.5881 54.9888C44.0147 61.2015 43.3414 68.0377 44.6533 74.6331C45.9652 81.2284 49.2034 87.2866 53.9584 92.0416C58.7134 96.7966 64.7716 100.035 71.3669 101.347C77.9623 102.659 84.7986 101.985 91.0113 99.4119C97.2239 96.8385 102.534 92.4807 106.27 86.8894C110.006 81.2981 112 74.7246 112 68C111.99 58.9856 108.405 50.3433 102.031 43.9691C95.6568 37.595 87.0144 34.0097 78 34ZM78 96.3333C72.3962 96.3333 66.9183 94.6716 62.2589 91.5583C57.5995 88.445 53.9679 84.0199 51.8234 78.8427C49.6789 73.6655 49.1179 67.9686 50.2111 62.4724C51.3043 56.9763 54.0028 51.9278 57.9653 47.9653C61.9278 44.0028 66.9763 41.3043 72.4725 40.2111C77.9686 39.1178 83.6655 39.6789 88.8427 41.8234C94.02 43.9679 98.445 47.5995 101.558 52.2588C104.672 56.9182 106.333 62.3962 106.333 68C106.325 75.5119 103.337 82.7138 98.0256 88.0256C92.7139 93.3373 85.512 96.3251 78 96.3333Z" fill="#964CC3"/>
<path d="M80.0313 48.3457C78.3974 48.048 76.7181 48.113 75.1121 48.5362C73.5061 48.9594 72.0127 49.7303 70.7377 50.7945C69.4627 51.8587 68.4371 53.1902 67.7336 54.6946C67.03 56.199 66.6658 57.8397 66.6665 59.5005C66.6665 60.2519 66.965 60.9726 67.4964 61.504C68.0277 62.0353 68.7484 62.3338 69.4998 62.3338C70.2513 62.3338 70.972 62.0353 71.5033 61.504C72.0347 60.9726 72.3332 60.2519 72.3332 59.5005C72.3325 58.6669 72.5157 57.8433 72.8698 57.0887C73.2239 56.334 73.7401 55.6667 74.3817 55.1344C75.0233 54.6022 75.7744 54.218 76.5815 54.0093C77.3886 53.8007 78.2318 53.7727 79.051 53.9273C80.1703 54.1446 81.1994 54.6906 82.0069 55.4956C82.8144 56.3005 83.3636 57.3279 83.5843 58.4465C83.8073 59.6206 83.6534 60.8352 83.1445 61.9166C82.6356 62.998 81.7978 63.8908 80.751 64.4673C79.0175 65.4717 77.585 66.9225 76.6028 68.6686C75.6206 70.4148 75.1246 72.3923 75.1665 74.3953V76.5005C75.1665 77.252 75.465 77.9726 75.9964 78.504C76.5277 79.0353 77.2484 79.3338 77.9998 79.3338C78.7513 79.3338 79.472 79.0353 80.0033 78.504C80.5347 77.9726 80.8332 77.252 80.8332 76.5005V74.3953C80.7976 73.4094 81.0224 72.4314 81.485 71.56C81.9476 70.6886 82.6316 69.9544 83.4682 69.4313C85.521 68.3039 87.174 66.5681 88.2001 64.4628C89.2261 62.3575 89.5747 59.986 89.198 57.6745C88.8212 55.363 87.7376 53.2249 86.0961 51.5544C84.4546 49.8839 82.3359 48.7629 80.0313 48.3457Z" fill="#964CC3"/>
<path d="M80.8332 84.9993C80.8332 83.4345 79.5646 82.166 77.9998 82.166C76.435 82.166 75.1665 83.4345 75.1665 84.9993C75.1665 86.5642 76.435 87.8327 77.9998 87.8327C79.5646 87.8327 80.8332 86.5642 80.8332 84.9993Z" fill="#964CC3"/>
</g>
<path d="M387.43 98.9297L393.5 105L387.43 111.07" stroke="#320051" stroke-width="1.5" stroke-miterlimit="10" stroke-linecap="round" stroke-linejoin="round"/>
<path d="M376.5 105H393.33" stroke="#320051" stroke-width="1.5" stroke-miterlimit="10" stroke-linecap="round" stroke-linejoin="round"/>
<path d="M-3 120.098C75 165.598 131.5 85.0978 208.5 120.098C285.5 155.099 337.404 120.098 420 120.098V153.598H-3V120.098Z" fill="#964CC3"/>
</g>
<defs>
<clipPath id="clip0_2916_4197">
<rect width="417" height="137" rx="10" fill="white"/>
</clipPath>
<clipPath id="clip1_2916_4197">
<rect width="68" height="68" fill="white" transform="translate(44 34)"/>
</clipPath>
</defs>
</svg>
