<svg width="119" height="119" viewBox="0 0 119 119" fill="none" xmlns="http://www.w3.org/2000/svg">
<g clip-path="url(#clip0_1396_62571)">
<path d="M83.3004 23.8008C80.1443 23.8008 77.1175 25.0545 74.8858 27.2862C72.6541 29.5179 71.4004 32.5447 71.4004 35.7008C71.4004 38.8569 72.6541 41.8837 74.8858 44.1154C77.1175 46.347 80.1443 47.6008 83.3004 47.6008C86.4565 47.6008 89.4833 46.347 91.715 44.1154C93.9466 41.8837 95.2004 38.8569 95.2004 35.7008C95.2004 32.5447 93.9466 29.5179 91.715 27.2862C89.4833 25.0545 86.4565 23.8008 83.3004 23.8008Z" fill="#9747FF"/>
<path fill-rule="evenodd" clip-rule="evenodd" d="M0 11.9C0 8.74392 1.25375 5.71711 3.48543 3.48543C5.71711 1.25375 8.74392 0 11.9 0L107.1 0C110.256 0 113.283 1.25375 115.515 3.48543C117.746 5.71711 119 8.74392 119 11.9V107.1C119 109.065 118.515 111 117.588 112.733C116.57 114.628 115.056 116.211 113.21 117.315C111.363 118.419 109.251 119.001 107.1 119H11.9C8.74392 119 5.71711 117.746 3.48543 115.515C1.25375 113.283 0 110.256 0 107.1L0 11.9ZM38.4767 24.9265L35.7 22.1499L7.93333 49.9165V11.9C7.93333 10.848 8.35125 9.83904 9.09514 9.09514C9.83904 8.35125 10.848 7.93333 11.9 7.93333H107.1C108.152 7.93333 109.161 8.35125 109.905 9.09514C110.649 9.83904 111.067 10.848 111.067 11.9V79.3333H92.8755L38.5084 24.9583L38.4767 24.9265Z" fill="#9747FF"/>
</g>
<defs>
<clipPath id="clip0_1396_62571">
<rect width="119" height="119" fill="white"/>
</clipPath>
</defs>
</svg>
