<svg width="30" height="30" viewBox="0 0 30 30" fill="none" xmlns="http://www.w3.org/2000/svg">
<path fill-rule="evenodd" clip-rule="evenodd" d="M14.0643 6.897C14.6382 6.5087 15.3884 6.49997 15.9711 6.87481L22.7022 11.2042C23.5767 11.7667 23.6007 12.9977 22.8348 13.6119V14.0431H22.0654L16.0244 17.1668V21.6172C16.0244 22.9536 14.5744 23.7862 13.4202 23.1124L7.42454 19.6124C6.8929 19.3021 6.56604 18.7328 6.56604 18.1172V12.5012V11.9705L7.00565 11.673L14.0643 6.897ZM15.0362 15.4262L20.8751 12.407L15.0383 8.6528L9.48792 12.4083L15.0362 15.4262ZM8.56604 14.1836L14.0244 17.1526V21.1492L8.56604 17.963V14.1836ZM17.7367 21.1506H22.7735V22.4506H17.7367V21.1506ZM22.7727 18.6752H19.092V19.9752L22.7727 19.9752L22.7727 18.6752ZM20.8366 16.1043L22.7739 16.1043V17.4043H20.8366V16.1043Z" fill="#320051"/>
</svg>
