<svg width="64" height="64" viewBox="0 0 64 64" fill="none" xmlns="http://www.w3.org/2000/svg">
<rect width="64" height="64" rx="20" fill="#E331B4"/>
<path d="M45.1111 42.2222H17.8889C15.7442 42.2222 14 43.9664 14 46.1111C14 48.2558 15.7442 50 17.8889 50H45.1111C47.2558 50 49 48.2558 49 46.1111C49 43.9664 47.2558 42.2222 45.1111 42.2222ZM45.1111 28.6111H17.8889C15.7442 28.6111 14 30.3553 14 32.5C14 34.6447 15.7442 36.3889 17.8889 36.3889H45.1111C47.2558 36.3889 49 34.6447 49 32.5C49 30.3553 47.2558 28.6111 45.1111 28.6111ZM45.1111 15H17.8889C15.7442 15 14 16.7442 14 18.8889C14 21.0336 15.7442 22.7778 17.8889 22.7778H45.1111C47.2558 22.7778 49 21.0336 49 18.8889C49 16.7442 47.2558 15 45.1111 15Z" fill="white"/>
</svg>
