<svg width="417" height="137" viewBox="0 0 417 137" fill="none" xmlns="http://www.w3.org/2000/svg">
<g clip-path="url(#clip0_2916_4185)">
<rect width="417" height="137" rx="10" fill="white"/>
<path d="M174.076 33H172.384L168.592 27.192V33H166.9V24.6H168.592L172.384 30.408V24.6H174.076V33ZM178.853 26.256C179.485 26.256 180.061 26.396 180.581 26.676C181.101 26.956 181.513 27.356 181.817 27.876C182.121 28.388 182.273 28.984 182.273 29.664C182.273 30.344 182.121 30.944 181.817 31.464C181.513 31.984 181.097 32.388 180.569 32.676C180.049 32.956 179.469 33.096 178.829 33.096C178.197 33.096 177.621 32.956 177.101 32.676C176.581 32.388 176.169 31.984 175.865 31.464C175.569 30.944 175.421 30.344 175.421 29.664C175.421 28.984 175.573 28.388 175.877 27.876C176.181 27.356 176.593 26.956 177.113 26.676C177.633 26.396 178.213 26.256 178.853 26.256ZM178.841 27.684C178.361 27.684 177.957 27.856 177.629 28.2C177.301 28.544 177.137 29.036 177.137 29.676C177.137 30.108 177.213 30.476 177.365 30.78C177.525 31.076 177.733 31.3 177.989 31.452C178.245 31.596 178.525 31.668 178.829 31.668C179.125 31.668 179.405 31.592 179.669 31.44C179.933 31.288 180.145 31.064 180.305 30.768C180.473 30.464 180.557 30.1 180.557 29.676C180.557 29.244 180.477 28.88 180.317 28.584C180.157 28.28 179.945 28.056 179.681 27.912C179.425 27.76 179.145 27.684 178.841 27.684ZM186.995 31.584V33H185.927C185.247 33 184.723 32.844 184.355 32.532C183.987 32.22 183.803 31.704 183.803 30.984V27.732H183.095V26.352H183.803V24.708H185.495V26.352H186.983V27.732H185.495V30.984C185.495 31.2 185.547 31.356 185.651 31.452C185.755 31.54 185.935 31.584 186.191 31.584H186.995ZM188.13 24.66C188.13 24.372 188.23 24.128 188.43 23.928C188.63 23.728 188.87 23.628 189.15 23.628C189.438 23.628 189.682 23.728 189.882 23.928C190.082 24.128 190.182 24.372 190.182 24.66C190.182 24.948 190.082 25.192 189.882 25.392C189.682 25.592 189.438 25.692 189.15 25.692C188.87 25.692 188.63 25.592 188.43 25.392C188.23 25.192 188.13 24.948 188.13 24.66ZM190.002 26.352V33H188.31V26.352H190.002ZM196.65 25.692C196.362 25.692 196.118 25.592 195.918 25.392C195.726 25.192 195.63 24.948 195.63 24.66C195.63 24.372 195.726 24.128 195.918 23.928C196.118 23.728 196.362 23.628 196.65 23.628C196.938 23.628 197.178 23.728 197.37 23.928C197.57 24.128 197.67 24.372 197.67 24.66C197.67 24.948 197.57 25.192 197.37 25.392C197.178 25.592 196.938 25.692 196.65 25.692ZM193.59 26.352H197.49V33H195.81V27.732H193.59V33H191.91V27.732H191.19V26.352H191.91V25.98C191.91 25.18 192.122 24.596 192.546 24.228C192.97 23.86 193.638 23.676 194.55 23.676V25.092C194.198 25.092 193.95 25.16 193.806 25.296C193.662 25.432 193.59 25.66 193.59 25.98V26.352ZM202.099 26.256C202.907 26.256 203.583 26.452 204.127 26.844C204.671 27.236 205.035 27.792 205.219 28.512H203.395C203.291 28.256 203.131 28.056 202.915 27.912C202.699 27.76 202.427 27.684 202.099 27.684C201.611 27.684 201.227 27.864 200.947 28.224C200.675 28.576 200.539 29.06 200.539 29.676C200.539 30.292 200.675 30.78 200.947 31.14C201.227 31.492 201.611 31.668 202.099 31.668C202.435 31.668 202.707 31.6 202.915 31.464C203.123 31.328 203.283 31.116 203.395 30.828H205.219C205.027 31.524 204.655 32.076 204.103 32.484C203.559 32.892 202.891 33.096 202.099 33.096C201.467 33.096 200.903 32.956 200.407 32.676C199.911 32.396 199.523 32 199.243 31.488C198.963 30.968 198.823 30.364 198.823 29.676C198.823 28.988 198.963 28.388 199.243 27.876C199.523 27.356 199.911 26.956 200.407 26.676C200.903 26.396 201.467 26.256 202.099 26.256ZM209.102 26.256C209.574 26.256 209.994 26.356 210.362 26.556C210.73 26.756 211.026 27.032 211.25 27.384V26.352H212.93V33H211.25V31.884C211.018 32.26 210.718 32.556 210.35 32.772C209.99 32.988 209.574 33.096 209.102 33.096C208.534 33.096 208.014 32.952 207.542 32.664C207.078 32.368 206.706 31.96 206.426 31.44C206.154 30.92 206.018 30.328 206.018 29.664C206.018 29 206.154 28.412 206.426 27.9C206.706 27.38 207.078 26.976 207.542 26.688C208.014 26.4 208.534 26.256 209.102 26.256ZM209.486 27.72C209.19 27.72 208.906 27.796 208.634 27.948C208.37 28.1 208.154 28.324 207.986 28.62C207.818 28.908 207.734 29.256 207.734 29.664C207.734 30.072 207.818 30.428 207.986 30.732C208.154 31.028 208.37 31.252 208.634 31.404C208.906 31.556 209.19 31.632 209.486 31.632C209.79 31.632 210.074 31.556 210.338 31.404C210.61 31.252 210.83 31.028 210.998 30.732C211.166 30.436 211.25 30.084 211.25 29.676C211.25 29.268 211.166 28.916 210.998 28.62C210.83 28.324 210.61 28.1 210.338 27.948C210.074 27.796 209.79 27.72 209.486 27.72ZM218.108 31.584V33H217.04C216.36 33 215.836 32.844 215.468 32.532C215.1 32.22 214.916 31.704 214.916 30.984V27.732H214.208V26.352H214.916V24.708H216.608V26.352H218.096V27.732H216.608V30.984C216.608 31.2 216.66 31.356 216.764 31.452C216.868 31.54 217.048 31.584 217.304 31.584H218.108ZM219.243 24.66C219.243 24.372 219.343 24.128 219.543 23.928C219.743 23.728 219.983 23.628 220.263 23.628C220.551 23.628 220.795 23.728 220.995 23.928C221.195 24.128 221.295 24.372 221.295 24.66C221.295 24.948 221.195 25.192 220.995 25.392C220.795 25.592 220.551 25.692 220.263 25.692C219.983 25.692 219.743 25.592 219.543 25.392C219.343 25.192 219.243 24.948 219.243 24.66ZM221.115 26.352V33H219.423V26.352H221.115ZM225.892 26.256C226.524 26.256 227.1 26.396 227.62 26.676C228.14 26.956 228.552 27.356 228.856 27.876C229.16 28.388 229.312 28.984 229.312 29.664C229.312 30.344 229.16 30.944 228.856 31.464C228.552 31.984 228.136 32.388 227.608 32.676C227.088 32.956 226.508 33.096 225.868 33.096C225.236 33.096 224.66 32.956 224.14 32.676C223.62 32.388 223.208 31.984 222.904 31.464C222.608 30.944 222.46 30.344 222.46 29.664C222.46 28.984 222.612 28.388 222.916 27.876C223.22 27.356 223.632 26.956 224.152 26.676C224.672 26.396 225.252 26.256 225.892 26.256ZM225.88 27.684C225.4 27.684 224.996 27.856 224.668 28.2C224.34 28.544 224.176 29.036 224.176 29.676C224.176 30.108 224.252 30.476 224.404 30.78C224.564 31.076 224.772 31.3 225.028 31.452C225.284 31.596 225.564 31.668 225.868 31.668C226.164 31.668 226.444 31.592 226.708 31.44C226.972 31.288 227.184 31.064 227.344 30.768C227.512 30.464 227.596 30.1 227.596 29.676C227.596 29.244 227.516 28.88 227.356 28.584C227.196 28.28 226.984 28.056 226.72 27.912C226.464 27.76 226.184 27.684 225.88 27.684ZM234.406 26.256C234.902 26.256 235.342 26.368 235.726 26.592C236.118 26.808 236.426 27.132 236.65 27.564C236.874 27.988 236.986 28.496 236.986 29.088V33H235.306V29.328C235.306 28.808 235.174 28.412 234.91 28.14C234.646 27.86 234.286 27.72 233.83 27.72C233.374 27.72 233.01 27.86 232.738 28.14C232.474 28.412 232.342 28.808 232.342 29.328V33H230.65V26.352H232.342V27.348C232.55 26.996 232.83 26.728 233.182 26.544C233.542 26.352 233.95 26.256 234.406 26.256ZM244.014 29.664V33H242.322V24.624H245.406C246.054 24.624 246.606 24.74 247.062 24.972C247.518 25.196 247.858 25.5 248.082 25.884C248.314 26.26 248.43 26.68 248.43 27.144C248.43 27.552 248.33 27.948 248.13 28.332C247.938 28.708 247.614 29.024 247.158 29.28C246.71 29.536 246.126 29.664 245.406 29.664H244.014ZM245.406 28.368C245.83 28.368 246.154 28.26 246.378 28.044C246.602 27.82 246.714 27.52 246.714 27.144C246.714 26.768 246.602 26.472 246.378 26.256C246.154 26.032 245.83 25.92 245.406 25.92H244.014V28.368H245.406ZM251.397 27.528C251.605 27.128 251.873 26.816 252.201 26.592C252.537 26.368 252.917 26.256 253.341 26.256V27.984H252.921C252.417 27.984 252.037 28.112 251.781 28.368C251.525 28.616 251.397 29.048 251.397 29.664V33H249.705V26.352H251.397V27.528ZM260.701 29.58C260.701 29.812 260.685 30.028 260.653 30.228H255.805C255.845 30.66 256.005 31.008 256.285 31.272C256.565 31.536 256.921 31.668 257.353 31.668C257.689 31.668 257.957 31.604 258.157 31.476C258.357 31.348 258.521 31.172 258.649 30.948H260.473C260.281 31.58 259.909 32.096 259.357 32.496C258.805 32.896 258.137 33.096 257.353 33.096C256.721 33.096 256.157 32.956 255.661 32.676C255.165 32.388 254.777 31.988 254.497 31.476C254.217 30.956 254.077 30.352 254.077 29.664C254.077 28.976 254.217 28.376 254.497 27.864C254.777 27.352 255.165 26.956 255.661 26.676C256.165 26.396 256.737 26.256 257.377 26.256C258.017 26.256 258.585 26.392 259.081 26.664C259.585 26.936 259.981 27.324 260.269 27.828C260.557 28.324 260.701 28.908 260.701 29.58ZM258.949 29.136C258.925 28.696 258.761 28.344 258.457 28.08C258.161 27.816 257.793 27.684 257.353 27.684C256.945 27.684 256.597 27.816 256.309 28.08C256.029 28.344 255.861 28.696 255.805 29.136H258.949ZM264.877 27.732H263.821V33H262.141V27.732H261.421V26.352H262.141V25.98C262.141 25.18 262.353 24.596 262.777 24.228C263.201 23.86 263.869 23.676 264.781 23.676V25.092C264.429 25.092 264.181 25.16 264.037 25.296C263.893 25.432 263.821 25.66 263.821 25.98V26.352H264.877V27.732ZM272.197 29.58C272.197 29.812 272.181 30.028 272.149 30.228H267.301C267.341 30.66 267.501 31.008 267.781 31.272C268.061 31.536 268.417 31.668 268.849 31.668C269.185 31.668 269.453 31.604 269.653 31.476C269.853 31.348 270.017 31.172 270.145 30.948H271.969C271.777 31.58 271.405 32.096 270.853 32.496C270.301 32.896 269.633 33.096 268.849 33.096C268.217 33.096 267.653 32.956 267.157 32.676C266.661 32.388 266.273 31.988 265.993 31.476C265.713 30.956 265.573 30.352 265.573 29.664C265.573 28.976 265.713 28.376 265.993 27.864C266.273 27.352 266.661 26.956 267.157 26.676C267.661 26.396 268.233 26.256 268.873 26.256C269.513 26.256 270.081 26.392 270.577 26.664C271.081 26.936 271.477 27.324 271.765 27.828C272.053 28.324 272.197 28.908 272.197 29.58ZM270.445 29.136C270.421 28.696 270.257 28.344 269.953 28.08C269.657 27.816 269.289 27.684 268.849 27.684C268.441 27.684 268.093 27.816 267.805 28.08C267.525 28.344 267.357 28.696 267.301 29.136H270.445ZM275.221 27.528C275.429 27.128 275.697 26.816 276.025 26.592C276.361 26.368 276.741 26.256 277.165 26.256V27.984H276.745C276.241 27.984 275.861 28.112 275.605 28.368C275.349 28.616 275.221 29.048 275.221 29.664V33H273.529V26.352H275.221V27.528ZM284.525 29.58C284.525 29.812 284.509 30.028 284.477 30.228H279.629C279.669 30.66 279.829 31.008 280.109 31.272C280.389 31.536 280.745 31.668 281.177 31.668C281.513 31.668 281.781 31.604 281.981 31.476C282.181 31.348 282.345 31.172 282.473 30.948H284.297C284.105 31.58 283.733 32.096 283.181 32.496C282.629 32.896 281.961 33.096 281.177 33.096C280.545 33.096 279.981 32.956 279.485 32.676C278.989 32.388 278.601 31.988 278.321 31.476C278.041 30.956 277.901 30.352 277.901 29.664C277.901 28.976 278.041 28.376 278.321 27.864C278.601 27.352 278.989 26.956 279.485 26.676C279.989 26.396 280.561 26.256 281.201 26.256C281.841 26.256 282.409 26.392 282.905 26.664C283.409 26.936 283.805 27.324 284.093 27.828C284.381 28.324 284.525 28.908 284.525 29.58ZM282.773 29.136C282.749 28.696 282.585 28.344 282.281 28.08C281.985 27.816 281.617 27.684 281.177 27.684C280.769 27.684 280.421 27.816 280.133 28.08C279.853 28.344 279.685 28.696 279.629 29.136H282.773ZM289.613 26.256C290.109 26.256 290.549 26.368 290.933 26.592C291.325 26.808 291.633 27.132 291.857 27.564C292.081 27.988 292.193 28.496 292.193 29.088V33H290.513V29.328C290.513 28.808 290.381 28.412 290.117 28.14C289.853 27.86 289.493 27.72 289.037 27.72C288.581 27.72 288.217 27.86 287.945 28.14C287.681 28.412 287.549 28.808 287.549 29.328V33H285.857V26.352H287.549V27.348C287.757 26.996 288.037 26.728 288.389 26.544C288.749 26.352 289.157 26.256 289.613 26.256ZM296.739 26.256C297.547 26.256 298.223 26.452 298.767 26.844C299.311 27.236 299.675 27.792 299.859 28.512H298.035C297.931 28.256 297.771 28.056 297.555 27.912C297.339 27.76 297.067 27.684 296.739 27.684C296.251 27.684 295.867 27.864 295.587 28.224C295.315 28.576 295.179 29.06 295.179 29.676C295.179 30.292 295.315 30.78 295.587 31.14C295.867 31.492 296.251 31.668 296.739 31.668C297.075 31.668 297.347 31.6 297.555 31.464C297.763 31.328 297.923 31.116 298.035 30.828H299.859C299.667 31.524 299.295 32.076 298.743 32.484C298.199 32.892 297.531 33.096 296.739 33.096C296.107 33.096 295.543 32.956 295.047 32.676C294.551 32.396 294.163 32 293.883 31.488C293.603 30.968 293.463 30.364 293.463 29.676C293.463 28.988 293.603 28.388 293.883 27.876C294.163 27.356 294.551 26.956 295.047 26.676C295.543 26.396 296.107 26.256 296.739 26.256ZM307.283 29.58C307.283 29.812 307.267 30.028 307.235 30.228H302.387C302.427 30.66 302.587 31.008 302.867 31.272C303.147 31.536 303.503 31.668 303.935 31.668C304.271 31.668 304.539 31.604 304.739 31.476C304.939 31.348 305.103 31.172 305.231 30.948H307.055C306.863 31.58 306.491 32.096 305.939 32.496C305.387 32.896 304.719 33.096 303.935 33.096C303.303 33.096 302.739 32.956 302.243 32.676C301.747 32.388 301.359 31.988 301.079 31.476C300.799 30.956 300.659 30.352 300.659 29.664C300.659 28.976 300.799 28.376 301.079 27.864C301.359 27.352 301.747 26.956 302.243 26.676C302.747 26.396 303.319 26.256 303.959 26.256C304.599 26.256 305.167 26.392 305.663 26.664C306.167 26.936 306.563 27.324 306.851 27.828C307.139 28.324 307.283 28.908 307.283 29.58ZM305.531 29.136C305.507 28.696 305.343 28.344 305.039 28.08C304.743 27.816 304.375 27.684 303.935 27.684C303.527 27.684 303.179 27.816 302.891 28.08C302.611 28.344 302.443 28.696 302.387 29.136H305.531ZM310.991 26.256C311.751 26.256 312.375 26.452 312.863 26.844C313.351 27.228 313.611 27.752 313.643 28.416H311.915C311.867 27.856 311.523 27.576 310.883 27.576C310.563 27.576 310.315 27.64 310.139 27.768C309.963 27.896 309.875 28.064 309.875 28.272C309.875 28.448 309.939 28.588 310.067 28.692C310.195 28.796 310.351 28.88 310.535 28.944C310.727 29 310.999 29.068 311.351 29.148C311.839 29.252 312.239 29.364 312.551 29.484C312.871 29.596 313.143 29.78 313.367 30.036C313.591 30.284 313.703 30.628 313.703 31.068C313.703 31.468 313.587 31.82 313.355 32.124C313.123 32.428 312.803 32.668 312.395 32.844C311.987 33.012 311.527 33.096 311.015 33.096C310.215 33.096 309.563 32.912 309.059 32.544C308.555 32.168 308.279 31.632 308.231 30.936H309.959C309.991 31.208 310.099 31.416 310.283 31.56C310.467 31.704 310.715 31.776 311.027 31.776C311.339 31.776 311.591 31.708 311.783 31.572C311.975 31.428 312.071 31.248 312.071 31.032C312.071 30.856 312.007 30.716 311.879 30.612C311.751 30.5 311.591 30.416 311.399 30.36C311.207 30.296 310.931 30.224 310.571 30.144C310.083 30.04 309.683 29.932 309.371 29.82C309.067 29.708 308.803 29.532 308.579 29.292C308.355 29.044 308.243 28.712 308.243 28.296C308.243 27.928 308.351 27.588 308.567 27.276C308.783 26.964 309.099 26.716 309.515 26.532C309.931 26.348 310.423 26.256 310.991 26.256Z" fill="#320051"/>
<path d="M169.136 47.4C169.712 47.4 170.224 47.536 170.672 47.808C171.125 48.08 171.459 48.472 171.672 48.984H170.792C170.632 48.68 170.408 48.448 170.12 48.288C169.832 48.128 169.504 48.048 169.136 48.048C168.741 48.048 168.384 48.1387 168.064 48.32C167.749 48.496 167.501 48.7493 167.32 49.08C167.144 49.4107 167.056 49.792 167.056 50.224C167.056 50.656 167.144 51.0373 167.32 51.368C167.501 51.6987 167.749 51.9547 168.064 52.136C168.384 52.3173 168.741 52.408 169.136 52.408C169.504 52.408 169.832 52.328 170.12 52.168C170.408 52.0027 170.632 51.768 170.792 51.464H171.672C171.459 51.976 171.125 52.368 170.672 52.64C170.224 52.912 169.712 53.048 169.136 53.048C168.619 53.048 168.144 52.928 167.712 52.688C167.28 52.4427 166.939 52.1067 166.688 51.68C166.437 51.248 166.312 50.7627 166.312 50.224C166.312 49.68 166.437 49.1947 166.688 48.768C166.939 48.336 167.28 48 167.712 47.76C168.144 47.52 168.619 47.4 169.136 47.4ZM176.643 48.608V53H175.915V52.296C175.771 52.552 175.573 52.7467 175.323 52.88C175.072 53.008 174.792 53.072 174.483 53.072C174.168 53.072 173.88 53.0027 173.619 52.864C173.363 52.72 173.157 52.5093 173.003 52.232C172.853 51.9547 172.779 51.616 172.779 51.216V48.608H173.499V51.096C173.499 51.5333 173.605 51.8693 173.819 52.104C174.037 52.3333 174.333 52.448 174.707 52.448C175.08 52.448 175.373 52.3333 175.587 52.104C175.805 51.8693 175.915 51.5333 175.915 51.096V48.608H176.643ZM179.354 48.536C179.829 48.536 180.205 48.6613 180.482 48.912C180.76 49.1573 180.912 49.496 180.938 49.928H180.186C180.176 49.6827 180.093 49.4853 179.938 49.336C179.784 49.1867 179.57 49.112 179.298 49.112C179.021 49.112 178.802 49.1787 178.642 49.312C178.488 49.44 178.41 49.6027 178.41 49.8C178.41 49.9653 178.458 50.0987 178.554 50.2C178.656 50.296 178.778 50.368 178.922 50.416C179.072 50.464 179.272 50.5147 179.522 50.568C179.842 50.6427 180.098 50.7173 180.29 50.792C180.488 50.8613 180.656 50.9813 180.794 51.152C180.933 51.3173 181.002 51.544 181.002 51.832C181.002 52.072 180.933 52.288 180.794 52.48C180.656 52.6667 180.461 52.8133 180.21 52.92C179.96 53.0213 179.672 53.072 179.346 53.072C178.856 53.072 178.461 52.9493 178.162 52.704C177.869 52.4587 177.709 52.12 177.682 51.688H178.434C178.445 51.9333 178.53 52.1307 178.69 52.28C178.856 52.424 179.074 52.496 179.346 52.496C179.645 52.496 179.874 52.4347 180.034 52.312C180.2 52.1893 180.282 52.0267 180.282 51.824C180.282 51.6587 180.232 51.528 180.13 51.432C180.034 51.3307 179.912 51.256 179.762 51.208C179.613 51.1547 179.408 51.0987 179.146 51.04C178.832 50.9707 178.576 50.9013 178.378 50.832C178.186 50.7573 178.021 50.6427 177.882 50.488C177.749 50.3333 177.682 50.12 177.682 49.848C177.682 49.608 177.749 49.3893 177.882 49.192C178.021 48.9893 178.216 48.8293 178.466 48.712C178.722 48.5947 179.018 48.536 179.354 48.536ZM184.093 52.408V53H183.357C182.984 53 182.698 52.9093 182.501 52.728C182.309 52.5467 182.213 52.2613 182.213 51.872V49.2H181.645V48.608H182.213V47.52H182.949V48.608H184.085V49.2H182.949V51.872C182.949 52.0693 182.989 52.208 183.069 52.288C183.149 52.368 183.29 52.408 183.493 52.408H184.093ZM186.825 48.536C187.241 48.536 187.617 48.6293 187.953 48.816C188.289 49.0027 188.553 49.2693 188.745 49.616C188.942 49.9627 189.041 50.36 189.041 50.808C189.041 51.2507 188.94 51.6453 188.737 51.992C188.534 52.3333 188.26 52.6 187.913 52.792C187.566 52.9787 187.182 53.072 186.761 53.072C186.35 53.072 185.98 52.9787 185.649 52.792C185.324 52.6053 185.068 52.3413 184.881 52C184.7 51.6533 184.609 51.256 184.609 50.808C184.609 50.3547 184.705 49.9573 184.897 49.616C185.094 49.2693 185.361 49.0027 185.697 48.816C186.033 48.6293 186.409 48.536 186.825 48.536ZM186.801 49.136C186.534 49.136 186.292 49.2 186.073 49.328C185.854 49.456 185.678 49.6453 185.545 49.896C185.417 50.1467 185.353 50.4507 185.353 50.808C185.353 51.16 185.414 51.4613 185.537 51.712C185.665 51.9627 185.836 52.152 186.049 52.28C186.262 52.408 186.5 52.472 186.761 52.472C187.028 52.472 187.276 52.408 187.505 52.28C187.74 52.1467 187.929 51.9547 188.073 51.704C188.217 51.4533 188.289 51.1547 188.289 50.808C188.289 50.456 188.22 50.1547 188.081 49.904C187.948 49.648 187.766 49.456 187.537 49.328C187.313 49.2 187.068 49.136 186.801 49.136ZM195.232 48.536C195.552 48.536 195.842 48.608 196.104 48.752C196.365 48.8907 196.57 49.1013 196.72 49.384C196.874 49.6613 196.952 50 196.952 50.4V53H196.232V50.52C196.232 50.0773 196.122 49.7413 195.904 49.512C195.69 49.2827 195.397 49.168 195.024 49.168C194.65 49.168 194.354 49.2827 194.136 49.512C193.922 49.7413 193.816 50.0773 193.816 50.52V53H193.096V50.52C193.096 50.0773 192.989 49.7413 192.776 49.512C192.562 49.2827 192.266 49.168 191.888 49.168C191.514 49.168 191.218 49.2827 191 49.512C190.786 49.7413 190.68 50.0773 190.68 50.52V53H189.952V48.608H190.68V49.32C190.824 49.064 191.021 48.8693 191.272 48.736C191.522 48.6027 191.802 48.536 192.112 48.536C192.448 48.536 192.752 48.6187 193.024 48.784C193.296 48.944 193.501 49.1787 193.64 49.488C193.8 49.1893 194.016 48.9573 194.288 48.792C194.565 48.6213 194.88 48.536 195.232 48.536ZM197.988 47.408C197.988 47.2693 198.036 47.152 198.132 47.056C198.228 46.96 198.342 46.912 198.476 46.912C198.614 46.912 198.732 46.96 198.828 47.056C198.924 47.152 198.972 47.2693 198.972 47.408C198.972 47.5467 198.924 47.664 198.828 47.76C198.732 47.856 198.614 47.904 198.476 47.904C198.337 47.904 198.22 47.856 198.124 47.76C198.033 47.664 197.988 47.5467 197.988 47.408ZM198.836 48.608V53H198.108V48.608H198.836ZM200.598 52.408H202.718V53H199.774V52.408L201.894 49.2H199.774V48.608H202.718V49.2L200.598 52.408ZM207.647 50.624C207.647 50.7787 207.636 50.9227 207.615 51.056H204.118C204.14 51.4933 204.276 51.84 204.527 52.096C204.783 52.3467 205.108 52.472 205.503 52.472C205.801 52.472 206.052 52.4053 206.255 52.272C206.463 52.1387 206.615 51.9627 206.711 51.744H207.495C207.356 52.128 207.116 52.4453 206.775 52.696C206.439 52.9467 206.015 53.072 205.503 53.072C205.092 53.072 204.724 52.9787 204.399 52.792C204.079 52.6053 203.828 52.3413 203.647 52C203.465 51.6533 203.375 51.256 203.375 50.808C203.375 50.3547 203.465 49.9573 203.647 49.616C203.828 49.2693 204.084 49.0027 204.415 48.816C204.745 48.6293 205.127 48.536 205.559 48.536C205.969 48.536 206.332 48.6267 206.647 48.808C206.961 48.9893 207.207 49.2373 207.383 49.552C207.559 49.8667 207.647 50.224 207.647 50.624ZM206.887 50.528C206.887 50.2453 206.825 50 206.703 49.792C206.58 49.5787 206.412 49.416 206.199 49.304C205.991 49.192 205.759 49.136 205.503 49.136C205.124 49.136 204.807 49.2613 204.551 49.512C204.295 49.7573 204.153 50.096 204.127 50.528H206.887ZM213.112 48.536C213.426 48.536 213.712 48.608 213.968 48.752C214.229 48.8907 214.434 49.1013 214.584 49.384C214.738 49.6613 214.816 50 214.816 50.4V53H214.096V50.52C214.096 50.0773 213.989 49.7413 213.776 49.512C213.562 49.2827 213.266 49.168 212.888 49.168C212.514 49.168 212.218 49.2827 212 49.512C211.786 49.7413 211.68 50.0773 211.68 50.52V53H210.952V48.608H211.68V49.32C211.824 49.064 212.021 48.8693 212.272 48.736C212.522 48.6027 212.802 48.536 213.112 48.536ZM217.903 48.536C218.319 48.536 218.695 48.6293 219.031 48.816C219.367 49.0027 219.631 49.2693 219.823 49.616C220.02 49.9627 220.119 50.36 220.119 50.808C220.119 51.2507 220.018 51.6453 219.815 51.992C219.612 52.3333 219.338 52.6 218.991 52.792C218.644 52.9787 218.26 53.072 217.839 53.072C217.428 53.072 217.058 52.9787 216.727 52.792C216.402 52.6053 216.146 52.3413 215.959 52C215.778 51.6533 215.687 51.256 215.687 50.808C215.687 50.3547 215.783 49.9573 215.975 49.616C216.172 49.2693 216.439 49.0027 216.775 48.816C217.111 48.6293 217.487 48.536 217.903 48.536ZM217.879 49.136C217.612 49.136 217.37 49.2 217.151 49.328C216.932 49.456 216.756 49.6453 216.623 49.896C216.495 50.1467 216.431 50.4507 216.431 50.808C216.431 51.16 216.492 51.4613 216.615 51.712C216.743 51.9627 216.914 52.152 217.127 52.28C217.34 52.408 217.578 52.472 217.839 52.472C218.106 52.472 218.354 52.408 218.583 52.28C218.818 52.1467 219.007 51.9547 219.151 51.704C219.295 51.4533 219.367 51.1547 219.367 50.808C219.367 50.456 219.298 50.1547 219.159 49.904C219.026 49.648 218.844 49.456 218.615 49.328C218.391 49.2 218.146 49.136 217.879 49.136ZM223.07 52.408V53H222.334C221.96 53 221.675 52.9093 221.478 52.728C221.286 52.5467 221.19 52.2613 221.19 51.872V49.2H220.622V48.608H221.19V47.52H221.926V48.608H223.062V49.2H221.926V51.872C221.926 52.0693 221.966 52.208 222.046 52.288C222.126 52.368 222.267 52.408 222.47 52.408H223.07ZM223.753 47.408C223.753 47.2693 223.801 47.152 223.897 47.056C223.993 46.96 224.108 46.912 224.241 46.912C224.38 46.912 224.497 46.96 224.593 47.056C224.689 47.152 224.737 47.2693 224.737 47.408C224.737 47.5467 224.689 47.664 224.593 47.76C224.497 47.856 224.38 47.904 224.241 47.904C224.103 47.904 223.985 47.856 223.889 47.76C223.799 47.664 223.753 47.5467 223.753 47.408ZM224.601 48.608V53H223.873V48.608H224.601ZM226.691 48.608H229.171V53H228.443V49.2H226.691V53H225.955V49.2H225.387V48.608H225.955V48.24C225.955 47.76 226.083 47.4107 226.339 47.192C226.595 46.9733 226.998 46.864 227.547 46.864V47.456C227.227 47.456 227.003 47.5173 226.875 47.64C226.752 47.7573 226.691 47.9573 226.691 48.24V48.608ZM228.811 47.904C228.672 47.904 228.555 47.856 228.459 47.76C228.368 47.664 228.323 47.5467 228.323 47.408C228.323 47.2693 228.371 47.152 228.467 47.056C228.563 46.96 228.678 46.912 228.811 46.912C228.95 46.912 229.064 46.96 229.155 47.056C229.251 47.152 229.299 47.2693 229.299 47.408C229.299 47.5467 229.251 47.664 229.155 47.76C229.064 47.856 228.95 47.904 228.811 47.904ZM232.213 48.536C232.741 48.536 233.171 48.6587 233.501 48.904C233.837 49.1493 234.072 49.4987 234.205 49.952H233.421C233.336 49.696 233.189 49.496 232.981 49.352C232.773 49.208 232.517 49.136 232.213 49.136C231.797 49.136 231.461 49.2827 231.205 49.576C230.955 49.864 230.829 50.2747 230.829 50.808C230.829 51.336 230.955 51.7467 231.205 52.04C231.461 52.328 231.797 52.472 232.213 52.472C232.523 52.472 232.779 52.4027 232.981 52.264C233.184 52.1253 233.331 51.9227 233.421 51.656H234.205C234.072 52.088 233.835 52.432 233.493 52.688C233.157 52.944 232.731 53.072 232.213 53.072C231.803 53.072 231.435 52.9787 231.109 52.792C230.789 52.6053 230.539 52.3413 230.357 52C230.176 51.6533 230.085 51.256 230.085 50.808C230.085 50.3547 230.176 49.9573 230.357 49.616C230.539 49.2693 230.789 49.0027 231.109 48.816C231.429 48.6293 231.797 48.536 232.213 48.536ZM236.978 48.536C237.352 48.536 237.677 48.624 237.954 48.8C238.237 48.976 238.45 49.2053 238.594 49.488V48.608H239.33V53H238.594V52.104C238.45 52.392 238.237 52.6267 237.954 52.808C237.677 52.984 237.352 53.072 236.978 53.072C236.584 53.072 236.226 52.976 235.906 52.784C235.592 52.5867 235.341 52.3147 235.154 51.968C234.973 51.616 234.882 51.2187 234.882 50.776C234.882 50.3333 234.973 49.944 235.154 49.608C235.341 49.2667 235.592 49.0027 235.906 48.816C236.226 48.6293 236.584 48.536 236.978 48.536ZM237.106 49.168C236.845 49.168 236.6 49.232 236.37 49.36C236.146 49.488 235.965 49.6747 235.826 49.92C235.693 50.16 235.626 50.4453 235.626 50.776C235.626 51.1067 235.693 51.4 235.826 51.656C235.965 51.9067 236.146 52.1013 236.37 52.24C236.6 52.3787 236.845 52.448 237.106 52.448C237.373 52.448 237.618 52.3813 237.842 52.248C238.072 52.1147 238.253 51.9253 238.386 51.68C238.525 51.4293 238.594 51.1387 238.594 50.808C238.594 50.4773 238.525 50.1893 238.386 49.944C238.253 49.6933 238.072 49.5013 237.842 49.368C237.618 49.2347 237.373 49.168 237.106 49.168ZM242.57 52.408V53H241.834C241.46 53 241.175 52.9093 240.978 52.728C240.786 52.5467 240.69 52.2613 240.69 51.872V49.2H240.122V48.608H240.69V47.52H241.426V48.608H242.562V49.2H241.426V51.872C241.426 52.0693 241.466 52.208 241.546 52.288C241.626 52.368 241.767 52.408 241.97 52.408H242.57ZM243.253 47.408C243.253 47.2693 243.301 47.152 243.397 47.056C243.493 46.96 243.608 46.912 243.741 46.912C243.88 46.912 243.997 46.96 244.093 47.056C244.189 47.152 244.237 47.2693 244.237 47.408C244.237 47.5467 244.189 47.664 244.093 47.76C243.997 47.856 243.88 47.904 243.741 47.904C243.603 47.904 243.485 47.856 243.389 47.76C243.299 47.664 243.253 47.5467 243.253 47.408ZM244.101 48.608V53H243.373V48.608H244.101ZM247.231 48.536C247.647 48.536 248.023 48.6293 248.359 48.816C248.695 49.0027 248.959 49.2693 249.151 49.616C249.348 49.9627 249.447 50.36 249.447 50.808C249.447 51.2507 249.346 51.6453 249.143 51.992C248.94 52.3333 248.666 52.6 248.319 52.792C247.972 52.9787 247.588 53.072 247.167 53.072C246.756 53.072 246.386 52.9787 246.055 52.792C245.73 52.6053 245.474 52.3413 245.287 52C245.106 51.6533 245.015 51.256 245.015 50.808C245.015 50.3547 245.111 49.9573 245.303 49.616C245.5 49.2693 245.767 49.0027 246.103 48.816C246.439 48.6293 246.815 48.536 247.231 48.536ZM247.207 49.136C246.94 49.136 246.698 49.2 246.479 49.328C246.26 49.456 246.084 49.6453 245.951 49.896C245.823 50.1467 245.759 50.4507 245.759 50.808C245.759 51.16 245.82 51.4613 245.943 51.712C246.071 51.9627 246.242 52.152 246.455 52.28C246.668 52.408 246.906 52.472 247.167 52.472C247.434 52.472 247.682 52.408 247.911 52.28C248.146 52.1467 248.335 51.9547 248.479 51.704C248.623 51.4533 248.695 51.1547 248.695 50.808C248.695 50.456 248.626 50.1547 248.487 49.904C248.354 49.648 248.172 49.456 247.943 49.328C247.719 49.2 247.474 49.136 247.207 49.136ZM252.518 48.536C252.832 48.536 253.118 48.608 253.374 48.752C253.635 48.8907 253.84 49.1013 253.99 49.384C254.144 49.6613 254.222 50 254.222 50.4V53H253.502V50.52C253.502 50.0773 253.395 49.7413 253.182 49.512C252.968 49.2827 252.672 49.168 252.294 49.168C251.92 49.168 251.624 49.2827 251.406 49.512C251.192 49.7413 251.086 50.0773 251.086 50.52V53H250.358V48.608H251.086V49.32C251.23 49.064 251.427 48.8693 251.678 48.736C251.928 48.6027 252.208 48.536 252.518 48.536ZM259.292 48.536C259.766 48.536 260.142 48.6613 260.42 48.912C260.697 49.1573 260.849 49.496 260.876 49.928H260.124C260.113 49.6827 260.03 49.4853 259.876 49.336C259.721 49.1867 259.508 49.112 259.236 49.112C258.958 49.112 258.74 49.1787 258.58 49.312C258.425 49.44 258.348 49.6027 258.348 49.8C258.348 49.9653 258.396 50.0987 258.492 50.2C258.593 50.296 258.716 50.368 258.86 50.416C259.009 50.464 259.209 50.5147 259.46 50.568C259.78 50.6427 260.036 50.7173 260.228 50.792C260.425 50.8613 260.593 50.9813 260.732 51.152C260.87 51.3173 260.94 51.544 260.94 51.832C260.94 52.072 260.87 52.288 260.732 52.48C260.593 52.6667 260.398 52.8133 260.148 52.92C259.897 53.0213 259.609 53.072 259.284 53.072C258.793 53.072 258.398 52.9493 258.1 52.704C257.806 52.4587 257.646 52.12 257.62 51.688H258.372C258.382 51.9333 258.468 52.1307 258.628 52.28C258.793 52.424 259.012 52.496 259.284 52.496C259.582 52.496 259.812 52.4347 259.972 52.312C260.137 52.1893 260.22 52.0267 260.22 51.824C260.22 51.6587 260.169 51.528 260.068 51.432C259.972 51.3307 259.849 51.256 259.7 51.208C259.55 51.1547 259.345 51.0987 259.084 51.04C258.769 50.9707 258.513 50.9013 258.316 50.832C258.124 50.7573 257.958 50.6427 257.82 50.488C257.686 50.3333 257.62 50.12 257.62 49.848C257.62 49.608 257.686 49.3893 257.82 49.192C257.958 48.9893 258.153 48.8293 258.404 48.712C258.66 48.5947 258.956 48.536 259.292 48.536ZM265.975 50.624C265.975 50.7787 265.964 50.9227 265.943 51.056H262.447C262.468 51.4933 262.604 51.84 262.855 52.096C263.111 52.3467 263.436 52.472 263.831 52.472C264.129 52.472 264.38 52.4053 264.583 52.272C264.791 52.1387 264.943 51.9627 265.039 51.744H265.823C265.684 52.128 265.444 52.4453 265.103 52.696C264.767 52.9467 264.343 53.072 263.831 53.072C263.42 53.072 263.052 52.9787 262.727 52.792C262.407 52.6053 262.156 52.3413 261.975 52C261.793 51.6533 261.703 51.256 261.703 50.808C261.703 50.3547 261.793 49.9573 261.975 49.616C262.156 49.2693 262.412 49.0027 262.743 48.816C263.073 48.6293 263.455 48.536 263.887 48.536C264.297 48.536 264.66 48.6267 264.975 48.808C265.289 48.9893 265.535 49.2373 265.711 49.552C265.887 49.8667 265.975 50.224 265.975 50.624ZM265.215 50.528C265.215 50.2453 265.153 50 265.031 49.792C264.908 49.5787 264.74 49.416 264.527 49.304C264.319 49.192 264.087 49.136 263.831 49.136C263.452 49.136 263.135 49.2613 262.879 49.512C262.623 49.7573 262.481 50.096 262.455 50.528H265.215ZM268.921 52.408V53H268.185C267.812 53 267.527 52.9093 267.329 52.728C267.137 52.5467 267.041 52.2613 267.041 51.872V49.2H266.473V48.608H267.041V47.52H267.777V48.608H268.913V49.2H267.777V51.872C267.777 52.0693 267.817 52.208 267.897 52.288C267.977 52.368 268.119 52.408 268.321 52.408H268.921ZM271.765 52.408V53H271.029C270.656 53 270.37 52.9093 270.173 52.728C269.981 52.5467 269.885 52.2613 269.885 51.872V49.2H269.317V48.608H269.885V47.52H270.621V48.608H271.757V49.2H270.621V51.872C270.621 52.0693 270.661 52.208 270.741 52.288C270.821 52.368 270.962 52.408 271.165 52.408H271.765ZM272.449 47.408C272.449 47.2693 272.497 47.152 272.593 47.056C272.689 46.96 272.803 46.912 272.937 46.912C273.075 46.912 273.193 46.96 273.289 47.056C273.385 47.152 273.433 47.2693 273.433 47.408C273.433 47.5467 273.385 47.664 273.289 47.76C273.193 47.856 273.075 47.904 272.937 47.904C272.798 47.904 272.681 47.856 272.585 47.76C272.494 47.664 272.449 47.5467 272.449 47.408ZM273.297 48.608V53H272.569V48.608H273.297ZM276.658 48.536C276.973 48.536 277.258 48.608 277.514 48.752C277.776 48.8907 277.981 49.1013 278.13 49.384C278.285 49.6613 278.362 50 278.362 50.4V53H277.642V50.52C277.642 50.0773 277.536 49.7413 277.322 49.512C277.109 49.2827 276.813 49.168 276.434 49.168C276.061 49.168 275.765 49.2827 275.546 49.512C275.333 49.7413 275.226 50.0773 275.226 50.52V53H274.498V48.608H275.226V49.32C275.37 49.064 275.568 48.8693 275.818 48.736C276.069 48.6027 276.349 48.536 276.658 48.536ZM281.33 48.536C281.703 48.536 282.029 48.624 282.306 48.8C282.589 48.976 282.802 49.2053 282.946 49.488V48.608H283.682V53.112C283.682 53.512 283.594 53.8667 283.418 54.176C283.242 54.4853 282.994 54.7253 282.674 54.896C282.354 55.072 281.983 55.16 281.562 55.16C281.194 55.16 280.858 55.096 280.554 54.968C280.25 54.8453 280.002 54.6693 279.81 54.44C279.618 54.2107 279.503 53.9493 279.466 53.656H280.178C280.247 53.9067 280.41 54.1147 280.666 54.28C280.922 54.4453 281.221 54.528 281.562 54.528C281.978 54.528 282.311 54.4027 282.562 54.152C282.818 53.9067 282.946 53.56 282.946 53.112V52.104C282.802 52.392 282.589 52.6267 282.306 52.808C282.029 52.984 281.703 53.072 281.33 53.072C280.935 53.072 280.578 52.976 280.258 52.784C279.943 52.5867 279.693 52.3147 279.506 51.968C279.325 51.616 279.234 51.2187 279.234 50.776C279.234 50.3333 279.325 49.944 279.506 49.608C279.693 49.2667 279.943 49.0027 280.258 48.816C280.578 48.6293 280.935 48.536 281.33 48.536ZM281.458 49.168C281.197 49.168 280.951 49.232 280.722 49.36C280.498 49.488 280.317 49.6747 280.178 49.92C280.045 50.16 279.978 50.4453 279.978 50.776C279.978 51.1067 280.045 51.4 280.178 51.656C280.317 51.9067 280.498 52.1013 280.722 52.24C280.951 52.3787 281.197 52.448 281.458 52.448C281.725 52.448 281.97 52.3813 282.194 52.248C282.423 52.1147 282.605 51.9253 282.738 51.68C282.877 51.4293 282.946 51.1387 282.946 50.808C282.946 50.4773 282.877 50.1893 282.738 49.944C282.605 49.6933 282.423 49.5013 282.194 49.368C281.97 49.2347 281.725 49.168 281.458 49.168ZM286.393 48.536C286.868 48.536 287.244 48.6613 287.521 48.912C287.799 49.1573 287.951 49.496 287.977 49.928H287.225C287.215 49.6827 287.132 49.4853 286.977 49.336C286.823 49.1867 286.609 49.112 286.337 49.112C286.06 49.112 285.841 49.1787 285.681 49.312C285.527 49.44 285.449 49.6027 285.449 49.8C285.449 49.9653 285.497 50.0987 285.593 50.2C285.695 50.296 285.817 50.368 285.961 50.416C286.111 50.464 286.311 50.5147 286.561 50.568C286.881 50.6427 287.137 50.7173 287.329 50.792C287.527 50.8613 287.695 50.9813 287.833 51.152C287.972 51.3173 288.041 51.544 288.041 51.832C288.041 52.072 287.972 52.288 287.833 52.48C287.695 52.6667 287.5 52.8133 287.249 52.92C286.999 53.0213 286.711 53.072 286.385 53.072C285.895 53.072 285.5 52.9493 285.201 52.704C284.908 52.4587 284.748 52.12 284.721 51.688H285.473C285.484 51.9333 285.569 52.1307 285.729 52.28C285.895 52.424 286.113 52.496 286.385 52.496C286.684 52.496 286.913 52.4347 287.073 52.312C287.239 52.1893 287.321 52.0267 287.321 51.824C287.321 51.6587 287.271 51.528 287.169 51.432C287.073 51.3307 286.951 51.256 286.801 51.208C286.652 51.1547 286.447 51.0987 286.185 51.04C285.871 50.9707 285.615 50.9013 285.417 50.832C285.225 50.7573 285.06 50.6427 284.921 50.488C284.788 50.3333 284.721 50.12 284.721 49.848C284.721 49.608 284.788 49.3893 284.921 49.192C285.06 48.9893 285.255 48.8293 285.505 48.712C285.761 48.5947 286.057 48.536 286.393 48.536ZM289.548 52.464C289.618 52.7467 289.652 53.0053 289.652 53.24C289.652 53.8427 289.378 54.144 288.828 54.144V53.792C288.962 53.792 289.058 53.76 289.116 53.696C289.18 53.632 289.212 53.5307 289.212 53.392V53.208H288.804V52.464H289.548ZM292.855 47.408C292.855 47.2693 292.903 47.152 292.999 47.056C293.095 46.96 293.21 46.912 293.343 46.912C293.482 46.912 293.599 46.96 293.695 47.056C293.791 47.152 293.839 47.2693 293.839 47.408C293.839 47.5467 293.791 47.664 293.695 47.76C293.599 47.856 293.482 47.904 293.343 47.904C293.204 47.904 293.087 47.856 292.991 47.76C292.9 47.664 292.855 47.5467 292.855 47.408ZM293.703 48.608V53H292.975V48.608H293.703ZM297.065 48.536C297.379 48.536 297.665 48.608 297.921 48.752C298.182 48.8907 298.387 49.1013 298.537 49.384C298.691 49.6613 298.769 50 298.769 50.4V53H298.049V50.52C298.049 50.0773 297.942 49.7413 297.729 49.512C297.515 49.2827 297.219 49.168 296.841 49.168C296.467 49.168 296.171 49.2827 295.953 49.512C295.739 49.7413 295.633 50.0773 295.633 50.52V53H294.905V48.608H295.633V49.32C295.777 49.064 295.974 48.8693 296.225 48.736C296.475 48.6027 296.755 48.536 297.065 48.536ZM301.768 48.536C302.296 48.536 302.725 48.6587 303.056 48.904C303.392 49.1493 303.627 49.4987 303.76 49.952H302.976C302.891 49.696 302.744 49.496 302.536 49.352C302.328 49.208 302.072 49.136 301.768 49.136C301.352 49.136 301.016 49.2827 300.76 49.576C300.509 49.864 300.384 50.2747 300.384 50.808C300.384 51.336 300.509 51.7467 300.76 52.04C301.016 52.328 301.352 52.472 301.768 52.472C302.077 52.472 302.333 52.4027 302.536 52.264C302.739 52.1253 302.885 51.9227 302.976 51.656H303.76C303.627 52.088 303.389 52.432 303.048 52.688C302.712 52.944 302.285 53.072 301.768 53.072C301.357 53.072 300.989 52.9787 300.664 52.792C300.344 52.6053 300.093 52.3413 299.912 52C299.731 51.6533 299.64 51.256 299.64 50.808C299.64 50.3547 299.731 49.9573 299.912 49.616C300.093 49.2693 300.344 49.0027 300.664 48.816C300.984 48.6293 301.352 48.536 301.768 48.536ZM305.453 47.08V53H304.725V47.08H305.453ZM310.479 48.608V53H309.751V52.296C309.607 52.552 309.409 52.7467 309.159 52.88C308.908 53.008 308.628 53.072 308.319 53.072C308.004 53.072 307.716 53.0027 307.455 52.864C307.199 52.72 306.993 52.5093 306.839 52.232C306.689 51.9547 306.615 51.616 306.615 51.216V48.608H307.335V51.096C307.335 51.5333 307.441 51.8693 307.655 52.104C307.873 52.3333 308.169 52.448 308.543 52.448C308.916 52.448 309.209 52.3333 309.423 52.104C309.641 51.8693 309.751 51.5333 309.751 51.096V48.608H310.479ZM313.486 48.536C313.859 48.536 314.185 48.624 314.462 48.8C314.745 48.976 314.958 49.2053 315.102 49.488V47.08H315.838V53H315.102V52.104C314.958 52.392 314.745 52.6267 314.462 52.808C314.185 52.984 313.859 53.072 313.486 53.072C313.091 53.072 312.734 52.976 312.414 52.784C312.099 52.5867 311.849 52.3147 311.662 51.968C311.481 51.616 311.39 51.2187 311.39 50.776C311.39 50.3333 311.481 49.944 311.662 49.608C311.849 49.2667 312.099 49.0027 312.414 48.816C312.734 48.6293 313.091 48.536 313.486 48.536ZM313.614 49.168C313.353 49.168 313.107 49.232 312.878 49.36C312.654 49.488 312.473 49.6747 312.334 49.92C312.201 50.16 312.134 50.4453 312.134 50.776C312.134 51.1067 312.201 51.4 312.334 51.656C312.473 51.9067 312.654 52.1013 312.878 52.24C313.107 52.3787 313.353 52.448 313.614 52.448C313.881 52.448 314.126 52.3813 314.35 52.248C314.579 52.1147 314.761 51.9253 314.894 51.68C315.033 51.4293 315.102 51.1387 315.102 50.808C315.102 50.4773 315.033 50.1893 314.894 49.944C314.761 49.6933 314.579 49.5013 314.35 49.368C314.126 49.2347 313.881 49.168 313.614 49.168ZM316.918 47.408C316.918 47.2693 316.966 47.152 317.062 47.056C317.158 46.96 317.272 46.912 317.406 46.912C317.544 46.912 317.662 46.96 317.758 47.056C317.854 47.152 317.902 47.2693 317.902 47.408C317.902 47.5467 317.854 47.664 317.758 47.76C317.662 47.856 317.544 47.904 317.406 47.904C317.267 47.904 317.15 47.856 317.054 47.76C316.963 47.664 316.918 47.5467 316.918 47.408ZM317.766 48.608V53H317.038V48.608H317.766ZM321.127 48.536C321.442 48.536 321.727 48.608 321.983 48.752C322.245 48.8907 322.45 49.1013 322.599 49.384C322.754 49.6613 322.831 50 322.831 50.4V53H322.111V50.52C322.111 50.0773 322.005 49.7413 321.791 49.512C321.578 49.2827 321.282 49.168 320.903 49.168C320.53 49.168 320.234 49.2827 320.015 49.512C319.802 49.7413 319.695 50.0773 319.695 50.52V53H318.967V48.608H319.695V49.32C319.839 49.064 320.037 48.8693 320.287 48.736C320.538 48.6027 320.818 48.536 321.127 48.536ZM325.799 48.536C326.172 48.536 326.497 48.624 326.775 48.8C327.057 48.976 327.271 49.2053 327.415 49.488V48.608H328.151V53.112C328.151 53.512 328.063 53.8667 327.887 54.176C327.711 54.4853 327.463 54.7253 327.143 54.896C326.823 55.072 326.452 55.16 326.031 55.16C325.663 55.16 325.327 55.096 325.023 54.968C324.719 54.8453 324.471 54.6693 324.279 54.44C324.087 54.2107 323.972 53.9493 323.935 53.656H324.647C324.716 53.9067 324.879 54.1147 325.135 54.28C325.391 54.4453 325.689 54.528 326.031 54.528C326.447 54.528 326.78 54.4027 327.031 54.152C327.287 53.9067 327.415 53.56 327.415 53.112V52.104C327.271 52.392 327.057 52.6267 326.775 52.808C326.497 52.984 326.172 53.072 325.799 53.072C325.404 53.072 325.047 52.976 324.727 52.784C324.412 52.5867 324.161 52.3147 323.975 51.968C323.793 51.616 323.703 51.2187 323.703 50.776C323.703 50.3333 323.793 49.944 323.975 49.608C324.161 49.2667 324.412 49.0027 324.727 48.816C325.047 48.6293 325.404 48.536 325.799 48.536ZM325.927 49.168C325.665 49.168 325.42 49.232 325.191 49.36C324.967 49.488 324.785 49.6747 324.647 49.92C324.513 50.16 324.447 50.4453 324.447 50.776C324.447 51.1067 324.513 51.4 324.647 51.656C324.785 51.9067 324.967 52.1013 325.191 52.24C325.42 52.3787 325.665 52.448 325.927 52.448C326.193 52.448 326.439 52.3813 326.663 52.248C326.892 52.1147 327.073 51.9253 327.207 51.68C327.345 51.4293 327.415 51.1387 327.415 50.808C327.415 50.4773 327.345 50.1893 327.207 49.944C327.073 49.6933 326.892 49.5013 326.663 49.368C326.439 49.2347 326.193 49.168 325.927 49.168ZM170.584 62.624C170.584 62.7787 170.573 62.9227 170.552 63.056H167.056C167.077 63.4933 167.213 63.84 167.464 64.096C167.72 64.3467 168.045 64.472 168.44 64.472C168.739 64.472 168.989 64.4053 169.192 64.272C169.4 64.1387 169.552 63.9627 169.648 63.744H170.432C170.293 64.128 170.053 64.4453 169.712 64.696C169.376 64.9467 168.952 65.072 168.44 65.072C168.029 65.072 167.661 64.9787 167.336 64.792C167.016 64.6053 166.765 64.3413 166.584 64C166.403 63.6533 166.312 63.256 166.312 62.808C166.312 62.3547 166.403 61.9573 166.584 61.616C166.765 61.2693 167.021 61.0027 167.352 60.816C167.683 60.6293 168.064 60.536 168.496 60.536C168.907 60.536 169.269 60.6267 169.584 60.808C169.899 60.9893 170.144 61.2373 170.32 61.552C170.496 61.8667 170.584 62.224 170.584 62.624ZM169.824 62.528C169.824 62.2453 169.763 62 169.64 61.792C169.517 61.5787 169.349 61.416 169.136 61.304C168.928 61.192 168.696 61.136 168.44 61.136C168.061 61.136 167.744 61.2613 167.488 61.512C167.232 61.7573 167.091 62.096 167.064 62.528H169.824ZM176.771 60.536C177.091 60.536 177.381 60.608 177.643 60.752C177.904 60.8907 178.109 61.1013 178.259 61.384C178.413 61.6613 178.491 62 178.491 62.4V65H177.771V62.52C177.771 62.0773 177.661 61.7413 177.443 61.512C177.229 61.2827 176.936 61.168 176.563 61.168C176.189 61.168 175.893 61.2827 175.675 61.512C175.461 61.7413 175.355 62.0773 175.355 62.52V65H174.635V62.52C174.635 62.0773 174.528 61.7413 174.315 61.512C174.101 61.2827 173.805 61.168 173.427 61.168C173.053 61.168 172.757 61.2827 172.539 61.512C172.325 61.7413 172.219 62.0773 172.219 62.52V65H171.491V60.608H172.219V61.32C172.363 61.064 172.56 60.8693 172.811 60.736C173.061 60.6027 173.341 60.536 173.651 60.536C173.987 60.536 174.291 60.6187 174.563 60.784C174.835 60.944 175.04 61.1787 175.179 61.488C175.339 61.1893 175.555 60.9573 175.827 60.792C176.104 60.6213 176.419 60.536 176.771 60.536ZM181.455 60.536C181.828 60.536 182.154 60.624 182.431 60.8C182.714 60.976 182.927 61.2053 183.071 61.488V60.608H183.807V65H183.071V64.104C182.927 64.392 182.714 64.6267 182.431 64.808C182.154 64.984 181.828 65.072 181.455 65.072C181.06 65.072 180.703 64.976 180.383 64.784C180.068 64.5867 179.818 64.3147 179.631 63.968C179.45 63.616 179.359 63.2187 179.359 62.776C179.359 62.3333 179.45 61.944 179.631 61.608C179.818 61.2667 180.068 61.0027 180.383 60.816C180.703 60.6293 181.06 60.536 181.455 60.536ZM181.583 61.168C181.322 61.168 181.076 61.232 180.847 61.36C180.623 61.488 180.442 61.6747 180.303 61.92C180.17 62.16 180.103 62.4453 180.103 62.776C180.103 63.1067 180.17 63.4 180.303 63.656C180.442 63.9067 180.623 64.1013 180.847 64.24C181.076 64.3787 181.322 64.448 181.583 64.448C181.85 64.448 182.095 64.3813 182.319 64.248C182.548 64.1147 182.73 63.9253 182.863 63.68C183.002 63.4293 183.071 63.1387 183.071 62.808C183.071 62.4773 183.002 62.1893 182.863 61.944C182.73 61.6933 182.548 61.5013 182.319 61.368C182.095 61.2347 181.85 61.168 181.583 61.168ZM184.886 59.408C184.886 59.2693 184.934 59.152 185.03 59.056C185.126 58.96 185.241 58.912 185.374 58.912C185.513 58.912 185.63 58.96 185.726 59.056C185.822 59.152 185.87 59.2693 185.87 59.408C185.87 59.5467 185.822 59.664 185.726 59.76C185.63 59.856 185.513 59.904 185.374 59.904C185.236 59.904 185.118 59.856 185.022 59.76C184.932 59.664 184.886 59.5467 184.886 59.408ZM185.734 60.608V65H185.006V60.608H185.734ZM187.664 59.08V65H186.936V59.08H187.664ZM193.424 60.536C193.739 60.536 194.024 60.608 194.28 60.752C194.541 60.8907 194.747 61.1013 194.896 61.384C195.051 61.6613 195.128 62 195.128 62.4V65H194.408V62.52C194.408 62.0773 194.301 61.7413 194.088 61.512C193.875 61.2827 193.579 61.168 193.2 61.168C192.827 61.168 192.531 61.2827 192.312 61.512C192.099 61.7413 191.992 62.0773 191.992 62.52V65H191.264V60.608H191.992V61.32C192.136 61.064 192.333 60.8693 192.584 60.736C192.835 60.6027 193.115 60.536 193.424 60.536ZM198.216 60.536C198.632 60.536 199.008 60.6293 199.344 60.816C199.68 61.0027 199.944 61.2693 200.136 61.616C200.333 61.9627 200.432 62.36 200.432 62.808C200.432 63.2507 200.33 63.6453 200.128 63.992C199.925 64.3333 199.65 64.6 199.304 64.792C198.957 64.9787 198.573 65.072 198.152 65.072C197.741 65.072 197.37 64.9787 197.04 64.792C196.714 64.6053 196.458 64.3413 196.272 64C196.09 63.6533 196 63.256 196 62.808C196 62.3547 196.096 61.9573 196.288 61.616C196.485 61.2693 196.752 61.0027 197.088 60.816C197.424 60.6293 197.8 60.536 198.216 60.536ZM198.192 61.136C197.925 61.136 197.682 61.2 197.464 61.328C197.245 61.456 197.069 61.6453 196.936 61.896C196.808 62.1467 196.743 62.4507 196.743 62.808C196.743 63.16 196.805 63.4613 196.928 63.712C197.056 63.9627 197.226 64.152 197.44 64.28C197.653 64.408 197.89 64.472 198.152 64.472C198.418 64.472 198.666 64.408 198.896 64.28C199.13 64.1467 199.32 63.9547 199.464 63.704C199.608 63.4533 199.68 63.1547 199.68 62.808C199.68 62.456 199.61 62.1547 199.472 61.904C199.338 61.648 199.157 61.456 198.928 61.328C198.704 61.2 198.458 61.136 198.192 61.136ZM203.382 64.408V65H202.646C202.273 65 201.988 64.9093 201.79 64.728C201.598 64.5467 201.502 64.2613 201.502 63.872V61.2H200.934V60.608H201.502V59.52H202.238V60.608H203.374V61.2H202.238V63.872C202.238 64.0693 202.278 64.208 202.358 64.288C202.438 64.368 202.58 64.408 202.782 64.408H203.382ZM204.066 59.408C204.066 59.2693 204.114 59.152 204.21 59.056C204.306 58.96 204.421 58.912 204.554 58.912C204.693 58.912 204.81 58.96 204.906 59.056C205.002 59.152 205.05 59.2693 205.05 59.408C205.05 59.5467 205.002 59.664 204.906 59.76C204.81 59.856 204.693 59.904 204.554 59.904C204.415 59.904 204.298 59.856 204.202 59.76C204.111 59.664 204.066 59.5467 204.066 59.408ZM204.914 60.608V65H204.186V60.608H204.914ZM207.004 60.608H209.484V65H208.756V61.2H207.004V65H206.268V61.2H205.7V60.608H206.268V60.24C206.268 59.76 206.396 59.4107 206.652 59.192C206.908 58.9733 207.31 58.864 207.86 58.864V59.456C207.54 59.456 207.316 59.5173 207.188 59.64C207.065 59.7573 207.004 59.9573 207.004 60.24V60.608ZM209.124 59.904C208.985 59.904 208.868 59.856 208.772 59.76C208.681 59.664 208.636 59.5467 208.636 59.408C208.636 59.2693 208.684 59.152 208.78 59.056C208.876 58.96 208.99 58.912 209.124 58.912C209.262 58.912 209.377 58.96 209.468 59.056C209.564 59.152 209.612 59.2693 209.612 59.408C209.612 59.5467 209.564 59.664 209.468 59.76C209.377 59.856 209.262 59.904 209.124 59.904ZM212.526 60.536C213.054 60.536 213.483 60.6587 213.814 60.904C214.15 61.1493 214.385 61.4987 214.518 61.952H213.734C213.649 61.696 213.502 61.496 213.294 61.352C213.086 61.208 212.83 61.136 212.526 61.136C212.11 61.136 211.774 61.2827 211.518 61.576C211.267 61.864 211.142 62.2747 211.142 62.808C211.142 63.336 211.267 63.7467 211.518 64.04C211.774 64.328 212.11 64.472 212.526 64.472C212.835 64.472 213.091 64.4027 213.294 64.264C213.497 64.1253 213.643 63.9227 213.734 63.656H214.518C214.385 64.088 214.147 64.432 213.806 64.688C213.47 64.944 213.043 65.072 212.526 65.072C212.115 65.072 211.747 64.9787 211.422 64.792C211.102 64.6053 210.851 64.3413 210.67 64C210.489 63.6533 210.398 63.256 210.398 62.808C210.398 62.3547 210.489 61.9573 210.67 61.616C210.851 61.2693 211.102 61.0027 211.422 60.816C211.742 60.6293 212.11 60.536 212.526 60.536ZM217.291 60.536C217.664 60.536 217.989 60.624 218.267 60.8C218.549 60.976 218.763 61.2053 218.907 61.488V60.608H219.643V65H218.907V64.104C218.763 64.392 218.549 64.6267 218.267 64.808C217.989 64.984 217.664 65.072 217.291 65.072C216.896 65.072 216.539 64.976 216.219 64.784C215.904 64.5867 215.653 64.3147 215.467 63.968C215.285 63.616 215.195 63.2187 215.195 62.776C215.195 62.3333 215.285 61.944 215.467 61.608C215.653 61.2667 215.904 61.0027 216.219 60.816C216.539 60.6293 216.896 60.536 217.291 60.536ZM217.419 61.168C217.157 61.168 216.912 61.232 216.683 61.36C216.459 61.488 216.277 61.6747 216.139 61.92C216.005 62.16 215.939 62.4453 215.939 62.776C215.939 63.1067 216.005 63.4 216.139 63.656C216.277 63.9067 216.459 64.1013 216.683 64.24C216.912 64.3787 217.157 64.448 217.419 64.448C217.685 64.448 217.931 64.3813 218.155 64.248C218.384 64.1147 218.565 63.9253 218.699 63.68C218.837 63.4293 218.907 63.1387 218.907 62.808C218.907 62.4773 218.837 62.1893 218.699 61.944C218.565 61.6933 218.384 61.5013 218.155 61.368C217.931 61.2347 217.685 61.168 217.419 61.168ZM222.882 64.408V65H222.146C221.773 65 221.488 64.9093 221.29 64.728C221.098 64.5467 221.002 64.2613 221.002 63.872V61.2H220.434V60.608H221.002V59.52H221.738V60.608H222.874V61.2H221.738V63.872C221.738 64.0693 221.778 64.208 221.858 64.288C221.938 64.368 222.08 64.408 222.282 64.408H222.882ZM223.566 59.408C223.566 59.2693 223.614 59.152 223.71 59.056C223.806 58.96 223.921 58.912 224.054 58.912C224.193 58.912 224.31 58.96 224.406 59.056C224.502 59.152 224.55 59.2693 224.55 59.408C224.55 59.5467 224.502 59.664 224.406 59.76C224.31 59.856 224.193 59.904 224.054 59.904C223.915 59.904 223.798 59.856 223.702 59.76C223.611 59.664 223.566 59.5467 223.566 59.408ZM224.414 60.608V65H223.686V60.608H224.414ZM227.544 60.536C227.96 60.536 228.336 60.6293 228.672 60.816C229.008 61.0027 229.272 61.2693 229.464 61.616C229.661 61.9627 229.76 62.36 229.76 62.808C229.76 63.2507 229.658 63.6453 229.456 63.992C229.253 64.3333 228.978 64.6 228.632 64.792C228.285 64.9787 227.901 65.072 227.48 65.072C227.069 65.072 226.698 64.9787 226.368 64.792C226.042 64.6053 225.786 64.3413 225.6 64C225.418 63.6533 225.328 63.256 225.328 62.808C225.328 62.3547 225.424 61.9573 225.616 61.616C225.813 61.2693 226.08 61.0027 226.416 60.816C226.752 60.6293 227.128 60.536 227.544 60.536ZM227.52 61.136C227.253 61.136 227.01 61.2 226.792 61.328C226.573 61.456 226.397 61.6453 226.264 61.896C226.136 62.1467 226.072 62.4507 226.072 62.808C226.072 63.16 226.133 63.4613 226.256 63.712C226.384 63.9627 226.554 64.152 226.768 64.28C226.981 64.408 227.218 64.472 227.48 64.472C227.746 64.472 227.994 64.408 228.224 64.28C228.458 64.1467 228.648 63.9547 228.792 63.704C228.936 63.4533 229.008 63.1547 229.008 62.808C229.008 62.456 228.938 62.1547 228.8 61.904C228.666 61.648 228.485 61.456 228.256 61.328C228.032 61.2 227.786 61.136 227.52 61.136ZM232.83 60.536C233.145 60.536 233.43 60.608 233.686 60.752C233.948 60.8907 234.153 61.1013 234.302 61.384C234.457 61.6613 234.534 62 234.534 62.4V65H233.814V62.52C233.814 62.0773 233.708 61.7413 233.494 61.512C233.281 61.2827 232.985 61.168 232.606 61.168C232.233 61.168 231.937 61.2827 231.718 61.512C231.505 61.7413 231.398 62.0773 231.398 62.52V65H230.67V60.608H231.398V61.32C231.542 61.064 231.74 60.8693 231.99 60.736C232.241 60.6027 232.521 60.536 232.83 60.536ZM237.206 60.536C237.68 60.536 238.056 60.6613 238.334 60.912C238.611 61.1573 238.763 61.496 238.79 61.928H238.038C238.027 61.6827 237.944 61.4853 237.79 61.336C237.635 61.1867 237.422 61.112 237.15 61.112C236.872 61.112 236.654 61.1787 236.494 61.312C236.339 61.44 236.262 61.6027 236.262 61.8C236.262 61.9653 236.31 62.0987 236.406 62.2C236.507 62.296 236.63 62.368 236.774 62.416C236.923 62.464 237.123 62.5147 237.374 62.568C237.694 62.6427 237.95 62.7173 238.142 62.792C238.339 62.8613 238.507 62.9813 238.646 63.152C238.784 63.3173 238.854 63.544 238.854 63.832C238.854 64.072 238.784 64.288 238.646 64.48C238.507 64.6667 238.312 64.8133 238.062 64.92C237.811 65.0213 237.523 65.072 237.198 65.072C236.707 65.072 236.312 64.9493 236.014 64.704C235.72 64.4587 235.56 64.12 235.534 63.688H236.286C236.296 63.9333 236.382 64.1307 236.542 64.28C236.707 64.424 236.926 64.496 237.198 64.496C237.496 64.496 237.726 64.4347 237.886 64.312C238.051 64.1893 238.134 64.0267 238.134 63.824C238.134 63.6587 238.083 63.528 237.982 63.432C237.886 63.3307 237.763 63.256 237.614 63.208C237.464 63.1547 237.259 63.0987 236.998 63.04C236.683 62.9707 236.427 62.9013 236.23 62.832C236.038 62.7573 235.872 62.6427 235.734 62.488C235.6 62.3333 235.534 62.12 235.534 61.848C235.534 61.608 235.6 61.3893 235.734 61.192C235.872 60.9893 236.067 60.8293 236.318 60.712C236.574 60.5947 236.87 60.536 237.206 60.536ZM244.111 60.536C244.484 60.536 244.81 60.624 245.087 60.8C245.37 60.976 245.583 61.2053 245.727 61.488V60.608H246.463V65H245.727V64.104C245.583 64.392 245.37 64.6267 245.087 64.808C244.81 64.984 244.484 65.072 244.111 65.072C243.716 65.072 243.359 64.976 243.039 64.784C242.724 64.5867 242.474 64.3147 242.287 63.968C242.106 63.616 242.015 63.2187 242.015 62.776C242.015 62.3333 242.106 61.944 242.287 61.608C242.474 61.2667 242.724 61.0027 243.039 60.816C243.359 60.6293 243.716 60.536 244.111 60.536ZM244.239 61.168C243.978 61.168 243.732 61.232 243.503 61.36C243.279 61.488 243.098 61.6747 242.959 61.92C242.826 62.16 242.759 62.4453 242.759 62.776C242.759 63.1067 242.826 63.4 242.959 63.656C243.098 63.9067 243.279 64.1013 243.503 64.24C243.732 64.3787 243.978 64.448 244.239 64.448C244.506 64.448 244.751 64.3813 244.975 64.248C245.204 64.1147 245.386 63.9253 245.519 63.68C245.658 63.4293 245.727 63.1387 245.727 62.808C245.727 62.4773 245.658 62.1893 245.519 61.944C245.386 61.6933 245.204 61.5013 244.975 61.368C244.751 61.2347 244.506 61.168 244.239 61.168ZM249.823 60.536C250.137 60.536 250.423 60.608 250.679 60.752C250.94 60.8907 251.145 61.1013 251.295 61.384C251.449 61.6613 251.527 62 251.527 62.4V65H250.807V62.52C250.807 62.0773 250.7 61.7413 250.487 61.512C250.273 61.2827 249.977 61.168 249.599 61.168C249.225 61.168 248.929 61.2827 248.711 61.512C248.497 61.7413 248.391 62.0773 248.391 62.52V65H247.663V60.608H248.391V61.32C248.535 61.064 248.732 60.8693 248.983 60.736C249.233 60.6027 249.513 60.536 249.823 60.536ZM254.494 60.536C254.867 60.536 255.193 60.624 255.47 60.8C255.753 60.976 255.966 61.2053 256.11 61.488V59.08H256.846V65H256.11V64.104C255.966 64.392 255.753 64.6267 255.47 64.808C255.193 64.984 254.867 65.072 254.494 65.072C254.099 65.072 253.742 64.976 253.422 64.784C253.107 64.5867 252.857 64.3147 252.67 63.968C252.489 63.616 252.398 63.2187 252.398 62.776C252.398 62.3333 252.489 61.944 252.67 61.608C252.857 61.2667 253.107 61.0027 253.422 60.816C253.742 60.6293 254.099 60.536 254.494 60.536ZM254.622 61.168C254.361 61.168 254.115 61.232 253.886 61.36C253.662 61.488 253.481 61.6747 253.342 61.92C253.209 62.16 253.142 62.4453 253.142 62.776C253.142 63.1067 253.209 63.4 253.342 63.656C253.481 63.9067 253.662 64.1013 253.886 64.24C254.115 64.3787 254.361 64.448 254.622 64.448C254.889 64.448 255.134 64.3813 255.358 64.248C255.587 64.1147 255.769 63.9253 255.902 63.68C256.041 63.4293 256.11 63.1387 256.11 62.808C256.11 62.4773 256.041 62.1893 255.902 61.944C255.769 61.6933 255.587 61.5013 255.358 61.368C255.134 61.2347 254.889 61.168 254.622 61.168ZM262.796 60.536C263.19 60.536 263.545 60.6293 263.86 60.816C264.18 61.0027 264.43 61.2667 264.612 61.608C264.798 61.944 264.892 62.3333 264.892 62.776C264.892 63.2187 264.798 63.616 264.612 63.968C264.43 64.3147 264.18 64.5867 263.86 64.784C263.545 64.976 263.19 65.072 262.796 65.072C262.422 65.072 262.094 64.984 261.812 64.808C261.534 64.6267 261.321 64.392 261.172 64.104V67.08H260.444V60.608H261.172V61.488C261.321 61.2053 261.534 60.976 261.812 60.8C262.094 60.624 262.422 60.536 262.796 60.536ZM262.652 61.168C262.39 61.168 262.145 61.2347 261.916 61.368C261.692 61.5013 261.51 61.6933 261.372 61.944C261.238 62.1893 261.172 62.4773 261.172 62.808C261.172 63.1387 261.238 63.4293 261.372 63.68C261.51 63.9253 261.692 64.1147 261.916 64.248C262.145 64.3813 262.39 64.448 262.652 64.448C262.913 64.448 263.158 64.3813 263.388 64.248C263.617 64.1093 263.798 63.912 263.932 63.656C264.07 63.4 264.14 63.1067 264.14 62.776C264.14 62.4453 264.07 62.16 263.932 61.92C263.798 61.6747 263.617 61.488 263.388 61.36C263.164 61.232 262.918 61.168 262.652 61.168ZM269.627 60.608V65H268.899V64.296C268.755 64.552 268.558 64.7467 268.307 64.88C268.056 65.008 267.776 65.072 267.467 65.072C267.152 65.072 266.864 65.0027 266.603 64.864C266.347 64.72 266.142 64.5093 265.987 64.232C265.838 63.9547 265.763 63.616 265.763 63.216V60.608H266.483V63.096C266.483 63.5333 266.59 63.8693 266.803 64.104C267.022 64.3333 267.318 64.448 267.691 64.448C268.064 64.448 268.358 64.3333 268.571 64.104C268.79 63.8693 268.899 63.5333 268.899 63.096V60.608H269.627ZM272.339 60.536C272.813 60.536 273.189 60.6613 273.467 60.912C273.744 61.1573 273.896 61.496 273.923 61.928H273.171C273.16 61.6827 273.077 61.4853 272.923 61.336C272.768 61.1867 272.555 61.112 272.283 61.112C272.005 61.112 271.787 61.1787 271.627 61.312C271.472 61.44 271.395 61.6027 271.395 61.8C271.395 61.9653 271.443 62.0987 271.539 62.2C271.64 62.296 271.763 62.368 271.907 62.416C272.056 62.464 272.256 62.5147 272.507 62.568C272.827 62.6427 273.083 62.7173 273.275 62.792C273.472 62.8613 273.64 62.9813 273.779 63.152C273.917 63.3173 273.987 63.544 273.987 63.832C273.987 64.072 273.917 64.288 273.779 64.48C273.64 64.6667 273.445 64.8133 273.195 64.92C272.944 65.0213 272.656 65.072 272.331 65.072C271.84 65.072 271.445 64.9493 271.147 64.704C270.853 64.4587 270.693 64.12 270.667 63.688H271.419C271.429 63.9333 271.515 64.1307 271.675 64.28C271.84 64.424 272.059 64.496 272.331 64.496C272.629 64.496 272.859 64.4347 273.019 64.312C273.184 64.1893 273.267 64.0267 273.267 63.824C273.267 63.6587 273.216 63.528 273.115 63.432C273.019 63.3307 272.896 63.256 272.747 63.208C272.597 63.1547 272.392 63.0987 272.131 63.04C271.816 62.9707 271.56 62.9013 271.363 62.832C271.171 62.7573 271.005 62.6427 270.867 62.488C270.733 62.3333 270.667 62.12 270.667 61.848C270.667 61.608 270.733 61.3893 270.867 61.192C271.005 60.9893 271.2 60.8293 271.451 60.712C271.707 60.5947 272.003 60.536 272.339 60.536ZM277.198 60.536C277.512 60.536 277.798 60.608 278.054 60.752C278.315 60.8907 278.52 61.1013 278.67 61.384C278.824 61.6613 278.902 62 278.902 62.4V65H278.182V62.52C278.182 62.0773 278.075 61.7413 277.862 61.512C277.648 61.2827 277.352 61.168 276.974 61.168C276.6 61.168 276.304 61.2827 276.086 61.512C275.872 61.7413 275.766 62.0773 275.766 62.52V65H275.038V59.08H275.766V61.32C275.91 61.064 276.107 60.8693 276.358 60.736C276.608 60.6027 276.888 60.536 277.198 60.536ZM284.619 60.536C284.934 60.536 285.219 60.608 285.475 60.752C285.737 60.8907 285.942 61.1013 286.091 61.384C286.246 61.6613 286.323 62 286.323 62.4V65H285.603V62.52C285.603 62.0773 285.497 61.7413 285.283 61.512C285.07 61.2827 284.774 61.168 284.395 61.168C284.022 61.168 283.726 61.2827 283.507 61.512C283.294 61.7413 283.187 62.0773 283.187 62.52V65H282.459V60.608H283.187V61.32C283.331 61.064 283.529 60.8693 283.779 60.736C284.03 60.6027 284.31 60.536 284.619 60.536ZM289.411 60.536C289.827 60.536 290.203 60.6293 290.539 60.816C290.875 61.0027 291.139 61.2693 291.331 61.616C291.528 61.9627 291.627 62.36 291.627 62.808C291.627 63.2507 291.525 63.6453 291.323 63.992C291.12 64.3333 290.845 64.6 290.499 64.792C290.152 64.9787 289.768 65.072 289.347 65.072C288.936 65.072 288.565 64.9787 288.235 64.792C287.909 64.6053 287.653 64.3413 287.467 64C287.285 63.6533 287.195 63.256 287.195 62.808C287.195 62.3547 287.291 61.9573 287.483 61.616C287.68 61.2693 287.947 61.0027 288.283 60.816C288.619 60.6293 288.995 60.536 289.411 60.536ZM289.387 61.136C289.12 61.136 288.877 61.2 288.659 61.328C288.44 61.456 288.264 61.6453 288.131 61.896C288.003 62.1467 287.939 62.4507 287.939 62.808C287.939 63.16 288 63.4613 288.123 63.712C288.251 63.9627 288.421 64.152 288.635 64.28C288.848 64.408 289.085 64.472 289.347 64.472C289.613 64.472 289.861 64.408 290.091 64.28C290.325 64.1467 290.515 63.9547 290.659 63.704C290.803 63.4533 290.875 63.1547 290.875 62.808C290.875 62.456 290.805 62.1547 290.667 61.904C290.533 61.648 290.352 61.456 290.123 61.328C289.899 61.2 289.653 61.136 289.387 61.136ZM294.578 64.408V65H293.842C293.468 65 293.183 64.9093 292.986 64.728C292.794 64.5467 292.698 64.2613 292.698 63.872V61.2H292.13V60.608H292.698V59.52H293.434V60.608H294.57V61.2H293.434V63.872C293.434 64.0693 293.474 64.208 293.554 64.288C293.634 64.368 293.775 64.408 293.978 64.408H294.578ZM295.261 59.408C295.261 59.2693 295.309 59.152 295.405 59.056C295.501 58.96 295.616 58.912 295.749 58.912C295.888 58.912 296.005 58.96 296.101 59.056C296.197 59.152 296.245 59.2693 296.245 59.408C296.245 59.5467 296.197 59.664 296.101 59.76C296.005 59.856 295.888 59.904 295.749 59.904C295.611 59.904 295.493 59.856 295.397 59.76C295.307 59.664 295.261 59.5467 295.261 59.408ZM296.109 60.608V65H295.381V60.608H296.109ZM298.199 60.608H300.679V65H299.951V61.2H298.199V65H297.463V61.2H296.895V60.608H297.463V60.24C297.463 59.76 297.591 59.4107 297.847 59.192C298.103 58.9733 298.506 58.864 299.055 58.864V59.456C298.735 59.456 298.511 59.5173 298.383 59.64C298.26 59.7573 298.199 59.9573 298.199 60.24V60.608ZM300.319 59.904C300.18 59.904 300.063 59.856 299.967 59.76C299.876 59.664 299.831 59.5467 299.831 59.408C299.831 59.2693 299.879 59.152 299.975 59.056C300.071 58.96 300.186 58.912 300.319 58.912C300.458 58.912 300.572 58.96 300.663 59.056C300.759 59.152 300.807 59.2693 300.807 59.408C300.807 59.5467 300.759 59.664 300.663 59.76C300.572 59.856 300.458 59.904 300.319 59.904ZM303.721 60.536C304.249 60.536 304.679 60.6587 305.009 60.904C305.345 61.1493 305.58 61.4987 305.713 61.952H304.929C304.844 61.696 304.697 61.496 304.489 61.352C304.281 61.208 304.025 61.136 303.721 61.136C303.305 61.136 302.969 61.2827 302.713 61.576C302.463 61.864 302.337 62.2747 302.337 62.808C302.337 63.336 302.463 63.7467 302.713 64.04C302.969 64.328 303.305 64.472 303.721 64.472C304.031 64.472 304.287 64.4027 304.489 64.264C304.692 64.1253 304.839 63.9227 304.929 63.656H305.713C305.58 64.088 305.343 64.432 305.001 64.688C304.665 64.944 304.239 65.072 303.721 65.072C303.311 65.072 302.943 64.9787 302.617 64.792C302.297 64.6053 302.047 64.3413 301.865 64C301.684 63.6533 301.593 63.256 301.593 62.808C301.593 62.3547 301.684 61.9573 301.865 61.616C302.047 61.2693 302.297 61.0027 302.617 60.816C302.937 60.6293 303.305 60.536 303.721 60.536ZM308.486 60.536C308.859 60.536 309.185 60.624 309.462 60.8C309.745 60.976 309.958 61.2053 310.102 61.488V60.608H310.838V65H310.102V64.104C309.958 64.392 309.745 64.6267 309.462 64.808C309.185 64.984 308.859 65.072 308.486 65.072C308.091 65.072 307.734 64.976 307.414 64.784C307.099 64.5867 306.849 64.3147 306.662 63.968C306.481 63.616 306.39 63.2187 306.39 62.776C306.39 62.3333 306.481 61.944 306.662 61.608C306.849 61.2667 307.099 61.0027 307.414 60.816C307.734 60.6293 308.091 60.536 308.486 60.536ZM308.614 61.168C308.353 61.168 308.107 61.232 307.878 61.36C307.654 61.488 307.473 61.6747 307.334 61.92C307.201 62.16 307.134 62.4453 307.134 62.776C307.134 63.1067 307.201 63.4 307.334 63.656C307.473 63.9067 307.654 64.1013 307.878 64.24C308.107 64.3787 308.353 64.448 308.614 64.448C308.881 64.448 309.126 64.3813 309.35 64.248C309.579 64.1147 309.761 63.9253 309.894 63.68C310.033 63.4293 310.102 63.1387 310.102 62.808C310.102 62.4773 310.033 62.1893 309.894 61.944C309.761 61.6933 309.579 61.5013 309.35 61.368C309.126 61.2347 308.881 61.168 308.614 61.168ZM314.078 64.408V65H313.342C312.968 65 312.683 64.9093 312.486 64.728C312.294 64.5467 312.198 64.2613 312.198 63.872V61.2H311.63V60.608H312.198V59.52H312.934V60.608H314.07V61.2H312.934V63.872C312.934 64.0693 312.974 64.208 313.054 64.288C313.134 64.368 313.275 64.408 313.478 64.408H314.078ZM314.761 59.408C314.761 59.2693 314.809 59.152 314.905 59.056C315.001 58.96 315.116 58.912 315.249 58.912C315.388 58.912 315.505 58.96 315.601 59.056C315.697 59.152 315.745 59.2693 315.745 59.408C315.745 59.5467 315.697 59.664 315.601 59.76C315.505 59.856 315.388 59.904 315.249 59.904C315.111 59.904 314.993 59.856 314.897 59.76C314.807 59.664 314.761 59.5467 314.761 59.408ZM315.609 60.608V65H314.881V60.608H315.609ZM318.739 60.536C319.155 60.536 319.531 60.6293 319.867 60.816C320.203 61.0027 320.467 61.2693 320.659 61.616C320.856 61.9627 320.955 62.36 320.955 62.808C320.955 63.2507 320.854 63.6453 320.651 63.992C320.448 64.3333 320.174 64.6 319.827 64.792C319.48 64.9787 319.096 65.072 318.675 65.072C318.264 65.072 317.894 64.9787 317.563 64.792C317.238 64.6053 316.982 64.3413 316.795 64C316.614 63.6533 316.523 63.256 316.523 62.808C316.523 62.3547 316.619 61.9573 316.811 61.616C317.008 61.2693 317.275 61.0027 317.611 60.816C317.947 60.6293 318.323 60.536 318.739 60.536ZM318.715 61.136C318.448 61.136 318.206 61.2 317.987 61.328C317.768 61.456 317.592 61.6453 317.459 61.896C317.331 62.1467 317.267 62.4507 317.267 62.808C317.267 63.16 317.328 63.4613 317.451 63.712C317.579 63.9627 317.75 64.152 317.963 64.28C318.176 64.408 318.414 64.472 318.675 64.472C318.942 64.472 319.19 64.408 319.419 64.28C319.654 64.1467 319.843 63.9547 319.987 63.704C320.131 63.4533 320.203 63.1547 320.203 62.808C320.203 62.456 320.134 62.1547 319.995 61.904C319.862 61.648 319.68 61.456 319.451 61.328C319.227 61.2 318.982 61.136 318.715 61.136ZM324.026 60.536C324.34 60.536 324.626 60.608 324.882 60.752C325.143 60.8907 325.348 61.1013 325.498 61.384C325.652 61.6613 325.73 62 325.73 62.4V65H325.01V62.52C325.01 62.0773 324.903 61.7413 324.69 61.512C324.476 61.2827 324.18 61.168 323.802 61.168C323.428 61.168 323.132 61.2827 322.914 61.512C322.7 61.7413 322.594 62.0773 322.594 62.52V65H321.866V60.608H322.594V61.32C322.738 61.064 322.935 60.8693 323.186 60.736C323.436 60.6027 323.716 60.536 324.026 60.536ZM328.401 60.536C328.876 60.536 329.252 60.6613 329.529 60.912C329.806 61.1573 329.958 61.496 329.985 61.928H329.233C329.222 61.6827 329.14 61.4853 328.985 61.336C328.83 61.1867 328.617 61.112 328.345 61.112C328.068 61.112 327.849 61.1787 327.689 61.312C327.534 61.44 327.457 61.6027 327.457 61.8C327.457 61.9653 327.505 62.0987 327.601 62.2C327.702 62.296 327.825 62.368 327.969 62.416C328.118 62.464 328.318 62.5147 328.569 62.568C328.889 62.6427 329.145 62.7173 329.337 62.792C329.534 62.8613 329.702 62.9813 329.841 63.152C329.98 63.3173 330.049 63.544 330.049 63.832C330.049 64.072 329.98 64.288 329.841 64.48C329.702 64.6667 329.508 64.8133 329.257 64.92C329.006 65.0213 328.718 65.072 328.393 65.072C327.902 65.072 327.508 64.9493 327.209 64.704C326.916 64.4587 326.756 64.12 326.729 63.688H327.481C327.492 63.9333 327.577 64.1307 327.737 64.28C327.902 64.424 328.121 64.496 328.393 64.496C328.692 64.496 328.921 64.4347 329.081 64.312C329.246 64.1893 329.329 64.0267 329.329 63.824C329.329 63.6587 329.278 63.528 329.177 63.432C329.081 63.3307 328.958 63.256 328.809 63.208C328.66 63.1547 328.454 63.0987 328.193 63.04C327.878 62.9707 327.622 62.9013 327.425 62.832C327.233 62.7573 327.068 62.6427 326.929 62.488C326.796 62.3333 326.729 62.12 326.729 61.848C326.729 61.608 326.796 61.3893 326.929 61.192C327.068 60.9893 327.262 60.8293 327.513 60.712C327.769 60.5947 328.065 60.536 328.401 60.536ZM330.94 64.536C330.94 64.4027 330.985 64.2907 331.076 64.2C331.167 64.1093 331.276 64.064 331.404 64.064C331.532 64.064 331.641 64.1093 331.732 64.2C331.823 64.2907 331.868 64.4027 331.868 64.536C331.868 64.664 331.823 64.7733 331.732 64.864C331.641 64.9547 331.532 65 331.404 65C331.276 65 331.167 64.9547 331.076 64.864C330.985 64.7733 330.94 64.664 330.94 64.536Z" fill="#320051"/>
<path d="M387.43 98.9297L393.5 105L387.43 111.07" stroke="#320051" stroke-width="1.5" stroke-miterlimit="10" stroke-linecap="round" stroke-linejoin="round"/>
<path d="M376.5 105H393.33" stroke="#320051" stroke-width="1.5" stroke-miterlimit="10" stroke-linecap="round" stroke-linejoin="round"/>
<path d="M84.0902 27.0957C69.1952 27.0957 57.0902 39.2007 57.0902 54.0957V67.1007C57.0902 69.8457 55.9202 74.0307 54.5252 76.3707L49.3502 84.9657C46.1552 90.2757 48.3602 96.1707 54.2102 98.1507C73.6052 104.631 94.5301 104.631 113.925 98.1507C119.37 96.3507 121.755 89.9157 118.785 84.9657L113.61 76.3707C112.26 74.0307 111.09 69.8457 111.09 67.1007V54.0957C111.09 39.2457 98.9402 27.0957 84.0902 27.0957Z" stroke="#964CC3" stroke-width="5" stroke-miterlimit="10" stroke-linecap="round"/>
<path d="M92.4151 26.8126C91.0201 26.4076 89.5801 26.0926 88.0951 25.9126C83.7751 25.3726 79.6351 25.6876 75.7651 26.8126C77.0701 23.4826 80.3101 21.1426 84.0901 21.1426C87.8701 21.1426 91.1101 23.4826 92.4151 26.8126Z" stroke="#964CC3" stroke-width="5" stroke-miterlimit="10" stroke-linecap="round" stroke-linejoin="round"/>
<path d="M97.5898 100.562C97.5898 107.987 91.5148 114.062 84.0898 114.062C80.3998 114.062 76.9798 112.533 74.5498 110.103C72.1198 107.673 70.5898 104.252 70.5898 100.562" stroke="#964CC3" stroke-width="5" stroke-miterlimit="10"/>
<path d="M-3 120.098C75 165.598 131.5 85.0978 208.5 120.098C285.5 155.099 337.404 120.098 420 120.098V153.598H-3V120.098Z" fill="#964CC3"/>
</g>
<defs>
<clipPath id="clip0_2916_4185">
<rect width="417" height="137" rx="10" fill="white"/>
</clipPath>
</defs>
</svg>
