<svg width="24" height="24" viewBox="0 0 24 24" fill="none" xmlns="http://www.w3.org/2000/svg">
<g clip-path="url(#clip0_2812_55883)">
<path d="M24 1.99995V4.99995H20.646L17.169 3.26195C16.259 2.80695 15.101 2.97595 14.362 3.67395L12.044 5.63395L19.112 11.031C18.91 11.015 18.707 11 18.501 11C17.301 11 16.17 11.289 15.164 11.791L12.054 9.41595L9.986 11.184C9.434 11.711 8.464 11.992 7.706 11.992C6.84 11.922 6.051 11.475 5.54 10.765C4.706 9.60595 4.866 7.94495 5.911 6.89995L9.647 3.64795C8.878 2.94695 7.679 2.83995 6.831 3.26395L3.355 5.00195H0V2.00195H2.646L5.489 0.579953C6.247 0.201953 7.094 0.00195312 7.94 0.00195312C9.346 0.00195312 10.656 0.508953 11.667 1.43095L12.008 1.74095L12.366 1.43795C13.902 -0.0180469 16.496 -0.428047 18.51 0.577953L21.354 1.99995H24ZM8.889 16.966L8.887 16.965L3.492 13.001H0V16.001H2.508L7.109 19.383L7.111 19.385L12 22.978L12.318 22.744C11.491 21.542 11.005 20.088 11.001 18.52L8.889 16.966ZM7.705 11.99C7.625 11.99 7.785 11.997 7.705 11.99V11.99ZM24 18.5C24 21.538 21.538 24 18.5 24C15.462 24 13 21.538 13 18.5C13 15.462 15.462 13 18.5 13C21.538 13 24 15.462 24 18.5ZM22.359 17.744L20.961 16.314L17.847 19.517L16.181 17.766L14.794 19.207L16.426 20.925C17.192 21.69 18.505 21.688 19.249 20.944L19.253 20.94L22.36 17.744H22.359Z" fill="white"/>
</g>
<defs>
<clipPath id="clip0_2812_55883">
<rect width="24" height="24" fill="white"/>
</clipPath>
</defs>
</svg>
