<svg width="30" height="30" viewBox="0 0 30 30" fill="none" xmlns="http://www.w3.org/2000/svg">
<g clip-path="url(#clip0_2812_55880)">
<path d="M26.8333 27.6659H23.3333V8.99925C23.3333 6.42559 21.2403 4.33259 18.6667 4.33259H18.0425C17.7648 3.85309 17.4008 3.42025 16.9587 3.05859C15.8737 2.16959 14.462 1.81609 13.0853 2.09142L9.3555 2.83692C6.63833 3.38059 4.66667 5.78625 4.66667 8.55709V27.6659H1.16667C0.522667 27.6659 0 28.1874 0 28.8326C0 29.4778 0.522667 29.9993 1.16667 29.9993H26.8333C27.4773 29.9993 28 29.4778 28 28.8326C28 28.1874 27.4773 27.6659 26.8333 27.6659ZM18.6667 6.66592C19.9535 6.66592 21 7.71242 21 8.99925V27.6659H18.6667V6.66592ZM7 8.55709C7 6.89342 8.183 5.45025 9.81283 5.12475L13.5415 4.37925C14.2298 4.24042 14.9357 4.41775 15.4793 4.86342C16.0218 5.30792 16.3322 5.96475 16.3322 6.66709V27.6659H7V8.55709ZM14 16.5826C14 17.5486 13.216 18.3326 12.25 18.3326C11.284 18.3326 10.5 17.5486 10.5 16.5826C10.5 15.6166 11.284 14.8326 12.25 14.8326C13.216 14.8326 14 15.6166 14 16.5826Z" fill="white"/>
</g>
<defs>
<clipPath id="clip0_2812_55880">
<rect width="28" height="28" fill="white" transform="translate(0 2)"/>
</clipPath>
</defs>
</svg>
