<svg width="27" height="27" viewBox="0 0 27 27" fill="none" xmlns="http://www.w3.org/2000/svg">
<path fill-rule="evenodd" clip-rule="evenodd" d="M12.3154 0.705026C13.0467 0.220624 13.9941 0.209693 14.7364 0.677088L25.8672 7.68536C27.1631 8.50132 27.0856 10.4095 25.7414 11.1222V11.7776H24.4473L15.0375 16.5406V24.0447C15.0375 25.7579 13.1866 26.832 11.6991 25.982L1.50806 20.1585C0.812841 19.7613 0.383789 19.0219 0.383789 18.2212V9.41345V8.60778L1.05549 8.16289L12.3154 0.705026ZM13.555 13.9286L22.7557 9.27142L13.5581 3.48031L4.81194 9.27321L13.555 13.9286ZM3.38379 11.9115L12.0375 16.5194V22.7201L3.38379 17.7751V11.9115ZM17.7755 22.6372H25.6456V24.6372H17.7755V22.6372ZM25.6443 18.851H19.8932V20.851H25.6443V18.851ZM22.6192 14.9187H25.6462V16.9187H22.6192V14.9187Z" fill="white"/>
</svg>
