<svg width="30" height="30" viewBox="0 0 30 30" fill="none" xmlns="http://www.w3.org/2000/svg">
<path fill-rule="evenodd" clip-rule="evenodd" d="M20.6209 18.7234C21.1215 17.9742 21.4642 17.1361 21.6338 16.2599H15.8184C14.6696 16.2599 13.7384 15.3286 13.7384 14.1799V8.36447C12.8622 8.53401 12.024 8.87679 11.2749 9.37736C10.1668 10.1177 9.30319 11.1701 8.7932 12.4013C8.2832 13.6325 8.14977 14.9873 8.40976 16.2944C8.66975 17.6015 9.31149 18.8021 10.2538 19.7444C11.1962 20.6868 12.3968 21.3285 13.7038 21.5885C15.0109 21.8485 16.3657 21.715 17.5969 21.2051C18.8282 20.6951 19.8805 19.8314 20.6209 18.7234ZM22.2365 14.9799C22.6783 14.9799 23.0406 15.3389 22.9966 15.7786C22.8661 17.0822 22.4176 18.3384 21.6852 19.4345C20.8041 20.753 19.5519 21.7807 18.0868 22.3876C16.6217 22.9945 15.0095 23.1533 13.4541 22.8439C11.8988 22.5345 10.4701 21.7709 9.34875 20.6495C8.2274 19.5282 7.46375 18.0995 7.15437 16.5441C6.84499 14.9888 7.00378 13.3766 7.61065 11.9115C8.21752 10.4464 9.24521 9.19413 10.5638 8.31309C11.6599 7.5807 12.9161 7.13218 14.2197 7.00168C14.6593 6.95767 15.0184 7.31997 15.0184 7.76179V14.1799C15.0184 14.6217 15.3765 14.9799 15.8184 14.9799H22.2365ZM17.194 12.7584L17.2675 8.43826C18.3087 8.69494 19.2662 9.24033 20.0234 10.0237C20.7805 10.807 21.293 11.7826 21.5142 12.8319L17.194 12.7584ZM15.9983 7.79222C16.0058 7.35047 16.3713 6.99375 16.8093 7.0514C18.3754 7.25751 19.8351 7.9872 20.9437 9.13412C22.0523 10.281 22.7319 11.7648 22.8846 13.3369C22.9274 13.7767 22.5584 14.1298 22.1167 14.1223L16.6923 14.03C16.2506 14.0225 15.8985 13.6583 15.9061 13.2166L15.9983 7.79222Z" fill="#320051"/>
</svg>
