<svg width="417" height="137" viewBox="0 0 417 137" fill="none" xmlns="http://www.w3.org/2000/svg">
<g clip-path="url(#clip0_3262_5730)">
<rect width="417" height="137" rx="10" fill="white"/>
<path d="M168.592 29.664V33H166.9V24.624H169.984C170.632 24.624 171.184 24.74 171.64 24.972C172.096 25.196 172.436 25.5 172.66 25.884C172.892 26.26 173.008 26.68 173.008 27.144C173.008 27.552 172.908 27.948 172.708 28.332C172.516 28.708 172.192 29.024 171.736 29.28C171.288 29.536 170.704 29.664 169.984 29.664H168.592ZM169.984 28.368C170.408 28.368 170.732 28.26 170.956 28.044C171.18 27.82 171.292 27.52 171.292 27.144C171.292 26.768 171.18 26.472 170.956 26.256C170.732 26.032 170.408 25.92 169.984 25.92H168.592V28.368H169.984ZM175.975 27.528C176.183 27.128 176.451 26.816 176.779 26.592C177.115 26.368 177.495 26.256 177.919 26.256V27.984H177.499C176.995 27.984 176.615 28.112 176.359 28.368C176.103 28.616 175.975 29.048 175.975 29.664V33H174.283V26.352H175.975V27.528ZM182.099 26.256C182.731 26.256 183.307 26.396 183.827 26.676C184.347 26.956 184.759 27.356 185.063 27.876C185.367 28.388 185.519 28.984 185.519 29.664C185.519 30.344 185.367 30.944 185.063 31.464C184.759 31.984 184.343 32.388 183.815 32.676C183.295 32.956 182.715 33.096 182.075 33.096C181.443 33.096 180.867 32.956 180.347 32.676C179.827 32.388 179.415 31.984 179.111 31.464C178.815 30.944 178.667 30.344 178.667 29.664C178.667 28.984 178.819 28.388 179.123 27.876C179.427 27.356 179.839 26.956 180.359 26.676C180.879 26.396 181.459 26.256 182.099 26.256ZM182.087 27.684C181.607 27.684 181.203 27.856 180.875 28.2C180.547 28.544 180.383 29.036 180.383 29.676C180.383 30.108 180.459 30.476 180.611 30.78C180.771 31.076 180.979 31.3 181.235 31.452C181.491 31.596 181.771 31.668 182.075 31.668C182.371 31.668 182.651 31.592 182.915 31.44C183.179 31.288 183.391 31.064 183.551 30.768C183.719 30.464 183.803 30.1 183.803 29.676C183.803 29.244 183.723 28.88 183.563 28.584C183.403 28.28 183.191 28.056 182.927 27.912C182.671 27.76 182.391 27.684 182.087 27.684ZM191.705 25.692C191.417 25.692 191.173 25.592 190.973 25.392C190.781 25.192 190.685 24.948 190.685 24.66C190.685 24.372 190.781 24.128 190.973 23.928C191.173 23.728 191.417 23.628 191.705 23.628C191.993 23.628 192.233 23.728 192.425 23.928C192.625 24.128 192.725 24.372 192.725 24.66C192.725 24.948 192.625 25.192 192.425 25.392C192.233 25.592 191.993 25.692 191.705 25.692ZM188.645 26.352H192.545V33H190.865V27.732H188.645V33H186.965V27.732H186.245V26.352H186.965V25.98C186.965 25.18 187.177 24.596 187.601 24.228C188.025 23.86 188.693 23.676 189.605 23.676V25.092C189.253 25.092 189.005 25.16 188.861 25.296C188.717 25.432 188.645 25.66 188.645 25.98V26.352ZM196.037 24.12V33H194.345V24.12H196.037ZM203.993 29.58C203.993 29.812 203.978 30.028 203.946 30.228H199.098C199.138 30.66 199.298 31.008 199.578 31.272C199.858 31.536 200.214 31.668 200.646 31.668C200.982 31.668 201.25 31.604 201.45 31.476C201.65 31.348 201.814 31.172 201.942 30.948H203.766C203.574 31.58 203.202 32.096 202.65 32.496C202.098 32.896 201.43 33.096 200.646 33.096C200.014 33.096 199.45 32.956 198.954 32.676C198.458 32.388 198.07 31.988 197.79 31.476C197.51 30.956 197.37 30.352 197.37 29.664C197.37 28.976 197.51 28.376 197.79 27.864C198.07 27.352 198.458 26.956 198.954 26.676C199.458 26.396 200.03 26.256 200.67 26.256C201.31 26.256 201.878 26.392 202.374 26.664C202.878 26.936 203.274 27.324 203.562 27.828C203.85 28.324 203.993 28.908 203.993 29.58ZM202.242 29.136C202.218 28.696 202.054 28.344 201.75 28.08C201.454 27.816 201.086 27.684 200.646 27.684C200.238 27.684 199.89 27.816 199.602 28.08C199.322 28.344 199.154 28.696 199.098 29.136H202.242ZM214.791 30.564C214.791 31.012 214.667 31.428 214.419 31.812C214.179 32.196 213.831 32.504 213.375 32.736C212.927 32.968 212.403 33.084 211.803 33.084C210.883 33.084 210.143 32.872 209.583 32.448C209.023 32.016 208.743 31.412 208.743 30.636H210.543C210.575 30.996 210.695 31.272 210.903 31.464C211.119 31.648 211.419 31.74 211.803 31.74C212.187 31.74 212.491 31.64 212.715 31.44C212.939 31.24 213.051 30.98 213.051 30.66C213.051 30.404 212.971 30.196 212.811 30.036C212.659 29.876 212.467 29.752 212.235 29.664C212.011 29.576 211.691 29.476 211.275 29.364C210.739 29.228 210.303 29.088 209.967 28.944C209.631 28.8 209.343 28.576 209.103 28.272C208.863 27.96 208.743 27.54 208.743 27.012C208.743 26.508 208.867 26.068 209.115 25.692C209.371 25.308 209.723 25.016 210.171 24.816C210.619 24.608 211.127 24.504 211.695 24.504C212.567 24.504 213.267 24.704 213.795 25.104C214.323 25.496 214.611 26.096 214.659 26.904H212.811C212.779 26.584 212.659 26.332 212.451 26.148C212.243 25.956 211.975 25.86 211.647 25.86C211.303 25.86 211.023 25.948 210.807 26.124C210.599 26.292 210.495 26.552 210.495 26.904C210.495 27.168 210.571 27.384 210.723 27.552C210.883 27.712 211.079 27.836 211.311 27.924C211.543 28.012 211.863 28.108 212.271 28.212C212.807 28.348 213.243 28.488 213.579 28.632C213.915 28.776 214.199 29.004 214.431 29.316C214.671 29.62 214.791 30.036 214.791 30.564ZM222.568 29.58C222.568 29.812 222.552 30.028 222.52 30.228H217.672C217.712 30.66 217.872 31.008 218.152 31.272C218.432 31.536 218.788 31.668 219.22 31.668C219.556 31.668 219.824 31.604 220.024 31.476C220.224 31.348 220.388 31.172 220.516 30.948H222.34C222.148 31.58 221.776 32.096 221.224 32.496C220.672 32.896 220.004 33.096 219.22 33.096C218.588 33.096 218.024 32.956 217.528 32.676C217.032 32.388 216.644 31.988 216.364 31.476C216.084 30.956 215.944 30.352 215.944 29.664C215.944 28.976 216.084 28.376 216.364 27.864C216.644 27.352 217.032 26.956 217.528 26.676C218.032 26.396 218.604 26.256 219.244 26.256C219.884 26.256 220.452 26.392 220.948 26.664C221.452 26.936 221.848 27.324 222.136 27.828C222.424 28.324 222.568 28.908 222.568 29.58ZM220.816 29.136C220.792 28.696 220.628 28.344 220.324 28.08C220.028 27.816 219.66 27.684 219.22 27.684C218.812 27.684 218.464 27.816 218.176 28.08C217.896 28.344 217.728 28.696 217.672 29.136H220.816ZM227.284 31.584V33H226.216C225.536 33 225.012 32.844 224.644 32.532C224.276 32.22 224.092 31.704 224.092 30.984V27.732H223.384V26.352H224.092V24.708H225.784V26.352H227.272V27.732H225.784V30.984C225.784 31.2 225.836 31.356 225.94 31.452C226.044 31.54 226.224 31.584 226.48 31.584H227.284ZM231.983 31.584V33H230.915C230.235 33 229.711 32.844 229.343 32.532C228.975 32.22 228.791 31.704 228.791 30.984V27.732H228.083V26.352H228.791V24.708H230.483V26.352H231.971V27.732H230.483V30.984C230.483 31.2 230.535 31.356 230.639 31.452C230.743 31.54 230.923 31.584 231.179 31.584H231.983ZM233.118 24.66C233.118 24.372 233.218 24.128 233.418 23.928C233.618 23.728 233.858 23.628 234.138 23.628C234.426 23.628 234.67 23.728 234.87 23.928C235.07 24.128 235.17 24.372 235.17 24.66C235.17 24.948 235.07 25.192 234.87 25.392C234.67 25.592 234.426 25.692 234.138 25.692C233.858 25.692 233.618 25.592 233.418 25.392C233.218 25.192 233.118 24.948 233.118 24.66ZM234.99 26.352V33H233.298V26.352H234.99ZM240.547 26.256C241.043 26.256 241.483 26.368 241.867 26.592C242.259 26.808 242.567 27.132 242.791 27.564C243.015 27.988 243.127 28.496 243.127 29.088V33H241.447V29.328C241.447 28.808 241.315 28.412 241.051 28.14C240.787 27.86 240.427 27.72 239.971 27.72C239.515 27.72 239.151 27.86 238.879 28.14C238.615 28.412 238.483 28.808 238.483 29.328V33H236.791V26.352H238.483V27.348C238.691 26.996 238.971 26.728 239.323 26.544C239.683 26.352 240.091 26.256 240.547 26.256ZM247.481 26.256C247.953 26.256 248.373 26.356 248.741 26.556C249.109 26.756 249.405 27.032 249.629 27.384V26.352H251.309V33.048C251.309 33.664 251.185 34.216 250.937 34.704C250.697 35.192 250.329 35.576 249.833 35.856C249.345 36.144 248.741 36.288 248.021 36.288C247.069 36.288 246.293 36.076 245.693 35.652C245.101 35.236 244.765 34.64 244.685 33.864H246.341C246.445 34.16 246.645 34.392 246.941 34.56C247.237 34.736 247.597 34.824 248.021 34.824C248.493 34.824 248.877 34.676 249.173 34.38C249.477 34.084 249.629 33.64 249.629 33.048V31.884C249.397 32.26 249.097 32.556 248.729 32.772C248.369 32.988 247.953 33.096 247.481 33.096C246.913 33.096 246.393 32.952 245.921 32.664C245.457 32.368 245.085 31.96 244.805 31.44C244.533 30.92 244.397 30.328 244.397 29.664C244.397 29 244.533 28.412 244.805 27.9C245.085 27.38 245.457 26.976 245.921 26.688C246.393 26.4 246.913 26.256 247.481 26.256ZM247.865 27.72C247.569 27.72 247.285 27.796 247.013 27.948C246.749 28.1 246.533 28.324 246.365 28.62C246.197 28.908 246.113 29.256 246.113 29.664C246.113 30.072 246.197 30.428 246.365 30.732C246.533 31.028 246.749 31.252 247.013 31.404C247.285 31.556 247.569 31.632 247.865 31.632C248.169 31.632 248.453 31.556 248.717 31.404C248.989 31.252 249.209 31.028 249.377 30.732C249.545 30.436 249.629 30.084 249.629 29.676C249.629 29.268 249.545 28.916 249.377 28.62C249.209 28.324 248.989 28.1 248.717 27.948C248.453 27.796 248.169 27.72 247.865 27.72ZM255.479 26.256C256.239 26.256 256.863 26.452 257.351 26.844C257.839 27.228 258.099 27.752 258.131 28.416H256.403C256.355 27.856 256.011 27.576 255.371 27.576C255.051 27.576 254.803 27.64 254.627 27.768C254.451 27.896 254.363 28.064 254.363 28.272C254.363 28.448 254.427 28.588 254.555 28.692C254.683 28.796 254.839 28.88 255.023 28.944C255.215 29 255.487 29.068 255.839 29.148C256.327 29.252 256.727 29.364 257.039 29.484C257.359 29.596 257.631 29.78 257.855 30.036C258.079 30.284 258.191 30.628 258.191 31.068C258.191 31.468 258.075 31.82 257.843 32.124C257.611 32.428 257.291 32.668 256.883 32.844C256.475 33.012 256.015 33.096 255.503 33.096C254.703 33.096 254.051 32.912 253.547 32.544C253.043 32.168 252.767 31.632 252.719 30.936H254.447C254.479 31.208 254.587 31.416 254.771 31.56C254.955 31.704 255.203 31.776 255.515 31.776C255.827 31.776 256.079 31.708 256.271 31.572C256.463 31.428 256.559 31.248 256.559 31.032C256.559 30.856 256.495 30.716 256.367 30.612C256.239 30.5 256.079 30.416 255.887 30.36C255.695 30.296 255.419 30.224 255.059 30.144C254.571 30.04 254.171 29.932 253.859 29.82C253.555 29.708 253.291 29.532 253.067 29.292C252.843 29.044 252.731 28.712 252.731 28.296C252.731 27.928 252.839 27.588 253.055 27.276C253.271 26.964 253.587 26.716 254.003 26.532C254.419 26.348 254.911 26.256 255.479 26.256Z" fill="#320051"/>
<path d="M167.328 48.032V49.92H169.296V50.488H167.328V52.424H169.536V53H166.6V47.456H169.536V48.032H167.328ZM172.447 48.536C172.82 48.536 173.146 48.624 173.423 48.8C173.706 48.976 173.919 49.2053 174.063 49.488V47.08H174.799V53H174.063V52.104C173.919 52.392 173.706 52.6267 173.423 52.808C173.146 52.984 172.82 53.072 172.447 53.072C172.052 53.072 171.695 52.976 171.375 52.784C171.06 52.5867 170.81 52.3147 170.623 51.968C170.442 51.616 170.351 51.2187 170.351 50.776C170.351 50.3333 170.442 49.944 170.623 49.608C170.81 49.2667 171.06 49.0027 171.375 48.816C171.695 48.6293 172.052 48.536 172.447 48.536ZM172.575 49.168C172.314 49.168 172.068 49.232 171.839 49.36C171.615 49.488 171.434 49.6747 171.295 49.92C171.162 50.16 171.095 50.4453 171.095 50.776C171.095 51.1067 171.162 51.4 171.295 51.656C171.434 51.9067 171.615 52.1013 171.839 52.24C172.068 52.3787 172.314 52.448 172.575 52.448C172.842 52.448 173.087 52.3813 173.311 52.248C173.54 52.1147 173.722 51.9253 173.855 51.68C173.994 51.4293 174.063 51.1387 174.063 50.808C174.063 50.4773 173.994 50.1893 173.855 49.944C173.722 49.6933 173.54 49.5013 173.311 49.368C173.087 49.2347 172.842 49.168 172.575 49.168ZM175.878 47.408C175.878 47.2693 175.926 47.152 176.022 47.056C176.118 46.96 176.233 46.912 176.366 46.912C176.505 46.912 176.622 46.96 176.718 47.056C176.814 47.152 176.862 47.2693 176.862 47.408C176.862 47.5467 176.814 47.664 176.718 47.76C176.622 47.856 176.505 47.904 176.366 47.904C176.228 47.904 176.11 47.856 176.014 47.76C175.924 47.664 175.878 47.5467 175.878 47.408ZM176.726 48.608V53H175.998V48.608H176.726ZM179.968 52.408V53H179.232C178.859 53 178.573 52.9093 178.376 52.728C178.184 52.5467 178.088 52.2613 178.088 51.872V49.2H177.52V48.608H178.088V47.52H178.824V48.608H179.96V49.2H178.824V51.872C178.824 52.0693 178.864 52.208 178.944 52.288C179.024 52.368 179.165 52.408 179.368 52.408H179.968ZM183.466 48.608L184.81 52.16L186.178 48.608H186.93L184.282 55.056H183.53L184.402 52.928L182.666 48.608H183.466ZM189.551 48.536C189.967 48.536 190.343 48.6293 190.679 48.816C191.015 49.0027 191.279 49.2693 191.471 49.616C191.669 49.9627 191.767 50.36 191.767 50.808C191.767 51.2507 191.666 51.6453 191.463 51.992C191.261 52.3333 190.986 52.6 190.639 52.792C190.293 52.9787 189.909 53.072 189.487 53.072C189.077 53.072 188.706 52.9787 188.375 52.792C188.05 52.6053 187.794 52.3413 187.607 52C187.426 51.6533 187.335 51.256 187.335 50.808C187.335 50.3547 187.431 49.9573 187.623 49.616C187.821 49.2693 188.087 49.0027 188.423 48.816C188.759 48.6293 189.135 48.536 189.551 48.536ZM189.527 49.136C189.261 49.136 189.018 49.2 188.799 49.328C188.581 49.456 188.405 49.6453 188.271 49.896C188.143 50.1467 188.079 50.4507 188.079 50.808C188.079 51.16 188.141 51.4613 188.263 51.712C188.391 51.9627 188.562 52.152 188.775 52.28C188.989 52.408 189.226 52.472 189.487 52.472C189.754 52.472 190.002 52.408 190.231 52.28C190.466 52.1467 190.655 51.9547 190.799 51.704C190.943 51.4533 191.015 51.1547 191.015 50.808C191.015 50.456 190.946 50.1547 190.807 49.904C190.674 49.648 190.493 49.456 190.263 49.328C190.039 49.2 189.794 49.136 189.527 49.136ZM196.502 48.608V53H195.774V52.296C195.63 52.552 195.433 52.7467 195.182 52.88C194.931 53.008 194.651 53.072 194.342 53.072C194.027 53.072 193.739 53.0027 193.478 52.864C193.222 52.72 193.017 52.5093 192.862 52.232C192.713 51.9547 192.638 51.616 192.638 51.216V48.608H193.358V51.096C193.358 51.5333 193.465 51.8693 193.678 52.104C193.897 52.3333 194.193 52.448 194.566 52.448C194.939 52.448 195.233 52.3333 195.446 52.104C195.665 51.8693 195.774 51.5333 195.774 51.096V48.608H196.502ZM198.43 49.352C198.691 48.808 199.136 48.536 199.766 48.536V49.296H199.574C199.2 49.296 198.915 49.3947 198.718 49.592C198.526 49.784 198.43 50.12 198.43 50.6V53H197.702V48.608H198.43V49.352ZM205.397 48.536C205.792 48.536 206.147 48.6293 206.461 48.816C206.781 49.0027 207.032 49.2667 207.213 49.608C207.4 49.944 207.493 50.3333 207.493 50.776C207.493 51.2187 207.4 51.616 207.213 51.968C207.032 52.3147 206.781 52.5867 206.461 52.784C206.147 52.976 205.792 53.072 205.397 53.072C205.024 53.072 204.696 52.984 204.413 52.808C204.136 52.6267 203.923 52.392 203.773 52.104V55.08H203.045V48.608H203.773V49.488C203.923 49.2053 204.136 48.976 204.413 48.8C204.696 48.624 205.024 48.536 205.397 48.536ZM205.253 49.168C204.992 49.168 204.747 49.2347 204.517 49.368C204.293 49.5013 204.112 49.6933 203.973 49.944C203.84 50.1893 203.773 50.4773 203.773 50.808C203.773 51.1387 203.84 51.4293 203.973 51.68C204.112 51.9253 204.293 52.1147 204.517 52.248C204.747 52.3813 204.992 52.448 205.253 52.448C205.515 52.448 205.76 52.3813 205.989 52.248C206.219 52.1093 206.4 51.912 206.533 51.656C206.672 51.4 206.741 51.1067 206.741 50.776C206.741 50.4453 206.672 50.16 206.533 49.92C206.4 49.6747 206.219 49.488 205.989 49.36C205.765 49.232 205.52 49.168 205.253 49.168ZM209.133 49.352C209.394 48.808 209.839 48.536 210.469 48.536V49.296H210.277C209.903 49.296 209.618 49.3947 209.421 49.592C209.229 49.784 209.133 50.12 209.133 50.6V53H208.405V48.608H209.133V49.352ZM213.278 48.536C213.694 48.536 214.07 48.6293 214.406 48.816C214.742 49.0027 215.006 49.2693 215.198 49.616C215.395 49.9627 215.494 50.36 215.494 50.808C215.494 51.2507 215.393 51.6453 215.19 51.992C214.987 52.3333 214.713 52.6 214.366 52.792C214.019 52.9787 213.635 53.072 213.214 53.072C212.803 53.072 212.433 52.9787 212.102 52.792C211.777 52.6053 211.521 52.3413 211.334 52C211.153 51.6533 211.062 51.256 211.062 50.808C211.062 50.3547 211.158 49.9573 211.35 49.616C211.547 49.2693 211.814 49.0027 212.15 48.816C212.486 48.6293 212.862 48.536 213.278 48.536ZM213.254 49.136C212.987 49.136 212.745 49.2 212.526 49.328C212.307 49.456 212.131 49.6453 211.998 49.896C211.87 50.1467 211.806 50.4507 211.806 50.808C211.806 51.16 211.867 51.4613 211.99 51.712C212.118 51.9627 212.289 52.152 212.502 52.28C212.715 52.408 212.953 52.472 213.214 52.472C213.481 52.472 213.729 52.408 213.958 52.28C214.193 52.1467 214.382 51.9547 214.526 51.704C214.67 51.4533 214.742 51.1547 214.742 50.808C214.742 50.456 214.673 50.1547 214.534 49.904C214.401 49.648 214.219 49.456 213.99 49.328C213.766 49.2 213.521 49.136 213.254 49.136ZM217.293 48.608H219.773V53H219.045V49.2H217.293V53H216.557V49.2H215.989V48.608H216.557V48.24C216.557 47.76 216.685 47.4107 216.941 47.192C217.197 46.9733 217.599 46.864 218.149 46.864V47.456C217.829 47.456 217.605 47.5173 217.477 47.64C217.354 47.7573 217.293 47.9573 217.293 48.24V48.608ZM219.413 47.904C219.274 47.904 219.157 47.856 219.061 47.76C218.97 47.664 218.925 47.5467 218.925 47.408C218.925 47.2693 218.973 47.152 219.069 47.056C219.165 46.96 219.279 46.912 219.413 46.912C219.551 46.912 219.666 46.96 219.757 47.056C219.853 47.152 219.901 47.2693 219.901 47.408C219.901 47.5467 219.853 47.664 219.757 47.76C219.666 47.856 219.551 47.904 219.413 47.904ZM221.703 47.08V53H220.975V47.08H221.703ZM226.889 50.624C226.889 50.7787 226.878 50.9227 226.857 51.056H223.361C223.382 51.4933 223.518 51.84 223.769 52.096C224.025 52.3467 224.35 52.472 224.745 52.472C225.043 52.472 225.294 52.4053 225.497 52.272C225.705 52.1387 225.857 51.9627 225.953 51.744H226.737C226.598 52.128 226.358 52.4453 226.017 52.696C225.681 52.9467 225.257 53.072 224.745 53.072C224.334 53.072 223.966 52.9787 223.641 52.792C223.321 52.6053 223.07 52.3413 222.889 52C222.707 51.6533 222.617 51.256 222.617 50.808C222.617 50.3547 222.707 49.9573 222.889 49.616C223.07 49.2693 223.326 49.0027 223.657 48.816C223.987 48.6293 224.369 48.536 224.801 48.536C225.211 48.536 225.574 48.6267 225.889 48.808C226.203 48.9893 226.449 49.2373 226.625 49.552C226.801 49.8667 226.889 50.224 226.889 50.624ZM226.129 50.528C226.129 50.2453 226.067 50 225.945 49.792C225.822 49.5787 225.654 49.416 225.441 49.304C225.233 49.192 225.001 49.136 224.745 49.136C224.366 49.136 224.049 49.2613 223.793 49.512C223.537 49.7573 223.395 50.096 223.369 50.528H226.129ZM230.074 47.408C230.074 47.2693 230.122 47.152 230.218 47.056C230.314 46.96 230.428 46.912 230.562 46.912C230.7 46.912 230.818 46.96 230.914 47.056C231.01 47.152 231.058 47.2693 231.058 47.408C231.058 47.5467 231.01 47.664 230.914 47.76C230.818 47.856 230.7 47.904 230.562 47.904C230.423 47.904 230.306 47.856 230.21 47.76C230.119 47.664 230.074 47.5467 230.074 47.408ZM230.922 48.608V53H230.194V48.608H230.922ZM234.283 48.536C234.598 48.536 234.883 48.608 235.139 48.752C235.401 48.8907 235.606 49.1013 235.755 49.384C235.91 49.6613 235.987 50 235.987 50.4V53H235.267V50.52C235.267 50.0773 235.161 49.7413 234.947 49.512C234.734 49.2827 234.438 49.168 234.059 49.168C233.686 49.168 233.39 49.2827 233.171 49.512C232.958 49.7413 232.851 50.0773 232.851 50.52V53H232.123V48.608H232.851V49.32C232.995 49.064 233.193 48.8693 233.443 48.736C233.694 48.6027 233.974 48.536 234.283 48.536ZM238.955 49.2H238.035V53H237.299V49.2H236.731V48.608H237.299V48.24C237.299 47.76 237.427 47.4107 237.683 47.192C237.939 46.9733 238.342 46.864 238.891 46.864V47.456C238.571 47.456 238.347 47.5173 238.219 47.64C238.096 47.7573 238.035 47.9573 238.035 48.24V48.608H238.955V49.2ZM241.716 48.536C242.132 48.536 242.508 48.6293 242.844 48.816C243.18 49.0027 243.444 49.2693 243.636 49.616C243.833 49.9627 243.932 50.36 243.932 50.808C243.932 51.2507 243.83 51.6453 243.628 51.992C243.425 52.3333 243.15 52.6 242.804 52.792C242.457 52.9787 242.073 53.072 241.652 53.072C241.241 53.072 240.87 52.9787 240.54 52.792C240.214 52.6053 239.958 52.3413 239.772 52C239.59 51.6533 239.5 51.256 239.5 50.808C239.5 50.3547 239.596 49.9573 239.788 49.616C239.985 49.2693 240.252 49.0027 240.588 48.816C240.924 48.6293 241.3 48.536 241.716 48.536ZM241.692 49.136C241.425 49.136 241.182 49.2 240.964 49.328C240.745 49.456 240.569 49.6453 240.436 49.896C240.308 50.1467 240.243 50.4507 240.243 50.808C240.243 51.16 240.305 51.4613 240.428 51.712C240.556 51.9627 240.726 52.152 240.94 52.28C241.153 52.408 241.39 52.472 241.652 52.472C241.918 52.472 242.166 52.408 242.396 52.28C242.63 52.1467 242.82 51.9547 242.964 51.704C243.108 51.4533 243.18 51.1547 243.18 50.808C243.18 50.456 243.11 50.1547 242.972 49.904C242.838 49.648 242.657 49.456 242.428 49.328C242.204 49.2 241.958 49.136 241.692 49.136ZM245.57 49.352C245.832 48.808 246.277 48.536 246.906 48.536V49.296H246.714C246.341 49.296 246.056 49.3947 245.858 49.592C245.666 49.784 245.57 50.12 245.57 50.6V53H244.842V48.608H245.57V49.352ZM253.068 48.536C253.388 48.536 253.678 48.608 253.94 48.752C254.201 48.8907 254.406 49.1013 254.556 49.384C254.71 49.6613 254.788 50 254.788 50.4V53H254.068V50.52C254.068 50.0773 253.958 49.7413 253.74 49.512C253.526 49.2827 253.233 49.168 252.86 49.168C252.486 49.168 252.19 49.2827 251.972 49.512C251.758 49.7413 251.652 50.0773 251.652 50.52V53H250.932V50.52C250.932 50.0773 250.825 49.7413 250.612 49.512C250.398 49.2827 250.102 49.168 249.724 49.168C249.35 49.168 249.054 49.2827 248.836 49.512C248.622 49.7413 248.516 50.0773 248.516 50.52V53H247.788V48.608H248.516V49.32C248.66 49.064 248.857 48.8693 249.108 48.736C249.358 48.6027 249.638 48.536 249.948 48.536C250.284 48.536 250.588 48.6187 250.86 48.784C251.132 48.944 251.337 49.1787 251.476 49.488C251.636 49.1893 251.852 48.9573 252.124 48.792C252.401 48.6213 252.716 48.536 253.068 48.536ZM257.752 48.536C258.125 48.536 258.45 48.624 258.728 48.8C259.01 48.976 259.224 49.2053 259.368 49.488V48.608H260.104V53H259.368V52.104C259.224 52.392 259.01 52.6267 258.728 52.808C258.45 52.984 258.125 53.072 257.752 53.072C257.357 53.072 257 52.976 256.68 52.784C256.365 52.5867 256.114 52.3147 255.928 51.968C255.746 51.616 255.656 51.2187 255.656 50.776C255.656 50.3333 255.746 49.944 255.928 49.608C256.114 49.2667 256.365 49.0027 256.68 48.816C257 48.6293 257.357 48.536 257.752 48.536ZM257.88 49.168C257.618 49.168 257.373 49.232 257.144 49.36C256.92 49.488 256.738 49.6747 256.6 49.92C256.466 50.16 256.4 50.4453 256.4 50.776C256.4 51.1067 256.466 51.4 256.6 51.656C256.738 51.9067 256.92 52.1013 257.144 52.24C257.373 52.3787 257.618 52.448 257.88 52.448C258.146 52.448 258.392 52.3813 258.616 52.248C258.845 52.1147 259.026 51.9253 259.16 51.68C259.298 51.4293 259.368 51.1387 259.368 50.808C259.368 50.4773 259.298 50.1893 259.16 49.944C259.026 49.6933 258.845 49.5013 258.616 49.368C258.392 49.2347 258.146 49.168 257.88 49.168ZM263.343 52.408V53H262.607C262.234 53 261.948 52.9093 261.751 52.728C261.559 52.5467 261.463 52.2613 261.463 51.872V49.2H260.895V48.608H261.463V47.52H262.199V48.608H263.335V49.2H262.199V51.872C262.199 52.0693 262.239 52.208 262.319 52.288C262.399 52.368 262.54 52.408 262.743 52.408H263.343ZM264.027 47.408C264.027 47.2693 264.075 47.152 264.171 47.056C264.267 46.96 264.382 46.912 264.515 46.912C264.654 46.912 264.771 46.96 264.867 47.056C264.963 47.152 265.011 47.2693 265.011 47.408C265.011 47.5467 264.963 47.664 264.867 47.76C264.771 47.856 264.654 47.904 264.515 47.904C264.376 47.904 264.259 47.856 264.163 47.76C264.072 47.664 264.027 47.5467 264.027 47.408ZM264.875 48.608V53H264.147V48.608H264.875ZM268.005 48.536C268.421 48.536 268.797 48.6293 269.133 48.816C269.469 49.0027 269.733 49.2693 269.925 49.616C270.122 49.9627 270.221 50.36 270.221 50.808C270.221 51.2507 270.119 51.6453 269.917 51.992C269.714 52.3333 269.439 52.6 269.093 52.792C268.746 52.9787 268.362 53.072 267.941 53.072C267.53 53.072 267.159 52.9787 266.829 52.792C266.503 52.6053 266.247 52.3413 266.061 52C265.879 51.6533 265.789 51.256 265.789 50.808C265.789 50.3547 265.885 49.9573 266.077 49.616C266.274 49.2693 266.541 49.0027 266.877 48.816C267.213 48.6293 267.589 48.536 268.005 48.536ZM267.981 49.136C267.714 49.136 267.471 49.2 267.253 49.328C267.034 49.456 266.858 49.6453 266.725 49.896C266.597 50.1467 266.533 50.4507 266.533 50.808C266.533 51.16 266.594 51.4613 266.717 51.712C266.845 51.9627 267.015 52.152 267.229 52.28C267.442 52.408 267.679 52.472 267.941 52.472C268.207 52.472 268.455 52.408 268.685 52.28C268.919 52.1467 269.109 51.9547 269.253 51.704C269.397 51.4533 269.469 51.1547 269.469 50.808C269.469 50.456 269.399 50.1547 269.261 49.904C269.127 49.648 268.946 49.456 268.717 49.328C268.493 49.2 268.247 49.136 267.981 49.136ZM273.291 48.536C273.606 48.536 273.891 48.608 274.147 48.752C274.409 48.8907 274.614 49.1013 274.763 49.384C274.918 49.6613 274.995 50 274.995 50.4V53H274.275V50.52C274.275 50.0773 274.169 49.7413 273.955 49.512C273.742 49.2827 273.446 49.168 273.067 49.168C272.694 49.168 272.398 49.2827 272.179 49.512C271.966 49.7413 271.859 50.0773 271.859 50.52V53H271.131V48.608H271.859V49.32C272.003 49.064 272.201 48.8693 272.451 48.736C272.702 48.6027 272.982 48.536 273.291 48.536ZM280.065 48.536C280.54 48.536 280.916 48.6613 281.193 48.912C281.47 49.1573 281.622 49.496 281.649 49.928H280.897C280.886 49.6827 280.804 49.4853 280.649 49.336C280.494 49.1867 280.281 49.112 280.009 49.112C279.732 49.112 279.513 49.1787 279.353 49.312C279.198 49.44 279.121 49.6027 279.121 49.8C279.121 49.9653 279.169 50.0987 279.265 50.2C279.366 50.296 279.489 50.368 279.633 50.416C279.782 50.464 279.982 50.5147 280.233 50.568C280.553 50.6427 280.809 50.7173 281.001 50.792C281.198 50.8613 281.366 50.9813 281.505 51.152C281.644 51.3173 281.713 51.544 281.713 51.832C281.713 52.072 281.644 52.288 281.505 52.48C281.366 52.6667 281.172 52.8133 280.921 52.92C280.67 53.0213 280.382 53.072 280.057 53.072C279.566 53.072 279.172 52.9493 278.873 52.704C278.58 52.4587 278.42 52.12 278.393 51.688H279.145C279.156 51.9333 279.241 52.1307 279.401 52.28C279.566 52.424 279.785 52.496 280.057 52.496C280.356 52.496 280.585 52.4347 280.745 52.312C280.91 52.1893 280.993 52.0267 280.993 51.824C280.993 51.6587 280.942 51.528 280.841 51.432C280.745 51.3307 280.622 51.256 280.473 51.208C280.324 51.1547 280.118 51.0987 279.857 51.04C279.542 50.9707 279.286 50.9013 279.089 50.832C278.897 50.7573 278.732 50.6427 278.593 50.488C278.46 50.3333 278.393 50.12 278.393 49.848C278.393 49.608 278.46 49.3893 278.593 49.192C278.732 48.9893 278.926 48.8293 279.177 48.712C279.433 48.5947 279.729 48.536 280.065 48.536ZM286.588 48.608V53H285.86V52.296C285.716 52.552 285.519 52.7467 285.268 52.88C285.017 53.008 284.737 53.072 284.428 53.072C284.113 53.072 283.825 53.0027 283.564 52.864C283.308 52.72 283.103 52.5093 282.948 52.232C282.799 51.9547 282.724 51.616 282.724 51.216V48.608H283.444V51.096C283.444 51.5333 283.551 51.8693 283.764 52.104C283.983 52.3333 284.279 52.448 284.652 52.448C285.025 52.448 285.319 52.3333 285.532 52.104C285.751 51.8693 285.86 51.5333 285.86 51.096V48.608H286.588ZM289.628 48.536C290.156 48.536 290.585 48.6587 290.916 48.904C291.252 49.1493 291.486 49.4987 291.62 49.952H290.836C290.75 49.696 290.604 49.496 290.396 49.352C290.188 49.208 289.932 49.136 289.628 49.136C289.212 49.136 288.876 49.2827 288.62 49.576C288.369 49.864 288.243 50.2747 288.243 50.808C288.243 51.336 288.369 51.7467 288.62 52.04C288.876 52.328 289.212 52.472 289.628 52.472C289.937 52.472 290.193 52.4027 290.396 52.264C290.598 52.1253 290.745 51.9227 290.836 51.656H291.62C291.486 52.088 291.249 52.432 290.908 52.688C290.572 52.944 290.145 53.072 289.628 53.072C289.217 53.072 288.849 52.9787 288.524 52.792C288.204 52.6053 287.953 52.3413 287.772 52C287.59 51.6533 287.5 51.256 287.5 50.808C287.5 50.3547 287.59 49.9573 287.772 49.616C287.953 49.2693 288.204 49.0027 288.524 48.816C288.844 48.6293 289.212 48.536 289.628 48.536ZM294.744 48.536C295.059 48.536 295.344 48.608 295.6 48.752C295.862 48.8907 296.067 49.1013 296.216 49.384C296.371 49.6613 296.448 50 296.448 50.4V53H295.728V50.52C295.728 50.0773 295.622 49.7413 295.408 49.512C295.195 49.2827 294.899 49.168 294.52 49.168C294.147 49.168 293.851 49.2827 293.632 49.512C293.419 49.7413 293.312 50.0773 293.312 50.52V53H292.584V47.08H293.312V49.32C293.456 49.064 293.654 48.8693 293.904 48.736C294.155 48.6027 294.435 48.536 294.744 48.536ZM301.814 48.536C302.188 48.536 302.513 48.624 302.79 48.8C303.073 48.976 303.286 49.2053 303.43 49.488V48.608H304.166V53H303.43V52.104C303.286 52.392 303.073 52.6267 302.79 52.808C302.513 52.984 302.188 53.072 301.814 53.072C301.42 53.072 301.062 52.976 300.742 52.784C300.428 52.5867 300.177 52.3147 299.99 51.968C299.809 51.616 299.718 51.2187 299.718 50.776C299.718 50.3333 299.809 49.944 299.99 49.608C300.177 49.2667 300.428 49.0027 300.742 48.816C301.062 48.6293 301.42 48.536 301.814 48.536ZM301.942 49.168C301.681 49.168 301.436 49.232 301.206 49.36C300.982 49.488 300.801 49.6747 300.662 49.92C300.529 50.16 300.462 50.4453 300.462 50.776C300.462 51.1067 300.529 51.4 300.662 51.656C300.801 51.9067 300.982 52.1013 301.206 52.24C301.436 52.3787 301.681 52.448 301.942 52.448C302.209 52.448 302.454 52.3813 302.678 52.248C302.908 52.1147 303.089 51.9253 303.222 51.68C303.361 51.4293 303.43 51.1387 303.43 50.808C303.43 50.4773 303.361 50.1893 303.222 49.944C303.089 49.6933 302.908 49.5013 302.678 49.368C302.454 49.2347 302.209 49.168 301.942 49.168ZM306.878 48.536C307.352 48.536 307.728 48.6613 308.006 48.912C308.283 49.1573 308.435 49.496 308.462 49.928H307.71C307.699 49.6827 307.616 49.4853 307.462 49.336C307.307 49.1867 307.094 49.112 306.822 49.112C306.544 49.112 306.326 49.1787 306.166 49.312C306.011 49.44 305.934 49.6027 305.934 49.8C305.934 49.9653 305.982 50.0987 306.078 50.2C306.179 50.296 306.302 50.368 306.446 50.416C306.595 50.464 306.795 50.5147 307.046 50.568C307.366 50.6427 307.622 50.7173 307.814 50.792C308.011 50.8613 308.179 50.9813 308.318 51.152C308.456 51.3173 308.526 51.544 308.526 51.832C308.526 52.072 308.456 52.288 308.318 52.48C308.179 52.6667 307.984 52.8133 307.734 52.92C307.483 53.0213 307.195 53.072 306.87 53.072C306.379 53.072 305.984 52.9493 305.686 52.704C305.392 52.4587 305.232 52.12 305.206 51.688H305.958C305.968 51.9333 306.054 52.1307 306.214 52.28C306.379 52.424 306.598 52.496 306.87 52.496C307.168 52.496 307.398 52.4347 307.558 52.312C307.723 52.1893 307.806 52.0267 307.806 51.824C307.806 51.6587 307.755 51.528 307.654 51.432C307.558 51.3307 307.435 51.256 307.286 51.208C307.136 51.1547 306.931 51.0987 306.67 51.04C306.355 50.9707 306.099 50.9013 305.902 50.832C305.71 50.7573 305.544 50.6427 305.406 50.488C305.272 50.3333 305.206 50.12 305.206 49.848C305.206 49.608 305.272 49.3893 305.406 49.192C305.544 48.9893 305.739 48.8293 305.99 48.712C306.246 48.5947 306.542 48.536 306.878 48.536ZM314.135 48.536C314.45 48.536 314.735 48.608 314.991 48.752C315.252 48.8907 315.458 49.1013 315.607 49.384C315.762 49.6613 315.839 50 315.839 50.4V53H315.119V50.52C315.119 50.0773 315.012 49.7413 314.799 49.512C314.586 49.2827 314.29 49.168 313.911 49.168C313.538 49.168 313.242 49.2827 313.023 49.512C312.81 49.7413 312.703 50.0773 312.703 50.52V53H311.975V48.608H312.703V49.32C312.847 49.064 313.044 48.8693 313.295 48.736C313.546 48.6027 313.826 48.536 314.135 48.536ZM318.806 48.536C319.18 48.536 319.505 48.624 319.782 48.8C320.065 48.976 320.278 49.2053 320.422 49.488V48.608H321.158V53H320.422V52.104C320.278 52.392 320.065 52.6267 319.782 52.808C319.505 52.984 319.18 53.072 318.806 53.072C318.412 53.072 318.054 52.976 317.734 52.784C317.42 52.5867 317.169 52.3147 316.982 51.968C316.801 51.616 316.71 51.2187 316.71 50.776C316.71 50.3333 316.801 49.944 316.982 49.608C317.169 49.2667 317.42 49.0027 317.734 48.816C318.054 48.6293 318.412 48.536 318.806 48.536ZM318.934 49.168C318.673 49.168 318.428 49.232 318.198 49.36C317.974 49.488 317.793 49.6747 317.654 49.92C317.521 50.16 317.454 50.4453 317.454 50.776C317.454 51.1067 317.521 51.4 317.654 51.656C317.793 51.9067 317.974 52.1013 318.198 52.24C318.428 52.3787 318.673 52.448 318.934 52.448C319.201 52.448 319.446 52.3813 319.67 52.248C319.9 52.1147 320.081 51.9253 320.214 51.68C320.353 51.4293 320.422 51.1387 320.422 50.808C320.422 50.4773 320.353 50.1893 320.214 49.944C320.081 49.6933 319.9 49.5013 319.67 49.368C319.446 49.2347 319.201 49.168 318.934 49.168ZM327.638 48.536C327.958 48.536 328.248 48.608 328.51 48.752C328.771 48.8907 328.976 49.1013 329.126 49.384C329.28 49.6613 329.358 50 329.358 50.4V53H328.638V50.52C328.638 50.0773 328.528 49.7413 328.31 49.512C328.096 49.2827 327.803 49.168 327.43 49.168C327.056 49.168 326.76 49.2827 326.542 49.512C326.328 49.7413 326.222 50.0773 326.222 50.52V53H325.502V50.52C325.502 50.0773 325.395 49.7413 325.182 49.512C324.968 49.2827 324.672 49.168 324.294 49.168C323.92 49.168 323.624 49.2827 323.406 49.512C323.192 49.7413 323.086 50.0773 323.086 50.52V53H322.358V48.608H323.086V49.32C323.23 49.064 323.427 48.8693 323.678 48.736C323.928 48.6027 324.208 48.536 324.518 48.536C324.854 48.536 325.158 48.6187 325.43 48.784C325.702 48.944 325.907 49.1787 326.046 49.488C326.206 49.1893 326.422 48.9573 326.694 48.792C326.971 48.6213 327.286 48.536 327.638 48.536ZM334.498 50.624C334.498 50.7787 334.487 50.9227 334.466 51.056H330.97C330.991 51.4933 331.127 51.84 331.378 52.096C331.634 52.3467 331.959 52.472 332.354 52.472C332.653 52.472 332.903 52.4053 333.106 52.272C333.314 52.1387 333.466 51.9627 333.562 51.744H334.346C334.207 52.128 333.967 52.4453 333.626 52.696C333.29 52.9467 332.866 53.072 332.354 53.072C331.943 53.072 331.575 52.9787 331.25 52.792C330.93 52.6053 330.679 52.3413 330.498 52C330.317 51.6533 330.226 51.256 330.226 50.808C330.226 50.3547 330.317 49.9573 330.498 49.616C330.679 49.2693 330.935 49.0027 331.266 48.816C331.597 48.6293 331.978 48.536 332.41 48.536C332.821 48.536 333.183 48.6267 333.498 48.808C333.813 48.9893 334.058 49.2373 334.234 49.552C334.41 49.8667 334.498 50.224 334.498 50.624ZM333.738 50.528C333.738 50.2453 333.677 50 333.554 49.792C333.431 49.5787 333.263 49.416 333.05 49.304C332.842 49.192 332.61 49.136 332.354 49.136C331.975 49.136 331.658 49.2613 331.402 49.512C331.146 49.7573 331.005 50.096 330.978 50.528H333.738ZM335.861 52.464C335.93 52.7467 335.965 53.0053 335.965 53.24C335.965 53.8427 335.69 54.144 335.141 54.144V53.792C335.274 53.792 335.37 53.76 335.429 53.696C335.493 53.632 335.525 53.5307 335.525 53.392V53.208H335.117V52.464H335.861ZM170.584 62.624C170.584 62.7787 170.573 62.9227 170.552 63.056H167.056C167.077 63.4933 167.213 63.84 167.464 64.096C167.72 64.3467 168.045 64.472 168.44 64.472C168.739 64.472 168.989 64.4053 169.192 64.272C169.4 64.1387 169.552 63.9627 169.648 63.744H170.432C170.293 64.128 170.053 64.4453 169.712 64.696C169.376 64.9467 168.952 65.072 168.44 65.072C168.029 65.072 167.661 64.9787 167.336 64.792C167.016 64.6053 166.765 64.3413 166.584 64C166.403 63.6533 166.312 63.256 166.312 62.808C166.312 62.3547 166.403 61.9573 166.584 61.616C166.765 61.2693 167.021 61.0027 167.352 60.816C167.683 60.6293 168.064 60.536 168.496 60.536C168.907 60.536 169.269 60.6267 169.584 60.808C169.899 60.9893 170.144 61.2373 170.32 61.552C170.496 61.8667 170.584 62.224 170.584 62.624ZM169.824 62.528C169.824 62.2453 169.763 62 169.64 61.792C169.517 61.5787 169.349 61.416 169.136 61.304C168.928 61.192 168.696 61.136 168.44 61.136C168.061 61.136 167.744 61.2613 167.488 61.512C167.232 61.7573 167.091 62.096 167.064 62.528H169.824ZM176.771 60.536C177.091 60.536 177.381 60.608 177.643 60.752C177.904 60.8907 178.109 61.1013 178.259 61.384C178.413 61.6613 178.491 62 178.491 62.4V65H177.771V62.52C177.771 62.0773 177.661 61.7413 177.443 61.512C177.229 61.2827 176.936 61.168 176.563 61.168C176.189 61.168 175.893 61.2827 175.675 61.512C175.461 61.7413 175.355 62.0773 175.355 62.52V65H174.635V62.52C174.635 62.0773 174.528 61.7413 174.315 61.512C174.101 61.2827 173.805 61.168 173.427 61.168C173.053 61.168 172.757 61.2827 172.539 61.512C172.325 61.7413 172.219 62.0773 172.219 62.52V65H171.491V60.608H172.219V61.32C172.363 61.064 172.56 60.8693 172.811 60.736C173.061 60.6027 173.341 60.536 173.651 60.536C173.987 60.536 174.291 60.6187 174.563 60.784C174.835 60.944 175.04 61.1787 175.179 61.488C175.339 61.1893 175.555 60.9573 175.827 60.792C176.104 60.6213 176.419 60.536 176.771 60.536ZM181.455 60.536C181.828 60.536 182.154 60.624 182.431 60.8C182.714 60.976 182.927 61.2053 183.071 61.488V60.608H183.807V65H183.071V64.104C182.927 64.392 182.714 64.6267 182.431 64.808C182.154 64.984 181.828 65.072 181.455 65.072C181.06 65.072 180.703 64.976 180.383 64.784C180.068 64.5867 179.818 64.3147 179.631 63.968C179.45 63.616 179.359 63.2187 179.359 62.776C179.359 62.3333 179.45 61.944 179.631 61.608C179.818 61.2667 180.068 61.0027 180.383 60.816C180.703 60.6293 181.06 60.536 181.455 60.536ZM181.583 61.168C181.322 61.168 181.076 61.232 180.847 61.36C180.623 61.488 180.442 61.6747 180.303 61.92C180.17 62.16 180.103 62.4453 180.103 62.776C180.103 63.1067 180.17 63.4 180.303 63.656C180.442 63.9067 180.623 64.1013 180.847 64.24C181.076 64.3787 181.322 64.448 181.583 64.448C181.85 64.448 182.095 64.3813 182.319 64.248C182.548 64.1147 182.73 63.9253 182.863 63.68C183.002 63.4293 183.071 63.1387 183.071 62.808C183.071 62.4773 183.002 62.1893 182.863 61.944C182.73 61.6933 182.548 61.5013 182.319 61.368C182.095 61.2347 181.85 61.168 181.583 61.168ZM184.886 59.408C184.886 59.2693 184.934 59.152 185.03 59.056C185.126 58.96 185.241 58.912 185.374 58.912C185.513 58.912 185.63 58.96 185.726 59.056C185.822 59.152 185.87 59.2693 185.87 59.408C185.87 59.5467 185.822 59.664 185.726 59.76C185.63 59.856 185.513 59.904 185.374 59.904C185.236 59.904 185.118 59.856 185.022 59.76C184.932 59.664 184.886 59.5467 184.886 59.408ZM185.734 60.608V65H185.006V60.608H185.734ZM187.664 59.08V65H186.936V59.08H187.664ZM193.072 60.536C193.445 60.536 193.771 60.624 194.048 60.8C194.331 60.976 194.544 61.2053 194.688 61.488V60.608H195.424V65H194.688V64.104C194.544 64.392 194.331 64.6267 194.048 64.808C193.771 64.984 193.445 65.072 193.072 65.072C192.677 65.072 192.32 64.976 192 64.784C191.685 64.5867 191.435 64.3147 191.248 63.968C191.067 63.616 190.976 63.2187 190.976 62.776C190.976 62.3333 191.067 61.944 191.248 61.608C191.435 61.2667 191.685 61.0027 192 60.816C192.32 60.6293 192.677 60.536 193.072 60.536ZM193.2 61.168C192.939 61.168 192.693 61.232 192.464 61.36C192.24 61.488 192.059 61.6747 191.92 61.92C191.787 62.16 191.72 62.4453 191.72 62.776C191.72 63.1067 191.787 63.4 191.92 63.656C192.059 63.9067 192.24 64.1013 192.464 64.24C192.693 64.3787 192.939 64.448 193.2 64.448C193.467 64.448 193.712 64.3813 193.936 64.248C194.165 64.1147 194.347 63.9253 194.48 63.68C194.619 63.4293 194.688 63.1387 194.688 62.808C194.688 62.4773 194.619 62.1893 194.48 61.944C194.347 61.6933 194.165 61.5013 193.936 61.368C193.712 61.2347 193.467 61.168 193.2 61.168ZM198.431 60.536C198.805 60.536 199.13 60.624 199.407 60.8C199.69 60.976 199.903 61.2053 200.047 61.488V59.08H200.783V65H200.047V64.104C199.903 64.392 199.69 64.6267 199.407 64.808C199.13 64.984 198.805 65.072 198.431 65.072C198.037 65.072 197.679 64.976 197.359 64.784C197.045 64.5867 196.794 64.3147 196.607 63.968C196.426 63.616 196.335 63.2187 196.335 62.776C196.335 62.3333 196.426 61.944 196.607 61.608C196.794 61.2667 197.045 61.0027 197.359 60.816C197.679 60.6293 198.037 60.536 198.431 60.536ZM198.559 61.168C198.298 61.168 198.053 61.232 197.823 61.36C197.599 61.488 197.418 61.6747 197.279 61.92C197.146 62.16 197.079 62.4453 197.079 62.776C197.079 63.1067 197.146 63.4 197.279 63.656C197.418 63.9067 197.599 64.1013 197.823 64.24C198.053 64.3787 198.298 64.448 198.559 64.448C198.826 64.448 199.071 64.3813 199.295 64.248C199.525 64.1147 199.706 63.9253 199.839 63.68C199.978 63.4293 200.047 63.1387 200.047 62.808C200.047 62.4773 199.978 62.1893 199.839 61.944C199.706 61.6933 199.525 61.5013 199.295 61.368C199.071 61.2347 198.826 61.168 198.559 61.168ZM203.791 60.536C204.164 60.536 204.489 60.624 204.767 60.8C205.049 60.976 205.263 61.2053 205.407 61.488V59.08H206.143V65H205.407V64.104C205.263 64.392 205.049 64.6267 204.767 64.808C204.489 64.984 204.164 65.072 203.791 65.072C203.396 65.072 203.039 64.976 202.719 64.784C202.404 64.5867 202.153 64.3147 201.967 63.968C201.785 63.616 201.695 63.2187 201.695 62.776C201.695 62.3333 201.785 61.944 201.967 61.608C202.153 61.2667 202.404 61.0027 202.719 60.816C203.039 60.6293 203.396 60.536 203.791 60.536ZM203.919 61.168C203.657 61.168 203.412 61.232 203.183 61.36C202.959 61.488 202.777 61.6747 202.639 61.92C202.505 62.16 202.439 62.4453 202.439 62.776C202.439 63.1067 202.505 63.4 202.639 63.656C202.777 63.9067 202.959 64.1013 203.183 64.24C203.412 64.3787 203.657 64.448 203.919 64.448C204.185 64.448 204.431 64.3813 204.655 64.248C204.884 64.1147 205.065 63.9253 205.199 63.68C205.337 63.4293 205.407 63.1387 205.407 62.808C205.407 62.4773 205.337 62.1893 205.199 61.944C205.065 61.6933 204.884 61.5013 204.655 61.368C204.431 61.2347 204.185 61.168 203.919 61.168ZM208.07 61.352C208.332 60.808 208.777 60.536 209.406 60.536V61.296H209.214C208.841 61.296 208.556 61.3947 208.358 61.592C208.166 61.784 208.07 62.12 208.07 62.6V65H207.342V60.608H208.07V61.352ZM214.272 62.624C214.272 62.7787 214.261 62.9227 214.24 63.056H210.743C210.765 63.4933 210.901 63.84 211.152 64.096C211.408 64.3467 211.733 64.472 212.128 64.472C212.426 64.472 212.677 64.4053 212.88 64.272C213.088 64.1387 213.24 63.9627 213.336 63.744H214.12C213.981 64.128 213.741 64.4453 213.4 64.696C213.064 64.9467 212.64 65.072 212.128 65.072C211.717 65.072 211.349 64.9787 211.024 64.792C210.704 64.6053 210.453 64.3413 210.272 64C210.09 63.6533 210 63.256 210 62.808C210 62.3547 210.09 61.9573 210.272 61.616C210.453 61.2693 210.709 61.0027 211.04 60.816C211.37 60.6293 211.752 60.536 212.184 60.536C212.594 60.536 212.957 60.6267 213.272 60.808C213.586 60.9893 213.832 61.2373 214.008 61.552C214.184 61.8667 214.272 62.224 214.272 62.624ZM213.512 62.528C213.512 62.2453 213.45 62 213.328 61.792C213.205 61.5787 213.037 61.416 212.824 61.304C212.616 61.192 212.384 61.136 212.128 61.136C211.749 61.136 211.432 61.2613 211.176 61.512C210.92 61.7573 210.778 62.096 210.752 62.528H213.512ZM216.69 60.536C217.165 60.536 217.541 60.6613 217.818 60.912C218.095 61.1573 218.247 61.496 218.274 61.928H217.522C217.511 61.6827 217.429 61.4853 217.274 61.336C217.119 61.1867 216.906 61.112 216.634 61.112C216.357 61.112 216.138 61.1787 215.978 61.312C215.823 61.44 215.746 61.6027 215.746 61.8C215.746 61.9653 215.794 62.0987 215.89 62.2C215.991 62.296 216.114 62.368 216.258 62.416C216.407 62.464 216.607 62.5147 216.858 62.568C217.178 62.6427 217.434 62.7173 217.626 62.792C217.823 62.8613 217.991 62.9813 218.13 63.152C218.269 63.3173 218.338 63.544 218.338 63.832C218.338 64.072 218.269 64.288 218.13 64.48C217.991 64.6667 217.797 64.8133 217.546 64.92C217.295 65.0213 217.007 65.072 216.682 65.072C216.191 65.072 215.797 64.9493 215.498 64.704C215.205 64.4587 215.045 64.12 215.018 63.688H215.77C215.781 63.9333 215.866 64.1307 216.026 64.28C216.191 64.424 216.41 64.496 216.682 64.496C216.981 64.496 217.21 64.4347 217.37 64.312C217.535 64.1893 217.618 64.0267 217.618 63.824C217.618 63.6587 217.567 63.528 217.466 63.432C217.37 63.3307 217.247 63.256 217.098 63.208C216.949 63.1547 216.743 63.0987 216.482 63.04C216.167 62.9707 215.911 62.9013 215.714 62.832C215.522 62.7573 215.357 62.6427 215.218 62.488C215.085 62.3333 215.018 62.12 215.018 61.848C215.018 61.608 215.085 61.3893 215.218 61.192C215.357 60.9893 215.551 60.8293 215.802 60.712C216.058 60.5947 216.354 60.536 216.69 60.536ZM220.901 60.536C221.376 60.536 221.752 60.6613 222.029 60.912C222.306 61.1573 222.458 61.496 222.485 61.928H221.733C221.722 61.6827 221.64 61.4853 221.485 61.336C221.33 61.1867 221.117 61.112 220.845 61.112C220.568 61.112 220.349 61.1787 220.189 61.312C220.034 61.44 219.957 61.6027 219.957 61.8C219.957 61.9653 220.005 62.0987 220.101 62.2C220.202 62.296 220.325 62.368 220.469 62.416C220.618 62.464 220.818 62.5147 221.069 62.568C221.389 62.6427 221.645 62.7173 221.837 62.792C222.034 62.8613 222.202 62.9813 222.341 63.152C222.48 63.3173 222.549 63.544 222.549 63.832C222.549 64.072 222.48 64.288 222.341 64.48C222.202 64.6667 222.008 64.8133 221.757 64.92C221.506 65.0213 221.218 65.072 220.893 65.072C220.402 65.072 220.008 64.9493 219.709 64.704C219.416 64.4587 219.256 64.12 219.229 63.688H219.981C219.992 63.9333 220.077 64.1307 220.237 64.28C220.402 64.424 220.621 64.496 220.893 64.496C221.192 64.496 221.421 64.4347 221.581 64.312C221.746 64.1893 221.829 64.0267 221.829 63.824C221.829 63.6587 221.778 63.528 221.677 63.432C221.581 63.3307 221.458 63.256 221.309 63.208C221.16 63.1547 220.954 63.0987 220.693 63.04C220.378 62.9707 220.122 62.9013 219.925 62.832C219.733 62.7573 219.568 62.6427 219.429 62.488C219.296 62.3333 219.229 62.12 219.229 61.848C219.229 61.608 219.296 61.3893 219.429 61.192C219.568 60.9893 219.762 60.8293 220.013 60.712C220.269 60.5947 220.565 60.536 220.901 60.536ZM224.056 64.464C224.125 64.7467 224.16 65.0053 224.16 65.24C224.16 65.8427 223.885 66.144 223.336 66.144V65.792C223.469 65.792 223.565 65.76 223.624 65.696C223.688 65.632 223.72 65.5307 223.72 65.392V65.208H223.312V64.464H224.056ZM229.835 60.536C230.229 60.536 230.584 60.6293 230.899 60.816C231.219 61.0027 231.469 61.2667 231.651 61.608C231.837 61.944 231.931 62.3333 231.931 62.776C231.931 63.2187 231.837 63.616 231.651 63.968C231.469 64.3147 231.219 64.5867 230.899 64.784C230.584 64.976 230.229 65.072 229.835 65.072C229.461 65.072 229.133 64.984 228.851 64.808C228.573 64.6267 228.36 64.392 228.211 64.104V67.08H227.483V60.608H228.211V61.488C228.36 61.2053 228.573 60.976 228.851 60.8C229.133 60.624 229.461 60.536 229.835 60.536ZM229.691 61.168C229.429 61.168 229.184 61.2347 228.955 61.368C228.731 61.5013 228.549 61.6933 228.411 61.944C228.277 62.1893 228.211 62.4773 228.211 62.808C228.211 63.1387 228.277 63.4293 228.411 63.68C228.549 63.9253 228.731 64.1147 228.955 64.248C229.184 64.3813 229.429 64.448 229.691 64.448C229.952 64.448 230.197 64.3813 230.427 64.248C230.656 64.1093 230.837 63.912 230.971 63.656C231.109 63.4 231.179 63.1067 231.179 62.776C231.179 62.4453 231.109 62.16 230.971 61.92C230.837 61.6747 230.656 61.488 230.427 61.36C230.203 61.232 229.957 61.168 229.691 61.168ZM233.57 61.352C233.832 60.808 234.277 60.536 234.906 60.536V61.296H234.714C234.341 61.296 234.056 61.3947 233.858 61.592C233.666 61.784 233.57 62.12 233.57 62.6V65H232.842V60.608H233.57V61.352ZM237.716 60.536C238.132 60.536 238.508 60.6293 238.844 60.816C239.18 61.0027 239.444 61.2693 239.636 61.616C239.833 61.9627 239.932 62.36 239.932 62.808C239.932 63.2507 239.83 63.6453 239.628 63.992C239.425 64.3333 239.15 64.6 238.804 64.792C238.457 64.9787 238.073 65.072 237.652 65.072C237.241 65.072 236.87 64.9787 236.54 64.792C236.214 64.6053 235.958 64.3413 235.772 64C235.59 63.6533 235.5 63.256 235.5 62.808C235.5 62.3547 235.596 61.9573 235.788 61.616C235.985 61.2693 236.252 61.0027 236.588 60.816C236.924 60.6293 237.3 60.536 237.716 60.536ZM237.692 61.136C237.425 61.136 237.182 61.2 236.964 61.328C236.745 61.456 236.569 61.6453 236.436 61.896C236.308 62.1467 236.243 62.4507 236.243 62.808C236.243 63.16 236.305 63.4613 236.428 63.712C236.556 63.9627 236.726 64.152 236.94 64.28C237.153 64.408 237.39 64.472 237.652 64.472C237.918 64.472 238.166 64.408 238.396 64.28C238.63 64.1467 238.82 63.9547 238.964 63.704C239.108 63.4533 239.18 63.1547 239.18 62.808C239.18 62.456 239.11 62.1547 238.972 61.904C238.838 61.648 238.657 61.456 238.428 61.328C238.204 61.2 237.958 61.136 237.692 61.136ZM241.73 60.608H244.21V65H243.482V61.2H241.73V65H240.994V61.2H240.426V60.608H240.994V60.24C240.994 59.76 241.122 59.4107 241.378 59.192C241.634 58.9733 242.037 58.864 242.586 58.864V59.456C242.266 59.456 242.042 59.5173 241.914 59.64C241.792 59.7573 241.73 59.9573 241.73 60.24V60.608ZM243.85 59.904C243.712 59.904 243.594 59.856 243.498 59.76C243.408 59.664 243.362 59.5467 243.362 59.408C243.362 59.2693 243.41 59.152 243.506 59.056C243.602 58.96 243.717 58.912 243.85 58.912C243.989 58.912 244.104 58.96 244.194 59.056C244.29 59.152 244.338 59.2693 244.338 59.408C244.338 59.5467 244.29 59.664 244.194 59.76C244.104 59.856 243.989 59.904 243.85 59.904ZM246.141 59.08V65H245.413V59.08H246.141ZM251.326 62.624C251.326 62.7787 251.316 62.9227 251.294 63.056H247.798C247.82 63.4933 247.956 63.84 248.206 64.096C248.462 64.3467 248.788 64.472 249.182 64.472C249.481 64.472 249.732 64.4053 249.934 64.272C250.142 64.1387 250.294 63.9627 250.39 63.744H251.174C251.036 64.128 250.796 64.4453 250.454 64.696C250.118 64.9467 249.694 65.072 249.182 65.072C248.772 65.072 248.404 64.9787 248.078 64.792C247.758 64.6053 247.508 64.3413 247.326 64C247.145 63.6533 247.054 63.256 247.054 62.808C247.054 62.3547 247.145 61.9573 247.326 61.616C247.508 61.2693 247.764 61.0027 248.094 60.816C248.425 60.6293 248.806 60.536 249.238 60.536C249.649 60.536 250.012 60.6267 250.326 60.808C250.641 60.9893 250.886 61.2373 251.062 61.552C251.238 61.8667 251.326 62.224 251.326 62.624ZM250.566 62.528C250.566 62.2453 250.505 62 250.382 61.792C250.26 61.5787 250.092 61.416 249.878 61.304C249.67 61.192 249.438 61.136 249.182 61.136C248.804 61.136 248.486 61.2613 248.23 61.512C247.974 61.7573 247.833 62.096 247.806 62.528H250.566ZM256.983 60.536C257.378 60.536 257.733 60.6293 258.047 60.816C258.367 61.0027 258.618 61.2667 258.799 61.608C258.986 61.944 259.079 62.3333 259.079 62.776C259.079 63.2187 258.986 63.616 258.799 63.968C258.618 64.3147 258.367 64.5867 258.047 64.784C257.733 64.976 257.378 65.072 256.983 65.072C256.61 65.072 256.282 64.984 255.999 64.808C255.722 64.6267 255.509 64.392 255.359 64.104V67.08H254.631V60.608H255.359V61.488C255.509 61.2053 255.722 60.976 255.999 60.8C256.282 60.624 256.61 60.536 256.983 60.536ZM256.839 61.168C256.578 61.168 256.333 61.2347 256.103 61.368C255.879 61.5013 255.698 61.6933 255.559 61.944C255.426 62.1893 255.359 62.4773 255.359 62.808C255.359 63.1387 255.426 63.4293 255.559 63.68C255.698 63.9253 255.879 64.1147 256.103 64.248C256.333 64.3813 256.578 64.448 256.839 64.448C257.101 64.448 257.346 64.3813 257.575 64.248C257.805 64.1093 257.986 63.912 258.119 63.656C258.258 63.4 258.327 63.1067 258.327 62.776C258.327 62.4453 258.258 62.16 258.119 61.92C257.986 61.6747 257.805 61.488 257.575 61.36C257.351 61.232 257.106 61.168 256.839 61.168ZM259.871 59.408C259.871 59.2693 259.919 59.152 260.015 59.056C260.111 58.96 260.225 58.912 260.359 58.912C260.497 58.912 260.615 58.96 260.711 59.056C260.807 59.152 260.855 59.2693 260.855 59.408C260.855 59.5467 260.807 59.664 260.711 59.76C260.615 59.856 260.497 59.904 260.359 59.904C260.22 59.904 260.103 59.856 260.007 59.76C259.916 59.664 259.871 59.5467 259.871 59.408ZM260.719 60.608V65H259.991V60.608H260.719ZM263.76 60.536C264.288 60.536 264.718 60.6587 265.048 60.904C265.384 61.1493 265.619 61.4987 265.752 61.952H264.968C264.883 61.696 264.736 61.496 264.528 61.352C264.32 61.208 264.064 61.136 263.76 61.136C263.344 61.136 263.008 61.2827 262.752 61.576C262.502 61.864 262.376 62.2747 262.376 62.808C262.376 63.336 262.502 63.7467 262.752 64.04C263.008 64.328 263.344 64.472 263.76 64.472C264.07 64.472 264.326 64.4027 264.528 64.264C264.731 64.1253 264.878 63.9227 264.968 63.656H265.752C265.619 64.088 265.382 64.432 265.04 64.688C264.704 64.944 264.278 65.072 263.76 65.072C263.35 65.072 262.982 64.9787 262.656 64.792C262.336 64.6053 262.086 64.3413 261.904 64C261.723 63.6533 261.632 63.256 261.632 62.808C261.632 62.3547 261.723 61.9573 261.904 61.616C262.086 61.2693 262.336 61.0027 262.656 60.816C262.976 60.6293 263.344 60.536 263.76 60.536ZM268.757 64.408V65H268.021C267.648 65 267.363 64.9093 267.165 64.728C266.973 64.5467 266.877 64.2613 266.877 63.872V61.2H266.309V60.608H266.877V59.52H267.613V60.608H268.749V61.2H267.613V63.872C267.613 64.0693 267.653 64.208 267.733 64.288C267.813 64.368 267.955 64.408 268.157 64.408H268.757ZM273.385 60.608V65H272.657V64.296C272.513 64.552 272.316 64.7467 272.065 64.88C271.814 65.008 271.534 65.072 271.225 65.072C270.91 65.072 270.622 65.0027 270.361 64.864C270.105 64.72 269.9 64.5093 269.745 64.232C269.596 63.9547 269.521 63.616 269.521 63.216V60.608H270.241V63.096C270.241 63.5333 270.348 63.8693 270.561 64.104C270.78 64.3333 271.076 64.448 271.449 64.448C271.822 64.448 272.116 64.3333 272.329 64.104C272.548 63.8693 272.657 63.5333 272.657 63.096V60.608H273.385ZM275.312 61.352C275.574 60.808 276.019 60.536 276.648 60.536V61.296H276.456C276.083 61.296 275.798 61.3947 275.6 61.592C275.408 61.784 275.312 62.12 275.312 62.6V65H274.584V60.608H275.312V61.352ZM281.514 62.624C281.514 62.7787 281.503 62.9227 281.482 63.056H277.986C278.007 63.4933 278.143 63.84 278.394 64.096C278.65 64.3467 278.975 64.472 279.37 64.472C279.668 64.472 279.919 64.4053 280.122 64.272C280.33 64.1387 280.482 63.9627 280.578 63.744H281.362C281.223 64.128 280.983 64.4453 280.642 64.696C280.306 64.9467 279.882 65.072 279.37 65.072C278.959 65.072 278.591 64.9787 278.266 64.792C277.946 64.6053 277.695 64.3413 277.514 64C277.332 63.6533 277.242 63.256 277.242 62.808C277.242 62.3547 277.332 61.9573 277.514 61.616C277.695 61.2693 277.951 61.0027 278.282 60.816C278.612 60.6293 278.994 60.536 279.426 60.536C279.836 60.536 280.199 60.6267 280.514 60.808C280.828 60.9893 281.074 61.2373 281.25 61.552C281.426 61.8667 281.514 62.224 281.514 62.624ZM280.754 62.528C280.754 62.2453 280.692 62 280.57 61.792C280.447 61.5787 280.279 61.416 280.066 61.304C279.858 61.192 279.626 61.136 279.37 61.136C278.991 61.136 278.674 61.2613 278.418 61.512C278.162 61.7573 278.02 62.096 277.994 62.528H280.754ZM282.876 64.464C282.946 64.7467 282.98 65.0053 282.98 65.24C282.98 65.8427 282.706 66.144 282.156 66.144V65.792C282.29 65.792 282.386 65.76 282.444 65.696C282.508 65.632 282.54 65.5307 282.54 65.392V65.208H282.132V64.464H282.876ZM288.111 60.536C288.484 60.536 288.81 60.624 289.087 60.8C289.37 60.976 289.583 61.2053 289.727 61.488V60.608H290.463V65H289.727V64.104C289.583 64.392 289.37 64.6267 289.087 64.808C288.81 64.984 288.484 65.072 288.111 65.072C287.716 65.072 287.359 64.976 287.039 64.784C286.724 64.5867 286.474 64.3147 286.287 63.968C286.106 63.616 286.015 63.2187 286.015 62.776C286.015 62.3333 286.106 61.944 286.287 61.608C286.474 61.2667 286.724 61.0027 287.039 60.816C287.359 60.6293 287.716 60.536 288.111 60.536ZM288.239 61.168C287.978 61.168 287.732 61.232 287.503 61.36C287.279 61.488 287.098 61.6747 286.959 61.92C286.826 62.16 286.759 62.4453 286.759 62.776C286.759 63.1067 286.826 63.4 286.959 63.656C287.098 63.9067 287.279 64.1013 287.503 64.24C287.732 64.3787 287.978 64.448 288.239 64.448C288.506 64.448 288.751 64.3813 288.975 64.248C289.204 64.1147 289.386 63.9253 289.519 63.68C289.658 63.4293 289.727 63.1387 289.727 62.808C289.727 62.4773 289.658 62.1893 289.519 61.944C289.386 61.6933 289.204 61.5013 288.975 61.368C288.751 61.2347 288.506 61.168 288.239 61.168ZM293.823 60.536C294.137 60.536 294.423 60.608 294.679 60.752C294.94 60.8907 295.145 61.1013 295.295 61.384C295.449 61.6613 295.527 62 295.527 62.4V65H294.807V62.52C294.807 62.0773 294.7 61.7413 294.487 61.512C294.273 61.2827 293.977 61.168 293.599 61.168C293.225 61.168 292.929 61.2827 292.711 61.512C292.497 61.7413 292.391 62.0773 292.391 62.52V65H291.663V60.608H292.391V61.32C292.535 61.064 292.732 60.8693 292.983 60.736C293.233 60.6027 293.513 60.536 293.823 60.536ZM298.494 60.536C298.867 60.536 299.193 60.624 299.47 60.8C299.753 60.976 299.966 61.2053 300.11 61.488V59.08H300.846V65H300.11V64.104C299.966 64.392 299.753 64.6267 299.47 64.808C299.193 64.984 298.867 65.072 298.494 65.072C298.099 65.072 297.742 64.976 297.422 64.784C297.107 64.5867 296.857 64.3147 296.67 63.968C296.489 63.616 296.398 63.2187 296.398 62.776C296.398 62.3333 296.489 61.944 296.67 61.608C296.857 61.2667 297.107 61.0027 297.422 60.816C297.742 60.6293 298.099 60.536 298.494 60.536ZM298.622 61.168C298.361 61.168 298.115 61.232 297.886 61.36C297.662 61.488 297.481 61.6747 297.342 61.92C297.209 62.16 297.142 62.4453 297.142 62.776C297.142 63.1067 297.209 63.4 297.342 63.656C297.481 63.9067 297.662 64.1013 297.886 64.24C298.115 64.3787 298.361 64.448 298.622 64.448C298.889 64.448 299.134 64.3813 299.358 64.248C299.587 64.1147 299.769 63.9253 299.902 63.68C300.041 63.4293 300.11 63.1387 300.11 62.808C300.11 62.4773 300.041 62.1893 299.902 61.944C299.769 61.6933 299.587 61.5013 299.358 61.368C299.134 61.2347 298.889 61.168 298.622 61.168ZM306.796 60.536C307.19 60.536 307.545 60.6293 307.86 60.816C308.18 61.0027 308.43 61.2667 308.612 61.608C308.798 61.944 308.892 62.3333 308.892 62.776C308.892 63.2187 308.798 63.616 308.612 63.968C308.43 64.3147 308.18 64.5867 307.86 64.784C307.545 64.976 307.19 65.072 306.796 65.072C306.422 65.072 306.094 64.984 305.812 64.808C305.534 64.6267 305.321 64.392 305.172 64.104V65H304.444V59.08H305.172V61.488C305.321 61.2053 305.534 60.976 305.812 60.8C306.094 60.624 306.422 60.536 306.796 60.536ZM306.652 61.168C306.39 61.168 306.145 61.2347 305.916 61.368C305.692 61.5013 305.51 61.6933 305.372 61.944C305.238 62.1893 305.172 62.4773 305.172 62.808C305.172 63.1387 305.238 63.4293 305.372 63.68C305.51 63.9253 305.692 64.1147 305.916 64.248C306.145 64.3813 306.39 64.448 306.652 64.448C306.913 64.448 307.158 64.3813 307.388 64.248C307.617 64.1093 307.798 63.912 307.932 63.656C308.07 63.4 308.14 63.1067 308.14 62.776C308.14 62.4453 308.07 62.16 307.932 61.92C307.798 61.6747 307.617 61.488 307.388 61.36C307.164 61.232 306.918 61.168 306.652 61.168ZM309.683 59.408C309.683 59.2693 309.731 59.152 309.827 59.056C309.923 58.96 310.038 58.912 310.171 58.912C310.31 58.912 310.427 58.96 310.523 59.056C310.619 59.152 310.667 59.2693 310.667 59.408C310.667 59.5467 310.619 59.664 310.523 59.76C310.427 59.856 310.31 59.904 310.171 59.904C310.032 59.904 309.915 59.856 309.819 59.76C309.728 59.664 309.683 59.5467 309.683 59.408ZM310.531 60.608V65H309.803V60.608H310.531ZM313.661 60.536C314.077 60.536 314.453 60.6293 314.789 60.816C315.125 61.0027 315.389 61.2693 315.581 61.616C315.778 61.9627 315.877 62.36 315.877 62.808C315.877 63.2507 315.775 63.6453 315.573 63.992C315.37 64.3333 315.095 64.6 314.749 64.792C314.402 64.9787 314.018 65.072 313.597 65.072C313.186 65.072 312.815 64.9787 312.485 64.792C312.159 64.6053 311.903 64.3413 311.717 64C311.535 63.6533 311.445 63.256 311.445 62.808C311.445 62.3547 311.541 61.9573 311.733 61.616C311.93 61.2693 312.197 61.0027 312.533 60.816C312.869 60.6293 313.245 60.536 313.661 60.536ZM313.637 61.136C313.37 61.136 313.127 61.2 312.909 61.328C312.69 61.456 312.514 61.6453 312.381 61.896C312.253 62.1467 312.189 62.4507 312.189 62.808C312.189 63.16 312.25 63.4613 312.373 63.712C312.501 63.9627 312.671 64.152 312.885 64.28C313.098 64.408 313.335 64.472 313.597 64.472C313.863 64.472 314.111 64.408 314.341 64.28C314.575 64.1467 314.765 63.9547 314.909 63.704C315.053 63.4533 315.125 63.1547 315.125 62.808C315.125 62.456 315.055 62.1547 314.917 61.904C314.783 61.648 314.602 61.456 314.373 61.328C314.149 61.2 313.903 61.136 313.637 61.136ZM316.628 64.536C316.628 64.4027 316.673 64.2907 316.764 64.2C316.854 64.1093 316.964 64.064 317.092 64.064C317.22 64.064 317.329 64.1093 317.42 64.2C317.51 64.2907 317.556 64.4027 317.556 64.536C317.556 64.664 317.51 64.7733 317.42 64.864C317.329 64.9547 317.22 65 317.092 65C316.964 65 316.854 64.9547 316.764 64.864C316.673 64.7733 316.628 64.664 316.628 64.536Z" fill="#320051"/>
<g clip-path="url(#clip1_3262_5730)">
<path d="M78.3613 84.0782L78.3613 84.0782L78.2286 84.0441C75.9628 83.4617 73.6141 83.1667 71.25 83.1667C55.8555 83.1667 43.3333 95.6889 43.3333 111.083C43.3333 112.969 41.8025 114.5 39.9167 114.5C38.0308 114.5 36.5 112.969 36.5 111.083C36.5 91.925 52.0916 76.3333 71.25 76.3333C74.193 76.3333 77.1159 76.7003 79.9373 77.4298L79.9376 77.4298C81.7652 77.9012 82.8626 79.7631 82.3942 81.5921C81.9375 83.3756 80.1594 84.4646 78.3613 84.0782ZM110.292 67.8796L110.293 67.8795C114.535 63.6335 121.957 63.6333 126.204 67.8796C128.327 70.0026 129.496 72.8247 129.496 75.8333C129.496 78.8419 128.327 81.6639 126.2 83.7909L99.9307 110.06C97.0672 112.924 93.2619 114.504 89.2079 114.504H82.9961C81.1102 114.504 79.5794 112.973 79.5794 111.087V104.875C79.5794 100.821 81.1599 97.0121 84.0233 94.1487L110.292 67.8796ZM86.4088 107.167V107.667H86.9088H89.204C91.4319 107.667 93.5255 106.799 95.0962 105.225L121.369 78.956L121.015 78.6024L121.369 78.956C122.202 78.1222 122.663 77.016 122.663 75.8333C122.663 74.6519 122.203 73.5414 121.369 72.7107C119.693 71.0352 116.795 71.0345 115.123 72.7112L88.8505 98.9798L89.204 99.3333L88.8504 98.9798C87.2763 100.554 86.4088 102.647 86.4088 104.872V107.167ZM94.25 44.5C94.25 57.1841 83.9341 67.5 71.25 67.5C58.5659 67.5 48.25 57.1841 48.25 44.5C48.25 31.8159 58.5659 21.5 71.25 21.5C83.9341 21.5 94.25 31.8159 94.25 44.5ZM87.4167 44.5C87.4167 35.5837 80.1663 28.3333 71.25 28.3333C62.3337 28.3333 55.0833 35.5837 55.0833 44.5C55.0833 53.4163 62.3337 60.6667 71.25 60.6667C80.1663 60.6667 87.4167 53.4163 87.4167 44.5Z" fill="#964CC3" stroke="white"/>
</g>
<path d="M387.43 98.9297L393.5 105L387.43 111.07" stroke="#320051" stroke-width="1.5" stroke-miterlimit="10" stroke-linecap="round" stroke-linejoin="round"/>
<path d="M376.5 105H393.33" stroke="#320051" stroke-width="1.5" stroke-miterlimit="10" stroke-linecap="round" stroke-linejoin="round"/>
<path d="M0 120.098C78 165.598 134.5 85.0978 211.5 120.098C288.5 155.099 340.404 120.098 423 120.098V153.598H0V120.098Z" fill="#964CC3"/>
</g>
<defs>
<clipPath id="clip0_3262_5730">
<rect width="417" height="137" rx="10" fill="white"/>
</clipPath>
<clipPath id="clip1_3262_5730">
<rect width="94" height="94" fill="white" transform="translate(36 21)"/>
</clipPath>
</defs>
</svg>
