<svg width="30" height="30" viewBox="0 0 30 30" fill="none" xmlns="http://www.w3.org/2000/svg">
<g clip-path="url(#clip0_3150_1403)">
<path d="M10.6668 11.6666C11.9534 11.6666 13.0001 10.62 13.0001 9.33332C13.0001 8.04666 11.9534 7 10.6668 7C9.38011 7 8.33345 8.04666 8.33345 9.33332C8.33345 10.62 9.38011 11.6666 10.6668 11.6666ZM10.6668 8.33333C11.2181 8.33333 11.6668 8.78199 11.6668 9.33332C11.6668 9.88465 11.2181 10.3333 10.6668 10.3333C10.1154 10.3333 9.66677 9.88465 9.66677 9.33332C9.66677 8.78199 10.1154 8.33333 10.6668 8.33333ZM18.6667 18.3333C20.3207 18.3333 21.6667 16.9873 21.6667 15.3333C21.6667 13.6793 20.3207 12.3333 18.6667 12.3333C17.0127 12.3333 15.6667 13.6793 15.6667 15.3333C15.6667 16.9873 17.0127 18.3333 18.6667 18.3333ZM18.6667 13.6666C19.586 13.6666 20.3334 14.414 20.3334 15.3333C20.3334 16.2526 19.586 16.9999 18.6667 16.9999C17.7474 16.9999 17.0001 16.2526 17.0001 15.3333C17.0001 14.414 17.7474 13.6666 18.6667 13.6666ZM12.6221 19.4046C13.1288 19.9126 13.1288 20.7532 12.6134 21.2699L11.1474 22.7952C11.0168 22.9312 10.8421 22.9999 10.6668 22.9999C10.5001 22.9999 10.3341 22.9379 10.2048 22.8139C9.93944 22.5586 9.93077 22.1366 10.1861 21.8712L11.0234 20.9999H9.66677C8.19611 20.9999 7.00012 19.8039 7.00012 18.3333V17.6666C7.00012 17.2979 7.29879 16.9999 7.66678 16.9999C8.03478 16.9999 8.33345 17.2979 8.33345 17.6666V18.3333C8.33345 19.0686 8.93144 19.6666 9.66677 19.6666H11.0194L10.1861 18.7953C9.93077 18.5299 9.93877 18.1079 10.2048 17.8526C10.4701 17.5979 10.8921 17.6053 11.1474 17.8706L12.6221 19.4046ZM22.522 22.9726C22.4587 22.9912 22.396 22.9999 22.334 22.9999C22.0454 22.9999 21.78 22.8119 21.6947 22.5212C21.316 21.2326 20.0707 20.3333 18.6674 20.3333C17.2641 20.3333 16.0187 21.2332 15.6401 22.5212C15.5361 22.8739 15.1667 23.0786 14.8121 22.9726C14.4587 22.8692 14.2567 22.4986 14.3607 22.1452C14.9054 20.2939 16.6761 18.9999 18.6667 18.9999C20.6574 18.9999 22.4287 20.2933 22.9727 22.1452C23.0767 22.4986 22.8747 22.8692 22.5214 22.9726H22.522ZM13.9014 15.6246C13.8241 15.6533 13.7454 15.6666 13.6674 15.6666C13.3974 15.6666 13.1434 15.5019 13.0428 15.2339C12.6914 14.2966 11.7368 13.6666 10.6674 13.6666C9.59811 13.6666 8.64278 14.296 8.29211 15.2339C8.16278 15.5799 7.77812 15.7519 7.43345 15.6246C7.08879 15.4953 6.91412 15.1106 7.04346 14.7666C7.58879 13.3113 9.04544 12.334 10.6681 12.334C12.2908 12.334 13.7467 13.312 14.2927 14.7666C14.4221 15.1113 14.2474 15.4953 13.9027 15.6246H13.9014Z" fill="#320051"/>
</g>
<defs>
<clipPath id="clip0_3150_1403">
<rect width="15.9999" height="15.9999" fill="white" transform="translate(7.00012 7)"/>
</clipPath>
</defs>
</svg>
