<svg width="71" height="115" viewBox="0 0 71 115" fill="none" xmlns="http://www.w3.org/2000/svg">
<g clip-path="url(#clip0_2907_3028)">
<path d="M26.3542 33.5417C35.6021 33.5417 43.125 26.0188 43.125 16.7708C43.125 7.52292 35.6021 0 26.3542 0C17.1062 0 9.58333 7.52292 9.58333 16.7708C9.58333 26.0188 17.1062 33.5417 26.3542 33.5417ZM26.3542 9.58333C30.3169 9.58333 33.5417 12.8081 33.5417 16.7708C33.5417 20.7335 30.3169 23.9583 26.3542 23.9583C22.3915 23.9583 19.1667 20.7335 19.1667 16.7708C19.1667 12.8081 22.3915 9.58333 26.3542 9.58333ZM83.8542 81.4583C95.7423 81.4583 105.417 71.784 105.417 59.8958C105.417 48.0077 95.7423 38.3333 83.8542 38.3333C71.966 38.3333 62.2917 48.0077 62.2917 59.8958C62.2917 71.784 71.966 81.4583 83.8542 81.4583ZM83.8542 47.9167C90.4619 47.9167 95.8333 53.2881 95.8333 59.8958C95.8333 66.5035 90.4619 71.875 83.8542 71.875C77.2465 71.875 71.875 66.5035 71.875 59.8958C71.875 53.2881 77.2465 47.9167 83.8542 47.9167ZM40.4081 89.1585C44.0498 92.8098 44.0498 98.8521 40.3458 102.566L29.809 113.529C28.8698 114.506 27.6144 115 26.3542 115C25.1562 115 23.9631 114.554 23.0335 113.663C21.1265 111.828 21.0642 108.795 22.8994 106.888L28.9177 100.625H19.1667C8.59625 100.625 0 92.0288 0 81.4583V76.6667C0 74.0169 2.14667 71.875 4.79167 71.875C7.43667 71.875 9.58333 74.0169 9.58333 76.6667V81.4583C9.58333 86.7435 13.8815 91.0417 19.1667 91.0417H28.889L22.8994 84.779C21.0642 82.8719 21.1217 79.8388 23.0335 78.0035C24.9406 76.1731 27.9737 76.2258 29.809 78.1329L40.4081 89.1585ZM111.564 114.804C111.109 114.938 110.659 115 110.213 115C108.138 115 106.231 113.649 105.618 111.56C102.896 102.297 93.9454 95.8333 83.859 95.8333C73.7725 95.8333 64.8217 102.302 62.1 111.56C61.3525 114.094 58.6979 115.565 56.1488 114.804C53.6092 114.061 52.1573 111.397 52.9048 108.857C56.8196 95.5506 69.5462 86.25 83.8542 86.25C98.1621 86.25 110.894 95.5458 114.804 108.857C115.551 111.397 114.099 114.061 111.56 114.804H111.564ZM49.6033 61.9898C49.0475 62.1958 48.4821 62.2917 47.9215 62.2917C45.9808 62.2917 44.1552 61.1081 43.4317 59.1819C40.9065 52.4448 34.0448 47.9167 26.359 47.9167C18.6731 47.9167 11.8067 52.44 9.28625 59.1819C8.35667 61.6688 5.59187 62.905 3.11458 61.9898C0.637291 61.0602 -0.618125 58.2954 0.311458 55.8229C4.23104 45.3627 14.7008 38.3381 26.3637 38.3381C38.0267 38.3381 48.4917 45.3675 52.416 55.8229C53.3456 58.3002 52.0902 61.0602 49.6129 61.9898H49.6033Z" fill="white" fill-opacity="0.1"/>
</g>
<defs>
<clipPath id="clip0_2907_3028">
<rect width="115" height="115" fill="white"/>
</clipPath>
</defs>
</svg>
