<svg width="18" height="19" viewBox="0 0 18 19" fill="none" xmlns="http://www.w3.org/2000/svg">
<path fill-rule="evenodd" clip-rule="evenodd" d="M2.76792 1.78659C2.76792 2.23259 2.40637 2.59415 1.96037 2.59415C1.51436 2.59415 1.15281 2.23259 1.15281 1.78659C1.15281 1.34059 1.51436 0.979039 1.96037 0.979039C2.40637 0.979039 2.76792 1.34059 2.76792 1.78659ZM3.22938 1.78659C3.22938 2.48745 2.66122 3.05561 1.96037 3.05561C1.25951 3.05561 0.691349 2.48745 0.691349 1.78659C0.691349 1.08574 1.25951 0.517578 1.96037 0.517578C2.66122 0.517578 3.22938 1.08574 3.22938 1.78659ZM0.457026 4.78059C0.598011 4.1207 1.26893 3.74825 2.01954 3.74829C2.77015 3.74833 3.44109 4.12086 3.58207 4.7806C3.6087 4.90522 3.73131 4.98465 3.85592 4.95802C3.98054 4.93139 4.05997 4.80878 4.03334 4.68417C3.82823 3.72431 2.88405 3.28687 2.01956 3.28683C1.15505 3.28678 0.21086 3.72414 0.00575014 4.68418C-0.0208739 4.80879 0.0585647 4.9314 0.183181 4.95802C0.307798 4.98465 0.430402 4.90521 0.457026 4.78059Z" fill="white"/>
<rect x="6.1322" y="0.515625" width="11.8677" height="4.53767" rx="2.26883" fill="white"/>
<path fill-rule="evenodd" clip-rule="evenodd" d="M2.76792 8.41941C2.76792 8.86541 2.40637 9.22696 1.96037 9.22696C1.51436 9.22696 1.15281 8.86541 1.15281 8.41941C1.15281 7.97341 1.51436 7.61185 1.96037 7.61185C2.40637 7.61185 2.76792 7.97341 2.76792 8.41941ZM3.22938 8.41941C3.22938 9.12027 2.66122 9.68842 1.96037 9.68842C1.25951 9.68842 0.691349 9.12027 0.691349 8.41941C0.691349 7.71855 1.25951 7.15039 1.96037 7.15039C2.66122 7.15039 3.22938 7.71855 3.22938 8.41941ZM0.457026 11.4134C0.598011 10.7535 1.26893 10.3811 2.01954 10.3811C2.77015 10.3811 3.44109 10.7537 3.58207 11.4134C3.6087 11.538 3.73131 11.6175 3.85592 11.5908C3.98054 11.5642 4.05997 11.4416 4.03334 11.317C3.82823 10.3571 2.88405 9.91969 2.01956 9.91964C1.15505 9.9196 0.21086 10.357 0.00575014 11.317C-0.0208739 11.4416 0.0585647 11.5642 0.183181 11.5908C0.307798 11.6175 0.430402 11.538 0.457026 11.4134Z" fill="white"/>
<rect x="6.1322" y="7.14844" width="11.8677" height="4.53767" rx="2.26883" fill="white"/>
<path fill-rule="evenodd" clip-rule="evenodd" d="M2.76792 15.0444C2.76792 15.4904 2.40637 15.852 1.96037 15.852C1.51436 15.852 1.15281 15.4904 1.15281 15.0444C1.15281 14.5984 1.51436 14.2369 1.96037 14.2369C2.40637 14.2369 2.76792 14.5984 2.76792 15.0444ZM3.22938 15.0444C3.22938 15.7453 2.66122 16.3134 1.96037 16.3134C1.25951 16.3134 0.691349 15.7453 0.691349 15.0444C0.691349 14.3435 1.25951 13.7754 1.96037 13.7754C2.66122 13.7754 3.22938 14.3435 3.22938 15.0444ZM0.457026 18.0384C0.598011 17.3785 1.26893 17.0061 2.01954 17.0061C2.77015 17.0061 3.44109 17.3787 3.58207 18.0384C3.6087 18.163 3.73131 18.2425 3.85592 18.2158C3.98054 18.1892 4.05997 18.0666 4.03334 17.942C3.82823 16.9821 2.88405 16.5447 2.01956 16.5446C1.15505 16.5446 0.21086 16.982 0.00575014 17.942C-0.0208739 18.0666 0.0585647 18.1892 0.183181 18.2158C0.307798 18.2425 0.430402 18.163 0.457026 18.0384Z" fill="white"/>
<rect x="6.1322" y="13.7812" width="11.8677" height="4.53767" rx="2.26883" fill="white"/>
</svg>
