<svg width="30" height="30" viewBox="0 0 30 30" fill="none" xmlns="http://www.w3.org/2000/svg">
<path d="M9.00012 13.0729V16.9195C9.00012 18.3329 9.00012 18.3329 10.3334 19.2329L14.0001 21.3528C14.5534 21.6728 15.4534 21.6728 16.0001 21.3528L19.6667 19.2329C21 18.3329 21 18.3329 21 16.9262V13.0729C21 11.6662 21 11.6662 19.6667 10.7662L16.0001 8.64625C15.4534 8.32625 14.5534 8.32625 14.0001 8.64625L10.3334 10.7662C9.00012 11.6662 9.00012 11.6662 9.00012 13.0729Z" stroke="#320051" stroke-width="1.5" stroke-linecap="round" stroke-linejoin="round"/>
<path d="M15.0001 17C16.1047 17 17.0001 16.1046 17.0001 15C17.0001 13.8954 16.1047 13 15.0001 13C13.8955 13 13.0001 13.8954 13.0001 15C13.0001 16.1046 13.8955 17 15.0001 17Z" stroke="#320051" stroke-width="1.5" stroke-linecap="round" stroke-linejoin="round"/>
</svg>
