<svg width="30" height="30" viewBox="0 0 30 30" fill="none" xmlns="http://www.w3.org/2000/svg">
<path fill-rule="evenodd" clip-rule="evenodd" d="M14.6939 7.09177C14.8877 6.99858 15.1133 6.99858 15.3071 7.09177L22.4511 10.527C22.9816 10.7821 22.9869 11.5355 22.4601 11.798L15.3161 15.3581C15.1173 15.4572 14.8836 15.4572 14.6849 15.3581L7.54086 11.798C7.01409 11.5355 7.0194 10.7821 7.54982 10.527L14.6939 7.09177ZM15.3505 7.00165C15.1293 6.89529 14.8717 6.89528 14.6505 7.00165L7.50648 10.4369C6.90111 10.728 6.89504 11.5879 7.49625 11.8875L14.6403 15.4476C14.8671 15.5607 15.1339 15.5607 15.3607 15.4476L22.5047 11.8875C23.1059 11.5879 23.0999 10.728 22.4945 10.4369L15.3505 7.00165ZM7.02857 15.373C7.05284 15.3233 7.11274 15.3028 7.16234 15.3271L14.7494 19.0394C14.9326 19.1291 15.147 19.1286 15.3298 19.0383L22.8375 15.3273C22.887 15.3028 22.947 15.3231 22.9715 15.3726C22.9959 15.4221 22.9756 15.4821 22.9261 15.5066L15.4184 19.2176C15.18 19.3354 14.9004 19.336 14.6615 19.2191L7.07444 15.5067C7.02483 15.4825 7.0043 15.4226 7.02857 15.373ZM7.02857 19.0944C7.05284 19.0448 7.11274 19.0242 7.16234 19.0485L14.7494 22.7608C14.9326 22.8505 15.147 22.85 15.3298 22.7597L22.8375 19.0487C22.887 19.0242 22.947 19.0445 22.9715 19.094C22.9959 19.1435 22.9756 19.2035 22.9261 19.228L15.4184 22.939C15.18 23.0568 14.9004 23.0574 14.6615 22.9405L7.07444 19.2281C7.02483 19.2039 7.0043 19.144 7.02857 19.0944Z" fill="#320051"/>
<path d="M15.3071 7.09177L14.8803 7.97933L14.8803 7.97934L15.3071 7.09177ZM14.6939 7.09177L15.1206 7.97933V7.97933L14.6939 7.09177ZM22.4511 10.527L22.0244 11.4146L22.4511 10.527ZM22.4601 11.798L22.0208 10.9165L22.0208 10.9165L22.4601 11.798ZM15.3161 15.3581L15.7553 16.2396L15.3161 15.3581ZM14.6849 15.3581L15.1242 14.4767L15.1242 14.4767L14.6849 15.3581ZM7.54086 11.798L7.98012 10.9165L7.54086 11.798ZM7.54982 10.527L7.97661 11.4146L7.54982 10.527ZM14.6505 7.00165L14.2237 6.11408L14.2237 6.11408L14.6505 7.00165ZM15.3505 7.00165L14.9237 7.88921V7.88921L15.3505 7.00165ZM7.50648 10.4369L7.93328 11.3245H7.93328L7.50648 10.4369ZM7.49625 11.8875L7.93552 11.006L7.49625 11.8875ZM14.6403 15.4476L14.201 16.3291L14.201 16.3291L14.6403 15.4476ZM15.3607 15.4476L14.9214 14.5662L14.9214 14.5662L15.3607 15.4476ZM22.5047 11.8875L22.0654 11.006H22.0654L22.5047 11.8875ZM22.4945 10.4369L22.0677 11.3245L22.4945 10.4369ZM7.16234 15.3271L6.72949 16.2117L6.7295 16.2117L7.16234 15.3271ZM7.02857 15.373L6.14394 14.9401L6.14394 14.9401L7.02857 15.373ZM14.7494 19.0394L14.3166 19.9241H14.3166L14.7494 19.0394ZM15.3298 19.0383L14.8934 18.1554L14.8934 18.1554L15.3298 19.0383ZM22.8375 15.3273L22.4011 14.4444L22.4011 14.4444L22.8375 15.3273ZM22.9715 15.3726L23.8543 14.9362L23.8543 14.9362L22.9715 15.3726ZM22.9261 15.5066L22.4897 14.6237L22.4897 14.6237L22.9261 15.5066ZM15.4184 19.2176L15.8548 20.1004L15.8548 20.1004L15.4184 19.2176ZM14.6615 19.2191L15.0943 18.3344L15.0943 18.3344L14.6615 19.2191ZM7.07444 15.5067L7.50729 14.6221L7.50729 14.6221L7.07444 15.5067ZM7.16234 19.0485L6.72949 19.9331L6.7295 19.9331L7.16234 19.0485ZM14.7494 22.7608L15.1823 21.8762L15.1822 21.8762L14.7494 22.7608ZM15.3298 22.7597L14.8934 21.8768L14.8934 21.8768L15.3298 22.7597ZM22.8375 19.0487L22.4011 18.1658L22.4011 18.1658L22.8375 19.0487ZM22.9715 19.094L23.8543 18.6576L23.8543 18.6576L22.9715 19.094ZM22.9261 19.228L22.4897 18.3451L22.4897 18.3451L22.9261 19.228ZM15.4184 22.939L14.982 22.0561H14.982L15.4184 22.939ZM14.6615 22.9405L14.2286 23.8251L14.2287 23.8251L14.6615 22.9405ZM7.07444 19.2281L7.50729 18.3435L7.50729 18.3435L7.07444 19.2281ZM15.7339 6.2042C15.2704 5.9813 14.7306 5.9813 14.2671 6.2042L15.1206 7.97933C15.0447 8.01585 14.9563 8.01585 14.8803 7.97933L15.7339 6.2042ZM22.8779 9.63944L15.7339 6.2042L14.8803 7.97934L22.0244 11.4146L22.8779 9.63944ZM22.8994 12.6794C24.1593 12.0516 24.1466 10.2495 22.8779 9.63944L22.0244 11.4146C21.8165 11.3146 21.8144 11.0194 22.0208 10.9165L22.8994 12.6794ZM15.7553 16.2396L22.8994 12.6794L22.0208 10.9165L14.8768 14.4767L15.7553 16.2396ZM14.2456 16.2396C14.721 16.4765 15.28 16.4765 15.7553 16.2396L14.8768 14.4767C14.9547 14.4379 15.0463 14.4379 15.1242 14.4767L14.2456 16.2396ZM7.10159 12.6794L14.2456 16.2396L15.1242 14.4767L7.98012 10.9165L7.10159 12.6794ZM7.12303 9.63944C5.85435 10.2495 5.84164 12.0516 7.10159 12.6794L7.98012 10.9165C8.18655 11.0194 8.18446 11.3146 7.97661 11.4146L7.12303 9.63944ZM14.2671 6.2042L7.12303 9.63944L7.97661 11.4146L15.1206 7.97933L14.2671 6.2042ZM15.0773 7.88921C15.0288 7.91256 14.9722 7.91256 14.9237 7.88921L15.7772 6.11408C15.2863 5.87801 14.7147 5.87801 14.2237 6.11408L15.0773 7.88921ZM7.93328 11.3245L15.0773 7.88921L14.2237 6.11408L7.07969 9.54932L7.93328 11.3245ZM7.93552 11.006C8.0675 11.0718 8.06616 11.2606 7.93328 11.3245L7.07969 9.54932C5.73605 10.1954 5.72259 12.104 7.05699 12.7689L7.93552 11.006ZM15.0796 14.5662L7.93552 11.006L7.05699 12.7689L14.201 16.3291L15.0796 14.5662ZM14.9214 14.5662C14.9712 14.5414 15.0298 14.5414 15.0795 14.5662L14.201 16.3291C14.7045 16.58 15.2965 16.58 15.8 16.3291L14.9214 14.5662ZM22.0654 11.006L14.9214 14.5662L15.7999 16.3291L22.944 12.7689L22.0654 11.006ZM22.0677 11.3245C21.9348 11.2606 21.9335 11.0718 22.0654 11.006L22.944 12.7689C24.2784 12.104 24.2649 10.1954 22.9213 9.54932L22.0677 11.3245ZM14.9237 7.88921L22.0677 11.3245L22.9213 9.54932L15.7772 6.11408L14.9237 7.88921ZM7.5952 14.4425C7.05702 14.1791 6.40727 14.4019 6.14394 14.9401L7.9132 15.8058C7.69842 16.2448 7.16845 16.4265 6.72949 16.2117L7.5952 14.4425ZM15.1822 18.1548L7.59519 14.4425L6.7295 16.2117L14.3166 19.9241L15.1822 18.1548ZM14.8934 18.1554C14.9844 18.1104 15.0911 18.1102 15.1822 18.1548L14.3166 19.9241C14.7741 20.1479 15.3096 20.1468 15.7662 19.9211L14.8934 18.1554ZM22.4011 14.4444L14.8934 18.1554L15.7662 19.9211L23.2739 16.2101L22.4011 14.4444ZM23.8543 14.9362C23.5888 14.3991 22.9382 14.1789 22.4011 14.4444L23.2739 16.2101C22.8358 16.4267 22.3051 16.2471 22.0886 15.809L23.8543 14.9362ZM23.3625 16.3894C23.8996 16.1239 24.1198 15.4733 23.8543 14.9362L22.0886 15.809C21.872 15.3709 22.0516 14.8402 22.4897 14.6237L23.3625 16.3894ZM15.8548 20.1004L23.3625 16.3894L22.4897 14.6237L14.982 18.3347L15.8548 20.1004ZM14.2286 20.1037C14.7419 20.3548 15.3426 20.3536 15.8548 20.1004L14.982 18.3347C15.0174 18.3172 15.0589 18.3171 15.0943 18.3344L14.2286 20.1037ZM6.64159 16.3914L14.2287 20.1037L15.0943 18.3344L7.50729 14.6221L6.64159 16.3914ZM6.14394 14.9401C5.88061 15.4783 6.10341 16.128 6.6416 16.3914L7.50729 14.6221C7.94626 14.8369 8.12798 15.3669 7.9132 15.8058L6.14394 14.9401ZM7.5952 18.1639C7.05702 17.9005 6.40727 18.1233 6.14394 18.6615L7.9132 19.5272C7.69842 19.9662 7.16845 20.1479 6.72949 19.9331L7.5952 18.1639ZM15.1822 21.8762L7.59519 18.1639L6.7295 19.9331L14.3166 23.6455L15.1822 21.8762ZM14.8934 21.8768C14.9844 21.8318 15.0911 21.8316 15.1823 21.8762L14.3165 23.6455C14.7741 23.8693 15.3096 23.8683 15.7662 23.6426L14.8934 21.8768ZM22.4011 18.1658L14.8934 21.8768L15.7662 23.6426L23.2739 19.9316L22.4011 18.1658ZM23.8543 18.6576C23.5888 18.1205 22.9382 17.9003 22.4011 18.1658L23.2739 19.9316C22.8358 20.1481 22.3051 19.9685 22.0886 19.5304L23.8543 18.6576ZM23.3625 20.1108C23.8996 19.8454 24.1198 19.1947 23.8543 18.6576L22.0886 19.5304C21.872 19.0923 22.0516 18.5616 22.4897 18.3451L23.3625 20.1108ZM15.8548 23.8218L23.3625 20.1108L22.4897 18.3451L14.982 22.0561L15.8548 23.8218ZM14.2287 23.8251C14.7419 24.0762 15.3426 24.075 15.8548 23.8218L14.982 22.0561C15.0174 22.0386 15.0589 22.0385 15.0943 22.0559L14.2287 23.8251ZM6.64159 20.1128L14.2286 23.8251L15.0943 22.0559L7.50729 18.3435L6.64159 20.1128ZM6.14394 18.6615C5.88061 19.1997 6.10341 19.8494 6.6416 20.1128L7.50729 18.3435C7.94626 18.5583 8.12798 19.0883 7.9132 19.5272L6.14394 18.6615Z" fill="#320051"/>
</svg>
