<svg width="30" height="30" viewBox="0 0 30 30" fill="none" xmlns="http://www.w3.org/2000/svg">
<g clip-path="url(#clip0_3150_1380)">
<path d="M22.3334 17.6663H8.78746L8.79679 17.6563L10.2928 16.133C10.3582 16.0715 10.4106 15.9974 10.4467 15.9152C10.4828 15.833 10.502 15.7443 10.5029 15.6545C10.5039 15.5647 10.4868 15.4756 10.4525 15.3926C10.4182 15.3096 10.3675 15.2343 10.3034 15.1714C10.2393 15.1085 10.1631 15.0592 10.0795 15.0264C9.99588 14.9936 9.9065 14.9781 9.81672 14.9808C9.72695 14.9834 9.63863 15.0041 9.55707 15.0418C9.47552 15.0794 9.40241 15.1331 9.34212 15.1997L7.84947 16.7177C7.7408 16.8263 7.5888 16.993 7.43347 17.1683C7.15452 17.4837 7.00055 17.8903 7.00055 18.3113C7.00055 18.7324 7.15452 19.1389 7.43347 19.4543C7.5888 19.629 7.7408 19.7957 7.84547 19.901L9.34212 21.4236C9.46759 21.5415 9.63379 21.6063 9.80592 21.6044C9.97806 21.6025 10.1428 21.5341 10.2656 21.4135C10.3885 21.2929 10.4599 21.1294 10.465 20.9574C10.47 20.7853 10.4083 20.6179 10.2928 20.4903L8.82946 18.9997H22.3334C22.5102 18.9997 22.6798 18.9294 22.8048 18.8044C22.9298 18.6794 23 18.5098 23 18.333C23 18.1562 22.9298 17.9866 22.8048 17.8616C22.6798 17.7366 22.5102 17.6663 22.3334 17.6663Z" fill="#320051"/>
<path d="M7.66678 12.3323H21.17L19.7074 13.821C19.6419 13.8825 19.5896 13.9566 19.5534 14.0388C19.5173 14.121 19.4982 14.2097 19.4972 14.2995C19.4962 14.3893 19.5134 14.4784 19.5477 14.5614C19.582 14.6444 19.6327 14.7197 19.6968 14.7826C19.7609 14.8455 19.837 14.8948 19.9207 14.9276C20.0043 14.9603 20.0937 14.9759 20.1834 14.9732C20.2732 14.9706 20.3615 14.9498 20.4431 14.9122C20.5246 14.8746 20.5978 14.8209 20.658 14.7543L22.1507 13.235C22.2594 13.1263 22.4114 12.9597 22.5667 12.785C22.8456 12.4696 22.9996 12.0631 22.9996 11.642C22.9996 11.2209 22.8456 10.8144 22.5667 10.499C22.4114 10.3237 22.2594 10.157 22.1547 10.0523L20.658 8.53235C20.5326 8.41448 20.3664 8.34971 20.1942 8.3516C20.0221 8.3535 19.8574 8.4219 19.7345 8.54251C19.6117 8.66311 19.5403 8.82656 19.5352 8.99863C19.5301 9.1707 19.5918 9.33806 19.7074 9.46568L21.208 10.9923L21.2134 10.999H7.66678C7.48997 10.999 7.32041 11.0692 7.19538 11.1943C7.07036 11.3193 7.00012 11.4889 7.00012 11.6657C7.00012 11.8425 7.07036 12.012 7.19538 12.1371C7.32041 12.2621 7.48997 12.3323 7.66678 12.3323Z" fill="#320051"/>
</g>
<defs>
<clipPath id="clip0_3150_1380">
<rect width="15.9999" height="15.9999" fill="white" transform="translate(7.00012 7)"/>
</clipPath>
</defs>
</svg>
