<svg width="30" height="30" viewBox="0 0 30 30" fill="none" xmlns="http://www.w3.org/2000/svg">
<path d="M12.5214 8.63053C12.5214 9.53105 11.7914 10.2611 10.8909 10.2611C9.99039 10.2611 9.26038 9.53105 9.26038 8.63053C9.26038 7.73002 9.99039 7 10.8909 7C11.7914 7 12.5214 7.73002 12.5214 8.63053Z" fill="#220136"/>
<path d="M13.8259 8.63053C13.8259 7.73002 14.5559 7 15.4564 7H18.7175C19.618 7 20.348 7.73002 20.348 8.63053C20.348 9.53105 19.618 10.2611 18.7175 10.2611H15.4564C14.5559 10.2611 13.8259 9.53105 13.8259 8.63053Z" fill="#220136"/>
<path d="M12.5214 14.5005C12.5214 15.401 11.7914 16.131 10.8909 16.131C9.99039 16.131 9.26038 15.401 9.26038 14.5005C9.26038 13.5999 9.99039 12.8699 10.8909 12.8699C11.7914 12.8699 12.5214 13.5999 12.5214 14.5005Z" fill="#220136"/>
<path d="M13.8259 14.5005C13.8259 13.5999 14.5559 12.8699 15.4564 12.8699H18.7175C19.618 12.8699 20.348 13.5999 20.348 14.5005C20.348 15.401 19.618 16.131 18.7175 16.131H15.4564C14.5559 16.131 13.8259 15.401 13.8259 14.5005Z" fill="#220136"/>
<path d="M12.5214 20.3704C12.5214 21.2709 11.7914 22.0009 10.8909 22.0009C9.99039 22.0009 9.26038 21.2709 9.26038 20.3704C9.26038 19.4699 9.99039 18.7399 10.8909 18.7399C11.7914 18.7399 12.5214 19.4699 12.5214 20.3704Z" fill="#220136"/>
<path d="M13.8259 20.3704C13.8259 19.4699 14.5559 18.7399 15.4564 18.7399H18.7175C19.618 18.7399 20.348 19.4699 20.348 20.3704C20.348 21.2709 19.618 22.0009 18.7175 22.0009H15.4564C14.5559 22.0009 13.8259 21.2709 13.8259 20.3704Z" fill="#220136"/>
</svg>
