<svg width="26" height="26" viewBox="0 0 26 26" fill="none" xmlns="http://www.w3.org/2000/svg">
<path d="M11.3774 9.05882C11.3774 10.1959 10.4556 11.1176 9.31859 11.1176C8.18153 11.1176 7.25977 10.1959 7.25977 9.05882C7.25977 7.92177 8.18153 7 9.31859 7C10.4556 7 11.3774 7.92177 11.3774 9.05882Z" fill="white"/>
<path d="M13.0245 9.05882C13.0245 7.92177 13.9462 7 15.0833 7H19.2009C20.338 7 21.2598 7.92177 21.2598 9.05882C21.2598 10.1959 20.338 11.1176 19.2009 11.1176H15.0833C13.9462 11.1176 13.0245 10.1959 13.0245 9.05882Z" fill="white"/>
<path d="M11.3774 16.4706C11.3774 17.6076 10.4556 18.5294 9.31859 18.5294C8.18153 18.5294 7.25977 17.6076 7.25977 16.4706C7.25977 15.3335 8.18153 14.4118 9.31859 14.4118C10.4556 14.4118 11.3774 15.3335 11.3774 16.4706Z" fill="white"/>
<path d="M13.0245 16.4706C13.0245 15.3335 13.9462 14.4118 15.0833 14.4118H19.2009C20.338 14.4118 21.2598 15.3335 21.2598 16.4706C21.2598 17.6076 20.338 18.5294 19.2009 18.5294H15.0833C13.9462 18.5294 13.0245 17.6076 13.0245 16.4706Z" fill="white"/>
<path d="M11.3774 23.8824C11.3774 25.0194 10.4556 25.9412 9.31859 25.9412C8.18153 25.9412 7.25977 25.0194 7.25977 23.8824C7.25977 22.7453 8.18153 21.8235 9.31859 21.8235C10.4556 21.8235 11.3774 22.7453 11.3774 23.8824Z" fill="white"/>
<path d="M13.0245 23.8824C13.0245 22.7453 13.9462 21.8235 15.0833 21.8235H19.2009C20.338 21.8235 21.2598 22.7453 21.2598 23.8824C21.2598 25.0194 20.338 25.9412 19.2009 25.9412H15.0833C13.9462 25.9412 13.0245 25.0194 13.0245 23.8824Z" fill="white"/>
</svg>
