<svg width="22" height="18" viewBox="0 0 22 18" fill="none" xmlns="http://www.w3.org/2000/svg">
<path d="M19.1015 3.79733H5.09187C4.33973 3.79733 3.62787 3.4716 3.1349 2.9226C3.61649 2.38498 4.31609 2.04612 5.09187 2.04612H20.8527C21.3369 2.04612 21.7283 1.65386 21.7283 1.17052C21.7283 0.687191 21.3369 0.294922 20.8527 0.294922H5.09187C2.67434 0.294922 0.713867 2.25539 0.713867 4.67293V13.4289C0.713867 15.8465 2.67434 17.807 5.09187 17.807H19.1015C20.5524 17.807 21.7283 16.631 21.7283 15.1801V6.42413C21.7283 4.97326 20.5524 3.79733 19.1015 3.79733ZM19.9771 15.1801C19.9771 15.6626 19.5848 16.0557 19.1015 16.0557H5.09187C3.64363 16.0557 2.46507 14.8772 2.46507 13.4289V4.67118C3.21283 5.23069 4.13221 5.54853 5.09187 5.54853H19.1015C19.5848 5.54853 19.9771 5.94168 19.9771 6.42413V15.1801ZM18.2259 10.8021C18.2259 11.2855 17.8336 11.6777 17.3503 11.6777C16.867 11.6777 16.4747 11.2855 16.4747 10.8021C16.4747 10.3188 16.867 9.92654 17.3503 9.92654C17.8336 9.92654 18.2259 10.3188 18.2259 10.8021Z" fill="white"/>
</svg>
