<svg width="1440" height="1068" viewBox="0 0 1440 1068" fill="none" xmlns="http://www.w3.org/2000/svg">
<path opacity="0.1" d="M713.801 -427.147C738 -429.313 762.068 -429.259 785.931 -427.042C809.773 -423.766 833.459 -418.298 856.968 -410.692C880.542 -402.127 904 -391.552 927.385 -379.178C950.9 -366.025 974.435 -351.278 998.002 -335.095C1021.78 -318.5 1045.68 -300.702 1069.68 -281.915C1093.98 -263.052 1118.42 -243.411 1142.92 -223.155C1167.7 -203.092 1192.52 -182.548 1217.24 -161.666C1242.1 -141.199 1266.7 -120.432 1290.8 -99.4605C1314.7 -79.0079 1337.85 -58.3433 1359.89 -37.5441C1381.29 -17.2686 1401.23 3.19657 1419.34 23.8236C1436.28 43.9441 1450.98 64.304 1463.17 84.9112C1473.69 105.056 1481.37 125.504 1486.04 146.27C1488.87 166.668 1488.62 187.459 1485.24 208.665C1480.29 229.601 1472.53 251.029 1462.15 272.961C1450.92 294.781 1437.71 317.204 1422.86 340.255C1408.31 363.3 1392.96 387.085 1377.29 411.643C1363.13 436.308 1349.69 461.21 1337.28 486.343C1327.1 511.634 1318.19 537.148 1310.59 562.807C1305.29 588.628 1301.1 614.528 1297.87 640.39C1296.48 666.355 1295.54 692.139 1294.77 717.618C1295.13 743.016 1295.07 767.907 1294.29 792.084C1293.85 815.967 1292.21 838.888 1289.16 860.648C1285.8 881.804 1280.72 901.563 1273.84 919.655C1266.31 936.879 1256.84 952.215 1245.55 965.484C1233.44 977.66 1219.54 987.64 1204 995.301C1187.72 1001.87 1169.93 1006.17 1150.81 1008.16C1131.14 1009.34 1110.31 1008.51 1088.53 1005.8C1066.33 1002.88 1043.33 998.578 1019.67 993.217C995.717 988.447 971.241 983.267 946.292 978.002C921.183 974.265 895.69 971.084 869.897 968.758C843.946 968.677 817.722 969.824 791.325 972.286C764.778 977.258 738.059 983.546 711.261 990.942C684.319 1000.37 657.936 1010.16 632.198 1019.83C606.344 1030.4 581.115 1040.01 556.591 1048.28C531.987 1056.18 508.063 1061.97 484.834 1065.43C461.567 1067.55 438.975 1066.89 417.065 1063.32C395.093 1058 373.781 1049.73 353.095 1038.61C332.319 1025.75 312.103 1010.23 292.528 992.394C272.79 973.111 253.589 951.85 235.01 928.933C216.259 905.075 198.072 879.984 180.485 853.926C162.821 827.438 145.759 800.329 129.44 772.847C113.096 745.338 97.5087 717.643 82.7945 689.983C68.2012 662.491 54.5813 635.121 42.0349 607.959C29.7339 581.08 18.612 554.417 8.7428 528.055C-0.718758 501.934 -8.81821 476.069 -15.4481 450.44C-21.6157 425.029 -26.2835 399.804 -29.3761 374.823C-31.9462 349.958 -32.9599 325.23 -32.3419 300.697C-31.2522 276.25 -28.6044 251.913 -24.3248 227.771C-19.7265 203.625 -13.7223 180.242 -6.4706 157.61C0.913096 134.988 9.46499 113.112 19.0229 92.0235C28.4997 70.9558 38.8731 50.7211 50.0621 31.3402C60.9588 11.9652 72.5898 -6.53511 84.846 -24.1154C96.6777 -41.6992 109.108 -58.3648 122.026 -74.0405C134.472 -89.8026 147.436 -104.626 160.836 -118.489C173.797 -132.516 187.253 -145.659 201.203 -157.918C214.75 -170.471 228.853 -182.267 243.491 -193.362C257.867 -204.874 272.839 -215.814 288.462 -226.202C303.917 -237.213 320.061 -247.831 336.921 -258.079C353.702 -269.076 371.236 -279.834 389.521 -290.327C407.782 -301.618 426.823 -312.668 446.559 -323.429C466.347 -334.904 486.825 -346.012 508.01 -356.618C529.175 -367.677 551.009 -378.078 573.443 -387.562C595.831 -397.154 618.799 -405.564 642.226 -412.589C665.626 -419.217 689.489 -424.14 713.774 -427.149" stroke="url(#paint0_linear_2315_53623)" stroke-opacity="0.8" stroke-width="2" stroke-linecap="round" stroke-dasharray="7 1"/>
<defs>
<linearGradient id="paint0_linear_2315_53623" x1="75254.2" y1="4832.43" x2="64589.1" y2="155835" gradientUnits="userSpaceOnUse">
<stop stop-color="#964CC3"/>
<stop offset="1" stop-color="#F42A8B"/>
</linearGradient>
</defs>
</svg>
