<svg width="20" height="20" viewBox="0 0 20 20" fill="none" xmlns="http://www.w3.org/2000/svg">
<g clip-path="url(#clip0_3262_6403)">
<path d="M17.115 5.24786H4.65479C3.98584 5.24786 3.3527 4.95816 2.91426 4.46987C3.34258 3.99172 3.96481 3.69033 4.65479 3.69033H18.6725C19.1031 3.69033 19.4513 3.34145 19.4513 2.91157C19.4513 2.4817 19.1031 2.13281 18.6725 2.13281H4.65479C2.50463 2.13281 0.760986 3.87646 0.760986 6.02662V13.8142C0.760986 15.9644 2.50463 17.708 4.65479 17.708H17.115C18.4054 17.708 19.4513 16.6622 19.4513 15.3718V7.58414C19.4513 6.29373 18.4054 5.24786 17.115 5.24786ZM17.8937 15.3718C17.8937 15.8008 17.5448 16.1505 17.115 16.1505H4.65479C3.36672 16.1505 2.31851 15.1023 2.31851 13.8142V6.02506C2.98357 6.52269 3.80127 6.80538 4.65479 6.80538H17.115C17.5448 6.80538 17.8937 7.15504 17.8937 7.58414V15.3718ZM16.3362 11.4779C16.3362 11.9078 15.9873 12.2567 15.5574 12.2567C15.1276 12.2567 14.7787 11.9078 14.7787 11.4779C14.7787 11.0481 15.1276 10.6992 15.5574 10.6992C15.9873 10.6992 16.3362 11.0481 16.3362 11.4779Z" fill="white"/>
</g>
<defs>
<clipPath id="clip0_3262_6403">
<rect width="18.6903" height="18.6903" fill="white" transform="translate(0.760986 0.574219)"/>
</clipPath>
</defs>
</svg>
