<svg width="1440" height="1391" viewBox="0 0 1440 1391" fill="none" xmlns="http://www.w3.org/2000/svg">
<g clip-path="url(#clip0_2315_53620)">
<path opacity="0.12" d="M655.012 -453.831C679.845 -457.723 704.599 -459.285 729.221 -458.57C753.869 -456.743 778.464 -452.613 802.954 -446.259C827.523 -438.899 852.118 -429.474 876.66 -418.169C901.414 -406.123 926.274 -392.436 951.214 -377.318C976.471 -361.804 1001.91 -345.178 1027.57 -327.572C1053.59 -309.966 1079.86 -291.645 1106.33 -272.769C1133.2 -254.183 1160.26 -235.201 1187.34 -215.874C1214.67 -197.05 1241.88 -177.962 1268.78 -158.661C1295.6 -139.944 1321.76 -120.961 1346.99 -101.74C1371.61 -83.0488 1394.8 -64.0398 1416.27 -44.713C1436.47 -25.8099 1454.45 -6.45656 1469.83 13.3467C1483.39 32.8059 1493.98 52.8474 1501.36 73.4979C1506.66 93.9101 1508.65 114.984 1507.29 136.773C1504.06 158.43 1497.82 180.828 1488.74 204.02C1478.6 227.132 1466.34 251.066 1452.39 275.82C1438.67 300.521 1424.19 326.122 1409.47 352.544C1396.42 378.993 1384.27 405.706 1373.3 432.605C1364.86 459.53 1357.9 486.64 1352.42 513.883C1349.48 541.152 1347.81 568.527 1347.17 595.876C1348.5 623.225 1350.27 650.468 1352.15 677.499C1355.09 704.397 1357.47 730.952 1358.9 756.924C1360.52 782.604 1360.62 807.517 1359.01 831.477C1356.84 854.828 1352.63 876.935 1346.25 897.532C1338.97 917.256 1329.41 935.206 1317.68 951.144C1304.95 965.944 1290.15 978.546 1273.41 988.765C1255.81 997.767 1236.48 1004.36 1215.65 1008.54C1194.17 1011.72 1171.43 1012.7 1147.66 1011.61C1123.49 1010.13 1098.47 1007.14 1072.79 1002.9C1046.92 999.196 1020.58 994.96 993.892 990.619C967.125 987.865 940.121 985.721 913.01 984.503C885.874 985.721 858.684 988.342 831.494 992.498C804.331 999.408 777.194 1007.8 750.11 1017.52C723.026 1029.46 696.604 1041.77 670.897 1054C645.163 1067.1 620.038 1079.15 595.602 1089.66C571.033 1099.67 547.073 1107.29 523.722 1112.27C500.186 1115.71 477.179 1116 454.728 1113.12C432.039 1108.25 409.827 1100.12 388.117 1088.95C366.116 1075.84 344.539 1059.96 323.439 1041.61C302.047 1021.81 281.079 999.964 260.587 976.481C239.804 952.15 219.524 926.602 199.774 900.18C179.812 873.467 160.459 846.224 141.794 818.69C123.049 791.262 105.073 763.754 87.97 736.326C70.9466 709.189 54.9027 682.185 39.9708 655.418C25.3037 628.996 11.8279 602.733 -0.324136 576.682C-12.079 550.922 -22.4043 525.294 -31.2469 499.798C-39.5601 474.488 -46.3641 449.231 -51.5003 424C-56.1334 398.849 -59.1251 373.671 -60.4489 348.494C-61.2961 323.316 -60.5283 298.085 -58.0661 272.828C-55.2862 247.571 -51.0238 222.87 -45.3846 198.778C-39.613 174.685 -32.6236 151.202 -24.5223 128.433C-16.5004 105.691 -7.47236 83.6643 2.42929 62.4578C12.0397 41.2778 22.4708 20.945 33.5903 1.53883C44.2862 -17.8144 55.6705 -36.241 67.6372 -53.688C79.1009 -71.1085 91.1735 -87.5495 103.802 -103.037C115.954 -118.525 128.689 -133.113 142.005 -146.774C154.925 -160.594 168.507 -173.646 182.724 -185.904C196.623 -198.559 211.264 -210.579 226.646 -222.043C241.816 -234.089 257.807 -245.738 274.539 -257.042C291.219 -269.115 308.719 -280.949 327.013 -292.598C345.281 -305.095 364.369 -317.405 384.225 -329.531C404.082 -342.424 424.732 -355.053 446.071 -367.231C467.436 -379.966 489.49 -392.065 512.152 -403.343C534.841 -414.728 558.14 -424.973 581.967 -433.843C605.768 -442.315 630.125 -449.066 654.985 -453.831" stroke="url(#paint0_linear_2315_53620)" stroke-opacity="0.8" stroke-width="2" stroke-linecap="round" stroke-dasharray="6 2"/>
<path opacity="0.1" d="M713.801 -427.147C738 -429.313 762.068 -429.259 785.931 -427.042C809.773 -423.766 833.459 -418.298 856.968 -410.692C880.542 -402.127 904 -391.552 927.385 -379.178C950.9 -366.025 974.435 -351.278 998.002 -335.095C1021.78 -318.5 1045.68 -300.702 1069.68 -281.915C1093.98 -263.052 1118.42 -243.411 1142.92 -223.155C1167.7 -203.092 1192.52 -182.548 1217.24 -161.666C1242.1 -141.199 1266.7 -120.432 1290.8 -99.4605C1314.7 -79.0079 1337.85 -58.3433 1359.89 -37.5441C1381.29 -17.2686 1401.23 3.19657 1419.34 23.8236C1436.28 43.9441 1450.98 64.304 1463.17 84.9112C1473.69 105.056 1481.37 125.504 1486.04 146.27C1488.87 166.668 1488.62 187.459 1485.24 208.665C1480.29 229.601 1472.53 251.029 1462.15 272.961C1450.92 294.781 1437.71 317.204 1422.86 340.255C1408.31 363.3 1392.96 387.085 1377.29 411.643C1363.13 436.308 1349.69 461.21 1337.28 486.343C1327.1 511.634 1318.19 537.148 1310.59 562.807C1305.29 588.628 1301.1 614.528 1297.87 640.39C1296.48 666.355 1295.54 692.139 1294.77 717.618C1295.13 743.016 1295.07 767.907 1294.29 792.084C1293.85 815.967 1292.21 838.888 1289.16 860.648C1285.8 881.804 1280.72 901.563 1273.84 919.655C1266.31 936.879 1256.84 952.215 1245.55 965.484C1233.44 977.66 1219.54 987.64 1204 995.301C1187.72 1001.87 1169.93 1006.17 1150.81 1008.16C1131.14 1009.34 1110.31 1008.51 1088.53 1005.8C1066.33 1002.88 1043.33 998.578 1019.67 993.217C995.717 988.447 971.241 983.267 946.292 978.002C921.183 974.265 895.69 971.084 869.897 968.758C843.946 968.677 817.722 969.824 791.325 972.286C764.778 977.258 738.059 983.546 711.261 990.942C684.319 1000.37 657.936 1010.16 632.198 1019.83C606.344 1030.4 581.115 1040.01 556.591 1048.28C531.987 1056.18 508.063 1061.97 484.834 1065.43C461.567 1067.55 438.975 1066.89 417.065 1063.32C395.093 1058 373.781 1049.73 353.095 1038.61C332.319 1025.75 312.103 1010.23 292.528 992.394C272.79 973.111 253.589 951.85 235.01 928.933C216.259 905.075 198.072 879.984 180.485 853.926C162.821 827.438 145.759 800.329 129.44 772.847C113.096 745.338 97.5087 717.643 82.7945 689.983C68.2012 662.491 54.5813 635.121 42.0349 607.959C29.7339 581.08 18.612 554.417 8.7428 528.055C-0.718758 501.934 -8.81821 476.069 -15.4481 450.44C-21.6157 425.029 -26.2835 399.804 -29.3761 374.823C-31.9462 349.958 -32.9599 325.23 -32.3419 300.697C-31.2522 276.25 -28.6044 251.913 -24.3248 227.771C-19.7265 203.625 -13.7223 180.242 -6.4706 157.61C0.913096 134.988 9.46499 113.112 19.0229 92.0235C28.4997 70.9558 38.8731 50.7211 50.0621 31.3402C60.9588 11.9652 72.5898 -6.53511 84.846 -24.1154C96.6777 -41.6992 109.108 -58.3648 122.026 -74.0405C134.472 -89.8026 147.436 -104.626 160.836 -118.489C173.797 -132.516 187.253 -145.659 201.203 -157.918C214.75 -170.471 228.853 -182.267 243.491 -193.362C257.867 -204.874 272.839 -215.814 288.462 -226.202C303.917 -237.213 320.061 -247.831 336.921 -258.079C353.702 -269.076 371.236 -279.834 389.521 -290.327C407.782 -301.618 426.823 -312.668 446.559 -323.429C466.347 -334.904 486.825 -346.012 508.01 -356.618C529.175 -367.677 551.009 -378.078 573.443 -387.562C595.831 -397.154 618.799 -405.564 642.226 -412.589C665.626 -419.217 689.489 -424.14 713.774 -427.149" stroke="url(#paint1_linear_2315_53620)" stroke-opacity="0.8" stroke-width="2" stroke-linecap="round" stroke-dasharray="7 1"/>
<path opacity="0.72" d="M770.325 -396.001C793.823 -396.516 817.106 -394.949 840.12 -391.307C863.023 -386.692 885.734 -379.965 908.187 -371.242C930.616 -361.587 952.851 -350.007 974.942 -336.656C997.116 -322.571 1019.2 -306.895 1041.19 -289.841C1063.35 -272.282 1085.51 -253.573 1107.63 -233.853C1130 -213.939 1152.36 -193.25 1174.62 -171.905C1197.12 -150.662 1219.46 -128.906 1241.56 -106.809C1263.71 -85.0259 1285.42 -62.9583 1306.52 -40.7366C1327.36 -18.9527 1347.3 2.94426 1366.09 24.9171C1384.19 46.3664 1400.77 67.8657 1415.55 89.404C1429.2 110.382 1440.68 131.399 1449.73 152.418C1457.33 172.936 1462.24 193.502 1464.34 214.123C1464.85 234.304 1462.5 254.64 1457.29 275.08C1450.77 295.226 1441.65 315.59 1430.13 336.257C1417.94 356.748 1403.9 377.671 1388.36 399.022C1373.1 420.415 1357.06 442.392 1340.59 465.028C1325.5 487.836 1310.97 510.883 1297.31 534.078C1285.65 557.613 1275.04 581.322 1265.56 605.14C1258.18 629.254 1251.75 653.425 1246.19 677.531C1242.37 701.777 1239.01 725.821 1235.9 749.446C1233.89 773.039 1231.61 796.034 1228.86 818.213C1226.56 840.107 1223.34 860.908 1219.04 880.46C1214.61 899.406 1208.82 916.847 1201.56 932.582C1189.25 953.938 1155.97 985.074 1135.21 994.426C1120.31 998.97 1104.11 1001.35 1086.75 1001.61C1068.91 1001.22 1050.03 998.967 1030.24 995.061C1010.06 991.02 989.094 985.77 967.433 979.566C945.465 974.014 922.852 968.103 899.716 962.118C876.266 957.586 852.323 953.518 827.953 950.192C803.267 948.907 778.162 948.685 752.737 949.595C726.965 952.755 700.906 956.998 674.63 962.199C648.068 969.231 622 976.547 596.449 983.803C570.756 991.868 545.688 999.113 521.293 1005.2C496.856 1011.01 473.137 1014.96 450.217 1016.87C427.322 1017.66 405.208 1015.96 383.885 1011.71C362.647 1005.91 342.167 997.415 322.482 986.331C302.807 973.67 283.882 958.549 265.696 941.233C247.517 922.555 229.984 901.962 213.161 879.76C196.315 856.591 180.13 832.152 164.622 806.713C149.102 780.791 134.301 754.142 120.229 727.062C106.206 699.828 92.9915 672.361 80.6642 644.86C68.4606 617.43 57.2342 590.085 47.0452 562.968C37.1259 536.023 28.345 509.346 20.7738 483.001C13.596 456.9 7.71384 431.089 3.2436 405.693C-0.795915 380.464 -3.38615 355.576 -4.44848 331.038C-5.05387 306.671 -4.15384 282.626 -1.69969 258.935C1.19635 235.333 5.60154 212.025 11.5309 189.095C17.7748 166.209 25.3112 144.202 34.0316 123.085C42.8605 101.957 52.7422 81.6996 63.5421 62.3218C74.2633 42.9328 85.8202 24.4379 98.0519 6.84106C110.074 -10.7856 122.718 -27.5217 135.869 -43.3035C148.686 -59.1861 161.961 -74.148 175.663 -88.1668C188.958 -102.324 202.661 -115.594 216.743 -127.954C230.405 -140.561 244.458 -152.338 258.934 -163.332C273.055 -174.644 287.64 -185.275 302.664 -195.229C317.437 -205.673 332.772 -215.556 348.65 -224.934C364.352 -234.952 380.69 -244.559 397.669 -253.78C414.565 -263.736 432.169 -273.404 450.425 -282.765C468.706 -292.871 487.691 -302.664 507.321 -312.098C526.992 -322.194 547.344 -331.819 568.284 -340.88C589.258 -350.363 610.817 -359.068 632.889 -366.872C654.965 -374.701 677.514 -381.341 700.483 -386.61C723.393 -391.46 746.66 -394.682 770.296 -395.979" stroke="url(#paint2_linear_2315_53620)" stroke-opacity="0.8" stroke-width="2" stroke-linecap="round" stroke-dasharray="9 4"/>
<path opacity="0.79" d="M823.936 -360.465C846.629 -359.464 869.03 -356.468 891.117 -351.508C913.015 -345.669 934.64 -337.802 955.917 -328.061C977.109 -317.418 998.046 -304.96 1018.73 -290.824C1039.4 -275.961 1059.89 -259.538 1080.2 -241.772C1100.57 -223.533 1120.82 -204.101 1140.94 -183.669C1161.18 -163.022 1181.26 -141.542 1201.15 -119.425C1221.13 -97.3437 1240.85 -74.7779 1260.16 -51.8387C1279.43 -29.1234 1298.14 -6.17709 1316.1 16.8779C1333.76 39.5445 1350.44 62.2699 1365.87 84.9724C1380.65 107.183 1393.91 129.309 1405.38 151.296C1415.8 172.734 1424.18 194.028 1430.28 215.134C1435.05 235.708 1437.35 256.132 1437.04 276.374C1435.37 296.134 1431.12 315.801 1424.25 335.395C1416.29 354.589 1405.98 373.848 1393.51 393.186C1380.49 412.35 1365.77 431.718 1349.65 451.41C1333.86 471.116 1317.23 491.293 1300.17 511.973C1284.33 532.915 1268.91 554.002 1254.23 575.22C1241.31 596.815 1229.3 618.553 1218.22 640.383C1209.04 662.592 1200.72 684.798 1193.16 706.895C1187.21 729.201 1181.74 751.235 1176.54 772.809C1172.47 794.411 1168.28 815.309 1163.79 835.331C1159.84 855.116 1155.24 873.761 1149.85 891.07C1141.31 915.448 1118.32 954.65 1103.55 968.835C1086.95 979.676 1047.11 989.67 1024.15 989.018C1008.11 987.441 991.102 984.168 973.292 979.341C955.066 974.561 936.082 968.643 916.409 961.9C896.327 955.8 875.584 949.369 854.241 942.836C832.495 937.679 810.125 932.902 787.222 928.714C763.867 926.38 740.001 924.91 715.64 924.363C690.87 925.841 665.668 928.2 640.112 931.323C614.206 936.077 588.681 941.075 563.609 945.981C538.344 951.657 513.665 956.621 489.64 960.56C465.571 964.327 442.277 966.5 419.782 966.842C397.394 966.312 375.862 963.557 355.219 958.555C334.731 952.206 315.106 943.469 296.361 932.403C277.813 919.918 260.07 905.195 243.203 888.412C226.435 870.406 210.468 850.567 195.296 829.167C180.242 806.843 165.896 783.237 152.358 758.64C138.886 733.488 126.166 707.604 114.284 681.224C102.479 654.616 91.5179 627.729 81.4725 600.74C71.614 573.765 62.6892 546.855 54.785 520.11C47.1951 493.541 40.6609 467.225 35.3469 441.28C30.399 415.522 26.6713 390.134 24.2766 365.222C22.3311 340.487 21.7243 316.203 22.5594 292.391C23.818 268.751 26.5242 245.557 30.6984 222.841C35.2756 200.265 41.269 178.156 48.6989 156.546C56.4395 135.002 65.3556 114.414 75.3272 94.8383C85.4078 75.259 96.4255 56.612 108.266 38.9269C120.06 21.2048 132.572 4.42248 145.701 -11.4425C158.627 -27.3779 172.086 -42.3866 186.025 -56.4798C199.613 -70.7026 213.635 -84.0469 227.982 -96.509C241.958 -109.132 256.295 -120.919 270.917 -131.887C285.169 -143.151 299.769 -153.637 314.727 -163.395C329.332 -173.527 344.343 -183.03 359.735 -191.91C374.885 -201.303 390.521 -210.184 406.644 -218.556C422.635 -227.578 439.16 -236.187 456.251 -244.404C473.306 -253.334 490.963 -261.917 509.223 -270.154C527.518 -279.06 546.416 -287.621 565.925 -295.752C585.474 -304.443 605.644 -312.622 626.335 -320.202C647.035 -328.077 668.275 -335.187 689.979 -341.303C711.636 -347.457 733.687 -352.415 756.113 -355.967C778.435 -359.162 801.029 -360.727 823.91 -360.471" stroke="url(#paint3_linear_2315_53620)" stroke-opacity="0.8" stroke-width="2" stroke-linecap="round" stroke-dasharray="7 3"/>
<path opacity="0.92" d="M873.996 -320.8C895.81 -318.365 917.247 -314.055 938.287 -307.903C959.092 -300.937 979.544 -292.089 999.564 -281.464C1019.42 -270.004 1038.94 -256.795 1058.12 -242.031C1077.2 -226.526 1095.99 -209.585 1114.47 -191.358C1132.96 -172.603 1151.18 -152.716 1169.14 -131.854C1187.12 -110.741 1204.84 -88.8478 1222.2 -66.2865C1239.58 -43.7178 1256.53 -20.6961 1272.96 2.69812C1289.29 25.8956 1304.92 49.2796 1319.73 72.7551C1334.19 95.8838 1347.6 118.979 1359.73 141.983C1371.24 164.475 1381.25 186.809 1389.53 208.86C1396.88 230.369 1402.28 251.587 1405.55 272.463C1407.69 292.763 1407.54 312.761 1405.05 332.408C1401.38 351.523 1395.37 370.371 1387.06 388.966C1377.82 407.155 1366.49 425.234 1353.19 443.182C1339.48 460.987 1324.25 478.818 1307.71 496.819C1291.48 514.858 1274.48 533.221 1256.98 551.939C1240.55 570.966 1224.51 590.079 1209.01 609.237C1195.09 628.826 1181.91 648.52 1169.57 668.206C1158.9 688.379 1148.97 708.463 1139.76 728.343C1132.03 748.566 1124.76 768.428 1117.83 787.782C1111.97 807.227 1106.14 825.934 1100.18 843.724C1094.87 861.312 1089.08 877.747 1082.77 892.87C1073.24 914.061 1049.94 947.194 1035.88 958.612C1020.48 966.966 984.323 972.834 963.733 970.644C949.392 968.198 934.177 964.202 918.203 958.829C901.847 953.539 884.731 947.256 866.938 940.17C848.695 933.782 829.734 927.019 810.121 920.123C790.032 914.495 769.258 909.137 747.856 904.231C725.892 900.981 703.326 898.383 680.211 896.537C656.529 896.455 632.372 897.063 607.744 898.251C582.721 900.896 557.982 903.705 533.599 906.425C509.009 909.857 484.964 912.647 461.537 914.541C438.074 916.37 415.376 916.794 393.52 915.643C371.788 913.783 350.949 909.977 331.038 904.208C311.376 897.297 292.626 888.281 274.866 877.181C257.376 864.863 240.785 850.491 225.168 834.278C209.749 816.91 195.252 797.88 181.618 777.391C168.184 756.023 155.581 733.406 143.836 709.826C132.285 685.668 121.527 660.775 111.661 635.369C101.96 609.68 93.1259 583.663 85.2341 557.533C77.5497 531.353 70.8217 505.202 65.1148 479.237C59.7058 453.386 55.3614 427.76 52.1392 402.542C49.2838 377.486 47.6341 352.834 47.2118 328.704C47.1996 304.774 48.4802 281.33 51.0824 258.462C54.1276 235.777 58.4763 213.635 64.1975 192.084C70.3182 170.676 77.735 149.837 86.5095 129.639C95.5711 109.497 105.672 90.4276 116.712 72.4021C127.86 54.3807 139.852 37.3479 152.579 21.2998C165.254 5.2369 178.57 -9.89621 192.41 -24.0782C206.061 -38.37 220.192 -51.7509 234.727 -64.2429C248.954 -76.907 263.534 -88.6969 278.423 -99.6529C292.961 -110.821 307.804 -121.239 322.889 -130.871C337.651 -140.816 352.709 -150.069 368.044 -158.664C383.104 -167.641 398.471 -176.06 414.189 -183.882C429.727 -192.224 445.652 -200.096 461.99 -207.49C478.229 -215.492 494.961 -223.102 512.152 -230.304C529.343 -238.168 547.06 -245.658 565.321 -252.743C583.598 -260.457 602.42 -267.765 621.789 -274.584C641.196 -281.916 661.121 -288.656 681.516 -294.737C701.909 -301.093 722.778 -306.623 743.99 -311.144C765.176 -315.672 786.695 -318.974 808.46 -320.936C830.097 -322.549 851.957 -322.555 873.97 -320.807" stroke="url(#paint4_linear_2315_53620)" stroke-opacity="0.8" stroke-width="2" stroke-linecap="round" stroke-dasharray="3 7"/>
<path opacity="0.38" d="M919.846 -277.369C940.696 -273.619 961.073 -268.124 980.962 -260.919C1000.59 -252.935 1019.76 -243.231 1038.45 -231.842C1056.89 -219.698 1074.91 -205.958 1092.49 -190.717C1109.88 -174.81 1126.88 -157.526 1143.49 -139.031C1160 -120.036 1176.14 -99.9635 1191.86 -78.9744C1207.53 -57.6936 1222.79 -35.6884 1237.57 -13.0697C1252.28 9.60523 1266.48 32.742 1280 56.1679C1293.36 79.4462 1305.95 102.869 1317.63 126.322C1328.93 149.436 1339.18 172.501 1348.15 195.351C1356.5 217.747 1363.4 239.863 1368.68 261.611C1373.13 282.797 1375.75 303.592 1376.42 323.924C1376.08 343.69 1373.75 363.001 1369.26 381.801C1363.79 400.101 1356.28 417.987 1346.67 435.44C1336.32 452.535 1324.13 469.347 1310.2 485.888C1295.96 502.285 1280.33 518.598 1263.51 534.89C1247.01 551.276 1229.76 567.807 1212.02 584.582C1195.22 601.729 1178.69 618.81 1162.68 635.881C1147.98 653.437 1133.94 670.979 1120.62 688.477C1108.75 706.48 1097.58 724.345 1087.06 741.971C1077.87 759.973 1069.13 777.578 1060.8 794.627C1053.49 811.824 1046.31 828.254 1039.16 843.789C1029.28 866.335 1008.53 904.569 997.101 919.604C985.097 932.141 957.397 947.395 941.569 950.006C924.647 950.071 886.598 941.544 865.533 933.625C850.885 928.123 835.497 921.643 819.435 914.464C802.919 907.907 785.659 900.993 767.701 893.906C749.215 887.951 729.994 882.148 710.094 876.66C689.58 872.611 668.372 869.067 646.554 866.033C624.135 864.555 601.139 863.57 577.653 862.997C553.692 863.716 529.955 864.517 506.514 865.202C482.836 866.533 459.619 867.3 437.029 867.282C414.405 867.28 392.49 866.044 371.436 863.46C350.51 860.302 330.505 855.481 311.442 848.947C292.666 841.475 274.887 832.14 258.134 821.011C241.691 808.812 226.25 794.808 211.815 779.144C197.695 762.468 184.527 744.28 172.339 724.731C160.419 704.378 149.431 682.873 139.351 660.433C129.521 637.464 120.595 613.728 112.58 589.509C104.817 564.987 97.9354 540.141 92.0134 515.14C86.3697 490.072 81.6649 464.983 77.9591 440.092C74.6037 415.246 72.2539 390.657 70.9973 366.47C70.0886 342.411 70.3386 318.806 71.7198 295.731C73.5142 272.835 76.5144 250.497 80.7518 228.782C85.3684 207.264 91.2313 186.345 98.338 166.11C105.817 146.011 114.516 126.587 124.433 107.837C134.623 89.1878 145.76 71.648 157.683 55.1878C169.741 38.7485 182.529 23.3118 195.931 8.89073C209.327 -5.58918 223.271 -19.1057 237.664 -31.6954C251.901 -44.3988 266.571 -56.2093 281.526 -67.1819C296.284 -78.3113 311.32 -88.6615 326.59 -98.192C341.592 -107.99 356.865 -117.069 372.291 -125.413C387.486 -134.125 402.92 -142.185 418.578 -149.626C433.998 -157.494 449.728 -164.824 465.71 -171.61C481.548 -178.928 497.724 -185.784 514.263 -192.168C530.736 -199.14 547.623 -205.706 564.925 -211.865C582.196 -218.629 599.974 -225.008 618.182 -230.947C636.424 -237.437 655.147 -243.469 674.331 -248.993C693.527 -254.934 713.183 -260.284 733.219 -264.902C753.253 -269.746 773.646 -273.724 794.352 -276.713C814.955 -279.654 835.833 -281.423 856.87 -281.864C877.746 -281.941 898.767 -280.498 919.821 -277.378" stroke="url(#paint5_linear_2315_53620)" stroke-opacity="0.8" stroke-width="2" stroke-linecap="round" stroke-dasharray="1 10"/>
<path opacity="0.24" d="M960.859 -230.691C980.612 -225.745 999.862 -219.168 1018.52 -211.027C1036.91 -202.199 1054.71 -191.771 1071.97 -179.792C1088.95 -167.151 1105.4 -153.007 1121.3 -137.489C1136.98 -121.37 1152.15 -103.998 1166.8 -85.4679C1181.3 -66.4569 1195.3 -46.4779 1208.76 -25.6359C1222.11 -4.5283 1234.93 17.2998 1247.14 39.6384C1259.22 62.0651 1270.66 84.8973 1281.38 107.984C1291.83 130.927 1301.49 153.974 1310.18 176.989C1318.47 199.712 1325.68 222.325 1331.67 244.62C1337.08 266.511 1341.1 288.033 1343.58 309.096C1345.35 329.667 1345.43 349.737 1343.74 369.215C1341.25 388.157 1336.89 406.547 1330.66 424.326C1323.65 441.639 1314.79 458.411 1304.11 474.652C1292.87 490.525 1279.94 506.016 1265.54 521.105C1250.9 536.085 1235.02 550.83 1218.1 565.453C1201.46 580.17 1184.14 594.963 1166.32 609.788C1149.33 625.017 1132.55 640.108 1116.22 655.085C1101.03 670.573 1086.37 685.981 1072.37 701.278C1059.64 717.093 1047.51 732.682 1036.03 748.008C1025.69 763.737 1015.84 779.045 1006.45 793.776C993.846 815.83 970.466 855.505 959.128 872.495C936.411 899.025 898.56 921.702 884.092 922.882C868.777 921.88 834.705 912.172 815.89 904.049C802.748 898.48 788.93 892.026 774.467 884.875C759.496 878.337 743.809 871.39 727.414 864.212C710.468 858.062 692.729 851.933 674.309 845.963C655.254 841.274 635.453 836.887 615.002 832.847C593.929 830.124 572.242 827.734 550.043 825.579C527.333 824.557 504.741 823.531 482.44 822.375C459.868 821.822 437.747 820.718 416.156 818.952C394.544 817.234 373.635 814.469 353.544 810.533C333.613 806.176 314.561 800.384 296.491 793.119C278.7 785.109 261.945 775.503 246.228 764.304C230.854 752.213 216.53 738.563 203.273 723.448C190.372 707.477 178.504 690.113 167.667 671.558C157.155 652.278 147.633 631.964 139.082 610.78C130.843 589.098 123.559 566.713 117.227 543.827C111.191 520.669 106.09 497.177 101.954 473.539C98.1361 449.84 95.2645 426.103 93.3816 402.492C91.8342 378.974 91.3153 355.687 91.8188 332.773C92.6711 309.986 94.6206 287.665 97.6347 265.882C101.059 244.283 105.562 223.256 111.227 202.87C117.258 182.706 124.428 163.17 132.753 144.359C141.416 125.699 151.174 107.765 162.088 90.5548C173.233 73.4771 185.192 57.4921 197.858 42.5804C210.645 27.723 224.054 13.8714 237.976 1.0061C251.944 -11.8966 266.354 -23.8456 281.155 -34.9217C295.833 -46.1113 310.878 -56.439 326.182 -65.9239C341.299 -75.6383 356.672 -84.5692 372.242 -92.7734C387.586 -101.253 403.148 -109.054 418.868 -116.174C434.383 -123.676 450.112 -130.56 466.006 -136.905C481.74 -143.67 497.733 -149.913 513.911 -155.665C530.022 -161.912 546.424 -167.709 563.103 -173.09C579.761 -179.004 596.755 -184.505 614.086 -189.593C631.454 -195.216 649.195 -200.439 667.309 -205.204C685.463 -210.444 704.04 -215.203 722.948 -219.407C741.9 -223.969 761.198 -227.881 780.81 -231.071C800.415 -234.438 820.269 -236.939 840.34 -238.441C860.331 -239.892 880.464 -240.177 900.685 -239.173C920.716 -237.877 940.797 -235.078 960.824 -230.677" stroke="url(#paint6_linear_2315_53620)" stroke-opacity="0.8" stroke-width="2" stroke-linecap="round" stroke-dasharray="10 6"/>
<path opacity="0.25" d="M996.379 -181.364C1015 -175.346 1033 -167.854 1050.37 -158.9C1067.44 -149.387 1083.84 -138.401 1099.6 -126.012C1115.07 -113.029 1129.9 -98.6785 1144.08 -83.08C1158.02 -66.9559 1171.36 -49.6769 1184.05 -31.3631C1196.52 -12.6296 1208.41 7.02228 1219.66 27.4489C1230.71 48.0944 1241.14 69.3964 1250.9 91.1523C1260.41 112.984 1269.22 135.161 1277.24 157.54C1284.99 179.781 1291.83 202.101 1297.74 224.31C1303.24 246.27 1307.65 268.031 1310.87 289.426C1313.59 310.461 1314.99 331.055 1314.97 351.156C1314.32 370.74 1312.17 389.782 1308.42 408.208C1304 426.092 1297.92 443.358 1290.2 459.947C1281.84 476.103 1271.89 491.642 1260.35 506.541C1248.36 521.131 1234.96 535.241 1220.22 548.895C1205.34 562.415 1189.37 575.618 1172.48 588.569C1155.87 601.67 1138.6 614.657 1120.9 627.618C1103.88 640.979 1087.08 654.099 1070.66 667.027C1055.19 680.471 1040.22 693.763 1025.82 706.883C1012.49 720.485 999.762 733.868 987.597 746.925C976.438 760.402 965.79 773.433 955.61 785.874C941.759 804.577 916.313 837.906 904.284 851.938C881.109 873.501 844.657 890.628 831.342 890.68C817.382 888.911 786.718 878.517 769.82 870.418C751.801 861.777 711.831 841.746 689.749 831.158C674.229 824.913 657.954 818.562 640.967 812.25C623.332 807.031 604.97 801.933 585.94 797.016C566.283 793.264 545.994 789.624 525.193 786.1C503.854 783.518 482.635 780.881 461.645 778.097C440.344 775.836 419.484 773.091 399.104 769.733C378.697 766.48 358.957 762.324 339.993 757.172C321.169 751.705 303.233 745.032 286.248 737.096C269.576 728.578 253.904 718.703 239.292 707.475C225.032 695.534 211.844 682.216 199.748 667.651C188.041 652.364 177.376 635.864 167.786 618.318C158.581 600.168 150.399 581.065 143.259 561.2C136.452 540.883 130.634 519.956 125.803 498.537C121.322 476.916 117.787 454.932 115.238 432.847C113.012 410.665 111.757 388.465 111.482 366.401C111.537 344.394 112.58 322.618 114.631 301.204C117.02 279.942 120.439 259.114 124.897 238.814C129.681 218.69 135.537 199.143 142.416 180.266C149.668 161.59 157.942 143.584 167.272 126.297C176.893 109.196 187.571 92.8142 199.256 77.1848C211.162 61.7041 223.782 47.299 236.998 33.966C250.32 20.6599 264.203 8.37739 278.544 -2.96746C292.874 -14.3482 307.615 -24.8163 322.684 -34.3862C337.687 -44.1121 352.974 -53.0241 368.462 -61.1364C383.861 -69.4763 399.441 -77.0883 415.176 -83.985C430.779 -91.1935 446.54 -97.746 462.438 -103.714C478.179 -110.006 494.118 -115.771 510.182 -120.988C526.153 -126.646 542.311 -131.812 558.644 -136.523C574.92 -141.686 591.444 -146.415 608.204 -150.746C624.943 -155.54 641.99 -159.957 659.309 -163.928C676.654 -168.395 694.329 -172.415 712.298 -175.975C730.28 -179.95 748.625 -183.428 767.19 -186.307C785.812 -189.517 804.698 -192.043 823.787 -193.829C842.833 -195.758 862.101 -196.815 881.46 -196.923C900.709 -196.939 920.019 -195.839 939.305 -193.521C958.428 -190.899 977.461 -186.882 996.356 -181.377" stroke="url(#paint7_linear_2315_53620)" stroke-opacity="0.8" stroke-width="2" stroke-linecap="round" stroke-dasharray="10 1"/>
<path opacity="0.48" d="M1025.94 -130.149C1043.36 -123.206 1060.07 -114.917 1076.06 -105.369C1091.74 -95.2918 1106.71 -83.9054 1120.93 -71.2744C1134.85 -58.1146 1148.06 -43.7407 1160.56 -28.2847C1172.74 -12.3364 1184.23 4.61269 1195.01 22.4896C1205.55 40.7469 1215.36 59.8 1224.48 79.5088C1233.35 99.4436 1241.51 119.925 1248.89 140.791C1256.03 161.752 1262.41 182.958 1267.9 204.289C1273.14 225.523 1277.44 246.757 1280.78 267.86C1283.74 288.686 1285.65 309.287 1286.44 329.488C1286.74 349.356 1285.85 368.746 1283.62 387.574C1280.88 405.957 1276.79 423.764 1271.27 440.855C1265.22 457.511 1257.72 473.475 1248.78 488.746C1239.36 503.588 1228.52 517.788 1216.33 531.315C1203.82 544.548 1190.08 557.253 1175.2 569.39C1160.24 581.449 1144.35 593.14 1127.63 604.462C1111.19 615.953 1094.15 627.231 1076.7 638.372C1059.86 649.895 1043.21 661.105 1026.87 672.073C1011.39 683.519 996.345 694.772 981.792 705.74C968.185 717.245 955.071 728.466 942.543 739.305C925.315 756.038 894.338 787.223 880.328 801.198C855.312 825.19 819.901 849.717 808.137 853.208C783.655 853.478 743.162 841.174 727.931 833.261C711.593 824.867 675.365 805.425 655.27 794.998C641.054 788.698 626.151 782.246 610.547 775.663C594.312 770.029 577.379 764.359 559.808 758.757C541.598 754.065 522.778 749.396 503.488 744.679C483.651 740.776 463.886 736.761 444.343 732.543C424.488 728.816 405.004 724.603 386.022 719.894C366.97 715.296 348.53 709.927 330.856 703.696C313.31 697.262 296.591 689.818 280.838 681.292C265.339 672.364 250.841 662.252 237.373 651.006C224.281 639.215 212.257 626.281 201.294 612.265C190.757 597.673 181.276 582.056 172.875 565.526C164.88 548.5 157.931 530.664 152.038 512.149C146.504 493.265 142 473.842 138.514 453.999C135.346 433.95 133.193 413.634 132.014 393.214C131.164 372.719 131.282 352.18 132.382 331.823C133.799 311.51 136.182 291.401 139.552 271.665C143.218 252.055 147.878 232.854 153.506 214.203C159.462 195.727 166.371 177.824 174.287 160.558C182.48 143.498 191.666 127.097 201.802 111.423C212.214 95.9553 223.568 81.1774 235.845 67.1708C248.345 53.3057 261.428 40.499 275.042 28.6859C288.732 16.9518 302.921 6.16063 317.479 -3.67721C332.064 -13.5598 346.993 -22.5985 362.193 -30.7771C377.345 -39.0794 392.766 -46.6168 408.364 -53.4461C423.872 -60.4274 439.563 -66.7595 455.38 -72.4482C471.081 -78.3985 486.95 -83.7726 502.928 -88.5764C518.809 -93.7231 534.828 -98.3443 550.954 -102.491C567.034 -107.01 583.272 -111.086 599.645 -114.731C616.023 -118.781 632.586 -122.431 649.336 -125.681C666.082 -129.372 683.081 -132.621 700.267 -135.471C717.53 -138.741 735.009 -141.561 752.714 -143.894C770.468 -146.603 788.44 -148.766 806.595 -150.375C824.782 -152.184 843.145 -153.38 861.622 -153.814C880.052 -154.372 898.584 -154.052 917.13 -152.813C935.538 -151.506 953.958 -149.126 972.236 -145.582C990.308 -141.761 1008.25 -136.645 1025.92 -130.163" stroke="url(#paint8_linear_2315_53620)" stroke-opacity="0.8" stroke-width="2" stroke-linecap="round" stroke-dasharray="2 8"/>
<path opacity="0.25" d="M1049.19 -77.876C1065.3 -70.156 1080.67 -61.2803 1095.25 -51.2645C1109.51 -40.801 1123 -29.1603 1135.7 -16.4907C1148.08 -3.33636 1159.67 10.8841 1170.45 26.0224C1180.96 41.5816 1190.67 58.0373 1199.59 75.2574C1208.24 92.8028 1216.13 111.033 1223.24 129.815C1230.08 148.791 1236.1 168.213 1241.35 187.923C1246.31 207.714 1250.44 227.688 1253.71 247.717C1256.67 267.68 1258.72 287.535 1259.8 307.234C1260.56 326.698 1260.28 345.885 1258.92 364.647C1257.18 383.09 1254.3 401.024 1250.26 418.397C1245.75 435.366 1240.04 451.705 1233.1 467.34C1225.7 482.608 1217.06 497.157 1207.19 510.964C1196.93 524.415 1185.48 537.194 1172.91 549.273C1160.05 561.111 1146.16 572.387 1131.35 583.045C1116.45 593.678 1100.76 603.826 1084.4 613.582C1068.24 623.48 1051.58 633.112 1034.59 642.493C1018.06 652.256 1001.75 661.646 985.761 670.722C970.437 680.283 955.523 689.556 941.078 698.548C920.811 712.592 883.948 739.534 867.306 752.136C852.103 764.614 824.395 786.264 811.616 795.004C788.067 807.88 753.777 815.873 742.119 814.293C717.381 806.142 675.784 784.987 659.921 775.544C642.771 766.239 604.688 746.52 583.608 736.525C568.707 730.552 553.202 724.463 537.07 718.241C520.342 712.83 503.068 707.313 485.31 701.604C467.034 696.598 448.862 691.407 430.847 686.002C412.556 681.017 394.599 675.623 377.12 669.758C359.526 664.005 342.572 657.605 326.284 650.48C310.112 643.242 294.774 635.14 280.285 626.15C266.075 616.872 252.836 606.633 240.589 595.447C228.678 583.851 217.796 571.302 208.007 557.85C198.606 543.959 190.273 529.244 182.992 513.725C176.146 497.837 170.333 481.262 165.553 464.132C161.161 446.697 157.82 428.818 155.449 410.602C153.469 392.214 152.462 373.621 152.438 354.897C152.754 336.16 154.017 317.43 156.229 298.84C158.77 280.295 162.239 262.006 166.649 244.048C171.383 226.23 177.026 208.785 183.585 191.882C190.452 175.141 198.219 158.964 206.913 143.403C215.863 128.031 225.708 113.318 236.417 99.307C247.383 85.4843 259.212 72.3634 271.911 59.9814C284.765 47.7462 298.152 36.5284 311.965 26.2492C325.886 16.0486 340.227 6.7496 354.852 -1.68344C369.534 -10.1064 384.526 -17.7432 399.715 -24.5768C414.904 -31.5428 430.3 -37.7639 445.871 -43.3301C461.383 -49.0387 477.043 -54.145 492.83 -58.6647C508.546 -63.4008 524.4 -67.6086 540.332 -71.2981C556.198 -75.2995 572.195 -78.8097 588.319 -81.8656C604.37 -85.2703 620.6 -88.2476 636.913 -90.8021C653.222 -93.7537 669.71 -96.278 686.328 -98.4434C702.97 -100.953 719.785 -103.073 736.778 -104.765C753.773 -106.817 770.968 -108.426 788.31 -109.565C805.687 -110.975 823.217 -111.878 840.837 -112.188C858.481 -112.71 876.205 -112.582 893.925 -111.734C911.634 -110.96 929.334 -109.37 946.979 -106.9C964.486 -104.334 981.875 -100.804 999.052 -96.1801C1016.04 -91.3009 1032.77 -85.2279 1049.17 -77.8917" stroke="url(#paint9_linear_2315_53620)" stroke-opacity="0.8" stroke-width="2" stroke-linecap="round" stroke-dasharray="1 9"/>
<path opacity="0.76" d="M1065.86 -25.5088C1080.61 -17.1553 1094.61 -7.81999 1107.76 2.50328C1120.58 13.2096 1132.6 24.8636 1143.77 37.4681C1165.13 63.8093 1183.19 93.608 1197.89 126.08C1211.41 159.663 1221.68 195.272 1228.59 231.922C1234.35 268.776 1236.66 305.889 1235.34 342.206C1232.74 377.78 1226.18 411.87 1215.52 443.679C1203.34 474.164 1186.9 502.062 1166.22 526.977C1144.3 550.734 1118.52 571.87 1089.36 590.369C1074.71 599.529 1059.39 608.218 1043.51 616.463C1027.79 624.846 1011.68 632.903 995.233 640.631C979.223 648.699 963.39 656.396 947.883 663.71C932.921 671.488 918.345 678.933 904.21 686.024C877.826 701.707 853.291 715.87 830.783 728.142C810.529 741.81 791.81 752.857 774.508 760.729C750.894 771.4 706.432 772.948 683.49 763.714C667.195 756.798 649.53 746.632 630.314 733.754C609.26 722.545 586.015 709.541 560.636 695.243C547.066 689.048 532.895 682.619 518.238 675.986C502.974 669.983 487.242 663.755 471.095 657.279C454.43 651.37 437.879 645.246 421.497 638.882C404.827 632.899 388.499 626.512 372.589 619.716C340.535 606.482 311.017 590.676 284.665 572.213C259.206 552.944 237.507 530.444 219.875 505.043C203.703 478.417 191.685 449.033 183.834 417.737C177.455 385.609 175.08 352.125 176.587 318.329C179.417 284.408 185.955 250.827 196.102 218.44C207.419 186.597 222.194 156.41 240.388 128.577C249.865 114.95 260.163 101.951 271.248 89.6213C282.554 77.4805 294.683 66.0059 307.548 55.261C320.591 44.6332 334.105 34.9628 347.973 26.1843C361.922 17.4745 376.241 9.63633 390.813 2.6042C420.082 -11.5266 450.359 -22.7146 481.147 -31.2769C511.867 -40.4534 543.144 -47.3834 574.711 -52.3273C606.175 -58.3333 638.116 -62.6123 670.337 -65.2611C702.624 -69.211 735.484 -71.6296 768.626 -72.418C801.956 -74.3672 835.748 -74.5318 869.621 -72.543C903.536 -71.1776 937.422 -67.1615 970.715 -59.9988C987.216 -56.3495 1003.49 -51.7432 1019.49 -46.1566C1035.3 -40.3856 1050.77 -33.5165 1065.82 -25.5058" stroke="url(#paint10_linear_2315_53620)" stroke-opacity="0.8" stroke-width="2" stroke-linecap="round" stroke-dasharray="7 7"/>
<path opacity="0.15" d="M1075.86 26.0736C1102.36 43.937 1125.48 65.2782 1145.17 89.5922C1163.6 115.192 1178.56 143.615 1190.11 174.149C1200.41 205.575 1207.38 238.551 1210.95 272.196C1213.39 306.002 1212.41 339.748 1207.94 372.554C1202.28 404.717 1193 435.324 1180.02 463.608C1165.81 490.837 1147.87 515.518 1126.37 537.258C1103.96 558.109 1078.28 576.351 1049.83 591.981C1021.36 607.592 990.937 621.406 959.21 633.492C928.788 646.895 899.397 658.677 871.623 669.077C845.831 681.236 821.784 691.843 799.704 700.708C779.454 710.959 760.791 718.836 743.655 723.984C720.117 731.122 676.81 728.849 655.131 719.27C639.786 712.38 623.366 702.581 605.741 690.266C586.351 679.372 565.146 666.624 542.148 652.377C516.942 640.193 489.796 626.81 461.177 612.206C430.761 599.436 401.007 585.498 372.645 570.293C343.859 555.672 317.428 538.912 293.992 520.045C271.28 500.666 252.119 478.687 236.831 454.498C222.825 429.417 212.806 402.238 206.816 373.596C202.224 344.398 201.48 314.226 204.535 283.886C208.807 253.59 216.677 223.709 228.023 195.01C240.404 166.882 256.076 140.312 274.916 115.996C294.624 92.4202 317.331 71.1553 342.967 52.6886C369.152 34.7595 396.849 20.2043 425.493 8.7663C454.381 -2.65538 484.101 -11.3705 514.312 -17.6754C544.537 -24.4485 575.25 -29.1857 606.188 -32.0342C637.135 -35.8002 668.473 -37.9225 699.994 -38.5302C731.636 -40.2061 763.667 -40.3881 795.769 -39.0169C828.087 -38.5839 860.59 -36.3743 892.889 -32.1406C925.183 -28.3563 957.145 -22.1161 988.256 -13.0033C1018.85 -3.58579 1048.25 9.30679 1075.84 26.055" stroke="url(#paint11_linear_2315_53620)" stroke-opacity="0.8" stroke-width="2" stroke-linecap="round" stroke-dasharray="9 3"/>
<path opacity="0.23" d="M1079.32 75.8868C1103.07 94.2859 1123.37 115.457 1140.18 139.005C1155.78 163.566 1167.92 190.336 1176.6 218.679C1184.1 247.718 1188.21 277.845 1188.99 308.275C1188.67 338.79 1185.07 369.029 1178.14 398.147C1170.18 426.733 1158.86 453.728 1144.3 478.462C1128.74 502.311 1109.98 523.732 1088.22 542.364C1065.75 560.278 1040.59 575.722 1013.2 588.591C985.834 601.538 956.858 612.623 926.848 621.901C897.872 632.386 869.916 641.189 843.491 648.566C818.64 657.52 795.417 664.998 774.019 670.823C754.133 677.998 735.8 683.091 718.979 685.819C695.67 689.765 653.409 684.007 632.724 674.103C618.121 667.195 602.776 657.69 586.503 645.86C568.638 635.227 549.311 622.743 528.506 608.63C505.747 596.143 481.42 582.285 455.944 566.969C428.82 553.148 402.425 538.152 377.408 522.076C351.91 506.497 328.657 489.178 308.168 470.19C288.255 450.974 271.654 429.746 258.661 406.843C246.789 383.409 238.671 358.383 234.345 332.369C231.277 306.019 231.904 279.05 236.166 252.151C241.526 225.376 250.307 199.109 262.407 174.075C275.395 149.564 291.517 126.556 310.603 105.698C330.397 85.5213 353.022 67.5417 378.321 52.1442C404.112 37.3018 431.198 25.5202 459.161 16.6052C487.308 7.73894 516.259 1.37849 545.581 -2.76499C575.001 -7.27765 604.868 -9.88758 634.912 -10.7801C664.999 -12.3826 695.444 -12.463 725.949 -11.0768C756.582 -10.5456 787.447 -8.59355 818.258 -5.1444C849.207 -2.41832 880.111 1.97421 910.601 8.25457C941.016 14.2116 970.824 22.4385 999.539 33.2248C1027.77 44.3003 1054.55 58.4202 1079.32 75.8868Z" stroke="url(#paint12_linear_2315_53620)" stroke-opacity="0.8" stroke-width="2" stroke-linecap="round" stroke-dasharray="1 11"/>
<path opacity="0.72" d="M1076.51 123.063C1097.48 141.617 1115.04 162.346 1129.17 184.812C1142.14 208.127 1151.69 233.029 1157.88 258.979C1162.94 285.46 1164.7 312.601 1163.23 339.713C1160.76 366.861 1155.13 393.498 1146.47 418.923C1136.88 443.924 1124.26 467.315 1108.79 488.518C1092.52 509.031 1073.5 527.253 1051.99 542.844C1029.97 557.932 1005.72 570.65 979.683 580.941C953.699 591.39 926.413 599.967 898.314 606.7C871.036 614.505 844.731 620.663 819.883 625.37C796.221 631.537 774.078 636.205 753.64 639.398C734.355 643.877 716.559 646.513 700.235 647.153C677.339 648.228 636.105 639.31 616.238 629.021C602.322 622.01 587.878 612.701 572.844 601.275C556.339 590.845 538.729 578.625 520.074 564.738C499.632 552.088 478.025 537.963 455.618 522.316C431.736 507.833 408.641 492.246 386.939 475.691C364.74 459.618 344.638 442.103 327.096 423.36C309.977 404.558 295.892 384.231 285.152 362.741C275.315 340.992 268.982 318.157 266.186 294.713C264.425 271.141 266.183 247.24 271.338 223.637C277.449 200.236 286.78 177.467 299.217 155.921C312.454 134.895 328.608 115.369 347.506 97.8095C367.019 80.8792 389.164 66.0336 413.766 53.6083C438.776 41.6712 464.981 32.5543 491.943 25.9922C519.077 19.566 546.912 15.404 575.119 13.2927C603.423 10.8731 632.149 10.2654 660.987 11.2398C689.936 11.6623 719.106 13.5492 748.27 16.7759C777.575 19.3604 807.001 23.3204 836.15 28.6601C865.405 33.485 894.438 39.8479 922.812 47.9176C951.115 55.8081 978.607 65.6876 1004.8 77.8314C1030.49 90.2296 1054.58 105.25 1076.51 123.063Z" stroke="url(#paint13_linear_2315_53620)" stroke-opacity="0.8" stroke-width="2" stroke-linecap="round" stroke-dasharray="5 10"/>
<path opacity="0.15" d="M1067.88 166.732C1086.11 185.154 1101.05 205.141 1112.68 226.302C1123.25 248.127 1130.52 270.996 1134.58 294.452C1137.62 318.308 1137.48 342.414 1134.35 366.213C1130.27 390.008 1123.27 413.093 1113.51 434.925C1102.91 456.394 1089.64 476.265 1073.91 494.105C1057.52 511.37 1038.77 526.547 1017.99 539.284C996.803 551.69 973.834 561.877 949.399 569.796C925.044 577.884 899.617 584.206 873.611 588.689C848.21 594.137 823.756 597.944 800.615 600.376C778.38 604.083 757.523 606.371 738.236 607.336C719.767 609.444 702.692 609.964 686.991 608.816C664.733 607.397 624.656 595.569 605.596 584.868C592.278 577.673 578.72 568.479 564.78 557.411C549.573 547.116 533.625 535.122 516.972 521.531C498.751 508.88 479.765 494.736 460.331 479.047C439.549 464.248 419.697 448.455 401.199 431.831C382.207 415.66 365.181 398.381 350.523 380.173C336.115 362.054 324.509 342.845 315.894 322.93C308.007 302.916 303.317 282.218 301.867 261.284C301.275 240.354 303.914 219.417 309.687 198.948C316.267 178.739 325.846 159.278 338.306 141.056C351.417 123.292 367.246 107.001 385.637 92.5719C404.495 78.7541 425.812 66.8342 449.403 57.1564C473.337 47.95 498.317 41.2889 523.97 36.9437C549.806 32.7315 576.265 30.6148 603.053 30.3425C629.952 29.9018 657.218 31.1223 684.552 33.7895C712.019 36.0829 739.627 39.7427 767.149 44.6651C794.768 49.1106 822.389 54.8558 849.579 61.8695C876.88 68.5239 903.756 76.6008 929.811 86.1722C955.771 95.6477 980.761 106.874 1004.29 120.018C1027.35 133.372 1048.73 148.922 1067.88 166.732Z" stroke="url(#paint14_linear_2315_53620)" stroke-opacity="0.8" stroke-width="2" stroke-linecap="round" stroke-dasharray="5 9"/>
<path opacity="0.21" d="M1053.97 206.228C1069.58 224.173 1082.03 243.14 1091.4 262.841C1099.8 282.992 1105.11 303.736 1107.41 324.651C1108.81 345.837 1107.27 366.944 1102.94 387.524C1097.8 408.073 1090.01 427.782 1079.7 446.169C1068.74 464.292 1055.38 480.874 1039.9 495.522C1023.9 509.793 1005.93 522.111 986.25 532.225C966.303 542.127 944.845 549.995 922.276 555.783C899.765 561.782 876.387 566.081 852.567 568.623C829.179 571.987 806.71 573.799 785.433 574.331C764.791 575.934 745.388 576.231 727.349 575.334C701.836 574.819 657.397 567.951 637.794 561.098C618.711 553.496 581.47 530.386 562.263 515.014C548.342 504.868 533.95 493.134 519.223 479.886C503.168 467.357 486.662 453.38 470.013 437.964C452.235 423.184 435.469 407.561 420.011 391.291C404.108 375.364 390.039 358.646 378.108 341.301C366.314 324.092 357.023 306.201 350.441 287.939C344.393 269.71 341.211 251.173 340.935 232.67C341.341 214.299 344.662 196.14 350.823 178.598C357.629 161.392 367.202 144.998 379.384 129.837C392.076 115.149 407.291 101.865 424.834 90.3395C442.758 79.3282 462.918 70.1266 485.206 62.9771C507.718 56.2789 531.231 51.8426 555.322 49.5116C579.564 47.3391 604.385 47.0584 629.478 48.4475C654.674 49.7485 680.196 52.5981 705.726 56.8107C731.395 60.7318 757.116 65.9306 782.659 72.3238C808.316 78.3793 833.83 85.6393 858.809 94.0519C883.836 102.225 908.333 111.669 931.899 122.428C955.344 133.133 977.676 145.316 998.522 159.066C1018.9 173.017 1037.55 188.738 1053.97 206.228Z" stroke="url(#paint15_linear_2315_53620)" stroke-opacity="0.8" stroke-width="2" stroke-linecap="round" stroke-dasharray="6 3"/>
<path opacity="0.1" d="M1035.47 240.933C1048.59 258.121 1058.76 275.862 1066.09 293.922C1072.6 312.285 1076.27 330.848 1077.17 349.259C1077.3 367.831 1074.78 386.051 1069.73 403.59C1064 421.044 1055.88 437.607 1045.57 452.809C1034.7 467.833 1021.75 481.381 1007.01 493.174C991.834 504.674 975.002 514.41 956.767 522.174C938.333 529.827 918.67 535.631 898.124 539.569C877.644 543.709 856.428 546.236 834.866 547.168C813.647 548.758 793.215 548.92 773.886 547.886C754.976 547.737 737.133 546.438 720.521 544.028C696.695 541.17 654.748 530.494 636.088 522.404C617.854 513.79 582.731 490.064 565.095 474.985C552.421 464.936 539.588 453.499 526.699 440.71C512.7 428.419 498.573 414.811 484.569 399.914C469.596 385.447 455.691 370.328 443.123 354.751C430.098 339.449 418.767 323.578 409.385 307.37C400.047 291.316 392.932 274.883 388.187 258.381C383.818 241.994 381.984 225.577 382.739 209.427C383.974 193.49 387.795 177.938 394.145 163.15C400.999 148.68 410.308 135.127 421.972 122.771C434.053 110.863 448.38 100.293 464.816 91.3897C481.55 82.9308 500.32 76.1728 521.017 71.3145C541.895 66.839 563.653 64.4071 585.941 63.8337C608.32 63.4518 631.243 64.7749 654.383 67.6065C677.63 70.4166 701.108 74.6409 724.595 80.1207C748.145 85.4242 771.729 91.9126 795.042 99.4967C818.418 106.845 841.559 115.302 864.108 124.801C886.662 134.121 908.576 144.566 929.496 156.126C950.25 167.647 969.901 180.424 988.01 194.4C1005.68 208.557 1021.65 224.075 1035.47 240.933Z" stroke="url(#paint16_linear_2315_53620)" stroke-opacity="0.8" stroke-width="2" stroke-linecap="round" stroke-dasharray="4 9"/>
<path opacity="0.53" d="M1013.18 270.457C1023.94 286.605 1032.08 302.927 1037.62 319.237C1042.46 335.733 1044.79 352.105 1044.66 368.072C1043.87 384.123 1040.72 399.647 1035.37 414.327C1029.46 428.968 1021.45 442.608 1011.54 455.002C1001.18 467.201 989.07 478.039 975.403 487.295C961.399 496.341 946.041 503.813 929.489 509.534C912.823 515.186 895.139 519.246 876.732 521.599C858.367 524.134 839.444 525.238 820.21 524.816C801.197 524.961 782.898 523.804 765.532 521.544C740.384 518.713 695.262 509.125 675.255 502.354C656.207 495.493 621.574 476.952 605.429 465.149C588.911 452.754 555.87 422.565 539.097 404.783C527.073 392.908 515.192 379.868 503.639 365.704C491.282 351.884 480.055 337.537 470.089 322.925C459.724 308.526 450.924 293.771 443.856 278.938C434.15 256.836 425.339 213.069 426.567 192.042C430.562 171.839 450.194 135.559 465.593 120.255C476.827 110.812 490.082 102.683 505.216 96.0943C520.563 89.9056 537.706 85.261 556.6 82.406C575.594 79.8812 595.374 79.1526 615.641 80.1095C635.942 81.2241 656.731 83.8816 677.705 87.8877C698.723 91.9336 719.957 97.2595 741.122 103.721C762.342 110.103 783.499 117.562 804.352 125.992C825.276 134.31 845.837 143.593 865.756 153.78C885.662 163.859 904.896 174.91 923.085 186.853C941.106 198.804 958.004 211.733 973.404 225.56C988.444 239.556 1001.82 254.541 1013.18 270.457Z" stroke="url(#paint17_linear_2315_53620)" stroke-opacity="0.8" stroke-width="2" stroke-linecap="round" stroke-dasharray="7 6"/>
<path opacity="0.79" d="M987.946 294.528C1004.63 324.466 1011.92 353.863 1010.69 381.112C1007.41 408.528 996.022 433.06 978.046 452.904C958.655 472.3 933.47 486.622 904.31 494.668C874.697 502.688 841.996 505.236 808.106 501.998C774.775 500.472 743.938 494.483 716.684 485.216C689.87 478.169 665.919 467.487 645.106 453.527C623.45 441.133 603.39 424.776 585.179 404.739C564.569 385.725 544.659 362.723 526.765 336.127C506.317 310.325 490.717 283.264 480.781 256.494C470.508 230.244 467.361 204.44 471.613 180.852C476.687 158.036 489.484 138.029 509.465 122.58C530.225 108.386 557.818 99.2205 591.493 96.508C625.515 94.9078 662.122 99.6569 699.248 109.374C736.529 119.32 774.388 133.799 810.798 151.641C847.244 169.333 882.13 190.477 913.153 214.264C943.528 238.198 969.294 265.229 987.946 294.528Z" stroke="url(#paint18_linear_2315_53620)" stroke-opacity="0.8" stroke-width="2" stroke-linecap="round" stroke-dasharray="10 8"/>
<path opacity="0.19" d="M960.564 313.108C973.476 340.015 978.368 365.545 976.085 388.439C972.214 411.408 961.58 431.289 945.426 446.785C928.248 461.978 906.241 472.595 881.008 477.825C855.434 483.108 827.293 483.61 798.158 478.96C769.312 475.656 742.488 468.342 718.56 458.197C694.808 449.724 673.341 438.13 654.639 423.954C635.124 410.948 617.252 394.755 601.417 375.77C583.723 357.441 567.305 335.982 553.295 311.809C537.352 288.09 525.937 263.85 519.487 240.481C512.633 217.48 511.738 195.524 516.985 176.094C522.685 157.319 534.76 141.477 552.842 130.015C571.399 119.53 595.715 113.754 625.152 113.791C654.826 114.723 686.652 121.215 718.765 132.045C750.95 143.185 783.446 158.304 814.45 176.33C845.402 194.369 874.671 215.306 900.302 238.241C925.283 261.302 946.085 286.597 960.564 313.108Z" stroke="url(#paint19_linear_2315_53620)" stroke-opacity="0.8" stroke-width="2" stroke-linecap="round" stroke-dasharray="3 8"/>
<path opacity="0.33" d="M931.865 326.265C941.472 349.813 944.446 371.484 941.578 390.374C937.552 409.237 928.013 425.023 914.053 436.859C899.362 448.492 880.751 456.119 859.518 459.156C838.037 462.313 814.434 461.308 789.92 455.838C765.588 451.331 742.761 443.361 722.273 432.948C701.733 423.696 683.071 411.806 666.735 397.878C649.729 384.781 634.275 369.181 620.928 351.522C606.204 334.302 593.079 314.703 582.553 293.262C570.589 272.055 562.747 250.957 559.13 231.106C555.071 211.514 555.968 193.373 561.763 177.817C567.751 162.794 578.879 150.692 594.82 142.639C611.011 135.297 631.912 132.206 656.982 134.315C682.161 137.102 708.999 144.664 735.955 155.934C762.905 167.5 789.904 182.518 815.439 199.919C840.834 217.449 864.569 237.314 884.994 258.6C904.904 280.023 921.082 302.908 931.865 326.265Z" stroke="url(#paint20_linear_2315_53620)" stroke-opacity="0.8" stroke-width="2" stroke-linecap="round" stroke-dasharray="6 10"/>
<path opacity="0.42" d="M902.61 334.251C910.133 363.105 899.9 408.448 884.234 423.367C872.127 432.063 856.946 437.342 839.69 438.767C822.287 440.339 803.105 438.402 783.126 432.63C763.208 427.544 744.43 419.484 727.406 409.351C710.293 399.998 694.629 388.44 680.869 375.301C666.624 362.685 653.804 348.185 643.011 332.28C631.256 316.621 621.211 299.292 613.701 280.884C605.186 262.54 600.264 244.829 598.821 228.557C598.042 205.208 615.917 170.02 634.504 160.367C648.218 155.62 665.591 154.609 686.184 158.039C706.821 161.971 728.645 169.915 750.372 180.899C772.069 192.151 793.628 206.287 813.791 222.33C833.779 238.495 852.232 256.5 867.844 275.426C882.986 294.447 895.021 314.387 902.61 334.251Z" stroke="url(#paint21_linear_2315_53620)" stroke-opacity="0.8" stroke-width="2" stroke-linecap="round" stroke-dasharray="3 1"/>
<path opacity="0.96" d="M873.488 337.41C881.692 369.688 874.274 393.877 856.225 406.596C836.928 419.127 808.758 420.711 777.552 409.273C746.38 399.528 718.142 380.035 696.545 356.228C673.569 333.639 655.112 305.137 645.86 274.839C634.094 244.564 634.556 218.102 645.811 200.511C656.843 183.745 679.801 176.967 712.02 184.732C744.292 193.846 779.355 215.668 809.581 243.411C839.206 271.536 863.06 305.176 873.488 337.41Z" stroke="url(#paint22_linear_2315_53620)" stroke-opacity="0.8" stroke-width="2" stroke-linecap="round" stroke-dasharray="1 5"/>
<path opacity="0.45" d="M845.009 336.238C846.739 369.357 806.016 395.433 773.061 385.64C750.267 376.71 729.347 360.162 713.358 340.498C696.568 321.456 683.588 298.393 678.119 275.157C672.401 242.259 701.458 207.9 733.723 214.079C757.222 222.7 782.01 240.851 802.8 263.066C823.179 285.552 838.965 311.806 845.009 336.238Z" stroke="url(#paint23_linear_2315_53620)" stroke-opacity="0.8" stroke-width="2" stroke-linecap="round" stroke-dasharray="6 10"/>
<path opacity="0.43" d="M817.635 331.217C821.591 363.706 799.17 376.732 769.733 361.589C740.129 348.027 714.271 313.185 709.661 281.683C702.638 249.86 720.259 232.888 750.589 245.525C780.742 259.608 811.423 298.426 817.635 331.217Z" stroke="url(#paint24_linear_2315_53620)" stroke-opacity="0.8" stroke-width="2" stroke-linecap="round" stroke-dasharray="9 5"/>
</g>
<defs>
<linearGradient id="paint0_linear_2315_53620" x1="78363.5" y1="-458.738" x2="78363.5" y2="156924" gradientUnits="userSpaceOnUse">
<stop stop-color="#964CC3"/>
<stop offset="1" stop-color="#F42A8B"/>
</linearGradient>
<linearGradient id="paint1_linear_2315_53620" x1="75254.2" y1="4832.43" x2="64589.1" y2="155835" gradientUnits="userSpaceOnUse">
<stop stop-color="#964CC3"/>
<stop offset="1" stop-color="#F42A8B"/>
</linearGradient>
<linearGradient id="paint2_linear_2315_53620" x1="71799.7" y1="9682.41" x2="51367.3" y2="153608" gradientUnits="userSpaceOnUse">
<stop stop-color="#964CC3"/>
<stop offset="1" stop-color="#F42A8B"/>
</linearGradient>
<linearGradient id="paint3_linear_2315_53620" x1="68045.9" y1="14069.7" x2="38788.2" y2="150313" gradientUnits="userSpaceOnUse">
<stop stop-color="#964CC3"/>
<stop offset="1" stop-color="#F42A8B"/>
</linearGradient>
<linearGradient id="paint4_linear_2315_53620" x1="64040.9" y1="17977.3" x2="26934.3" y2="146032" gradientUnits="userSpaceOnUse">
<stop stop-color="#964CC3"/>
<stop offset="1" stop-color="#F42A8B"/>
</linearGradient>
<linearGradient id="paint5_linear_2315_53620" x1="59830.2" y1="21391.4" x2="15881.2" y2="140841" gradientUnits="userSpaceOnUse">
<stop stop-color="#964CC3"/>
<stop offset="1" stop-color="#F42A8B"/>
</linearGradient>
<linearGradient id="paint6_linear_2315_53620" x1="55464.1" y1="24303.5" x2="5702.12" y2="134822" gradientUnits="userSpaceOnUse">
<stop stop-color="#964CC3"/>
<stop offset="1" stop-color="#F42A8B"/>
</linearGradient>
<linearGradient id="paint7_linear_2315_53620" x1="50990" y1="26708.3" x2="-3549.34" y2="128084" gradientUnits="userSpaceOnUse">
<stop stop-color="#964CC3"/>
<stop offset="1" stop-color="#F42A8B"/>
</linearGradient>
<linearGradient id="paint8_linear_2315_53620" x1="46459.6" y1="28607.1" x2="-11828.6" y2="120739" gradientUnits="userSpaceOnUse">
<stop stop-color="#964CC3"/>
<stop offset="1" stop-color="#F42A8B"/>
</linearGradient>
<linearGradient id="paint9_linear_2315_53620" x1="41918.2" y1="30002" x2="-19098.1" y2="112884" gradientUnits="userSpaceOnUse">
<stop stop-color="#964CC3"/>
<stop offset="1" stop-color="#F42A8B"/>
</linearGradient>
<linearGradient id="paint10_linear_2315_53620" x1="37415.9" y1="30903.1" x2="-25312" y2="104608" gradientUnits="userSpaceOnUse">
<stop stop-color="#964CC3"/>
<stop offset="1" stop-color="#F42A8B"/>
</linearGradient>
<linearGradient id="paint11_linear_2315_53620" x1="32989.4" y1="31314.4" x2="-30454.8" y2="96011" gradientUnits="userSpaceOnUse">
<stop stop-color="#964CC3"/>
<stop offset="1" stop-color="#F42A8B"/>
</linearGradient>
<linearGradient id="paint12_linear_2315_53620" x1="28709.7" y1="31276.3" x2="-34560.3" y2="87292.2" gradientUnits="userSpaceOnUse">
<stop stop-color="#964CC3"/>
<stop offset="1" stop-color="#F42A8B"/>
</linearGradient>
<linearGradient id="paint13_linear_2315_53620" x1="24605.3" y1="30799.7" x2="-37600.3" y2="78497.2" gradientUnits="userSpaceOnUse">
<stop stop-color="#964CC3"/>
<stop offset="1" stop-color="#F42A8B"/>
</linearGradient>
<linearGradient id="paint14_linear_2315_53620" x1="20716.6" y1="29910.6" x2="-39588.6" y2="69735.1" gradientUnits="userSpaceOnUse">
<stop stop-color="#964CC3"/>
<stop offset="1" stop-color="#F42A8B"/>
</linearGradient>
<linearGradient id="paint15_linear_2315_53620" x1="17080.5" y1="28637.8" x2="-40549.7" y2="61110.8" gradientUnits="userSpaceOnUse">
<stop stop-color="#964CC3"/>
<stop offset="1" stop-color="#F42A8B"/>
</linearGradient>
<linearGradient id="paint16_linear_2315_53620" x1="13732.1" y1="27015.8" x2="-40519.1" y2="52729.7" gradientUnits="userSpaceOnUse">
<stop stop-color="#964CC3"/>
<stop offset="1" stop-color="#F42A8B"/>
</linearGradient>
<linearGradient id="paint17_linear_2315_53620" x1="10700.9" y1="25078.2" x2="-39486.8" y2="44665.7" gradientUnits="userSpaceOnUse">
<stop stop-color="#964CC3"/>
<stop offset="1" stop-color="#F42A8B"/>
</linearGradient>
<linearGradient id="paint18_linear_2315_53620" x1="8006.08" y1="22840.4" x2="-37611.6" y2="37031.2" gradientUnits="userSpaceOnUse">
<stop stop-color="#964CC3"/>
<stop offset="1" stop-color="#F42A8B"/>
</linearGradient>
<linearGradient id="paint19_linear_2315_53620" x1="5690.23" y1="20396.7" x2="-34919.4" y2="29951.5" gradientUnits="userSpaceOnUse">
<stop stop-color="#964CC3"/>
<stop offset="1" stop-color="#F42A8B"/>
</linearGradient>
<linearGradient id="paint20_linear_2315_53620" x1="3759.55" y1="17759.8" x2="-31468.2" y2="23465.5" gradientUnits="userSpaceOnUse">
<stop stop-color="#964CC3"/>
<stop offset="1" stop-color="#F42A8B"/>
</linearGradient>
<linearGradient id="paint21_linear_2315_53620" x1="2225.43" y1="14972.1" x2="-27058.2" y2="17616.5" gradientUnits="userSpaceOnUse">
<stop stop-color="#964CC3"/>
<stop offset="1" stop-color="#F42A8B"/>
</linearGradient>
<linearGradient id="paint22_linear_2315_53620" x1="1105.84" y1="12075.7" x2="-22597.8" y2="12539.1" gradientUnits="userSpaceOnUse">
<stop stop-color="#964CC3"/>
<stop offset="1" stop-color="#F42A8B"/>
</linearGradient>
<linearGradient id="paint23_linear_2315_53620" x1="415.281" y1="8765.06" x2="-16683.6" y2="7892.89" gradientUnits="userSpaceOnUse">
<stop stop-color="#964CC3"/>
<stop offset="1" stop-color="#F42A8B"/>
</linearGradient>
<linearGradient id="paint24_linear_2315_53620" x1="108.952" y1="6150.31" x2="-11633.7" y2="4716.81" gradientUnits="userSpaceOnUse">
<stop stop-color="#964CC3"/>
<stop offset="1" stop-color="#F42A8B"/>
</linearGradient>
<clipPath id="clip0_2315_53620">
<rect width="1440" height="1391" fill="white"/>
</clipPath>
</defs>
</svg>
