<svg width="30" height="30" viewBox="0 0 30 30" fill="none" xmlns="http://www.w3.org/2000/svg">
<path d="M16.2857 2.50154C17.1979 2.49804 18.1101 2.50721 19.022 2.52904L19.2645 2.53779C19.5445 2.54779 19.8207 2.56029 20.1545 2.57529C21.4845 2.63779 22.392 2.84779 23.1882 3.15654C24.0132 3.47404 24.7082 3.90404 25.4032 4.59904C26.0387 5.22355 26.5305 5.97897 26.8445 6.81279C27.1532 7.60904 27.3632 8.51779 27.4257 9.84779C27.4407 10.1803 27.4532 10.4578 27.4632 10.7378L27.4707 10.9803C27.4929 11.8918 27.5025 12.8035 27.4995 13.7153L27.5007 14.6478V16.2853C27.5038 17.1975 27.4942 18.1096 27.472 19.0215L27.4645 19.264C27.4545 19.544 27.442 19.8203 27.427 20.154C27.3645 21.484 27.152 22.3915 26.8445 23.1878C26.5315 24.0225 26.0396 24.7785 25.4032 25.4028C24.7782 26.0382 24.0224 26.53 23.1882 26.844C22.392 27.1528 21.4845 27.3628 20.1545 27.4253C19.8207 27.4403 19.5445 27.4528 19.2645 27.4628L19.022 27.4703C18.1101 27.4925 17.1979 27.5021 16.2857 27.499L15.3532 27.5003H13.717C12.8048 27.5034 11.8926 27.4938 10.9807 27.4715L10.7382 27.464C10.4415 27.4533 10.1448 27.4408 9.84822 27.4265C8.51822 27.364 7.61072 27.1515 6.81322 26.844C5.97908 26.5307 5.22352 26.0388 4.59947 25.4028C3.96328 24.7781 3.471 24.0222 3.15697 23.1878C2.84822 22.3915 2.63822 21.484 2.57572 20.154C2.5618 19.8574 2.5493 19.5608 2.53822 19.264L2.53197 19.0215C2.50893 18.1096 2.49851 17.1975 2.50072 16.2853V13.7153C2.49723 12.8035 2.5064 11.8918 2.52822 10.9803L2.53697 10.7378C2.54697 10.4578 2.55947 10.1803 2.57447 9.84779C2.63697 8.51654 2.84697 7.61029 3.15572 6.81279C3.46994 5.97856 3.96318 5.22334 4.60072 4.60029C5.22434 3.96373 5.97942 3.471 6.81322 3.15654C7.61072 2.84779 8.51697 2.63779 9.84822 2.57529L10.7382 2.53779L10.9807 2.53154C11.8922 2.5085 12.804 2.49809 13.7157 2.50029L16.2857 2.50154ZM15.0007 8.75154C14.1726 8.73983 13.3504 8.89282 12.5819 9.20162C11.8135 9.51043 11.114 9.96889 10.5243 10.5504C9.93453 11.1318 9.46622 11.8247 9.14658 12.5887C8.82694 13.3528 8.66234 14.1727 8.66234 15.0009C8.66234 15.8291 8.82694 16.6491 9.14658 17.4131C9.46622 18.1771 9.93453 18.87 10.5243 19.4515C11.114 20.0329 11.8135 20.4914 12.5819 20.8002C13.3504 21.109 14.1726 21.262 15.0007 21.2503C16.6583 21.2503 18.248 20.5918 19.4201 19.4197C20.5922 18.2476 21.2507 16.6579 21.2507 15.0003C21.2507 13.3427 20.5922 11.753 19.4201 10.5809C18.248 9.40877 16.6583 8.75154 15.0007 8.75154ZM15.0007 11.2515C15.4989 11.2424 15.9938 11.3325 16.4567 11.5168C16.9196 11.7011 17.3411 11.9757 17.6967 12.3247C18.0522 12.6737 18.3347 13.0901 18.5275 13.5495C18.7204 14.0089 18.8197 14.5021 18.8198 15.0003C18.8199 15.4985 18.7207 15.9917 18.528 16.4512C18.3353 16.9106 18.053 17.3271 17.6976 17.6762C17.3422 18.0253 16.9207 18.3001 16.4579 18.4845C15.995 18.669 15.5001 18.7593 15.002 18.7503C14.0074 18.7503 13.0536 18.3552 12.3503 17.6519C11.6471 16.9487 11.252 15.9949 11.252 15.0003C11.252 14.0057 11.6471 13.0519 12.3503 12.3486C13.0536 11.6454 14.0074 11.2503 15.002 11.2503L15.0007 11.2515ZM21.5632 6.87654C21.16 6.89268 20.7786 7.06423 20.499 7.35525C20.2194 7.64628 20.0632 8.03421 20.0632 8.43779C20.0632 8.84137 20.2194 9.2293 20.499 9.52032C20.7786 9.81135 21.16 9.9829 21.5632 9.99904C21.9776 9.99904 22.3751 9.83442 22.6681 9.54139C22.9611 9.24837 23.1257 8.85094 23.1257 8.43654C23.1257 8.02214 22.9611 7.62471 22.6681 7.33168C22.3751 7.03866 21.9776 6.87404 21.5632 6.87404V6.87654Z" fill="#9747FF"/>
</svg>
