<svg width="48" height="48" viewBox="0 0 48 48" fill="none" xmlns="http://www.w3.org/2000/svg">
<g clip-path="url(#clip0_4157_61193)">
<path fill-rule="evenodd" clip-rule="evenodd" d="M10.4902 32V36C10.4902 36.5304 10.7009 37.0391 11.076 37.4142C11.4511 37.7893 11.9598 38 12.4902 38H42.4902C43.0207 38 43.5294 37.7893 43.9044 37.4142C44.2795 37.0391 44.4902 36.5304 44.4902 36V20C44.4902 19.4696 44.2795 18.9609 43.9044 18.5858C43.5294 18.2107 43.0207 18 42.4902 18H40.0002V21.669C40.2746 22.0774 40.6453 22.4121 41.0795 22.6435C41.5137 22.8749 41.9982 22.996 42.4902 22.996V33C41.6975 33.0045 40.9388 33.3225 40.3799 33.8847C39.821 34.4468 39.5072 35.2073 39.5072 36H15.4852C15.4752 35.2116 15.1553 34.4589 14.5947 33.9046C14.034 33.3503 13.2777 33.039 12.4892 33.038V32H10.4902Z" fill="white"/>
<path d="M25 20C25 21.0609 24.5786 22.0783 23.8284 22.8284C23.0783 23.5786 22.0609 24 21 24C19.9391 24 18.9217 23.5786 18.1716 22.8284C17.4214 22.0783 17 21.0609 17 20C17 18.9391 17.4214 17.9217 18.1716 17.1716C18.9217 16.4214 19.9391 16 21 16C22.0609 16 23.0783 16.4214 23.8284 17.1716C24.5786 17.9217 25 18.9391 25 20Z" fill="white"/>
<path fill-rule="evenodd" clip-rule="evenodd" d="M6 10C5.46957 10 4.96086 10.2107 4.58579 10.5858C4.21071 10.9609 4 11.4696 4 12V28C4 28.5304 4.21071 29.0391 4.58579 29.4142C4.96086 29.7893 5.46957 30 6 30H36C36.5304 30 37.0391 29.7893 37.4142 29.4142C37.7893 29.0391 38 28.5304 38 28V12C38 11.4696 37.7893 10.9609 37.4142 10.5858C37.0391 10.2107 36.5304 10 36 10H6ZM8.998 12H33.001C33.0021 12.7948 33.3185 13.5567 33.8807 14.1184C34.443 14.6801 35.2052 14.9957 36 14.996V25C35.2073 25.0045 34.4486 25.3225 33.8897 25.8847C33.3307 26.4468 33.017 27.2073 33.017 28H8.996C8.98601 27.2116 8.66609 26.4589 8.10542 25.9046C7.54475 25.3503 6.78842 25.039 6 25.038V15C6.7953 14.9995 7.55785 14.6832 8.12003 14.1206C8.6822 13.5581 8.998 12.7953 8.998 12Z" fill="white"/>
</g>
<defs>
<clipPath id="clip0_4157_61193">
<rect width="48" height="48" fill="white"/>
</clipPath>
</defs>
</svg>
