<svg width="48" height="48" viewBox="0 0 48 48" fill="none" xmlns="http://www.w3.org/2000/svg">
<path d="M32.227 33.1324C32.247 33.2124 32.247 33.2914 32.247 33.3714V37.1414H4.5V33.3714C4.5 32.1074 5.276 30.9634 6.46 30.4964L14.379 27.3624C15.424 26.9544 15.702 25.5714 14.857 24.8154C13.305 23.4224 12.29 21.1344 12.29 18.5474C12.29 14.2994 15.016 10.8574 18.378 10.8574C21.731 10.8574 24.457 14.2994 24.457 18.5474C24.457 21.1344 23.442 23.4224 21.89 24.8154C21.045 25.5714 21.323 26.9544 22.368 27.3624L28.844 29.9194V29.9294" stroke="white" stroke-linecap="round" stroke-linejoin="round"/>
<path d="M34.9209 14.4368C33.3519 15.7598 31.8849 16.5938 27.9739 17.3568C27.7956 17.3903 27.6345 17.4849 27.5184 17.6243C27.4023 17.7638 27.3385 17.9393 27.3379 18.1208V25.1588C27.3379 29.6218 31.4479 34.0298 35.4189 34.0298C39.2599 34.0298 43.5009 29.6218 43.5009 25.1588V18.1208C43.5 17.9394 43.4359 17.7639 43.3197 17.6247C43.2034 17.4854 43.0422 17.391 42.8639 17.3578C38.9539 16.5938 37.4869 15.7598 35.9189 14.4368C35.7787 14.3199 35.6019 14.2559 35.4194 14.2559C35.2368 14.2559 35.0611 14.3199 34.9209 14.4368Z" stroke="white" stroke-linecap="round" stroke-linejoin="round"/>
<path d="M40.0216 21.502L34.3736 26.89L31.9316 24.447" stroke="white" stroke-linecap="round" stroke-linejoin="round"/>
</svg>
