<svg width="48" height="48" viewBox="0 0 48 48" fill="none" xmlns="http://www.w3.org/2000/svg">
<g clip-path="url(#clip0_4157_61200)">
<path d="M27 39H39V42H27V39ZM27 33H45V36H27V33ZM27 27H45V30H27V27Z" fill="white"/>
<path d="M30.8234 16.8255L23.9999 3L17.1764 16.8255L1.91992 19.0425L12.9599 29.805L10.3529 45L20.9999 39.4035V36.0135L14.3384 39.516L15.9164 30.312L16.1834 28.7565L15.0539 27.657L8.36692 21.1365L17.6084 19.794L19.1684 19.5675L19.8674 18.153L23.9999 9.7785L28.1324 18.153L28.8314 19.5675L30.3914 19.794L41.5724 21.4215L41.9999 18.45L30.8234 16.8255Z" fill="white"/>
</g>
<defs>
<clipPath id="clip0_4157_61200">
<rect width="48" height="48" fill="white"/>
</clipPath>
</defs>
</svg>
