<svg width="48" height="48" viewBox="0 0 48 48" fill="none" xmlns="http://www.w3.org/2000/svg">
<path d="M38 38H10V10H38M38 6H10C8.93913 6 7.92172 6.42143 7.17157 7.17157C6.42143 7.92172 6 8.93913 6 10V38C6 39.0609 6.42143 40.0783 7.17157 40.8284C7.92172 41.5786 8.93913 42 10 42H38C39.0609 42 40.0783 41.5786 40.8284 40.8284C41.5786 40.0783 42 39.0609 42 38V10C42 8.93913 41.5786 7.92172 40.8284 7.17157C40.0783 6.42143 39.0609 6 38 6ZM33 32.5C33 29.5 27 28 24 28C21 28 15 29.5 15 32.5V34H33M24 24.5C25.1935 24.5 26.3381 24.0259 27.182 23.182C28.0259 22.3381 28.5 21.1935 28.5 20C28.5 18.8065 28.0259 17.6619 27.182 16.818C26.3381 15.9741 25.1935 15.5 24 15.5C22.8065 15.5 21.6619 15.9741 20.818 16.818C19.9741 17.6619 19.5 18.8065 19.5 20C19.5 21.1935 19.9741 22.3381 20.818 23.182C21.6619 24.0259 22.8065 24.5 24 24.5Z" fill="white"/>
</svg>
